<?xml version="1.0" encoding="UTF-8"?>
<!-- Generator: visioncortex VTracer 0.6.3 -->
<svg version="1.1" xmlns="http://www.w3.org/2000/svg" width="768" height="1280">
<path d="M0 0 C0.89 -0 1.78 -0 2.7 -0 C5.68 -0.01 8.65 -0.01 11.62 -0 C13.76 -0 15.9 -0.01 18.04 -0.01 C23.83 -0.01 29.63 -0.01 35.43 -0.01 C41.5 -0 47.57 -0.01 53.64 -0.01 C63.83 -0.01 74.02 -0.01 84.21 -0 C95.99 0 107.77 0 119.55 -0.01 C129.67 -0.01 139.79 -0.01 149.91 -0.01 C155.95 -0.01 161.99 -0.01 168.03 -0.01 C173.71 -0.01 179.39 -0.01 185.07 -0 C187.15 -0 189.24 -0 191.32 -0.01 C194.17 -0.01 197.01 -0 199.86 0 C200.68 -0 201.5 -0 202.35 -0.01 C206.98 0.01 211.36 0.36 215.93 1.13 C215.93 1.79 215.93 2.45 215.93 3.13 C216.55 3.21 217.17 3.29 217.8 3.38 C220.6 4.36 220.65 5.56 221.93 8.13 C223.98 8.93 223.98 8.93 225.93 9.13 C226.01 9.68 226.09 10.24 226.18 10.81 C227.18 13.89 228.9 15.78 230.99 18.25 C234.93 22.92 234.93 22.92 234.93 25.13 C235.59 25.13 236.25 25.13 236.93 25.13 C237.95 26.44 238.95 27.78 239.93 29.13 C240.59 29.46 241.25 29.79 241.93 30.13 C241.93 31.34 241.93 31.34 241.94 32.58 C242.02 52.3 242.11 72.01 242.22 91.72 C242.27 101.25 242.31 110.79 242.35 120.32 C242.38 128.63 242.42 136.94 242.47 145.24 C242.5 149.64 242.52 154.04 242.53 158.44 C242.55 162.58 242.57 166.72 242.6 170.86 C242.61 172.38 242.61 173.9 242.61 175.42 C242.62 177.5 242.63 179.57 242.65 181.65 C242.66 182.81 242.66 183.97 242.67 185.17 C242.92 188.06 243.35 189.71 244.93 192.13 C246.73 193.45 246.73 193.45 248.8 194.5 C254.29 197.74 256.9 202.17 258.93 208.13 C259.18 210.97 259.18 210.97 259.18 214.15 C259.19 215.37 259.19 216.59 259.2 217.85 C259.2 219.2 259.19 220.55 259.19 221.91 C259.19 223.35 259.2 224.79 259.2 226.24 C259.21 230.22 259.21 234.2 259.2 238.19 C259.2 242.52 259.21 246.84 259.22 251.17 C259.23 258.76 259.24 266.35 259.23 273.94 C259.23 285.23 259.24 296.52 259.26 307.81 C259.28 330.32 259.29 352.83 259.3 375.33 C259.3 376.5 259.3 377.67 259.3 378.87 C259.3 380.04 259.3 381.21 259.3 382.41 C259.3 395.35 259.31 408.29 259.31 421.23 C259.33 460.3 259.35 499.37 259.35 538.44 C259.35 539.69 259.35 540.94 259.35 542.23 C259.35 547.29 259.35 552.36 259.35 557.43 C259.35 561.24 259.35 565.05 259.35 568.87 C259.35 570.13 259.35 571.39 259.36 572.69 C259.36 612.28 259.38 651.88 259.42 691.47 C259.46 735.94 259.48 780.4 259.48 824.87 C259.48 829.61 259.48 834.35 259.48 839.09 C259.48 840.26 259.48 841.42 259.48 842.63 C259.48 861.42 259.5 880.22 259.52 899.01 C259.55 917.9 259.55 936.79 259.54 955.68 C259.53 966.9 259.53 978.12 259.56 989.35 C259.57 996.85 259.57 1004.34 259.56 1011.84 C259.55 1016.11 259.54 1020.38 259.56 1024.65 C259.58 1028.55 259.58 1032.44 259.56 1036.33 C259.55 1037.72 259.56 1039.12 259.57 1040.51 C259.76 1061.08 247.88 1076.79 234.24 1091.25 C228.76 1096.63 222.56 1100.33 215.93 1104.13 C210.63 1107.23 210.63 1107.23 205.93 1111.13 C205.93 1110.47 205.93 1109.81 205.93 1109.13 C204.73 1110.12 204.73 1110.12 204.68 1112.06 C203.93 1114.13 203.93 1114.13 201.92 1115.24 C198.05 1116.39 194.34 1116.43 190.34 1116.43 C189.11 1116.43 189.11 1116.43 187.85 1116.44 C186.11 1116.45 184.38 1116.45 182.65 1116.44 C180 1116.44 177.36 1116.46 174.72 1116.49 C173.03 1116.49 171.34 1116.49 169.65 1116.49 C168.87 1116.5 168.08 1116.51 167.27 1116.52 C162.43 1116.48 159.14 1115.77 154.93 1113.13 C153.46 1111.26 153.46 1111.26 152.43 1109.25 C149.95 1104.93 147.08 1101.25 142.2 1099.51 C139.02 1098.97 135.94 1098.98 132.72 1098.97 C132 1098.96 131.28 1098.96 130.54 1098.95 C128.16 1098.94 125.79 1098.93 123.41 1098.92 C121.76 1098.92 120.1 1098.91 118.44 1098.91 C114.97 1098.9 111.5 1098.89 108.02 1098.89 C103.59 1098.88 99.15 1098.86 94.72 1098.83 C91.29 1098.81 87.87 1098.8 84.45 1098.8 C82.81 1098.8 81.18 1098.79 79.54 1098.78 C66.29 1098.22 66.29 1098.22 54.91 1104.03 C54.24 1105.04 54.24 1105.04 53.55 1106.06 C53.09 1106.73 52.63 1107.4 52.16 1108.09 C50.88 1110.09 50.88 1110.09 50.08 1112.26 C48.42 1114.95 46.95 1115.21 43.93 1116.13 C41.04 1116.33 38.26 1116.43 35.37 1116.43 C34.14 1116.43 34.14 1116.43 32.89 1116.44 C31.16 1116.45 29.43 1116.45 27.7 1116.44 C25.07 1116.44 22.44 1116.46 19.81 1116.49 C18.12 1116.49 16.44 1116.49 14.75 1116.49 C13.97 1116.5 13.19 1116.51 12.39 1116.52 C7.18 1116.47 3.59 1115.46 -1.07 1113.13 C-1.07 1112.47 -1.07 1111.81 -1.07 1111.13 C-2.71 1109.77 -2.71 1109.77 -4.88 1108.44 C-5.71 1107.91 -6.53 1107.37 -7.38 1106.82 C-9.16 1105.7 -10.94 1104.59 -12.73 1103.49 C-31.42 1091.93 -49.2 1073.95 -54.64 1051.79 C-55.11 1048.87 -55.2 1046.11 -55.2 1043.15 C-55.2 1041.94 -55.2 1040.73 -55.21 1039.49 C-55.21 1038.15 -55.2 1036.81 -55.2 1035.47 C-55.2 1034.03 -55.21 1032.6 -55.21 1031.17 C-55.21 1027.22 -55.21 1023.28 -55.21 1019.33 C-55.21 1015.04 -55.22 1010.75 -55.22 1006.46 C-55.23 997.94 -55.23 989.43 -55.23 980.91 C-55.23 970.72 -55.24 960.52 -55.24 950.33 C-55.26 925.68 -55.27 901.04 -55.27 876.39 C-55.27 864.74 -55.28 853.08 -55.28 841.43 C-55.29 801.55 -55.3 761.67 -55.31 721.79 C-55.31 719.28 -55.31 716.78 -55.31 714.28 C-55.31 711.77 -55.31 709.26 -55.31 706.75 C-55.31 701.71 -55.31 696.68 -55.31 691.64 C-55.31 690.39 -55.31 689.14 -55.31 687.86 C-55.31 647.36 -55.33 606.86 -55.35 566.36 C-55.38 523.55 -55.39 480.75 -55.39 437.95 C-55.39 433.25 -55.39 428.56 -55.39 423.86 C-55.39 422.71 -55.39 421.55 -55.39 420.36 C-55.4 401.73 -55.41 383.1 -55.42 364.47 C-55.44 345.76 -55.44 327.04 -55.43 308.33 C-55.43 297.2 -55.43 286.08 -55.45 274.95 C-55.46 267.53 -55.45 260.1 -55.44 252.67 C-55.44 248.44 -55.44 244.2 -55.45 239.97 C-55.46 236.12 -55.46 232.26 -55.45 228.41 C-55.44 226.37 -55.45 224.34 -55.47 222.3 C-55.41 213.25 -54.37 205.74 -49.01 198.25 C-48.25 197.17 -48.25 197.17 -47.47 196.07 C-47.01 195.43 -46.55 194.79 -46.07 194.13 C-43.93 190.92 -43.79 189.91 -43.66 186.2 C-43.62 185.19 -43.58 184.19 -43.54 183.15 C-43.51 182.05 -43.48 180.95 -43.45 179.81 C-43.41 178.66 -43.37 177.5 -43.34 176.31 C-42.95 163.26 -42.96 150.2 -43 137.14 C-43.01 133.68 -43.02 130.22 -43.02 126.76 C-43.03 118.03 -43.05 109.3 -43.07 100.56 C-43.09 91.07 -43.11 81.58 -43.12 72.08 C-43.13 68.66 -43.13 65.23 -43.15 61.8 C-43.16 58 -43.16 54.2 -43.17 50.39 C-43.18 48.72 -43.18 48.72 -43.18 47.02 C-43.19 29.23 -43.19 29.23 -39.07 24.13 C-38.41 24.13 -37.75 24.13 -37.07 24.13 C-36.92 23.27 -36.92 23.27 -36.77 22.4 C-34.73 15.77 -28.57 10.09 -23.07 6.13 C-22.41 6.13 -21.75 6.13 -21.07 6.13 C-21.07 5.47 -21.07 4.81 -21.07 4.13 C-14.91 -0.54 -7.38 -0.02 0 0 Z M239.93 31.13 C239.93 76.01 239.93 120.89 239.93 167.13 C240.26 167.13 240.59 167.13 240.93 167.13 C240.93 122.25 240.93 77.37 240.93 31.13 C240.6 31.13 240.27 31.13 239.93 31.13 Z M238.93 187.13 C239.93 189.13 239.93 189.13 239.93 189.13 Z M252.93 202.13 C253.93 204.13 253.93 204.13 253.93 204.13 Z M253.93 204.13 C254.93 206.13 254.93 206.13 254.93 206.13 Z M254.93 206.13 C254.93 208.11 254.93 210.09 254.93 212.13 C255.26 212.13 255.59 212.13 255.93 212.13 C255.93 210.15 255.93 208.17 255.93 206.13 C255.6 206.13 255.27 206.13 254.93 206.13 Z M254.93 1046.13 C254.93 1048.77 254.93 1051.41 254.93 1054.13 C255.26 1054.13 255.59 1054.13 255.93 1054.13 C255.93 1051.49 255.93 1048.85 255.93 1046.13 C255.6 1046.13 255.27 1046.13 254.93 1046.13 Z M253.93 1054.13 C254.93 1056.13 254.93 1056.13 254.93 1056.13 Z M252.93 1057.13 C253.93 1059.13 253.93 1059.13 253.93 1059.13 Z M250.93 1061.13 C250.6 1062.45 250.27 1063.77 249.93 1065.13 C250.59 1063.81 251.25 1062.49 251.93 1061.13 C251.6 1061.13 251.27 1061.13 250.93 1061.13 Z M245.93 1070.13 C243.62 1073.1 241.31 1076.07 238.93 1079.13 C239.92 1079.13 240.91 1079.13 241.93 1079.13 C243.39 1077.59 243.39 1077.59 244.62 1075.63 C245.05 1074.98 245.49 1074.33 245.94 1073.66 C246.27 1073.15 246.59 1072.65 246.93 1072.13 C246.6 1071.47 246.27 1070.81 245.93 1070.13 Z M234.91 1083.99 C234.13 1084.8 233.35 1085.61 232.55 1086.44 C229.82 1089.28 227.16 1091.85 223.93 1094.13 C224.26 1094.79 224.59 1095.45 224.93 1096.13 C226.89 1094.36 228.85 1092.59 230.8 1090.81 C231.36 1090.31 231.92 1089.82 232.49 1089.3 C235 1087.02 237.04 1084.96 238.93 1082.13 C236.72 1081.9 236.72 1081.9 234.91 1083.99 Z M55.93 1097.13 C54.29 1099.09 54.29 1099.09 52.93 1101.13 C56.05 1099.82 56.05 1099.82 57.93 1097.13 C57.27 1097.13 56.61 1097.13 55.93 1097.13 Z M220.93 1096.13 C219.28 1097.45 217.63 1098.77 215.93 1100.13 C218.1 1099.62 219.93 1099.13 221.93 1098.13 C221.6 1097.47 221.27 1096.81 220.93 1096.13 Z M213.93 1100.13 C214.26 1100.79 214.59 1101.45 214.93 1102.13 C215.26 1101.47 215.59 1100.81 215.93 1100.13 C215.27 1100.13 214.61 1100.13 213.93 1100.13 Z M50.93 1102.13 C48.78 1103.86 48.78 1103.86 46.93 1106.13 C47.07 1108.35 47.07 1108.35 47.93 1110.13 C50.38 1106.44 50.38 1106.44 50.93 1102.13 Z M209.93 1102.13 C209.6 1102.79 209.27 1103.45 208.93 1104.13 C209.92 1103.8 210.91 1103.47 211.93 1103.13 C211.27 1102.8 210.61 1102.47 209.93 1102.13 Z M155.93 1110.13 C155.93 1110.79 155.93 1111.45 155.93 1112.13 C156.59 1111.8 157.25 1111.47 157.93 1111.13 C157.27 1110.8 156.61 1110.47 155.93 1110.13 Z M47.93 1110.13 C47.6 1110.46 47.27 1110.79 46.93 1111.13 C45.41 1111.36 43.89 1111.54 42.37 1111.69 C41.13 1111.82 41.13 1111.82 39.86 1111.94 C38.91 1112.03 38.91 1112.03 37.93 1112.13 C37.93 1112.46 37.93 1112.79 37.93 1113.13 C41.23 1113.13 44.53 1113.13 47.93 1113.13 C47.93 1112.14 47.93 1111.15 47.93 1110.13 Z M191.93 1112.13 C195.93 1113.13 195.93 1113.13 195.93 1113.13 Z M196.93 1112.13 C200.93 1113.13 200.93 1113.13 200.93 1113.13 Z " fill="#F5BF2E" transform="translate(274.07080078125,115.87301635742188)"/>
<path d="M0 0 C0.89 -0 1.78 -0 2.7 -0 C5.68 -0.01 8.65 -0.01 11.62 -0 C13.76 -0 15.9 -0.01 18.04 -0.01 C23.83 -0.01 29.63 -0.01 35.43 -0.01 C41.5 -0 47.57 -0.01 53.64 -0.01 C63.83 -0.01 74.02 -0.01 84.21 -0 C95.99 0 107.77 0 119.55 -0.01 C129.67 -0.01 139.79 -0.01 149.91 -0.01 C155.95 -0.01 161.99 -0.01 168.03 -0.01 C173.71 -0.01 179.39 -0.01 185.07 -0 C187.15 -0 189.24 -0 191.32 -0.01 C194.17 -0.01 197.01 -0 199.86 0 C200.68 -0 201.5 -0 202.35 -0.01 C206.98 0.01 211.36 0.36 215.93 1.13 C215.93 1.79 215.93 2.45 215.93 3.13 C216.55 3.21 217.17 3.29 217.8 3.38 C220.6 4.36 220.65 5.56 221.93 8.13 C223.98 8.93 223.98 8.93 225.93 9.13 C226.01 9.68 226.09 10.24 226.18 10.81 C227.18 13.89 228.9 15.78 230.99 18.25 C234.93 22.92 234.93 22.92 234.93 25.13 C235.59 25.13 236.25 25.13 236.93 25.13 C237.95 26.44 238.95 27.78 239.93 29.13 C240.59 29.46 241.25 29.79 241.93 30.13 C241.93 31.34 241.93 31.34 241.94 32.58 C242.02 52.3 242.11 72.01 242.22 91.72 C242.27 101.25 242.31 110.79 242.35 120.32 C242.38 128.63 242.42 136.94 242.47 145.24 C242.5 149.64 242.52 154.04 242.53 158.44 C242.55 162.58 242.57 166.72 242.6 170.86 C242.61 172.38 242.61 173.9 242.61 175.42 C242.62 177.5 242.63 179.57 242.65 181.65 C242.66 182.81 242.66 183.97 242.67 185.17 C242.92 188.06 243.35 189.71 244.93 192.13 C246.73 193.45 246.73 193.45 248.8 194.5 C254.29 197.74 256.9 202.17 258.93 208.13 C259.18 210.97 259.18 210.97 259.18 214.15 C259.19 215.37 259.19 216.59 259.2 217.85 C259.2 219.2 259.19 220.55 259.19 221.91 C259.19 223.35 259.2 224.79 259.2 226.24 C259.21 230.22 259.21 234.2 259.2 238.19 C259.2 242.52 259.21 246.84 259.22 251.17 C259.23 258.76 259.24 266.35 259.23 273.94 C259.23 285.23 259.24 296.52 259.26 307.81 C259.28 330.32 259.29 352.83 259.3 375.33 C259.3 376.5 259.3 377.67 259.3 378.87 C259.3 380.04 259.3 381.21 259.3 382.41 C259.3 395.35 259.31 408.29 259.31 421.23 C259.33 460.3 259.35 499.37 259.35 538.44 C259.35 539.69 259.35 540.94 259.35 542.23 C259.35 547.29 259.35 552.36 259.35 557.43 C259.35 561.24 259.35 565.05 259.35 568.87 C259.35 570.13 259.35 571.39 259.36 572.69 C259.36 612.28 259.38 651.88 259.42 691.47 C259.46 735.94 259.48 780.4 259.48 824.87 C259.48 829.61 259.48 834.35 259.48 839.09 C259.48 840.26 259.48 841.42 259.48 842.63 C259.48 861.42 259.5 880.22 259.52 899.01 C259.55 917.9 259.55 936.79 259.54 955.68 C259.53 966.9 259.53 978.12 259.56 989.35 C259.57 996.85 259.57 1004.34 259.56 1011.84 C259.55 1016.11 259.54 1020.38 259.56 1024.65 C259.58 1028.55 259.58 1032.44 259.56 1036.33 C259.55 1037.72 259.56 1039.12 259.57 1040.51 C259.76 1061.08 247.88 1076.79 234.24 1091.25 C228.76 1096.63 222.56 1100.33 215.93 1104.13 C210.63 1107.23 210.63 1107.23 205.93 1111.13 C205.93 1110.47 205.93 1109.81 205.93 1109.13 C204.73 1110.12 204.73 1110.12 204.68 1112.06 C203.93 1114.13 203.93 1114.13 201.92 1115.24 C198.05 1116.39 194.34 1116.43 190.34 1116.43 C189.11 1116.43 189.11 1116.43 187.85 1116.44 C186.11 1116.45 184.38 1116.45 182.65 1116.44 C180 1116.44 177.36 1116.46 174.72 1116.49 C173.03 1116.49 171.34 1116.49 169.65 1116.49 C168.87 1116.5 168.08 1116.51 167.27 1116.52 C162.43 1116.48 159.14 1115.77 154.93 1113.13 C153.46 1111.26 153.46 1111.26 152.43 1109.25 C149.95 1104.93 147.08 1101.25 142.2 1099.51 C139.02 1098.97 135.94 1098.98 132.72 1098.97 C132 1098.96 131.28 1098.96 130.54 1098.95 C128.16 1098.94 125.79 1098.93 123.41 1098.92 C121.76 1098.92 120.1 1098.91 118.44 1098.91 C114.97 1098.9 111.5 1098.89 108.02 1098.89 C103.59 1098.88 99.15 1098.86 94.72 1098.83 C91.29 1098.81 87.87 1098.8 84.45 1098.8 C82.81 1098.8 81.18 1098.79 79.54 1098.78 C66.29 1098.22 66.29 1098.22 54.91 1104.03 C54.24 1105.04 54.24 1105.04 53.55 1106.06 C53.09 1106.73 52.63 1107.4 52.16 1108.09 C50.88 1110.09 50.88 1110.09 50.08 1112.26 C48.42 1114.95 46.95 1115.21 43.93 1116.13 C41.04 1116.33 38.26 1116.43 35.37 1116.43 C34.14 1116.43 34.14 1116.43 32.89 1116.44 C31.16 1116.45 29.43 1116.45 27.7 1116.44 C25.07 1116.44 22.44 1116.46 19.81 1116.49 C18.12 1116.49 16.44 1116.49 14.75 1116.49 C13.97 1116.5 13.19 1116.51 12.39 1116.52 C7.18 1116.47 3.59 1115.46 -1.07 1113.13 C-1.07 1112.47 -1.07 1111.81 -1.07 1111.13 C-2.71 1109.77 -2.71 1109.77 -4.88 1108.44 C-5.71 1107.91 -6.53 1107.37 -7.38 1106.82 C-9.16 1105.7 -10.94 1104.59 -12.73 1103.49 C-31.42 1091.93 -49.2 1073.95 -54.64 1051.79 C-55.11 1048.87 -55.2 1046.11 -55.2 1043.15 C-55.2 1041.94 -55.2 1040.73 -55.21 1039.49 C-55.21 1038.15 -55.2 1036.81 -55.2 1035.47 C-55.2 1034.03 -55.21 1032.6 -55.21 1031.17 C-55.21 1027.22 -55.21 1023.28 -55.21 1019.33 C-55.21 1015.04 -55.22 1010.75 -55.22 1006.46 C-55.23 997.94 -55.23 989.43 -55.23 980.91 C-55.23 970.72 -55.24 960.52 -55.24 950.33 C-55.26 925.68 -55.27 901.04 -55.27 876.39 C-55.27 864.74 -55.28 853.08 -55.28 841.43 C-55.29 801.55 -55.3 761.67 -55.31 721.79 C-55.31 719.28 -55.31 716.78 -55.31 714.28 C-55.31 711.77 -55.31 709.26 -55.31 706.75 C-55.31 701.71 -55.31 696.68 -55.31 691.64 C-55.31 690.39 -55.31 689.14 -55.31 687.86 C-55.31 647.36 -55.33 606.86 -55.35 566.36 C-55.38 523.55 -55.39 480.75 -55.39 437.95 C-55.39 433.25 -55.39 428.56 -55.39 423.86 C-55.39 422.71 -55.39 421.55 -55.39 420.36 C-55.4 401.73 -55.41 383.1 -55.42 364.47 C-55.44 345.76 -55.44 327.04 -55.43 308.33 C-55.43 297.2 -55.43 286.08 -55.45 274.95 C-55.46 267.53 -55.45 260.1 -55.44 252.67 C-55.44 248.44 -55.44 244.2 -55.45 239.97 C-55.46 236.12 -55.46 232.26 -55.45 228.41 C-55.44 226.37 -55.45 224.34 -55.47 222.3 C-55.41 213.25 -54.37 205.74 -49.01 198.25 C-48.25 197.17 -48.25 197.17 -47.47 196.07 C-47.01 195.43 -46.55 194.79 -46.07 194.13 C-43.93 190.92 -43.79 189.91 -43.66 186.2 C-43.62 185.19 -43.58 184.19 -43.54 183.15 C-43.51 182.05 -43.48 180.95 -43.45 179.81 C-43.41 178.66 -43.37 177.5 -43.34 176.31 C-42.95 163.26 -42.96 150.2 -43 137.14 C-43.01 133.68 -43.02 130.22 -43.02 126.76 C-43.03 118.03 -43.05 109.3 -43.07 100.56 C-43.09 91.07 -43.11 81.58 -43.12 72.08 C-43.13 68.66 -43.13 65.23 -43.15 61.8 C-43.16 58 -43.16 54.2 -43.17 50.39 C-43.18 48.72 -43.18 48.72 -43.18 47.02 C-43.19 29.23 -43.19 29.23 -39.07 24.13 C-38.41 24.13 -37.75 24.13 -37.07 24.13 C-36.92 23.27 -36.92 23.27 -36.77 22.4 C-34.73 15.77 -28.57 10.09 -23.07 6.13 C-22.41 6.13 -21.75 6.13 -21.07 6.13 C-21.07 5.47 -21.07 4.81 -21.07 4.13 C-14.91 -0.54 -7.38 -0.02 0 0 Z M239.93 31.13 C239.93 76.01 239.93 120.89 239.93 167.13 C240.26 167.13 240.59 167.13 240.93 167.13 C240.93 122.25 240.93 77.37 240.93 31.13 C240.6 31.13 240.27 31.13 239.93 31.13 Z M238.93 187.13 C239.93 189.13 239.93 189.13 239.93 189.13 Z M252.93 202.13 C253.93 204.13 253.93 204.13 253.93 204.13 Z M253.93 204.13 C254.93 206.13 254.93 206.13 254.93 206.13 Z M254.93 206.13 C254.93 208.11 254.93 210.09 254.93 212.13 C255.26 212.13 255.59 212.13 255.93 212.13 C255.93 210.15 255.93 208.17 255.93 206.13 C255.6 206.13 255.27 206.13 254.93 206.13 Z M-13.07 231.13 C-13.07 231.79 -13.07 232.45 -13.07 233.13 C-13.73 233.13 -14.39 233.13 -15.07 233.13 C-18.42 240.3 -18.49 246.7 -18.45 254.54 C-18.46 255.91 -18.46 257.27 -18.47 258.64 C-18.48 262.4 -18.48 266.15 -18.47 269.91 C-18.46 274 -18.47 278.09 -18.48 282.17 C-18.5 289.34 -18.5 296.5 -18.5 303.66 C-18.49 314.32 -18.5 324.97 -18.51 335.62 C-18.54 355.76 -18.54 375.89 -18.54 396.02 C-18.54 411.57 -18.54 427.11 -18.55 442.66 C-18.55 444.89 -18.55 447.13 -18.55 449.36 C-18.55 450.47 -18.55 451.57 -18.55 452.72 C-18.56 453.83 -18.56 454.94 -18.56 456.08 C-18.56 457.19 -18.56 458.3 -18.56 459.45 C-18.57 490.73 -18.58 522.02 -18.58 553.3 C-18.58 554.48 -18.58 555.66 -18.58 556.88 C-18.57 562.86 -18.57 568.83 -18.57 574.81 C-18.57 576 -18.57 577.19 -18.57 578.41 C-18.57 580.81 -18.57 583.22 -18.57 585.62 C-18.57 622.98 -18.58 660.35 -18.61 697.72 C-18.65 739.69 -18.67 781.66 -18.66 823.63 C-18.66 828.11 -18.66 832.58 -18.66 837.06 C-18.66 838.16 -18.66 839.26 -18.66 840.4 C-18.66 857.04 -18.67 873.68 -18.69 890.32 C-18.71 909.24 -18.72 928.16 -18.7 947.08 C-18.69 957.68 -18.69 968.27 -18.71 978.86 C-18.73 985.93 -18.72 993.01 -18.7 1000.08 C-18.69 1004.11 -18.69 1008.14 -18.71 1012.17 C-18.73 1015.85 -18.72 1019.52 -18.7 1023.19 C-18.69 1025.12 -18.71 1027.05 -18.73 1028.99 C-18.62 1039.52 -15.58 1049.05 -8.95 1057.38 C-5.85 1060.26 -2.25 1062.05 1.54 1063.9 C3.93 1065.13 3.93 1065.13 5.93 1067.13 C5.6 1068.12 5.27 1069.11 4.93 1070.13 C8.56 1072.55 11.21 1072.4 15.41 1072.37 C16.18 1072.38 16.94 1072.38 17.73 1072.38 C20.32 1072.39 22.9 1072.38 25.48 1072.37 C27.33 1072.37 29.18 1072.37 31.02 1072.38 C36.05 1072.38 41.07 1072.37 46.1 1072.36 C51.35 1072.35 56.6 1072.36 61.85 1072.36 C70.67 1072.36 79.49 1072.35 88.31 1072.33 C98.52 1072.32 108.72 1072.31 118.93 1072.31 C128.74 1072.31 138.54 1072.31 148.35 1072.3 C152.53 1072.3 156.71 1072.29 160.89 1072.29 C165.81 1072.29 170.72 1072.29 175.64 1072.28 C177.45 1072.27 179.26 1072.27 181.07 1072.27 C183.53 1072.27 185.99 1072.27 188.45 1072.26 C189.17 1072.26 189.89 1072.26 190.64 1072.27 C193.68 1072.25 196.01 1072.1 198.93 1071.13 C198.6 1069.15 198.27 1067.17 197.93 1065.13 C198.92 1064.92 199.91 1064.71 200.93 1064.5 C208.44 1062.3 213.3 1057.25 217.51 1050.86 C222.18 1041.88 223.51 1034.62 223.43 1024.49 C223.44 1023.12 223.44 1021.76 223.45 1020.39 C223.47 1016.64 223.46 1012.9 223.44 1009.15 C223.43 1005.07 223.45 1000.99 223.46 996.91 C223.47 989.76 223.47 982.61 223.46 975.47 C223.44 964.84 223.45 954.21 223.46 943.58 C223.49 924.59 223.48 905.61 223.47 886.63 C223.46 870.02 223.46 853.4 223.46 836.79 C223.46 835.69 223.47 834.59 223.47 833.45 C223.47 828.98 223.47 824.51 223.47 820.04 C223.48 778.09 223.47 736.14 223.45 694.19 C223.43 656.91 223.43 619.62 223.45 582.34 C223.47 540.47 223.48 498.59 223.47 456.72 C223.47 452.25 223.47 447.79 223.46 443.33 C223.46 441.68 223.46 441.68 223.46 440 C223.46 423.4 223.46 406.79 223.47 390.19 C223.49 371.31 223.48 352.44 223.46 333.56 C223.45 322.99 223.45 312.43 223.46 301.86 C223.47 294.81 223.47 287.75 223.45 280.7 C223.44 276.67 223.44 272.65 223.45 268.63 C223.46 264.97 223.46 261.31 223.44 257.65 C223.43 255.72 223.45 253.78 223.46 251.85 C223.39 243.2 221.71 237.29 216.93 230.13 C212.98 228.81 209.2 228.99 205.08 228.99 C204.17 228.99 203.25 228.99 202.31 228.99 C199.23 228.98 196.15 228.98 193.07 228.98 C190.87 228.98 188.67 228.98 186.47 228.97 C180.47 228.96 174.48 228.96 168.49 228.96 C163.5 228.96 158.5 228.96 153.51 228.95 C142.4 228.94 131.29 228.94 120.18 228.94 C119.52 228.94 118.85 228.94 118.16 228.94 C117.5 228.94 116.83 228.94 116.14 228.94 C105.32 228.94 94.5 228.93 83.67 228.92 C72.57 228.9 61.46 228.9 50.35 228.9 C44.11 228.9 37.88 228.9 31.64 228.88 C25.77 228.88 19.91 228.88 14.05 228.88 C11.89 228.88 9.73 228.88 7.58 228.88 C4.64 228.87 1.71 228.87 -1.23 228.88 C-2.09 228.87 -2.95 228.87 -3.83 228.86 C-7.76 228.89 -9.73 228.9 -13.07 231.13 Z M254.93 1046.13 C254.93 1048.77 254.93 1051.41 254.93 1054.13 C255.26 1054.13 255.59 1054.13 255.93 1054.13 C255.93 1051.49 255.93 1048.85 255.93 1046.13 C255.6 1046.13 255.27 1046.13 254.93 1046.13 Z M253.93 1054.13 C254.93 1056.13 254.93 1056.13 254.93 1056.13 Z M252.93 1057.13 C253.93 1059.13 253.93 1059.13 253.93 1059.13 Z M250.93 1061.13 C250.6 1062.45 250.27 1063.77 249.93 1065.13 C250.59 1063.81 251.25 1062.49 251.93 1061.13 C251.6 1061.13 251.27 1061.13 250.93 1061.13 Z M245.93 1070.13 C243.62 1073.1 241.31 1076.07 238.93 1079.13 C239.92 1079.13 240.91 1079.13 241.93 1079.13 C243.39 1077.59 243.39 1077.59 244.62 1075.63 C245.05 1074.98 245.49 1074.33 245.94 1073.66 C246.27 1073.15 246.59 1072.65 246.93 1072.13 C246.6 1071.47 246.27 1070.81 245.93 1070.13 Z M234.91 1083.99 C234.13 1084.8 233.35 1085.61 232.55 1086.44 C229.82 1089.28 227.16 1091.85 223.93 1094.13 C224.26 1094.79 224.59 1095.45 224.93 1096.13 C226.89 1094.36 228.85 1092.59 230.8 1090.81 C231.36 1090.31 231.92 1089.82 232.49 1089.3 C235 1087.02 237.04 1084.96 238.93 1082.13 C236.72 1081.9 236.72 1081.9 234.91 1083.99 Z M55.93 1097.13 C54.29 1099.09 54.29 1099.09 52.93 1101.13 C56.05 1099.82 56.05 1099.82 57.93 1097.13 C57.27 1097.13 56.61 1097.13 55.93 1097.13 Z M220.93 1096.13 C219.28 1097.45 217.63 1098.77 215.93 1100.13 C218.1 1099.62 219.93 1099.13 221.93 1098.13 C221.6 1097.47 221.27 1096.81 220.93 1096.13 Z M213.93 1100.13 C214.26 1100.79 214.59 1101.45 214.93 1102.13 C215.26 1101.47 215.59 1100.81 215.93 1100.13 C215.27 1100.13 214.61 1100.13 213.93 1100.13 Z M50.93 1102.13 C48.78 1103.86 48.78 1103.86 46.93 1106.13 C47.07 1108.35 47.07 1108.35 47.93 1110.13 C50.38 1106.44 50.38 1106.44 50.93 1102.13 Z M209.93 1102.13 C209.6 1102.79 209.27 1103.45 208.93 1104.13 C209.92 1103.8 210.91 1103.47 211.93 1103.13 C211.27 1102.8 210.61 1102.47 209.93 1102.13 Z M155.93 1110.13 C155.93 1110.79 155.93 1111.45 155.93 1112.13 C156.59 1111.8 157.25 1111.47 157.93 1111.13 C157.27 1110.8 156.61 1110.47 155.93 1110.13 Z M47.93 1110.13 C47.6 1110.46 47.27 1110.79 46.93 1111.13 C45.41 1111.36 43.89 1111.54 42.37 1111.69 C41.13 1111.82 41.13 1111.82 39.86 1111.94 C38.91 1112.03 38.91 1112.03 37.93 1112.13 C37.93 1112.46 37.93 1112.79 37.93 1113.13 C41.23 1113.13 44.53 1113.13 47.93 1113.13 C47.93 1112.14 47.93 1111.15 47.93 1110.13 Z M191.93 1112.13 C195.93 1113.13 195.93 1113.13 195.93 1113.13 Z M196.93 1112.13 C200.93 1113.13 200.93 1113.13 200.93 1113.13 Z " fill="#BDBFB6" transform="translate(274.07080078125,115.87301635742188)"/>
<path d="M0 0 C0.89 -0 1.78 -0 2.7 -0 C5.68 -0.01 8.65 -0.01 11.62 -0 C13.76 -0 15.9 -0.01 18.04 -0.01 C23.83 -0.01 29.63 -0.01 35.43 -0.01 C41.5 -0 47.57 -0.01 53.64 -0.01 C63.83 -0.01 74.02 -0.01 84.21 -0 C95.99 0 107.77 0 119.55 -0.01 C129.67 -0.01 139.79 -0.01 149.91 -0.01 C155.95 -0.01 161.99 -0.01 168.03 -0.01 C173.71 -0.01 179.39 -0.01 185.07 -0 C187.15 -0 189.24 -0 191.32 -0.01 C194.17 -0.01 197.01 -0 199.86 0 C200.68 -0 201.5 -0 202.35 -0.01 C206.98 0.01 211.36 0.36 215.93 1.13 C215.93 1.79 215.93 2.45 215.93 3.13 C216.55 3.21 217.17 3.29 217.8 3.38 C220.6 4.36 220.65 5.56 221.93 8.13 C223.98 8.93 223.98 8.93 225.93 9.13 C226.01 9.68 226.09 10.24 226.18 10.81 C227.18 13.89 228.9 15.78 230.99 18.25 C234.93 22.92 234.93 22.92 234.93 25.13 C235.59 25.13 236.25 25.13 236.93 25.13 C237.95 26.44 238.95 27.78 239.93 29.13 C240.59 29.46 241.25 29.79 241.93 30.13 C241.93 31.34 241.93 31.34 241.94 32.58 C242.02 52.3 242.11 72.01 242.22 91.72 C242.27 101.25 242.31 110.79 242.35 120.32 C242.38 128.63 242.42 136.94 242.47 145.24 C242.5 149.64 242.52 154.04 242.53 158.44 C242.55 162.58 242.57 166.72 242.6 170.86 C242.61 172.38 242.61 173.9 242.61 175.42 C242.62 177.5 242.63 179.57 242.65 181.65 C242.66 182.81 242.66 183.97 242.67 185.17 C242.92 188.06 243.35 189.71 244.93 192.13 C246.73 193.45 246.73 193.45 248.8 194.5 C254.29 197.74 256.9 202.17 258.93 208.13 C259.18 210.97 259.18 210.97 259.18 214.15 C259.19 215.37 259.19 216.59 259.2 217.85 C259.2 219.2 259.19 220.55 259.19 221.91 C259.19 223.35 259.2 224.79 259.2 226.24 C259.21 230.22 259.21 234.2 259.2 238.19 C259.2 242.52 259.21 246.84 259.22 251.17 C259.23 258.76 259.24 266.35 259.23 273.94 C259.23 285.23 259.24 296.52 259.26 307.81 C259.28 330.32 259.29 352.83 259.3 375.33 C259.3 376.5 259.3 377.67 259.3 378.87 C259.3 380.04 259.3 381.21 259.3 382.41 C259.3 395.35 259.31 408.29 259.31 421.23 C259.33 460.3 259.35 499.37 259.35 538.44 C259.35 539.69 259.35 540.94 259.35 542.23 C259.35 547.29 259.35 552.36 259.35 557.43 C259.35 561.24 259.35 565.05 259.35 568.87 C259.35 570.13 259.35 571.39 259.36 572.69 C259.36 612.28 259.38 651.88 259.42 691.47 C259.46 735.94 259.48 780.4 259.48 824.87 C259.48 829.61 259.48 834.35 259.48 839.09 C259.48 840.26 259.48 841.42 259.48 842.63 C259.48 861.42 259.5 880.22 259.52 899.01 C259.55 917.9 259.55 936.79 259.54 955.68 C259.53 966.9 259.53 978.12 259.56 989.35 C259.57 996.85 259.57 1004.34 259.56 1011.84 C259.55 1016.11 259.54 1020.38 259.56 1024.65 C259.58 1028.55 259.58 1032.44 259.56 1036.33 C259.55 1037.72 259.56 1039.12 259.57 1040.51 C259.76 1061.08 247.88 1076.79 234.24 1091.25 C228.76 1096.63 222.56 1100.33 215.93 1104.13 C210.63 1107.23 210.63 1107.23 205.93 1111.13 C205.93 1110.47 205.93 1109.81 205.93 1109.13 C205.27 1109.13 204.61 1109.13 203.93 1109.13 C203.93 1108.47 203.93 1107.81 203.93 1107.13 C203.27 1107.13 202.61 1107.13 201.93 1107.13 C201.6 1107.79 201.27 1108.45 200.93 1109.13 C200.93 1108.14 200.93 1107.15 200.93 1106.13 C201.59 1105.95 202.26 1105.76 202.94 1105.58 C207.72 1104.21 211.72 1102.82 215.93 1100.13 C217.91 1099.42 219.91 1098.74 221.93 1098.13 C221.93 1097.14 221.93 1096.15 221.93 1095.13 C222.48 1095.05 223.04 1094.97 223.61 1094.9 C226.76 1093.85 228.56 1092.06 230.99 1089.81 C231.85 1089.03 232.71 1088.25 233.59 1087.45 C235.62 1085.43 237.26 1083.44 238.93 1081.13 C239.96 1079.98 241.01 1078.83 242.05 1077.69 C244.47 1074.91 245.7 1072.91 245.93 1069.13 C246.59 1069.13 247.25 1069.13 247.93 1069.13 C247.93 1068.14 247.93 1067.15 247.93 1066.13 C248.93 1065.13 249.93 1064.13 250.93 1063.13 C251.64 1061.02 251.64 1061.02 251.93 1059.13 C252.59 1059.13 253.25 1059.13 253.93 1059.13 C253.6 1058.14 253.27 1057.15 252.93 1056.13 C253.59 1056.13 254.25 1056.13 254.93 1056.13 C255.01 975.18 255.09 894.22 255.14 813.27 C255.14 812.07 255.14 810.88 255.14 809.64 C255.16 783.62 255.17 757.6 255.18 731.58 C255.19 718.82 255.2 706.06 255.2 693.3 C255.2 692.03 255.21 690.76 255.21 689.45 C255.23 648.26 255.26 607.08 255.31 565.9 C255.36 523.59 255.39 481.28 255.4 438.96 C255.4 432.99 255.4 427.02 255.4 421.05 C255.4 419.88 255.4 418.7 255.4 417.49 C255.41 398.54 255.43 379.6 255.46 360.65 C255.49 341.62 255.5 322.59 255.5 303.56 C255.49 292.25 255.5 280.93 255.53 269.61 C255.55 262.06 255.55 254.51 255.54 246.96 C255.53 242.65 255.53 238.35 255.55 234.04 C255.57 230.12 255.57 226.21 255.55 222.29 C255.55 220.88 255.55 219.47 255.57 218.06 C255.93 209.66 255.93 209.66 252.45 202.38 C251.62 201.63 250.79 200.89 249.93 200.13 C249.6 199.47 249.27 198.81 248.93 198.13 C235.63 193.69 218.45 195.99 204.64 196 C202 196 199.36 195.99 196.72 195.99 C190.33 195.99 183.93 195.99 177.54 195.99 C172.34 195.99 167.14 195.99 161.94 195.99 C161.2 195.99 160.46 195.99 159.69 195.99 C158.18 195.99 156.67 195.99 155.17 195.99 C141.06 195.99 126.95 195.99 112.85 196 C100.75 196 88.66 196 76.56 196 C62.49 195.99 48.42 195.99 34.35 195.99 C32.85 195.99 31.35 195.99 29.85 195.99 C29.11 195.99 28.37 195.99 27.61 195.99 C22.42 195.99 17.22 195.99 12.03 195.99 C5.04 195.99 -1.94 195.99 -8.93 196 C-11.5 196 -14.06 196 -16.62 195.99 C-20.12 195.99 -23.62 196 -27.12 196 C-28.13 196 -29.15 196 -30.2 195.99 C-32.03 196 -33.86 196.02 -35.69 196.07 C-37.77 196.12 -39.86 196.1 -41.94 196.07 C-46.18 197.5 -47.01 199.42 -49.03 203.28 C-51.07 208.84 -50.75 214.59 -50.69 220.44 C-50.7 221.89 -50.71 223.35 -50.71 224.8 C-50.73 228.79 -50.72 232.78 -50.7 236.77 C-50.69 241.11 -50.7 245.46 -50.71 249.8 C-50.73 257.41 -50.72 265.02 -50.71 272.63 C-50.68 283.95 -50.69 295.26 -50.7 306.58 C-50.72 326.79 -50.71 347 -50.69 367.21 C-50.67 384.9 -50.66 402.58 -50.66 420.27 C-50.66 421.44 -50.66 422.61 -50.66 423.82 C-50.66 428.58 -50.66 433.34 -50.66 438.1 C-50.67 482.76 -50.65 527.41 -50.61 572.07 C-50.58 611.76 -50.57 651.45 -50.57 691.14 C-50.57 693.69 -50.57 696.24 -50.57 698.79 C-50.57 700.05 -50.57 701.31 -50.57 702.6 C-50.57 708.95 -50.58 715.29 -50.58 721.63 C-50.58 722.88 -50.58 724.13 -50.58 725.42 C-50.58 758.57 -50.57 791.72 -50.56 824.87 C-50.56 826.05 -50.56 827.23 -50.55 828.44 C-50.55 829.62 -50.55 830.8 -50.55 832.01 C-50.55 833.77 -50.55 833.77 -50.55 835.57 C-50.55 837.93 -50.55 840.3 -50.55 842.66 C-50.54 859.17 -50.54 875.67 -50.54 892.18 C-50.54 913.45 -50.53 934.71 -50.51 955.98 C-50.5 967.23 -50.49 978.48 -50.5 989.74 C-50.5 997.25 -50.49 1004.76 -50.48 1012.27 C-50.47 1016.55 -50.46 1020.83 -50.47 1025.11 C-50.48 1029.01 -50.48 1032.9 -50.46 1036.8 C-50.46 1038.2 -50.46 1039.6 -50.46 1041 C-50.5 1048.45 -50.17 1054.32 -47.07 1061.13 C-47.07 1061.79 -47.07 1062.45 -47.07 1063.13 C-46.41 1063.13 -45.75 1063.13 -45.07 1063.13 C-45.07 1064.12 -45.07 1065.11 -45.07 1066.13 C-44.41 1066.13 -43.75 1066.13 -43.07 1066.13 C-43.07 1067.45 -43.07 1068.77 -43.07 1070.13 C-42.41 1070.13 -41.75 1070.13 -41.07 1070.13 C-39.68 1072.09 -38.35 1074.09 -37.07 1076.13 C-27.68 1090.21 -12.54 1099.88 2.93 1106.13 C2.93 1107.12 2.93 1108.11 2.93 1109.13 C1.28 1109.79 -0.37 1110.45 -2.07 1111.13 C-2.79 1110.47 -3.51 1109.81 -4.26 1109.13 C-7.39 1106.5 -10.75 1104.47 -14.26 1102.38 C-33.17 1090.96 -46.04 1074.57 -54.07 1054.13 C-54.98 1050.42 -55.2 1046.97 -55.2 1043.15 C-55.2 1041.94 -55.2 1040.73 -55.21 1039.49 C-55.21 1038.15 -55.2 1036.81 -55.2 1035.47 C-55.2 1034.03 -55.21 1032.6 -55.21 1031.17 C-55.21 1027.22 -55.21 1023.28 -55.21 1019.33 C-55.21 1015.04 -55.22 1010.75 -55.22 1006.46 C-55.23 997.94 -55.23 989.43 -55.23 980.91 C-55.23 970.72 -55.24 960.52 -55.24 950.33 C-55.26 925.68 -55.27 901.04 -55.27 876.39 C-55.27 864.74 -55.28 853.08 -55.28 841.43 C-55.29 801.55 -55.3 761.67 -55.31 721.79 C-55.31 719.28 -55.31 716.78 -55.31 714.28 C-55.31 711.77 -55.31 709.26 -55.31 706.75 C-55.31 701.71 -55.31 696.68 -55.31 691.64 C-55.31 690.39 -55.31 689.14 -55.31 687.86 C-55.31 647.36 -55.33 606.86 -55.35 566.36 C-55.38 523.55 -55.39 480.75 -55.39 437.95 C-55.39 433.25 -55.39 428.56 -55.39 423.86 C-55.39 422.71 -55.39 421.55 -55.39 420.36 C-55.4 401.73 -55.41 383.1 -55.42 364.47 C-55.44 345.76 -55.44 327.04 -55.43 308.33 C-55.43 297.2 -55.43 286.08 -55.45 274.95 C-55.46 267.53 -55.45 260.1 -55.44 252.67 C-55.44 248.44 -55.44 244.2 -55.45 239.97 C-55.46 236.12 -55.46 232.26 -55.45 228.41 C-55.44 226.37 -55.45 224.34 -55.47 222.3 C-55.41 213.25 -54.37 205.74 -49.01 198.25 C-48.25 197.17 -48.25 197.17 -47.47 196.07 C-47.01 195.43 -46.55 194.79 -46.07 194.13 C-43.93 190.92 -43.79 189.91 -43.66 186.2 C-43.62 185.19 -43.58 184.19 -43.54 183.15 C-43.51 182.05 -43.48 180.95 -43.45 179.81 C-43.41 178.66 -43.37 177.5 -43.34 176.31 C-42.95 163.26 -42.96 150.2 -43 137.14 C-43.01 133.68 -43.02 130.22 -43.02 126.76 C-43.03 118.03 -43.05 109.3 -43.07 100.56 C-43.09 91.07 -43.11 81.58 -43.12 72.08 C-43.13 68.66 -43.13 65.23 -43.15 61.8 C-43.16 58 -43.16 54.2 -43.17 50.39 C-43.18 48.72 -43.18 48.72 -43.18 47.02 C-43.19 29.23 -43.19 29.23 -39.07 24.13 C-38.41 24.13 -37.75 24.13 -37.07 24.13 C-36.92 23.27 -36.92 23.27 -36.77 22.4 C-34.73 15.77 -28.57 10.09 -23.07 6.13 C-22.41 6.13 -21.75 6.13 -21.07 6.13 C-21.07 5.47 -21.07 4.81 -21.07 4.13 C-14.91 -0.54 -7.38 -0.02 0 0 Z M239.93 31.13 C239.93 76.01 239.93 120.89 239.93 167.13 C240.26 167.13 240.59 167.13 240.93 167.13 C240.93 122.25 240.93 77.37 240.93 31.13 C240.6 31.13 240.27 31.13 239.93 31.13 Z M238.93 187.13 C239.93 189.13 239.93 189.13 239.93 189.13 Z " fill="#B5B6AB" transform="translate(274.07080078125,115.87301635742188)"/>
<path d="M0 0 C0.89 -0 1.78 -0 2.7 -0 C5.68 -0.01 8.65 -0.01 11.62 -0 C13.76 -0 15.9 -0.01 18.04 -0.01 C23.83 -0.01 29.63 -0.01 35.43 -0.01 C41.5 -0 47.57 -0.01 53.64 -0.01 C63.83 -0.01 74.02 -0.01 84.21 -0 C95.99 0 107.77 0 119.55 -0.01 C129.67 -0.01 139.79 -0.01 149.91 -0.01 C155.95 -0.01 161.99 -0.01 168.03 -0.01 C173.71 -0.01 179.39 -0.01 185.07 -0 C187.15 -0 189.24 -0 191.32 -0.01 C194.17 -0.01 197.01 -0 199.86 0 C200.68 -0 201.5 -0 202.35 -0.01 C206.98 0.01 211.36 0.36 215.93 1.13 C215.93 1.79 215.93 2.45 215.93 3.13 C216.55 3.21 217.17 3.29 217.8 3.38 C220.6 4.36 220.65 5.56 221.93 8.13 C223.98 8.93 223.98 8.93 225.93 9.13 C226.01 9.68 226.09 10.24 226.18 10.81 C227.18 13.89 228.9 15.78 230.99 18.25 C234.93 22.92 234.93 22.92 234.93 25.13 C235.59 25.13 236.25 25.13 236.93 25.13 C237.95 26.44 238.95 27.78 239.93 29.13 C240.59 29.46 241.25 29.79 241.93 30.13 C241.93 31.34 241.93 31.34 241.94 32.58 C242.02 52.3 242.11 72.01 242.22 91.72 C242.27 101.25 242.31 110.79 242.35 120.32 C242.38 128.63 242.42 136.94 242.47 145.24 C242.5 149.64 242.52 154.04 242.53 158.44 C242.55 162.58 242.57 166.72 242.6 170.86 C242.61 172.38 242.61 173.9 242.61 175.42 C242.62 177.5 242.63 179.57 242.65 181.65 C242.66 182.81 242.66 183.97 242.67 185.17 C242.92 188.06 243.35 189.71 244.93 192.13 C246.73 193.45 246.73 193.45 248.8 194.5 C254.29 197.74 256.9 202.17 258.93 208.13 C259.18 210.97 259.18 210.97 259.18 214.15 C259.19 215.37 259.19 216.59 259.2 217.85 C259.2 219.2 259.19 220.55 259.19 221.91 C259.19 223.35 259.2 224.79 259.2 226.24 C259.21 230.22 259.21 234.2 259.2 238.19 C259.2 242.52 259.21 246.84 259.22 251.17 C259.23 258.76 259.24 266.35 259.23 273.94 C259.23 285.23 259.24 296.52 259.26 307.81 C259.28 330.32 259.29 352.83 259.3 375.33 C259.3 376.5 259.3 377.67 259.3 378.87 C259.3 380.04 259.3 381.21 259.3 382.41 C259.3 395.35 259.31 408.29 259.31 421.23 C259.33 460.3 259.35 499.37 259.35 538.44 C259.35 539.69 259.35 540.94 259.35 542.23 C259.35 547.29 259.35 552.36 259.35 557.43 C259.35 561.24 259.35 565.05 259.35 568.87 C259.35 570.13 259.35 571.39 259.36 572.69 C259.36 612.28 259.38 651.88 259.42 691.47 C259.46 735.94 259.48 780.4 259.48 824.87 C259.48 829.61 259.48 834.35 259.48 839.09 C259.48 840.26 259.48 841.42 259.48 842.63 C259.48 861.42 259.5 880.22 259.52 899.01 C259.55 917.9 259.55 936.79 259.54 955.68 C259.53 966.9 259.53 978.12 259.56 989.35 C259.57 996.85 259.57 1004.34 259.56 1011.84 C259.55 1016.11 259.54 1020.38 259.56 1024.65 C259.58 1028.55 259.58 1032.44 259.56 1036.33 C259.55 1037.72 259.56 1039.12 259.57 1040.51 C259.76 1061.08 247.88 1076.79 234.24 1091.25 C228.76 1096.63 222.56 1100.33 215.93 1104.13 C210.63 1107.23 210.63 1107.23 205.93 1111.13 C205.93 1110.47 205.93 1109.81 205.93 1109.13 C205.27 1109.13 204.61 1109.13 203.93 1109.13 C203.93 1108.47 203.93 1107.81 203.93 1107.13 C203.27 1107.13 202.61 1107.13 201.93 1107.13 C201.6 1107.79 201.27 1108.45 200.93 1109.13 C200.93 1108.14 200.93 1107.15 200.93 1106.13 C201.59 1105.95 202.26 1105.76 202.94 1105.58 C207.72 1104.21 211.72 1102.82 215.93 1100.13 C217.91 1099.42 219.91 1098.74 221.93 1098.13 C221.93 1097.14 221.93 1096.15 221.93 1095.13 C222.48 1095.05 223.04 1094.97 223.61 1094.9 C226.76 1093.85 228.56 1092.06 230.99 1089.81 C231.85 1089.03 232.71 1088.25 233.59 1087.45 C235.62 1085.43 237.26 1083.44 238.93 1081.13 C239.96 1079.98 241.01 1078.83 242.05 1077.69 C244.47 1074.91 245.7 1072.91 245.93 1069.13 C246.59 1069.13 247.25 1069.13 247.93 1069.13 C247.93 1068.14 247.93 1067.15 247.93 1066.13 C248.93 1065.13 249.93 1064.13 250.93 1063.13 C251.64 1061.02 251.64 1061.02 251.93 1059.13 C252.59 1059.13 253.25 1059.13 253.93 1059.13 C253.6 1058.14 253.27 1057.15 252.93 1056.13 C253.59 1056.13 254.25 1056.13 254.93 1056.13 C255.01 975.18 255.09 894.22 255.14 813.27 C255.14 812.07 255.14 810.88 255.14 809.64 C255.16 783.62 255.17 757.6 255.18 731.58 C255.19 718.82 255.2 706.06 255.2 693.3 C255.2 692.03 255.21 690.76 255.21 689.45 C255.23 648.26 255.26 607.08 255.31 565.9 C255.36 523.59 255.39 481.28 255.4 438.96 C255.4 432.99 255.4 427.02 255.4 421.05 C255.4 419.88 255.4 418.7 255.4 417.49 C255.41 398.54 255.43 379.6 255.46 360.65 C255.49 341.62 255.5 322.59 255.5 303.56 C255.49 292.25 255.5 280.93 255.53 269.61 C255.55 262.06 255.55 254.51 255.54 246.96 C255.53 242.65 255.53 238.35 255.55 234.04 C255.57 230.12 255.57 226.21 255.55 222.29 C255.55 220.88 255.55 219.47 255.57 218.06 C255.93 209.66 255.93 209.66 252.45 202.38 C251.62 201.63 250.79 200.89 249.93 200.13 C249.6 199.47 249.27 198.81 248.93 198.13 C235.63 193.69 218.45 195.99 204.64 196 C202 196 199.36 195.99 196.72 195.99 C190.33 195.99 183.93 195.99 177.54 195.99 C172.34 195.99 167.14 195.99 161.94 195.99 C161.2 195.99 160.46 195.99 159.69 195.99 C158.18 195.99 156.67 195.99 155.17 195.99 C141.06 195.99 126.95 195.99 112.85 196 C100.75 196 88.66 196 76.56 196 C62.49 195.99 48.42 195.99 34.35 195.99 C32.85 195.99 31.35 195.99 29.85 195.99 C29.11 195.99 28.37 195.99 27.61 195.99 C22.42 195.99 17.22 195.99 12.03 195.99 C5.04 195.99 -1.94 195.99 -8.93 196 C-11.5 196 -14.06 196 -16.62 195.99 C-20.12 195.99 -23.62 196 -27.12 196 C-28.13 196 -29.15 196 -30.2 195.99 C-32.03 196 -33.86 196.02 -35.69 196.07 C-37.77 196.12 -39.86 196.1 -41.94 196.07 C-46.18 197.5 -47.01 199.42 -49.03 203.28 C-51.07 208.84 -50.75 214.59 -50.69 220.44 C-50.7 221.89 -50.71 223.35 -50.71 224.8 C-50.73 228.79 -50.72 232.78 -50.7 236.77 C-50.69 241.11 -50.7 245.46 -50.71 249.8 C-50.73 257.41 -50.72 265.02 -50.71 272.63 C-50.68 283.95 -50.69 295.26 -50.7 306.58 C-50.72 326.79 -50.71 347 -50.69 367.21 C-50.67 384.9 -50.66 402.58 -50.66 420.27 C-50.66 421.44 -50.66 422.61 -50.66 423.82 C-50.66 428.58 -50.66 433.34 -50.66 438.1 C-50.67 482.76 -50.65 527.41 -50.61 572.07 C-50.58 611.76 -50.57 651.45 -50.57 691.14 C-50.57 693.69 -50.57 696.24 -50.57 698.79 C-50.57 700.05 -50.57 701.31 -50.57 702.6 C-50.57 708.95 -50.58 715.29 -50.58 721.63 C-50.58 722.88 -50.58 724.13 -50.58 725.42 C-50.58 758.57 -50.57 791.72 -50.56 824.87 C-50.56 826.05 -50.56 827.23 -50.55 828.44 C-50.55 829.62 -50.55 830.8 -50.55 832.01 C-50.55 833.77 -50.55 833.77 -50.55 835.57 C-50.55 837.93 -50.55 840.3 -50.55 842.66 C-50.54 859.17 -50.54 875.67 -50.54 892.18 C-50.54 913.45 -50.53 934.71 -50.51 955.98 C-50.5 967.23 -50.49 978.48 -50.5 989.74 C-50.5 997.25 -50.49 1004.76 -50.48 1012.27 C-50.47 1016.55 -50.46 1020.83 -50.47 1025.11 C-50.48 1029.01 -50.48 1032.9 -50.46 1036.8 C-50.46 1038.2 -50.46 1039.6 -50.46 1041 C-50.5 1048.45 -50.17 1054.32 -47.07 1061.13 C-47.07 1061.79 -47.07 1062.45 -47.07 1063.13 C-46.41 1063.13 -45.75 1063.13 -45.07 1063.13 C-45.07 1064.12 -45.07 1065.11 -45.07 1066.13 C-44.41 1066.13 -43.75 1066.13 -43.07 1066.13 C-43.07 1067.45 -43.07 1068.77 -43.07 1070.13 C-42.41 1070.13 -41.75 1070.13 -41.07 1070.13 C-39.68 1072.09 -38.35 1074.09 -37.07 1076.13 C-27.68 1090.21 -12.54 1099.88 2.93 1106.13 C2.93 1107.12 2.93 1108.11 2.93 1109.13 C1.28 1109.79 -0.37 1110.45 -2.07 1111.13 C-2.79 1110.47 -3.51 1109.81 -4.26 1109.13 C-7.39 1106.5 -10.75 1104.47 -14.26 1102.38 C-33.17 1090.96 -46.04 1074.57 -54.07 1054.13 C-54.98 1050.42 -55.2 1046.97 -55.2 1043.15 C-55.2 1041.94 -55.2 1040.73 -55.21 1039.49 C-55.21 1038.15 -55.2 1036.81 -55.2 1035.47 C-55.2 1034.03 -55.21 1032.6 -55.21 1031.17 C-55.21 1027.22 -55.21 1023.28 -55.21 1019.33 C-55.21 1015.04 -55.22 1010.75 -55.22 1006.46 C-55.23 997.94 -55.23 989.43 -55.23 980.91 C-55.23 970.72 -55.24 960.52 -55.24 950.33 C-55.26 925.68 -55.27 901.04 -55.27 876.39 C-55.27 864.74 -55.28 853.08 -55.28 841.43 C-55.29 801.55 -55.3 761.67 -55.31 721.79 C-55.31 719.28 -55.31 716.78 -55.31 714.28 C-55.31 711.77 -55.31 709.26 -55.31 706.75 C-55.31 701.71 -55.31 696.68 -55.31 691.64 C-55.31 690.39 -55.31 689.14 -55.31 687.86 C-55.31 647.36 -55.33 606.86 -55.35 566.36 C-55.38 523.55 -55.39 480.75 -55.39 437.95 C-55.39 433.25 -55.39 428.56 -55.39 423.86 C-55.39 422.71 -55.39 421.55 -55.39 420.36 C-55.4 401.73 -55.41 383.1 -55.42 364.47 C-55.44 345.76 -55.44 327.04 -55.43 308.33 C-55.43 297.2 -55.43 286.08 -55.45 274.95 C-55.46 267.53 -55.45 260.1 -55.44 252.67 C-55.44 248.44 -55.44 244.2 -55.45 239.97 C-55.46 236.12 -55.46 232.26 -55.45 228.41 C-55.44 226.37 -55.45 224.34 -55.47 222.3 C-55.41 213.25 -54.37 205.74 -49.01 198.25 C-48.25 197.17 -48.25 197.17 -47.47 196.07 C-47.01 195.43 -46.55 194.79 -46.07 194.13 C-43.93 190.92 -43.79 189.91 -43.66 186.2 C-43.62 185.19 -43.58 184.19 -43.54 183.15 C-43.51 182.05 -43.48 180.95 -43.45 179.81 C-43.41 178.66 -43.37 177.5 -43.34 176.31 C-42.95 163.26 -42.96 150.2 -43 137.14 C-43.01 133.68 -43.02 130.22 -43.02 126.76 C-43.03 118.03 -43.05 109.3 -43.07 100.56 C-43.09 91.07 -43.11 81.58 -43.12 72.08 C-43.13 68.66 -43.13 65.23 -43.15 61.8 C-43.16 58 -43.16 54.2 -43.17 50.39 C-43.18 48.72 -43.18 48.72 -43.18 47.02 C-43.19 29.23 -43.19 29.23 -39.07 24.13 C-38.41 24.13 -37.75 24.13 -37.07 24.13 C-36.92 23.27 -36.92 23.27 -36.77 22.4 C-34.73 15.77 -28.57 10.09 -23.07 6.13 C-22.41 6.13 -21.75 6.13 -21.07 6.13 C-21.07 5.47 -21.07 4.81 -21.07 4.13 C-14.91 -0.54 -7.38 -0.02 0 0 Z M12.93 2.13 C12.93 5.43 12.93 8.73 12.93 12.13 C12.75 15.45 12.41 18.75 12.05 22.06 C11.94 23.32 11.94 23.32 11.82 24.6 C11.73 25.4 11.65 26.2 11.56 27.03 C11.45 28.1 11.45 28.1 11.34 29.2 C10.93 31.13 10.93 31.13 8.93 34.13 C8.8 36.88 8.8 36.88 8.99 40.13 C9.11 47.95 8.41 55.6 7.55 63.38 C7.43 64.58 7.3 65.78 7.17 67.02 C6.98 68.72 6.98 68.72 6.78 70.46 C6.61 71.99 6.61 71.99 6.43 73.55 C5.93 76.13 5.93 76.13 3.93 79.13 C4.24 82.27 4.24 82.27 4.93 85.13 C4.27 85.13 3.61 85.13 2.93 85.13 C2.89 87.46 2.89 89.79 2.93 92.13 C3.26 92.46 3.59 92.79 3.93 93.13 C3.84 95.48 3.68 97.84 3.49 100.19 C3.39 101.48 3.29 102.77 3.18 104.1 C3.1 105.1 3.02 106.1 2.93 107.13 C2.27 107.13 1.61 107.13 0.93 107.13 C0.96 108.28 0.96 108.28 0.98 109.45 C1.09 118.05 0.42 126.4 -0.57 134.94 C-0.71 136.22 -0.86 137.49 -1 138.81 C-1.35 141.92 -1.71 145.02 -2.07 148.13 C-2.73 148.13 -3.39 148.13 -4.07 148.13 C-4.04 149.36 -4.01 150.6 -3.98 151.87 C-3.98 157.72 -4.77 163.41 -5.57 169.19 C-7 179.12 -7 179.12 -7.07 189.13 C-4.51 191.69 -2.87 191.36 0.62 191.36 C1.42 191.35 2.23 191.35 3.05 191.34 C3.9 191.33 4.75 191.33 5.63 191.33 C8.49 191.32 11.35 191.3 14.22 191.28 C16.26 191.27 18.31 191.26 20.36 191.25 C25.93 191.23 31.5 191.2 37.07 191.16 C42.89 191.12 48.7 191.1 54.52 191.07 C64.29 191.02 74.07 190.97 83.84 190.91 C95.15 190.84 106.46 190.78 117.77 190.72 C129.79 190.66 141.82 190.6 153.84 190.53 C157.31 190.51 160.78 190.5 164.26 190.48 C169.71 190.45 175.16 190.42 180.61 190.38 C182.61 190.37 184.62 190.36 186.62 190.35 C189.35 190.34 192.08 190.32 194.81 190.3 C195.61 190.3 196.41 190.29 197.24 190.29 C201.21 190.34 201.21 190.34 204.93 189.13 C205.39 187.23 205.39 187.23 205.55 185.06 C205.74 183.12 205.74 183.12 205.93 181.13 C205.27 181.13 204.61 181.13 203.93 181.13 C204.26 178.49 204.59 175.85 204.93 173.13 C204.27 173.13 203.61 173.13 202.93 173.13 C202.87 172.38 202.82 171.64 202.76 170.87 C202.29 164.6 201.78 158.34 201.21 152.09 C201.15 151.4 201.08 150.7 201.02 149.99 C200.96 149.28 200.89 148.58 200.82 147.86 C199.59 134.29 198.45 120.74 197.93 107.13 C196.94 106.8 195.95 106.47 194.93 106.13 C194.95 105.3 194.98 104.47 195 103.61 C195.2 89.73 194.03 75.95 192.93 62.13 C191.94 61.8 190.95 61.47 189.93 61.13 C189.95 59.55 189.95 59.55 189.96 57.94 C190.02 50.59 189.97 43.43 188.93 36.13 C188.27 36.13 187.61 36.13 186.93 36.13 C186.93 29.53 186.93 22.93 186.93 16.13 C186.27 16.13 185.61 16.13 184.93 16.13 C184.97 15.12 185.01 14.11 185.05 13.06 C185.07 8.55 185.07 8.55 182.93 2.13 C126.83 2.13 70.73 2.13 12.93 2.13 Z M239.93 31.13 C239.93 76.01 239.93 120.89 239.93 167.13 C240.26 167.13 240.59 167.13 240.93 167.13 C240.93 122.25 240.93 77.37 240.93 31.13 C240.6 31.13 240.27 31.13 239.93 31.13 Z M238.93 187.13 C239.93 189.13 239.93 189.13 239.93 189.13 Z " fill="#E3B12A" transform="translate(274.07080078125,115.87301635742188)"/>
<path d="M0 0 C1.04 -0 2.09 -0 3.16 -0.01 C6.59 -0.01 10.02 -0.01 13.45 -0 C15.84 -0 18.24 -0.01 20.63 -0.01 C25.64 -0.01 30.64 -0.01 35.65 -0 C42.06 0 48.47 0 54.88 -0 C59.82 -0.01 64.76 -0.01 69.7 -0 C72.06 -0 74.43 -0 76.79 -0.01 C80.1 -0.01 83.4 -0.01 86.71 0 C87.68 -0 88.65 -0 89.65 -0.01 C96.85 0.02 103.05 0.06 109.34 3.95 C112.44 5.82 115.69 7.37 118.93 8.97 C120.81 9.89 122.68 10.85 124.54 11.82 C127.4 13.18 130.26 14.19 133.29 15.13 C133.29 15.79 133.29 16.45 133.29 17.13 C134 17.25 134.71 17.38 135.45 17.51 C138.34 18.14 140.96 19.03 143.73 20.07 C147.56 21.49 151.4 22.87 155.29 24.13 C155.29 24.79 155.29 25.45 155.29 26.13 C158.59 26.46 161.89 26.79 165.29 27.13 C166.28 23.5 167.27 19.87 168.29 16.13 C168.95 16.46 169.61 16.79 170.29 17.13 C170.7 19.63 170.7 19.63 170.91 22.69 C171.03 24.21 171.03 24.21 171.14 25.76 C171.19 26.54 171.24 27.32 171.29 28.13 C171.62 28.13 171.95 28.13 172.29 28.13 C172.32 32.61 172.34 37.09 172.35 41.57 C172.36 42.85 172.37 44.13 172.38 45.44 C172.38 47.27 172.38 47.27 172.39 49.13 C172.39 50.81 172.39 50.81 172.4 52.54 C172.29 55.13 172.29 55.13 171.29 56.13 C169.91 56.23 168.53 56.25 167.15 56.25 C165.81 56.26 165.81 56.26 164.43 56.26 C163.44 56.26 162.44 56.25 161.41 56.25 C159.84 56.25 159.84 56.25 158.23 56.25 C154.68 56.25 151.13 56.25 147.58 56.24 C145.05 56.24 142.52 56.24 139.99 56.24 C134.52 56.24 129.05 56.24 123.59 56.24 C115.68 56.23 107.78 56.22 99.88 56.22 C87.05 56.22 74.23 56.21 61.41 56.2 C48.95 56.2 36.49 56.19 24.04 56.18 C23.27 56.18 22.5 56.18 21.71 56.18 C17.86 56.18 14.01 56.18 10.16 56.18 C-21.8 56.17 -53.75 56.15 -85.71 56.13 C-87.15 53.24 -86.73 50.6 -86.65 47.42 C-86.62 45.19 -86.62 45.19 -87.21 43.38 C-87.85 40.49 -87.82 37.79 -87.81 34.83 C-87.8 33.02 -87.8 33.02 -87.8 31.18 C-87.79 29.93 -87.78 28.67 -87.77 27.38 C-87.77 26.11 -87.76 24.84 -87.76 23.53 C-87.75 20.4 -87.73 17.26 -87.71 14.13 C-87.05 13.8 -86.39 13.47 -85.71 13.13 C-83.97 16.46 -82.56 19.48 -81.71 23.13 C-81.06 24.47 -80.4 25.8 -79.71 27.13 C-72.69 25.06 -65.78 22.9 -59.03 20.06 C-56.71 19.13 -56.71 19.13 -53.9 18.27 C-50.06 16.9 -46.65 15.05 -43.09 13.07 C-36.21 9.24 -36.21 9.24 -33.56 8.64 C-32.95 8.47 -32.34 8.3 -31.71 8.13 C-31.38 7.47 -31.05 6.81 -30.71 6.13 C-29.06 6.13 -27.41 6.13 -25.71 6.13 C-25.38 5.47 -25.05 4.81 -24.71 4.13 C-21.65 3.5 -21.65 3.5 -18.71 3.13 C-18.71 2.47 -18.71 1.81 -18.71 1.13 C-12.43 0.2 -6.34 -0.01 0 0 Z M168.29 52.13 C168.29 52.46 168.29 52.79 168.29 53.13 C84.8 53.46 1.31 53.79 -84.71 54.13 C-84.71 54.46 -84.71 54.79 -84.71 55.13 C-0.23 55.13 84.25 55.13 171.29 55.13 C171.29 54.14 171.29 53.15 171.29 52.13 C170.3 52.13 169.31 52.13 168.29 52.13 Z " fill="#9C9893" transform="translate(330.711181640625,51.87060546875)"/>
<path d="M0 0 C0.66 0.33 1.32 0.66 2 1 C2 2.22 2 2.22 2.01 3.46 C2.09 23.17 2.18 42.88 2.29 62.59 C2.34 72.13 2.38 81.66 2.42 91.19 C2.45 99.5 2.49 107.81 2.54 116.12 C2.57 120.52 2.59 124.92 2.6 129.32 C2.62 133.46 2.64 137.6 2.67 141.74 C2.68 143.26 2.68 144.78 2.68 146.3 C2.69 148.37 2.7 150.45 2.72 152.52 C2.73 153.68 2.73 154.84 2.74 156.04 C2.99 158.94 3.42 160.59 5 163 C6.8 164.33 6.8 164.33 8.88 165.38 C14.36 168.61 16.97 173.04 19 179 C19.25 181.84 19.25 181.84 19.25 185.03 C19.26 186.24 19.27 187.46 19.27 188.72 C19.27 190.07 19.26 191.43 19.26 192.78 C19.26 194.22 19.27 195.66 19.27 197.11 C19.28 201.09 19.28 205.08 19.28 209.06 C19.27 213.39 19.28 217.72 19.29 222.04 C19.3 229.63 19.31 237.23 19.31 244.82 C19.3 256.11 19.32 267.39 19.33 278.68 C19.35 301.19 19.36 323.7 19.37 346.21 C19.37 347.37 19.37 348.54 19.37 349.74 C19.37 350.91 19.37 352.08 19.37 353.28 C19.37 366.22 19.38 379.16 19.38 392.1 C19.4 431.17 19.42 470.24 19.42 509.31 C19.42 510.56 19.42 511.81 19.42 513.1 C19.42 518.17 19.42 523.23 19.42 528.3 C19.42 532.11 19.43 535.93 19.43 539.74 C19.43 541 19.43 542.26 19.43 543.56 C19.43 583.16 19.45 622.75 19.49 662.35 C19.53 706.81 19.55 751.28 19.55 795.74 C19.55 800.48 19.55 805.22 19.55 809.96 C19.55 811.13 19.55 812.3 19.55 813.5 C19.55 832.3 19.57 851.09 19.59 869.89 C19.62 888.77 19.62 907.66 19.61 926.55 C19.6 937.77 19.6 949 19.63 960.22 C19.65 967.72 19.64 975.22 19.63 982.71 C19.62 986.98 19.62 991.26 19.64 995.53 C19.65 999.42 19.65 1003.31 19.63 1007.2 C19.62 1008.59 19.63 1009.99 19.64 1011.38 C19.83 1031.96 7.95 1047.67 -5.69 1062.12 C-11.17 1067.5 -17.37 1071.21 -24 1075 C-29.3 1078.1 -29.3 1078.1 -34 1082 C-34 1081.34 -34 1080.68 -34 1080 C-34.66 1080 -35.32 1080 -36 1080 C-36 1079.34 -36 1078.68 -36 1078 C-36.66 1078 -37.32 1078 -38 1078 C-38.33 1078.66 -38.66 1079.32 -39 1080 C-39 1079.01 -39 1078.02 -39 1077 C-38.34 1076.82 -37.67 1076.64 -36.99 1076.45 C-32.21 1075.09 -28.21 1073.69 -24 1071 C-22.02 1070.29 -20.02 1069.61 -18 1069 C-18 1068.01 -18 1067.02 -18 1066 C-17.44 1065.92 -16.89 1065.85 -16.32 1065.77 C-13.17 1064.72 -11.37 1062.93 -8.94 1060.69 C-8.08 1059.91 -7.22 1059.13 -6.34 1058.32 C-4.3 1056.3 -2.67 1054.32 -1 1052 C0.04 1050.85 1.08 1049.7 2.12 1048.56 C4.54 1045.79 5.77 1043.78 6 1040 C6.66 1040 7.32 1040 8 1040 C8 1039.01 8 1038.02 8 1037 C9 1036 10 1035 11 1034 C11.71 1031.9 11.71 1031.9 12 1030 C12.66 1030 13.32 1030 14 1030 C13.67 1029.01 13.34 1028.02 13 1027 C13.66 1027 14.32 1027 15 1027 C15.09 946.05 15.17 865.1 15.21 784.14 C15.21 782.95 15.21 781.75 15.21 780.52 C15.23 754.49 15.24 728.47 15.26 702.45 C15.26 689.69 15.27 676.93 15.27 664.17 C15.28 662.9 15.28 661.63 15.28 660.32 C15.3 619.14 15.34 577.95 15.38 536.77 C15.43 494.46 15.46 452.15 15.47 409.84 C15.47 403.87 15.47 397.9 15.47 391.92 C15.47 390.75 15.48 389.57 15.48 388.36 C15.48 369.42 15.5 350.47 15.53 331.53 C15.56 312.5 15.57 293.47 15.57 274.44 C15.56 263.12 15.57 251.8 15.6 240.49 C15.62 232.94 15.62 225.39 15.61 217.83 C15.6 213.53 15.6 209.22 15.62 204.91 C15.64 200.99 15.64 197.08 15.62 193.16 C15.62 191.75 15.62 190.34 15.64 188.93 C16 180.54 16 180.54 12.52 173.25 C11.69 172.51 10.86 171.76 10 171 C9.67 170.34 9.34 169.68 9 169 C-4.3 164.57 -21.48 166.86 -35.29 166.87 C-37.93 166.87 -40.57 166.87 -43.21 166.87 C-49.6 166.86 -56 166.86 -62.39 166.86 C-67.59 166.87 -72.79 166.87 -77.99 166.87 C-78.73 166.87 -79.47 166.87 -80.24 166.87 C-81.75 166.87 -83.26 166.87 -84.76 166.86 C-98.87 166.86 -112.98 166.87 -127.08 166.87 C-139.18 166.88 -151.27 166.87 -163.37 166.87 C-177.44 166.86 -191.51 166.86 -205.58 166.87 C-207.08 166.87 -208.58 166.87 -210.08 166.87 C-210.82 166.87 -211.56 166.87 -212.32 166.87 C-217.51 166.87 -222.71 166.87 -227.9 166.86 C-234.89 166.86 -241.87 166.86 -248.86 166.87 C-251.42 166.87 -253.99 166.87 -256.55 166.87 C-260.05 166.86 -263.55 166.87 -267.05 166.87 C-268.06 166.87 -269.08 166.87 -270.13 166.87 C-271.96 166.87 -273.79 166.89 -275.62 166.94 C-277.7 166.99 -279.79 166.97 -281.87 166.95 C-286.11 168.37 -286.94 170.3 -288.96 174.16 C-291 179.72 -290.68 185.47 -290.62 191.31 C-290.63 192.77 -290.64 194.22 -290.64 195.67 C-290.66 199.66 -290.65 203.65 -290.63 207.64 C-290.62 211.99 -290.63 216.33 -290.64 220.67 C-290.66 228.28 -290.65 235.89 -290.64 243.5 C-290.61 254.82 -290.62 266.14 -290.63 277.45 C-290.65 297.66 -290.64 317.87 -290.62 338.08 C-290.6 355.77 -290.59 373.45 -290.59 391.14 C-290.59 392.31 -290.59 393.49 -290.59 394.69 C-290.59 399.45 -290.59 404.21 -290.59 408.97 C-290.6 453.63 -290.58 498.29 -290.54 542.94 C-290.51 582.63 -290.49 622.32 -290.5 662.01 C-290.5 664.56 -290.5 667.11 -290.5 669.66 C-290.5 670.92 -290.5 672.18 -290.5 673.48 C-290.5 679.82 -290.5 686.16 -290.51 692.5 C-290.51 693.76 -290.51 695.01 -290.51 696.3 C-290.51 729.44 -290.5 762.59 -290.49 795.74 C-290.49 796.92 -290.48 798.1 -290.48 799.31 C-290.48 800.49 -290.48 801.67 -290.48 802.88 C-290.48 804.64 -290.48 804.64 -290.48 806.44 C-290.48 808.81 -290.48 811.17 -290.48 813.54 C-290.47 830.04 -290.47 846.55 -290.47 863.05 C-290.47 884.32 -290.46 905.59 -290.44 926.85 C-290.42 938.11 -290.42 949.36 -290.43 960.61 C-290.43 968.12 -290.42 975.63 -290.41 983.14 C-290.4 987.42 -290.39 991.7 -290.4 995.99 C-290.41 999.88 -290.41 1003.78 -290.39 1007.67 C-290.39 1009.07 -290.39 1010.47 -290.39 1011.88 C-290.43 1019.32 -290.1 1025.19 -287 1032 C-287 1032.66 -287 1033.32 -287 1034 C-286.34 1034 -285.68 1034 -285 1034 C-285 1034.99 -285 1035.98 -285 1037 C-284.34 1037 -283.68 1037 -283 1037 C-283 1038.32 -283 1039.64 -283 1041 C-282.34 1041 -281.68 1041 -281 1041 C-279.61 1042.96 -278.28 1044.96 -277 1047 C-267.61 1061.08 -252.46 1070.76 -237 1077 C-237 1077.99 -237 1078.98 -237 1080 C-238.65 1080.66 -240.3 1081.32 -242 1082 C-242.72 1081.34 -243.44 1080.68 -244.19 1080 C-247.32 1077.37 -250.68 1075.34 -254.19 1073.25 C-273.1 1061.83 -285.97 1045.45 -294 1025 C-294.91 1021.29 -295.13 1017.84 -295.13 1014.02 C-295.13 1012.81 -295.13 1011.61 -295.14 1010.36 C-295.14 1009.02 -295.13 1007.68 -295.13 1006.34 C-295.13 1004.91 -295.14 1003.48 -295.14 1002.05 C-295.14 998.1 -295.14 994.15 -295.14 990.2 C-295.14 985.91 -295.15 981.62 -295.15 977.33 C-295.16 968.82 -295.16 960.3 -295.16 951.79 C-295.16 941.59 -295.17 931.39 -295.17 921.2 C-295.19 896.55 -295.2 871.91 -295.2 847.27 C-295.2 835.61 -295.21 823.96 -295.21 812.3 C-295.22 772.42 -295.23 732.54 -295.24 692.66 C-295.24 690.16 -295.24 687.65 -295.24 685.15 C-295.24 682.64 -295.24 680.13 -295.24 677.62 C-295.24 672.58 -295.24 667.55 -295.24 662.51 C-295.24 661.26 -295.24 660.02 -295.24 658.73 C-295.24 618.23 -295.26 577.73 -295.28 537.23 C-295.31 494.43 -295.32 451.63 -295.32 408.82 C-295.32 404.13 -295.32 399.43 -295.32 394.74 C-295.32 393.58 -295.32 392.42 -295.32 391.23 C-295.32 372.6 -295.34 353.97 -295.35 335.34 C-295.36 316.63 -295.37 297.91 -295.36 279.2 C-295.36 268.07 -295.36 256.95 -295.38 245.83 C-295.38 238.4 -295.38 230.97 -295.37 223.54 C-295.37 219.31 -295.37 215.08 -295.38 210.84 C-295.39 206.99 -295.39 203.14 -295.38 199.28 C-295.37 197.25 -295.38 195.21 -295.39 193.17 C-295.34 184.12 -294.3 176.61 -288.94 169.12 C-288.18 168.05 -288.18 168.05 -287.4 166.95 C-286.94 166.3 -286.48 165.66 -286 165 C-284.02 162.03 -283.74 161.33 -283.59 157.99 C-283.53 156.79 -283.53 156.79 -283.47 155.56 C-283.42 154.27 -283.42 154.27 -283.37 152.96 C-283.33 152.07 -283.28 151.19 -283.24 150.28 C-283.11 147.46 -282.99 144.64 -282.88 141.81 C-282.79 139.9 -282.7 137.99 -282.61 136.07 C-282.4 131.38 -282.2 126.69 -282 122 C-281.67 122 -281.34 122 -281 122 C-280.67 123.65 -280.34 125.3 -280 127 C-278.94 126.99 -277.89 126.99 -276.8 126.98 C-272.9 126.97 -269 126.95 -265.1 126.95 C-263.41 126.94 -261.72 126.93 -260.03 126.92 C-257.6 126.91 -255.18 126.91 -252.75 126.9 C-251.61 126.89 -251.61 126.89 -250.45 126.89 C-248.63 126.89 -246.82 126.94 -245 127 C-243.44 128.56 -243.83 130.02 -243.81 132.19 C-243.85 137.79 -244.7 143.18 -245.55 148.71 C-246.08 152.56 -246.23 156.12 -246 160 C-244.83 161.39 -244.83 161.39 -241.6 161.11 C-240.03 161.1 -238.47 161.1 -236.91 161.08 C-236.05 161.08 -235.19 161.08 -234.31 161.07 C-231.41 161.06 -228.51 161.04 -225.61 161.02 C-223.54 161.01 -221.47 161 -219.4 160.99 C-213.77 160.97 -208.13 160.93 -202.49 160.9 C-196.61 160.87 -190.73 160.84 -184.84 160.81 C-173.7 160.75 -162.55 160.69 -151.4 160.63 C-138.71 160.56 -126.02 160.49 -113.33 160.42 C-87.22 160.29 -61.11 160.15 -35 160 C-34.67 157.36 -34.34 154.72 -34 152 C-34.66 152 -35.32 152 -36 152 C-36.12 146.25 -36.12 146.25 -35 144 C-35.66 144 -36.32 144 -37 144 C-38.34 136.74 -39.43 130.3 -38 123 C-37.34 123.99 -36.68 124.98 -36 126 C-33.41 126.4 -31.04 126.61 -28.44 126.7 C-27.69 126.73 -26.94 126.77 -26.17 126.81 C-23.78 126.93 -21.39 127.03 -19 127.12 C-16.61 127.23 -14.22 127.35 -11.83 127.46 C-10.34 127.53 -8.85 127.6 -7.36 127.66 C-2.22 127.89 -2.22 127.89 0 129 C0 86.43 0 43.86 0 0 Z M-1 158 C0 160 0 160 0 160 Z " fill="#959089" transform="translate(514,145)"/>
<path d="M0 0 C3.35 -0.03 6.71 -0.05 10.06 -0.06 C11.01 -0.07 11.95 -0.08 12.92 -0.09 C18.06 -0.11 22.93 0.11 28 1 C28 1.66 28 2.32 28 3 C28.93 3.12 28.93 3.12 29.88 3.25 C32.67 4.24 32.72 5.43 34 8 C36.05 8.81 36.05 8.81 38 9 C38.08 9.55 38.16 10.11 38.25 10.68 C39.25 13.76 40.97 15.66 43.06 18.12 C47 22.79 47 22.79 47 25 C47.66 25 48.32 25 49 25 C52.86 30.81 52.4 36.54 52.34 43.34 C52.34 45.2 52.34 45.2 52.34 47.1 C52.34 50.48 52.33 53.87 52.3 57.25 C52.29 60.8 52.28 64.34 52.28 67.88 C52.27 74.59 52.25 81.29 52.22 88 C52.18 95.63 52.17 103.27 52.15 110.9 C52.12 126.6 52.07 142.3 52 158 C46.93 157.74 41.86 157.47 36.78 157.2 C35.06 157.11 33.33 157.02 31.61 156.93 C29.13 156.8 26.65 156.67 24.17 156.54 C23.4 156.5 22.62 156.46 21.83 156.42 C18.68 156.24 16.01 156 13 155 C12.09 152.28 11.8 150.36 11.64 147.54 C11.59 146.65 11.54 145.75 11.48 144.82 C11.43 143.86 11.37 142.89 11.32 141.9 C11.19 139.86 11.07 137.83 10.94 135.79 C10.75 132.57 10.56 129.35 10.38 126.14 C10.2 123.04 10.01 119.94 9.82 116.84 C9.74 115.38 9.74 115.38 9.66 113.9 C9.6 113.01 9.54 112.11 9.49 111.2 C9.44 110.41 9.39 109.62 9.35 108.81 C9.18 107.91 9.18 107.91 9 107 C8.34 106.67 7.68 106.34 7 106 C6.66 104.22 6.66 104.22 6.53 101.86 C6.48 100.99 6.42 100.11 6.37 99.2 C6.32 98.25 6.27 97.3 6.22 96.31 C6.16 95.34 6.1 94.37 6.04 93.36 C5.79 89.18 5.56 85 5.32 80.82 C5.15 77.77 4.97 74.73 4.78 71.69 C4.73 70.73 4.68 69.78 4.63 68.8 C4.58 67.92 4.53 67.04 4.47 66.14 C4.43 65.36 4.39 64.58 4.34 63.78 C4.23 63.2 4.12 62.61 4 62 C3.34 61.67 2.68 61.34 2 61 C0.99 55.32 0.87 49.76 0.94 44 C0.94 43.23 0.95 42.45 0.95 41.65 C0.96 39.77 0.98 37.88 1 36 C0.34 36 -0.32 36 -1 36 C-1.74 30.26 -2.08 24.76 -1.94 18.97 C-1.78 17 -1.78 17 -3 16 C-3.4 13.65 -3.74 11.3 -4.06 8.94 C-4.24 7.65 -4.42 6.36 -4.6 5.03 C-4.73 4.03 -4.86 3.03 -5 2 C-3.35 2 -1.7 2 0 2 C0 1.34 0 0.68 0 0 Z " fill="#F3BE2D" transform="translate(462,116)"/>
<path d="M0 0 C1.04 -0 2.09 -0 3.16 -0.01 C6.59 -0.01 10.02 -0.01 13.45 -0 C15.84 -0 18.24 -0.01 20.63 -0.01 C25.64 -0.01 30.64 -0.01 35.65 -0 C42.06 0 48.47 0 54.88 -0 C59.82 -0.01 64.76 -0.01 69.7 -0 C72.06 -0 74.43 -0 76.79 -0.01 C80.1 -0.01 83.4 -0.01 86.71 0 C87.68 -0 88.65 -0 89.65 -0.01 C90.56 -0 91.47 -0 92.4 0 C93.18 0 93.96 0 94.76 0 C97.96 0.16 101.12 0.68 104.29 1.13 C104.62 8.39 104.95 15.65 105.29 23.13 C107.89 23.42 110.49 23.71 113.16 24 C114.04 24.1 114.92 24.2 115.82 24.3 C119.89 24.76 123.96 25.2 128.03 25.6 C140.35 26.84 152.12 28.46 163.29 34.13 C164.3 34.54 165.31 34.95 166.35 35.38 C166.99 35.96 167.63 36.53 168.29 37.13 C168.29 39.77 168.29 42.41 168.29 45.13 C160.04 44.8 151.79 44.47 143.29 44.13 C142.96 43.14 142.63 42.15 142.29 41.13 C145.75 40.63 145.75 40.63 149.29 40.13 C149.62 39.14 149.95 38.15 150.29 37.13 C149.4 37.13 148.51 37.14 147.59 37.15 C144.21 37.16 140.82 37.17 137.44 37.18 C135.99 37.19 134.54 37.2 133.09 37.2 C130.98 37.22 128.87 37.22 126.75 37.23 C125.49 37.23 124.23 37.24 122.93 37.24 C119.24 37.2 115.6 36.93 111.92 36.63 C100.19 35.82 88.44 35.96 76.68 35.96 C74.07 35.96 71.47 35.95 68.86 35.95 C63.39 35.94 57.92 35.94 52.45 35.94 C46.94 35.94 41.42 35.94 35.91 35.92 C9.15 35.86 -17.59 35.82 -44.32 37.08 C-45.71 37.14 -45.71 37.14 -47.13 37.21 C-49.69 37.33 -52.25 37.46 -54.81 37.6 C-55.54 37.64 -56.28 37.68 -57.04 37.72 C-60.68 37.93 -64.16 38.3 -67.71 39.13 C-66.39 39.46 -65.07 39.79 -63.71 40.13 C-63.71 40.79 -63.71 41.45 -63.71 42.13 C-63.05 42.13 -62.39 42.13 -61.71 42.13 C-61.71 42.79 -61.71 43.45 -61.71 44.13 C-64.06 45.3 -65.45 45.24 -68.06 45.23 C-68.91 45.22 -69.76 45.22 -70.64 45.22 C-71.53 45.21 -72.42 45.2 -73.34 45.19 C-74.68 45.19 -74.68 45.19 -76.05 45.18 C-78.27 45.17 -80.49 45.15 -82.71 45.13 C-84.07 42.42 -83.78 40.12 -83.71 37.13 C-66.47 27.97 -50.1 26.02 -30.76 24.92 C-29.61 24.84 -28.45 24.77 -27.26 24.69 C-26.21 24.63 -25.17 24.57 -24.1 24.51 C-23.31 24.38 -22.52 24.26 -21.71 24.13 C-21.38 23.47 -21.05 22.81 -20.71 22.13 C-20.38 22.13 -20.05 22.13 -19.71 22.13 C-19.68 19.48 -19.66 16.84 -19.65 14.19 C-19.64 13.06 -19.64 13.06 -19.62 11.9 C-19.61 9.98 -19.66 8.05 -19.71 6.13 C-20.21 5.63 -20.21 5.63 -20.71 5.13 C-20.71 4.47 -20.71 3.81 -20.71 3.13 C-20.05 3.13 -19.39 3.13 -18.71 3.13 C-18.71 2.47 -18.71 1.81 -18.71 1.13 C-12.43 0.2 -6.34 -0.01 0 0 Z " fill="#F0BB2D" transform="translate(330.711181640625,51.87060546875)"/>
<path d="M0 0 C0.66 0.33 1.32 0.66 2 1 C2 1.81 2.01 2.62 2.01 3.46 C2.09 23.17 2.18 42.88 2.29 62.59 C2.34 72.13 2.38 81.66 2.42 91.19 C2.45 99.5 2.49 107.81 2.54 116.12 C2.57 120.52 2.59 124.92 2.6 129.32 C2.62 133.46 2.64 137.6 2.67 141.74 C2.68 143.26 2.68 144.78 2.68 146.3 C2.69 148.37 2.7 150.45 2.72 152.52 C2.73 153.68 2.73 154.84 2.74 156.04 C2.99 158.94 3.42 160.59 5 163 C6.8 164.33 6.8 164.33 8.88 165.38 C14.36 168.61 16.97 173.04 19 179 C19.25 181.84 19.25 181.84 19.25 185.03 C19.26 186.24 19.27 187.46 19.27 188.72 C19.27 190.07 19.26 191.43 19.26 192.78 C19.26 194.22 19.27 195.66 19.27 197.11 C19.28 201.09 19.28 205.08 19.28 209.06 C19.27 213.39 19.28 217.72 19.29 222.04 C19.3 229.63 19.31 237.23 19.31 244.82 C19.3 256.11 19.32 267.39 19.33 278.68 C19.35 301.19 19.36 323.7 19.37 346.21 C19.37 347.37 19.37 348.54 19.37 349.74 C19.37 351.49 19.37 351.49 19.37 353.28 C19.37 366.22 19.38 379.16 19.38 392.1 C19.4 431.17 19.42 470.24 19.42 509.31 C19.42 510.56 19.42 511.81 19.42 513.1 C19.42 518.17 19.42 523.23 19.42 528.3 C19.42 532.11 19.43 535.93 19.43 539.74 C19.43 541 19.43 542.26 19.43 543.56 C19.43 583.16 19.45 622.75 19.49 662.35 C19.53 706.81 19.55 751.28 19.55 795.74 C19.55 800.48 19.55 805.22 19.55 809.96 C19.55 811.13 19.55 812.3 19.55 813.5 C19.55 832.3 19.57 851.09 19.59 869.89 C19.62 888.77 19.62 907.66 19.61 926.55 C19.6 937.77 19.6 949 19.63 960.22 C19.65 967.72 19.64 975.22 19.63 982.71 C19.62 986.98 19.62 991.26 19.64 995.53 C19.65 999.42 19.65 1003.31 19.63 1007.2 C19.62 1008.59 19.63 1009.99 19.64 1011.38 C19.83 1031.96 7.95 1047.67 -5.69 1062.12 C-11.17 1067.5 -17.37 1071.21 -24 1075 C-29.3 1078.1 -29.3 1078.1 -34 1082 C-34 1081.34 -34 1080.68 -34 1080 C-34.66 1080 -35.32 1080 -36 1080 C-36 1079.34 -36 1078.68 -36 1078 C-36.66 1078 -37.32 1078 -38 1078 C-38.33 1078.66 -38.66 1079.32 -39 1080 C-39 1079.01 -39 1078.02 -39 1077 C-38.34 1076.82 -37.67 1076.64 -36.99 1076.45 C-32.21 1075.09 -28.21 1073.69 -24 1071 C-22.02 1070.29 -20.02 1069.61 -18 1069 C-18 1068.01 -18 1067.02 -18 1066 C-17.44 1065.92 -16.89 1065.85 -16.32 1065.77 C-13.17 1064.72 -11.37 1062.93 -8.94 1060.69 C-8.08 1059.91 -7.22 1059.13 -6.34 1058.32 C-4.3 1056.3 -2.67 1054.32 -1 1052 C0.04 1050.85 1.08 1049.7 2.12 1048.56 C4.54 1045.79 5.77 1043.78 6 1040 C6.66 1040 7.32 1040 8 1040 C8 1039.01 8 1038.02 8 1037 C9 1036 10 1035 11 1034 C11.71 1031.9 11.71 1031.9 12 1030 C12.66 1030 13.32 1030 14 1030 C13.5 1028.51 13.5 1028.51 13 1027 C13.66 1027 14.32 1027 15 1027 C15.09 946.05 15.17 865.1 15.21 784.14 C15.21 782.95 15.21 781.75 15.21 780.52 C15.23 754.49 15.24 728.47 15.26 702.45 C15.26 689.69 15.27 676.93 15.27 664.17 C15.28 662.9 15.28 661.63 15.28 660.32 C15.3 619.14 15.34 577.95 15.38 536.77 C15.43 494.46 15.46 452.15 15.47 409.84 C15.47 403.87 15.47 397.9 15.47 391.92 C15.47 390.16 15.47 390.16 15.48 388.36 C15.48 369.42 15.5 350.47 15.53 331.53 C15.56 312.5 15.57 293.47 15.57 274.44 C15.56 263.12 15.57 251.8 15.6 240.49 C15.62 232.94 15.62 225.39 15.61 217.83 C15.6 213.53 15.6 209.22 15.62 204.91 C15.64 200.99 15.64 197.08 15.62 193.16 C15.62 191.75 15.62 190.34 15.64 188.93 C16 180.54 16 180.54 12.52 173.25 C11.27 172.14 11.27 172.14 10 171 C9.67 170.34 9.34 169.68 9 169 C6.43 168.09 6.43 168.09 3.44 167.38 C2.43 167.11 1.41 166.85 0.37 166.59 C-0.41 166.39 -1.19 166.2 -2 166 C-1.84 164.9 -1.67 163.79 -1.5 162.66 C-0.87 157.6 -0.89 152.59 -0.94 147.5 C-0.94 146.58 -0.95 145.66 -0.95 144.72 C-0.96 142.48 -0.98 140.24 -1 138 C-0.34 138 0.32 138 1 138 C0.5 69.69 0.5 69.69 0 0 Z " fill="#020202" transform="translate(514,145)"/>
<path d="M0 0 C0.33 0 0.66 0 1 0 C1 14.85 1 29.7 1 45 C-0.98 45.5 -0.98 45.5 -3 46 C-9.12 52.54 -8.7 60.92 -8.62 69.31 C-8.63 70.77 -8.64 72.22 -8.64 73.67 C-8.66 77.66 -8.65 81.65 -8.63 85.64 C-8.62 89.99 -8.63 94.33 -8.64 98.67 C-8.66 106.28 -8.65 113.89 -8.64 121.5 C-8.61 132.82 -8.62 144.14 -8.63 155.45 C-8.65 175.66 -8.64 195.87 -8.62 216.08 C-8.6 233.77 -8.59 251.45 -8.59 269.14 C-8.59 270.31 -8.59 271.49 -8.59 272.69 C-8.59 277.45 -8.59 282.21 -8.59 286.97 C-8.6 331.63 -8.58 376.29 -8.54 420.94 C-8.51 460.63 -8.49 500.32 -8.5 540.01 C-8.5 542.56 -8.5 545.11 -8.5 547.66 C-8.5 548.92 -8.5 550.18 -8.5 551.48 C-8.5 557.82 -8.5 564.16 -8.51 570.5 C-8.51 571.76 -8.51 573.01 -8.51 574.3 C-8.51 607.44 -8.5 640.59 -8.49 673.74 C-8.49 674.92 -8.48 676.1 -8.48 677.31 C-8.48 678.49 -8.48 679.67 -8.48 680.88 C-8.48 682.64 -8.48 682.64 -8.48 684.44 C-8.48 686.81 -8.48 689.17 -8.48 691.54 C-8.47 708.04 -8.47 724.55 -8.47 741.05 C-8.47 762.32 -8.46 783.59 -8.44 804.85 C-8.42 816.11 -8.42 827.36 -8.43 838.61 C-8.43 846.12 -8.42 853.63 -8.41 861.14 C-8.4 865.42 -8.39 869.7 -8.4 873.99 C-8.41 877.88 -8.41 881.78 -8.39 885.67 C-8.39 887.07 -8.39 888.47 -8.39 889.88 C-8.43 897.32 -8.1 903.19 -5 910 C-5 910.66 -5 911.32 -5 912 C-4.34 912 -3.68 912 -3 912 C-3 912.99 -3 913.98 -3 915 C-2.34 915 -1.68 915 -1 915 C-1 916.32 -1 917.64 -1 919 C-0.34 919 0.32 919 1 919 C2.39 920.96 3.72 922.96 5 925 C14.39 939.08 29.54 948.76 45 955 C45 955.99 45 956.98 45 958 C43.35 958.66 41.7 959.32 40 960 C39.28 959.34 38.56 958.68 37.81 958 C34.68 955.37 31.32 953.34 27.81 951.25 C8.9 939.83 -3.97 923.45 -12 903 C-12.91 899.29 -13.13 895.84 -13.13 892.02 C-13.13 890.81 -13.13 889.61 -13.14 888.36 C-13.14 887.02 -13.13 885.68 -13.13 884.34 C-13.13 882.91 -13.14 881.48 -13.14 880.05 C-13.14 876.1 -13.14 872.15 -13.14 868.2 C-13.14 863.91 -13.15 859.62 -13.15 855.33 C-13.16 846.82 -13.16 838.3 -13.16 829.79 C-13.16 819.59 -13.17 809.39 -13.17 799.2 C-13.19 774.55 -13.2 749.91 -13.2 725.27 C-13.2 713.61 -13.21 701.96 -13.21 690.3 C-13.22 650.42 -13.23 610.54 -13.24 570.66 C-13.24 568.16 -13.24 565.65 -13.24 563.15 C-13.24 560.64 -13.24 558.13 -13.24 555.62 C-13.24 550.58 -13.24 545.55 -13.24 540.51 C-13.24 539.26 -13.24 538.02 -13.24 536.73 C-13.24 496.23 -13.26 455.73 -13.28 415.23 C-13.31 372.43 -13.32 329.63 -13.32 286.82 C-13.32 282.13 -13.32 277.43 -13.32 272.74 C-13.32 271.58 -13.32 270.42 -13.32 269.23 C-13.32 250.6 -13.34 231.97 -13.35 213.34 C-13.36 194.63 -13.37 175.91 -13.36 157.2 C-13.36 146.07 -13.36 134.95 -13.38 123.83 C-13.38 116.4 -13.38 108.97 -13.37 101.54 C-13.37 97.31 -13.37 93.08 -13.38 88.84 C-13.39 84.99 -13.39 81.14 -13.38 77.28 C-13.37 75.25 -13.38 73.21 -13.39 71.17 C-13.34 62.12 -12.3 54.61 -6.94 47.12 C-6.43 46.41 -5.92 45.69 -5.4 44.95 C-4.94 44.3 -4.48 43.66 -4 43 C-2.02 40.03 -1.74 39.33 -1.59 35.99 C-1.55 35.19 -1.51 34.39 -1.47 33.56 C-1.44 32.7 -1.4 31.84 -1.37 30.96 C-1.33 30.07 -1.28 29.19 -1.24 28.28 C-1.11 25.46 -0.99 22.64 -0.88 19.81 C-0.79 17.9 -0.7 15.99 -0.61 14.07 C-0.4 9.38 -0.2 4.69 0 0 Z " fill="#020202" transform="translate(232,267)"/>
<path d="M0 0 C8.88 -0.03 8.88 -0.03 17.94 -0.06 C19.81 -0.07 21.68 -0.08 23.61 -0.09 C25.08 -0.09 26.55 -0.1 28.03 -0.1 C28.8 -0.1 29.57 -0.11 30.37 -0.11 C32.25 -0.11 34.12 -0.06 36 0 C37.56 1.56 37.17 3.02 37.19 5.19 C37.12 11.82 36.46 18.52 35 25 C34.01 25.5 34.01 25.5 33 26 C33 28.31 33 30.62 33 33 C22.79 35.21 13.33 35.56 3 34 C3 35.98 3 37.96 3 40 C1.51 40.5 1.51 40.5 0 41 C0 27.47 0 13.94 0 0 Z " fill="#9D9993" transform="translate(233,272)"/>
<path d="M0 0 C31.39 -0.3 31.39 -0.3 36 2 C35.67 13.88 35.34 25.76 35 38 C34.01 38.5 34.01 38.5 33 39 C33 38.01 33 37.02 33 36 C31.9 35.97 31.9 35.97 30.77 35.94 C27.43 35.84 24.09 35.73 20.75 35.62 C19.59 35.59 18.43 35.56 17.24 35.53 C15.57 35.47 15.57 35.47 13.86 35.41 C12.83 35.38 11.81 35.35 10.75 35.32 C8 35 6.31 34.5 4 33 C2.6 30.19 2.69 27.66 2.5 24.53 C2.42 23.24 2.33 21.95 2.25 20.61 C2.12 18.55 2 16.49 1.88 14.43 C1.75 12.44 1.63 10.46 1.5 8.47 C1.43 7.28 1.36 6.09 1.28 4.86 C1.18 2.06 1.18 2.06 0 0 Z " fill="#9C9892" transform="translate(478,272)"/>
<path d="M0 0 C2.25 0.93 4.5 1.87 6.75 2.81 C7.38 3.07 8.02 3.33 8.67 3.6 C12.15 5.07 15.07 6.64 18 9 C21.57 10.6 25.28 11.79 29 13 C29 13.66 29 14.32 29 15 C29.71 15.13 30.43 15.25 31.16 15.38 C34.05 16.01 36.67 16.9 39.44 17.94 C43.27 19.36 47.11 20.74 51 22 C51 22.66 51 23.32 51 24 C54.3 24.33 57.6 24.66 61 25 C62.49 19.56 62.49 19.56 64 14 C64.99 14.5 64.99 14.5 66 15 C66.41 17.5 66.41 17.5 66.62 20.56 C66.74 22.08 66.74 22.08 66.85 23.63 C66.9 24.41 66.95 25.19 67 26 C67.33 26 67.66 26 68 26 C68 33.26 68 40.52 68 48 C65.59 47.94 63.17 47.88 60.69 47.81 C59.55 47.8 59.55 47.8 58.4 47.79 C56.57 47.71 56.57 47.71 53 47 C52.01 45.35 51.02 43.7 50 42 C54.29 42 58.58 42 63 42 C63 39.69 63 37.38 63 35 C48.96 25.86 31.79 24.9 15.54 23.78 C10.09 23.38 5.19 22.76 0 21 C-0.2 17.69 -0.38 14.38 -0.56 11.06 C-0.62 10.12 -0.67 9.17 -0.73 8.2 C-0.78 7.3 -0.83 6.4 -0.88 5.47 C-0.93 4.64 -0.97 3.81 -1.02 2.95 C-1 1 -1 1 0 0 Z " fill="#97938C" transform="translate(435,54)"/>
<path d="M0 0 C0.99 0 1.98 0 3 0 C3 0.66 3 1.32 3 2 C3.99 2 4.98 2 6 2 C6.08 2.78 6.15 3.57 6.23 4.37 C7.73 19.92 9.34 35.43 11.35 50.93 C12.32 58.48 13.12 65.7 12.84 73.32 C12.88 76.04 12.88 76.04 13.91 78.6 C15.5 83.55 15.94 88.54 16.5 93.69 C16.63 94.82 16.76 95.95 16.89 97.12 C17.94 106.67 18.68 116.24 19.27 125.84 C19.32 137.06 19.32 137.06 23.7 146.74 C26.59 148.32 28.72 148.46 32.01 148.59 C33.16 148.65 34.31 148.71 35.5 148.78 C37.92 148.89 40.35 148.99 42.78 149.08 C44.5 149.18 44.5 149.18 46.26 149.28 C47.31 149.32 48.36 149.36 49.45 149.41 C52 150 52 150 53.36 152.05 C53.57 152.69 53.78 153.34 54 154 C45.57 154.11 37.17 153.99 28.75 153.56 C27.93 153.52 27.11 153.48 26.26 153.44 C22.98 153.27 20.13 153.04 17 152 C16.09 149.28 15.8 147.36 15.64 144.54 C15.59 143.65 15.54 142.75 15.48 141.82 C15.43 140.86 15.37 139.89 15.32 138.9 C15.19 136.86 15.07 134.83 14.94 132.79 C14.75 129.57 14.56 126.35 14.38 123.14 C14.2 120.04 14.01 116.94 13.82 113.84 C13.74 112.38 13.74 112.38 13.66 110.9 C13.6 110.01 13.54 109.11 13.49 108.2 C13.44 107.41 13.39 106.62 13.35 105.81 C13.18 104.91 13.18 104.91 13 104 C12.34 103.67 11.68 103.34 11 103 C10.66 101.22 10.66 101.22 10.53 98.86 C10.48 97.99 10.42 97.11 10.37 96.2 C10.32 95.25 10.27 94.3 10.22 93.31 C10.16 92.34 10.1 91.37 10.04 90.36 C9.79 86.18 9.56 82 9.32 77.82 C9.15 74.77 8.97 71.73 8.78 68.69 C8.73 67.73 8.68 66.78 8.63 65.8 C8.58 64.92 8.53 64.04 8.47 63.14 C8.43 62.36 8.39 61.58 8.34 60.78 C8.23 60.2 8.12 59.61 8 59 C7.34 58.67 6.68 58.34 6 58 C4.99 52.32 4.87 46.76 4.94 41 C4.94 40.23 4.95 39.45 4.95 38.65 C4.96 36.77 4.98 34.88 5 33 C4.34 33 3.68 33 3 33 C2.26 27.26 1.92 21.76 2.06 15.97 C2.22 14 2.22 14 1 13 C0.58 11.01 0.21 9.01 -0.12 7 C-0.31 5.91 -0.5 4.81 -0.7 3.69 C-0.8 2.8 -0.9 1.91 -1 1 C-0.67 0.67 -0.34 0.34 0 0 Z " fill="#CBA13C" transform="translate(458,119)"/>
<path d="M0 0 C0.99 0 1.98 0 3 0 C2.04 22.82 2.04 22.82 -0.53 31.89 C-1.02 34.1 -1.03 35.93 -0.94 38.19 C-0.87 45.08 -1.79 51.86 -2.65 58.69 C-2.94 60.96 -3.22 63.23 -3.49 65.49 C-5.18 79.18 -5.18 79.18 -7 81 C-6.67 81 -6.34 81 -6 81 C-6.14 83.75 -6.29 86.5 -6.44 89.25 C-6.48 90.03 -6.52 90.8 -6.56 91.61 C-6.62 92.74 -6.62 92.74 -6.68 93.89 C-6.72 94.58 -6.76 95.27 -6.79 95.99 C-7.01 98.07 -7.45 99.99 -8 102 C-8.66 102 -9.32 102 -10 102 C-9.67 102.66 -9.34 103.32 -9 104 C-8.4 112.48 -9.48 120.96 -10.44 129.38 C-10.57 130.62 -10.71 131.86 -10.85 133.14 C-11.55 139.55 -12.38 145.76 -14 152 C-15.05 151.99 -16.1 151.99 -17.18 151.98 C-21.07 151.97 -24.96 151.95 -28.84 151.95 C-30.53 151.94 -32.21 151.93 -33.9 151.92 C-36.31 151.91 -38.73 151.91 -41.15 151.9 C-41.9 151.9 -42.66 151.89 -43.44 151.89 C-47.35 151.81 -47.35 151.81 -51 153 C-51.33 151.35 -51.66 149.7 -52 148 C-51.21 147.98 -50.42 147.96 -49.6 147.94 C-46 147.84 -42.41 147.73 -38.81 147.62 C-36.94 147.58 -36.94 147.58 -35.04 147.53 C-33.84 147.49 -32.63 147.45 -31.39 147.41 C-30.29 147.38 -29.18 147.35 -28.05 147.32 C-24.97 147 -22.74 146.41 -20 145 C-16.4 138.31 -16.12 129.88 -15.54 122.42 C-15.42 120.91 -15.42 120.91 -15.29 119.38 C-15.14 117.38 -15 115.37 -14.87 113.36 C-14.53 108.78 -14.05 104.74 -12.43 100.42 C-10.95 96.38 -10.85 93.05 -10.98 88.79 C-11.02 83.14 -10.2 77.54 -9.56 71.94 C-9.43 70.72 -9.29 69.51 -9.15 68.26 C-8.77 64.84 -8.39 61.42 -8 58 C-7.84 56.57 -7.68 55.14 -7.52 53.71 C-6.8 47.16 -6.07 40.62 -5.33 34.08 C-5.15 32.53 -4.98 30.99 -4.8 29.44 C-1.71 1.71 -1.71 1.71 0 0 Z " fill="#C4A24E" transform="translate(285,121)"/>
<path d="M0 0 C5.53 0.01 11.06 0.02 16.59 0.02 C22.68 0.01 28.77 0.02 34.87 0.03 C37.41 0.03 39.96 0.03 42.51 0.03 C55.17 0.04 67.72 0.18 80.34 1.2 C83.16 1.35 85.98 1.43 88.81 1.52 C89.84 1.55 89.84 1.55 90.9 1.58 C93.02 1.64 95.15 1.7 97.28 1.76 C98.75 1.81 100.23 1.85 101.7 1.89 C105.25 2 108.79 2.1 112.34 2.2 C112.34 2.86 112.34 3.52 112.34 4.2 C114.32 4.2 116.3 4.2 118.34 4.2 C118.34 4.53 118.34 4.86 118.34 5.2 C109.29 6 100.46 6.26 91.39 5.86 C88.86 5.77 86.33 5.67 83.8 5.58 C82.47 5.52 81.13 5.47 79.79 5.42 C53.73 4.42 27.68 3.99 1.6 4.01 C-0.82 4.01 -3.23 4.01 -5.65 4.01 C-21.3 4.01 -36.92 4.11 -52.56 4.94 C-60.89 5.38 -69.23 5.56 -77.57 5.76 C-80.45 5.83 -83.33 5.9 -86.21 5.98 C-88.08 6.03 -89.96 6.07 -91.83 6.11 C-93.09 6.15 -93.09 6.15 -94.38 6.19 C-100.21 6.31 -105.87 5.9 -111.66 5.2 C-111.66 4.87 -111.66 4.54 -111.66 4.2 C-101.81 1.95 -91.95 1.52 -81.9 1.09 C-80.96 1.05 -80.03 1 -79.07 0.96 C-52.73 -0.19 -26.36 -0.07 0 0 Z " fill="#837D71" transform="translate(368.6576727628708,86.7994030714035)"/>
<path d="M0 0 C11.13 -0.09 22.25 -0.16 33.38 -0.21 C38.55 -0.23 43.71 -0.26 48.88 -0.3 C53.87 -0.35 58.85 -0.37 63.84 -0.38 C65.74 -0.39 67.64 -0.4 69.54 -0.42 C72.21 -0.45 74.87 -0.46 77.54 -0.45 C78.72 -0.48 78.72 -0.48 79.92 -0.5 C83.68 -0.47 85.81 -0.12 89.03 1.9 C91 4 91 4 91 6 C91.6 6.27 92.2 6.54 92.81 6.81 C96.61 8.87 96.61 8.87 98 11 C97.67 13.31 97.34 15.62 97 18 C113.17 18 129.34 18 146 18 C145 20 145 20 142.97 21.11 C139.11 22.27 135.41 22.31 131.41 22.3 C130.59 22.31 129.77 22.31 128.92 22.31 C127.18 22.32 125.45 22.32 123.72 22.32 C121.07 22.31 118.43 22.34 115.79 22.36 C114.1 22.36 112.41 22.36 110.72 22.36 C109.55 22.38 109.55 22.38 108.35 22.39 C103.5 22.35 100.22 21.64 96 19 C94.53 17.13 94.53 17.13 93.5 15.12 C91.02 10.8 88.15 7.12 83.27 5.38 C80.09 4.85 77.01 4.86 73.79 4.84 C72.71 4.83 72.71 4.83 71.61 4.82 C69.23 4.81 66.86 4.8 64.48 4.8 C62.83 4.79 61.17 4.79 59.51 4.78 C56.04 4.77 52.57 4.76 49.09 4.76 C44.66 4.75 40.22 4.73 35.79 4.7 C32.36 4.68 28.94 4.68 25.52 4.68 C23.88 4.67 22.25 4.67 20.61 4.65 C7.32 4.06 7.32 4.06 -4.02 9.97 C-4.47 10.66 -4.92 11.35 -5.38 12.06 C-6.85 14.28 -8.1 16.1 -10 18 C-10.69 15.69 -10.69 15.69 -11 13 C-9.62 11.38 -9.62 11.38 -8 10 C-7.67 9.01 -7.34 8.02 -7 7 C-5.79 6.29 -5.79 6.29 -4.56 5.56 C-1.78 3.86 -1.28 2.89 0 0 Z " fill="#020202" transform="translate(333,1210)"/>
<path d="M0 0 C2.64 0 5.28 0 8 0 C8 0.66 8 1.32 8 2 C7.34 2.33 6.68 2.66 6 3 C6 6.63 6 10.26 6 14 C5.34 14 4.68 14 4 14 C4 14.66 4 15.32 4 16 C-1.91 19.77 -8.34 20.07 -15.19 20.81 C-16.97 21.03 -16.97 21.03 -18.79 21.26 C-19.92 21.38 -21.06 21.51 -22.23 21.64 C-23.27 21.76 -24.3 21.88 -25.37 22 C-28 22 -28 22 -31 20 C-33.3 19.97 -33.3 19.97 -35.69 20.38 C-36.5 20.49 -37.3 20.6 -38.14 20.71 C-39.06 20.85 -39.06 20.85 -40 21 C-37 19 -37 19 -33 19 C-32.69 18.07 -32.69 18.07 -32.38 17.12 C-30.44 14.14 -28.37 14.11 -25 13 C-22.41 11.74 -19.89 10.34 -17.38 8.94 C-10.5 5.11 -10.5 5.11 -7.85 4.51 C-7.24 4.34 -6.63 4.17 -6 4 C-5.67 3.34 -5.34 2.68 -5 2 C-3.35 2 -1.7 2 0 2 C0 1.34 0 0.68 0 0 Z " fill="#9C978F" transform="translate(305,56)"/>
<path d="M0 0 C0.33 0 0.66 0 1 0 C1.03 0.69 1.05 1.37 1.08 2.08 C1.13 2.98 1.19 3.88 1.25 4.81 C1.3 5.71 1.34 6.6 1.39 7.52 C1.8 10.09 1.8 10.09 3.71 11.76 C6.32 13.17 8.38 13.64 11.31 14.06 C12.37 14.21 13.42 14.37 14.5 14.52 C16.23 14.76 16.23 14.76 18 15 C19.27 15.2 20.53 15.4 21.84 15.6 C28.59 16.61 34.29 17.16 41 16 C44 15.91 47 15.94 50 16 C50 16.66 50 17.32 50 18 C53.3 18.33 56.6 18.66 60 19 C61.49 13.56 61.49 13.56 63 8 C63.99 8.5 63.99 8.5 65 9 C65.41 11.5 65.41 11.5 65.62 14.56 C65.74 16.08 65.74 16.08 65.85 17.63 C65.9 18.41 65.95 19.19 66 20 C66.33 20 66.66 20 67 20 C67 27.26 67 34.52 67 42 C64.59 41.94 62.17 41.88 59.69 41.81 C58.55 41.8 58.55 41.8 57.4 41.79 C55.57 41.71 55.57 41.71 52 41 C51.01 39.35 50.02 37.7 49 36 C53.29 36 57.58 36 62 36 C62 33.69 62 31.38 62 29 C47.93 19.84 30.72 18.93 14.45 17.7 C13.45 17.62 12.45 17.54 11.41 17.46 C10.52 17.4 9.62 17.33 8.69 17.27 C5.78 16.98 2.89 16.48 0 16 C0 10.72 0 5.44 0 0 Z " fill="#898376" transform="translate(436,60)"/>
<path d="M0 0 C0.33 0 0.66 0 1 0 C3.24 10.35 1.74 20.98 0.56 31.38 C0.43 32.62 0.29 33.86 0.15 35.14 C-0.55 41.55 -1.38 47.76 -3 54 C-4.05 53.99 -5.1 53.99 -6.18 53.98 C-10.07 53.97 -13.96 53.95 -17.84 53.95 C-19.53 53.94 -21.21 53.93 -22.9 53.92 C-25.31 53.91 -27.73 53.91 -30.15 53.9 C-30.9 53.9 -31.66 53.89 -32.44 53.89 C-36.35 53.81 -36.35 53.81 -40 55 C-40.33 53.35 -40.66 51.7 -41 50 C-40.21 49.98 -39.42 49.96 -38.6 49.94 C-35 49.84 -31.41 49.73 -27.81 49.62 C-26.57 49.59 -25.32 49.56 -24.04 49.53 C-22.84 49.49 -21.63 49.45 -20.39 49.41 C-19.29 49.38 -18.18 49.35 -17.05 49.32 C-13.97 49 -11.74 48.41 -9 47 C-5.38 40.29 -5.12 31.83 -4.54 24.35 C-4.46 23.34 -4.38 22.32 -4.29 21.28 C-4.14 19.25 -4 17.22 -3.87 15.19 C-3.45 9.48 -2.61 5.11 0 0 Z " fill="#C8A244" transform="translate(274,219)"/>
<path d="M0 0 C0.99 0 1.98 0 3 0 C3 0.66 3 1.32 3 2 C3.99 2 4.98 2 6 2 C6.08 2.78 6.15 3.57 6.23 4.37 C7.73 19.92 9.34 35.43 11.35 50.93 C13.14 64.8 13.14 64.8 13.19 70.44 C13.2 71.26 13.22 72.08 13.23 72.93 C13 75 13 75 11 77 C10.76 79.44 10.76 79.44 10.88 82.12 C10.9 83.49 10.9 83.49 10.93 84.88 C10.95 85.58 10.98 86.28 11 87 C10.67 87 10.34 87 10 87 C9.95 86.16 9.9 85.31 9.85 84.45 C9.66 81.33 9.46 78.21 9.26 75.09 C9.17 73.74 9.09 72.39 9.01 71.04 C8.89 69.1 8.76 67.16 8.63 65.22 C8.56 64.05 8.49 62.89 8.41 61.68 C8.28 60.8 8.14 59.91 8 59 C7.34 58.67 6.68 58.34 6 58 C4.99 52.32 4.87 46.76 4.94 41 C4.94 40.23 4.95 39.45 4.95 38.65 C4.96 36.77 4.98 34.88 5 33 C4.34 33 3.68 33 3 33 C2.26 27.26 1.92 21.76 2.06 15.97 C2.22 14 2.22 14 1 13 C0.58 11.01 0.21 9.01 -0.12 7 C-0.31 5.91 -0.5 4.81 -0.7 3.69 C-0.8 2.8 -0.9 1.91 -1 1 C-0.67 0.67 -0.34 0.34 0 0 Z " fill="#C39C3E" transform="translate(458,119)"/>
<path d="M0 0 C0.99 0.33 1.98 0.66 3 1 C3 1.66 3 2.32 3 3 C28.87 2.89 54.74 2.78 80.61 2.66 C92.62 2.61 104.63 2.55 116.65 2.5 C127.12 2.46 137.59 2.41 148.06 2.36 C153.61 2.34 159.15 2.31 164.69 2.29 C169.92 2.27 175.14 2.25 180.36 2.22 C182.27 2.21 184.18 2.2 186.09 2.2 C195.01 2.17 203.84 2.11 212.72 1.21 C215.64 0.94 218.49 0.97 221.42 1.12 C222.47 1.17 223.51 1.22 224.59 1.27 C225.63 1.32 226.67 1.38 227.75 1.44 C228.84 1.49 229.93 1.54 231.05 1.6 C233.7 1.72 236.35 1.86 239 2 C239.33 2.66 239.66 3.32 240 4 C151.23 4 62.46 4 -29 4 C-28.67 3.34 -28.34 2.68 -28 2 C-21.55 0.93 -15.44 1 -8.94 1.44 C-7.64 1.52 -7.64 1.52 -6.31 1.6 C-4.21 1.72 -2.1 1.86 0 2 C0 1.34 0 0.68 0 0 Z " fill="#4F4940" transform="translate(265,307)"/>
<path d="M0 0 C2 3 2 3 2 5 C6.95 5 11.9 5 17 5 C17 5.33 17 5.66 17 6 C12.38 6 7.76 6 3 6 C3.33 7.65 3.66 9.3 4 11 C4.21 13.06 4.38 15.12 4.54 17.18 C4.62 18.33 4.71 19.49 4.8 20.68 C4.89 21.88 4.97 23.08 5.06 24.31 C5.15 25.53 5.24 26.75 5.34 28 C5.56 31 5.78 34 6 37 C9.31 37.97 12.42 38.19 15.86 38.32 C17.53 38.38 17.53 38.38 19.24 38.44 C20.4 38.48 21.56 38.52 22.75 38.56 C24.51 38.63 24.51 38.63 26.31 38.69 C29.21 38.8 32.1 38.9 35 39 C35.33 39.66 35.66 40.32 36 41 C35.5 41.99 35.5 41.99 35 43 C35.99 43.33 36.98 43.66 38 44 C35.03 44 32.06 44 29 44 C28.67 43.34 28.34 42.68 28 42 C20.08 41.67 12.16 41.34 4 41 C1.38 35.77 2.38 34.4 4 29 C3.34 29 2.68 29 2 29 C1.88 23.25 1.88 23.25 3 21 C2.34 21 1.68 21 1 21 C-0.34 13.74 -1.43 7.3 0 0 Z " fill="#7F796D" transform="translate(476,268)"/>
<path d="M0 0 C0.66 0 1.32 0 2 0 C0.49 32.51 0.49 32.51 -3 36 C-2.67 36 -2.34 36 -2 36 C-2.14 38.75 -2.29 41.5 -2.44 44.25 C-2.5 45.42 -2.5 45.42 -2.56 46.61 C-2.6 47.36 -2.64 48.11 -2.68 48.89 C-2.72 49.58 -2.76 50.27 -2.79 50.99 C-3.01 53.07 -3.45 54.99 -4 57 C-4.66 57 -5.32 57 -6 57 C-8.12 46.94 -6.72 36.74 -5.62 26.62 C-5.5 25.37 -5.37 24.11 -5.24 22.82 C-5.11 21.61 -4.98 20.41 -4.85 19.16 C-4.74 18.08 -4.62 16.99 -4.5 15.87 C-4.03 13.16 -3.38 11.35 -2 9 C-0.16 5.83 0.2 3.67 0 0 Z " fill="#AE924F" transform="translate(281,166)"/>
<path d="M0 0 C0.33 0 0.66 0 1 0 C1.22 2.46 1.43 4.92 1.62 7.38 C1.69 8.07 1.75 8.77 1.82 9.49 C1.96 11.32 1.99 13.16 2 15 C-0.82 17.82 -3.06 17.56 -7 18 C-7.7 18.08 -8.41 18.16 -9.13 18.24 C-10.64 18.42 -12.15 18.58 -13.65 18.75 C-16.01 19 -18.36 19.27 -20.71 19.54 C-24.48 19.96 -28.25 20.38 -32.03 20.78 C-33.78 20.98 -35.54 21.18 -37.29 21.38 C-38.63 21.53 -38.63 21.53 -40 21.69 C-40.74 21.77 -41.49 21.86 -42.25 21.95 C-44 22 -44 22 -46 21 C-48.66 20.57 -51.32 20.3 -54 20 C-51.5 17.5 -49.36 17 -46 15.94 C-41.92 14.68 -41.92 14.68 -38 13 C-38 13.99 -38 14.98 -38 16 C-37.01 16 -36.02 16 -35 16 C-34.01 16.66 -33.02 17.32 -32 18 C-29.37 18.03 -29.37 18.03 -26.45 17.61 C-24.81 17.41 -24.81 17.41 -23.14 17.21 C-21.43 16.98 -21.43 16.98 -19.69 16.75 C-18.56 16.61 -17.43 16.48 -16.27 16.34 C-8.47 15.38 -8.47 15.38 -1 13 C0 9.99 0.1 7.96 0.06 4.81 C0.05 3.91 0.04 3.01 0.04 2.08 C0.02 1.39 0.01 0.71 0 0 Z " fill="#7D776C" transform="translate(310,59)"/>
<path d="M0 0 C16.5 0 33 0 50 0 C50 0.66 50 1.32 50 2 C45.54 4.23 41.33 4.31 36.45 4.3 C35.63 4.31 34.81 4.31 33.96 4.31 C32.23 4.32 30.5 4.32 28.77 4.32 C26.14 4.31 23.51 4.34 20.88 4.36 C19.19 4.36 17.51 4.36 15.82 4.36 C15.04 4.37 14.26 4.38 13.46 4.39 C8.25 4.35 4.66 3.33 0 1 C0 0.67 0 0.34 0 0 Z " fill="#020202" transform="translate(273,1228)"/>
<path d="M0 0 C0 2.64 0 5.28 0 8 C-8.25 7.67 -16.5 7.34 -25 7 C-25.33 6.01 -25.66 5.02 -26 4 C-24.87 3.88 -23.73 3.75 -22.56 3.62 C-20.8 3.32 -20.8 3.32 -19 3 C-18.67 2.34 -18.34 1.68 -18 1 C-15.52 0.49 -13.13 0.11 -10.62 -0.19 C-9.6 -0.33 -9.6 -0.33 -8.55 -0.47 C-5.29 -0.89 -3.16 -1.05 0 0 Z " fill="#DAAB38" transform="translate(499,89)"/>
<path d="M0 0 C2.58 0.11 5.17 0.24 7.75 0.38 C8.48 0.41 9.21 0.44 9.96 0.47 C13.74 0.67 16.78 0.92 20 3 C20 3.66 20 4.32 20 5 C20.66 5 21.32 5 22 5 C22 5.66 22 6.32 22 7 C19.65 8.17 18.26 8.12 15.65 8.1 C14.8 8.09 13.95 8.09 13.07 8.09 C12.18 8.08 11.29 8.07 10.38 8.06 C9.03 8.06 9.03 8.06 7.66 8.05 C5.44 8.04 3.22 8.02 1 8 C-0.35 5.29 -0.07 2.99 0 0 Z " fill="#DAAB38" transform="translate(247,89)"/>
<path d="M0 0 C2.02 1.93 3.42 3.63 5 6 C5.01 8.23 5.01 8.23 4.69 10.62 C4.59 11.42 4.49 12.22 4.39 13.04 C4 15 4 15 3 16 C2.76 18.86 2.58 21.7 2.44 24.56 C2.39 25.37 2.35 26.18 2.31 27.01 C2.2 29 2.1 31 2 33 C0 32 0 32 -0.62 30.33 C-1.09 27.44 -1.13 24.67 -1.13 21.74 C-1.13 20.54 -1.14 19.34 -1.14 18.1 C-1.13 16.85 -1.13 15.6 -1.12 14.31 C-1.13 13.05 -1.13 11.79 -1.14 10.49 C-1.14 9.29 -1.13 8.1 -1.13 6.86 C-1.13 5.76 -1.13 4.66 -1.13 3.53 C-1 1 -1 1 0 0 Z " fill="#908D88" transform="translate(244,65)"/>
<path d="M0 0 C0.33 0 0.66 0 1 0 C1 3.3 1 6.6 1 10 C0.34 10 -0.32 10 -1 10 C-1 10.66 -1 11.32 -1 12 C-1.55 11.99 -2.11 11.99 -2.68 11.98 C-16.87 11.82 -16.87 11.82 -31 13 C-31 11.35 -31 9.7 -31 8 C-29.74 8.17 -28.48 8.33 -27.19 8.5 C-18.14 9.48 -9.86 9.15 -1 7 C-1.02 6.03 -1.04 5.06 -1.06 4.06 C-1 1 -1 1 0 0 Z " fill="#888277" transform="translate(266,297)"/>
<path d="M0 0 C2 3 2 3 2 5 C6.95 5 11.9 5 17 5 C17 5.33 17 5.66 17 6 C12.38 6 7.76 6 3 6 C3.33 7.65 3.66 9.3 4 11 C4.14 12.76 4.24 14.53 4.32 16.3 C4.36 17.28 4.4 18.25 4.44 19.26 C4.48 20.27 4.52 21.27 4.56 22.31 C4.61 23.34 4.65 24.37 4.69 25.42 C4.8 27.95 4.9 30.47 5 33 C4.67 31.68 4.34 30.36 4 29 C3.34 29 2.68 29 2 29 C1.88 23.25 1.88 23.25 3 21 C2.34 21 1.68 21 1 21 C-0.34 13.74 -1.43 7.3 0 0 Z " fill="#837D71" transform="translate(476,268)"/>
<path d="M0 0 C-0.99 0.5 -0.99 0.5 -2 1 C-2 1.66 -2 2.32 -2 3 C-13.52 7.22 -13.52 7.22 -19 9 C-19.75 6.29 -20.2 4.58 -19.28 1.88 C-18 0 -18 0 -16.15 -0.64 C-10.61 -1.07 -5.51 -0.79 0 0 Z " fill="#7F796E" transform="translate(268,79)"/>
<path d="M0 0 C0.33 0 0.66 0 1 0 C1.03 0.69 1.05 1.37 1.08 2.08 C1.13 2.98 1.19 3.88 1.25 4.81 C1.3 5.71 1.34 6.6 1.39 7.52 C1.8 10.09 1.8 10.09 3.71 11.76 C6.33 13.18 8.42 13.65 11.38 14.06 C12.94 14.3 12.94 14.3 14.54 14.54 C16.98 14.86 19.42 15.18 21.86 15.5 C23.76 15.75 23.76 15.75 25.69 16 C27.46 16.22 27.46 16.22 29.26 16.44 C30.17 16.62 31.07 16.81 32 17 C32.5 17.99 32.5 17.99 33 19 C28.62 18.69 24.25 18.38 19.88 18.06 C18.64 17.98 17.4 17.89 16.12 17.8 C14.93 17.71 13.73 17.62 12.49 17.54 C10.84 17.42 10.84 17.42 9.16 17.3 C6.09 17.01 3.04 16.51 0 16 C0 10.72 0 5.44 0 0 Z " fill="#787267" transform="translate(436,60)"/>
<path d="M0 0 C0.11 6.11 -0.1 11.95 -1 18 C-1.33 18 -1.66 18 -2 18 C-2.66 12.72 -3.32 7.44 -4 2 C-6.97 1.5 -6.97 1.5 -10 1 C-10 0.67 -10 0.34 -10 0 C-6.3 -0.95 -3.7 -0.95 0 0 Z " fill="#837D71" transform="translate(270,273)"/>
<path d="M0 0 C1.22 0.01 2.44 0.01 3.7 0.02 C4.91 0.01 6.13 0.01 7.38 0 C10.9 0.26 13.67 1 16.95 2.27 C16.95 2.6 16.95 2.93 16.95 3.27 C6.06 3.76 6.06 3.76 -5.05 4.27 C-5.05 0.63 -3.32 0.29 0 0 Z " fill="#837D71" transform="translate(251.046875,96.734375)"/>
<path d="M0 0 C1.04 2.7 1.06 3.83 0.06 6.59 C-1.23 10.74 -1.45 14.56 -1.62 18.88 C-1.66 19.66 -1.7 20.44 -1.74 21.25 C-1.84 23.17 -1.92 25.08 -2 27 C-2.66 26.67 -3.32 26.34 -4 26 C-4.59 23.35 -4.74 20.71 -5 18 C-4.67 18 -4.34 18 -4 18 C-3.96 17.12 -3.93 16.24 -3.89 15.33 C-3.82 14.17 -3.76 13.01 -3.69 11.81 C-3.63 10.66 -3.57 9.52 -3.51 8.33 C-2.98 4.85 -2.01 2.85 0 0 Z " fill="#7C7A73" transform="translate(248,71)"/>
<path d="M0 0 C0.99 0 1.98 0 3 0 C4.28 3.85 4.07 6.95 4 11 C0 6.25 0 6.25 0 4 C-1.92 3.81 -1.92 3.81 -3.88 3.62 C-7.75 3.25 -7.75 3.25 -10 1 C-6.7 1.33 -3.4 1.66 0 2 C0 1.34 0 0.68 0 0 Z " fill="#9C9992" transform="translate(496,77)"/>
<path d="M0 0 C0.99 0 1.98 0 3 0 C2.67 5.94 2.34 11.88 2 18 C1.67 18 1.34 18 1 18 C-1.39 5.99 -1.39 5.99 -1 1 C-0.67 0.67 -0.34 0.34 0 0 Z " fill="#A18B56" transform="translate(285,121)"/>
<path d="M0 0 C6.27 0.66 12.54 1.32 19 2 C19 2.33 19 2.66 19 3 C9.59 3.99 9.59 3.99 0 5 C0 3.35 0 1.7 0 0 Z " fill="#807A6E" transform="translate(235,305)"/>
<path d="M0 0 C0.66 0 1.32 0 2 0 C1.67 4.29 1.34 8.58 1 13 C0.34 13 -0.32 13 -1 13 C-0.67 15.64 -0.34 18.28 0 21 C-0.66 21.33 -1.32 21.66 -2 22 C-2.05 19.27 -2.09 16.54 -2.12 13.81 C-2.14 13.04 -2.16 12.27 -2.18 11.48 C-2.21 7.19 -2 3.92 0 0 Z " fill="#9F9B92" transform="translate(248,76)"/>
<path d="M0 0 C0.81 0.1 1.62 0.2 2.45 0.31 C3.06 0.39 3.68 0.48 4.31 0.56 C3.32 1.06 3.32 1.06 2.31 1.56 C2.31 2.22 2.31 2.88 2.31 3.56 C-2.14 4.06 -2.14 4.06 -6.69 4.56 C-6.69 3.9 -6.69 3.24 -6.69 2.56 C-8.34 2.56 -9.99 2.56 -11.69 2.56 C-7.54 0.42 -4.68 -0.61 0 0 Z " fill="#A59F8F" transform="translate(263.6875,78.4375)"/>
<path d="M0 0 C0.99 0.33 1.98 0.66 3 1 C1.33 2.67 -0.33 4.33 -2 6 C-2.56 6.6 -3.11 7.2 -3.69 7.81 C-5 9 -5 9 -7 9 C-5.44 5.18 -2.96 2.81 0 0 Z " fill="#ADADA5" transform="translate(330,1210)"/>
<path d="M0 0 C0 0.99 0 1.98 0 3 C-3.3 3 -6.6 3 -10 3 C-8 0 -8 0 -5.56 -0.75 C-3 -1 -3 -1 0 0 Z " fill="#AEAEA4" transform="translate(477,1223)"/>
<path d="M0 0 C0.33 0 0.66 0 1 0 C1 6.6 1 13.2 1 20 C0.67 20 0.34 20 0 20 C0 13.4 0 6.8 0 0 Z " fill="#020202" transform="translate(504,65)"/>
<path d="M0 0 C0.66 0 1.32 0 2 0 C2 4.62 2 9.24 2 14 C1.67 14 1.34 14 1 14 C0.67 9.38 0.34 4.76 0 0 Z " fill="#D5D3C9" transform="translate(501,65)"/>
<path d="M0 0 C0.99 0.33 1.98 0.66 3 1 C2.67 1.66 2.34 2.32 2 3 C1.34 2.01 0.68 1.02 0 0 Z " fill="#020202" transform="translate(500,127)"/>
<path d="M0 0 C0.66 0 1.32 0 2 0 C1.67 0.66 1.34 1.32 1 2 C0.67 1.34 0.34 0.68 0 0 Z " fill="#020202" transform="translate(503,130)"/>
<path d="M0 0 C0.66 0 1.32 0 2 0 C1.67 0.66 1.34 1.32 1 2 C0.67 1.34 0.34 0.68 0 0 Z " fill="#020202" transform="translate(495,122)"/>
<path d="" fill="#020202" transform="translate(0,0)"/>
<path d="" fill="#020202" transform="translate(0,0)"/>
<path d="" fill="#020202" transform="translate(0,0)"/>
<path d="" fill="#020202" transform="translate(0,0)"/>
<path d="" fill="#020202" transform="translate(0,0)"/>
<path d="" fill="#020202" transform="translate(0,0)"/>
<path d="" fill="#020202" transform="translate(0,0)"/>
<path d="" fill="#020202" transform="translate(0,0)"/>
<path d="" fill="#020202" transform="translate(0,0)"/>
<path d="" fill="#020202" transform="translate(0,0)"/>
<path d="" fill="#FBFDFD" transform="translate(0,0)"/>
<path d="" fill="#FBFDFD" transform="translate(0,0)"/>
</svg>
