<?xml version="1.0" encoding="UTF-8"?>
<!-- Generator: visioncortex VTracer 0.6.3 -->
<svg version="1.1" xmlns="http://www.w3.org/2000/svg" width="768" height="1280">
<path d="M0 0 C0.89 -0 1.78 -0 2.7 -0 C5.68 -0.01 8.65 -0.01 11.62 -0 C13.76 -0 15.9 -0.01 18.04 -0.01 C23.83 -0.01 29.63 -0.01 35.43 -0.01 C41.5 -0 47.57 -0.01 53.64 -0.01 C63.83 -0.01 74.02 -0.01 84.21 -0 C95.99 0 107.77 0 119.55 -0.01 C129.67 -0.01 139.79 -0.01 149.91 -0.01 C155.95 -0.01 161.99 -0.01 168.03 -0.01 C173.71 -0.01 179.39 -0.01 185.07 -0 C187.15 -0 189.24 -0 191.32 -0.01 C194.17 -0.01 197.01 -0 199.86 0 C200.68 -0 201.5 -0 202.35 -0.01 C206.98 0.01 211.36 0.36 215.93 1.13 C215.93 1.79 215.93 2.45 215.93 3.13 C216.73 3.22 216.73 3.22 217.55 3.31 C221.1 4.53 223.19 6.57 225.93 9.13 C225.93 9.79 225.93 10.45 225.93 11.13 C226.92 11.46 227.91 11.79 228.93 12.13 C229.49 14 229.49 14 229.93 16.13 C230.59 17.12 231.25 18.11 231.93 19.13 C232.59 18.8 233.25 18.47 233.93 18.13 C241.42 27.16 243.09 34.3 242.9 45.93 C242.9 47.48 242.91 49.03 242.92 50.59 C242.94 54.76 242.91 58.94 242.88 63.12 C242.85 67.5 242.86 71.88 242.88 76.27 C242.9 84.56 242.87 92.85 242.84 101.14 C242.79 113.32 242.78 125.5 242.79 137.68 C242.79 138.57 242.79 139.47 242.79 140.39 C242.79 142.17 242.8 143.95 242.8 145.73 C242.8 150.95 242.79 156.16 242.77 161.37 C242.75 164.61 242.75 167.85 242.74 171.08 C242.74 172.58 242.73 174.09 242.72 175.59 C242.71 177.63 242.71 179.68 242.7 181.73 C242.7 183.45 242.7 183.45 242.69 185.2 C242.93 188.09 243.35 189.72 244.93 192.13 C246.7 193.38 246.7 193.38 248.74 194.38 C254.04 197.55 256.93 201.47 258.57 207.46 C260.01 215.14 260.21 222.6 260.18 230.4 C260.18 231.82 260.19 233.24 260.19 234.67 C260.2 238.57 260.19 242.47 260.19 246.37 C260.18 250.62 260.19 254.86 260.19 259.11 C260.2 266.55 260.2 273.99 260.19 281.43 C260.19 292.5 260.19 303.56 260.2 314.63 C260.21 334.39 260.21 354.16 260.2 373.92 C260.2 391.21 260.19 408.51 260.2 425.8 C260.2 427.52 260.2 427.52 260.2 429.28 C260.2 433.93 260.2 438.59 260.2 443.24 C260.21 486.92 260.2 530.6 260.19 574.28 C260.18 613.09 260.18 651.9 260.19 690.71 C260.2 734.31 260.2 777.91 260.2 821.51 C260.2 826.16 260.2 830.81 260.2 835.45 C260.2 836.6 260.2 837.74 260.2 838.92 C260.19 856.2 260.2 873.49 260.2 890.77 C260.21 910.42 260.21 930.08 260.2 949.73 C260.19 960.73 260.19 971.73 260.2 982.73 C260.2 990.07 260.2 997.42 260.19 1004.77 C260.18 1008.95 260.18 1013.14 260.19 1017.33 C260.2 1021.14 260.19 1024.95 260.18 1028.76 C260.18 1030.77 260.19 1032.78 260.2 1034.79 C260.15 1045.22 259.29 1054.75 254.37 1064.06 C254.02 1064.74 253.67 1065.42 253.31 1066.11 C249.85 1072.65 245.6 1078.39 240.93 1084.13 C240.49 1084.72 240.05 1085.31 239.6 1085.92 C233.03 1094.56 223.17 1100 214 1105.45 C213.24 1105.9 212.49 1106.34 211.71 1106.81 C211.03 1107.21 210.35 1107.61 209.65 1108.02 C207.77 1109.14 207.77 1109.14 205.93 1111.13 C205.93 1111.79 205.93 1112.45 205.93 1113.13 C200.46 1115.86 196.22 1116.57 190.14 1116.53 C189.32 1116.53 188.51 1116.53 187.66 1116.53 C185.94 1116.54 184.22 1116.53 182.5 1116.52 C179.87 1116.5 177.25 1116.52 174.62 1116.54 C172.94 1116.54 171.26 1116.53 169.58 1116.53 C168.8 1116.53 168.02 1116.54 167.22 1116.54 C162.4 1116.48 159.13 1115.74 154.93 1113.13 C152.5 1110.19 151.13 1106.73 149.93 1103.13 C144.51 1099.71 138.79 1098.87 132.49 1098.85 C131.41 1098.84 131.41 1098.84 130.31 1098.84 C127.95 1098.82 125.58 1098.82 123.22 1098.83 C121.56 1098.82 119.91 1098.82 118.26 1098.81 C114.8 1098.81 111.33 1098.81 107.87 1098.81 C103.45 1098.82 99.03 1098.8 94.61 1098.78 C91.2 1098.76 87.78 1098.76 84.37 1098.76 C82.74 1098.76 81.11 1098.76 79.48 1098.75 C66.26 1098.22 66.26 1098.22 54.91 1104.03 C54.24 1105.04 54.24 1105.04 53.55 1106.06 C53.09 1106.73 52.63 1107.4 52.16 1108.09 C50.88 1110.09 50.88 1110.09 50.08 1112.26 C48.42 1114.95 46.95 1115.21 43.93 1116.13 C41.04 1116.33 38.26 1116.43 35.37 1116.43 C34.14 1116.43 34.14 1116.43 32.89 1116.44 C31.16 1116.45 29.43 1116.45 27.7 1116.44 C25.07 1116.44 22.44 1116.46 19.81 1116.49 C18.12 1116.49 16.44 1116.49 14.75 1116.49 C13.97 1116.5 13.19 1116.51 12.39 1116.52 C7.18 1116.47 3.59 1115.46 -1.07 1113.13 C-1.07 1112.47 -1.07 1111.81 -1.07 1111.13 C-1.73 1110.8 -2.39 1110.47 -3.07 1110.13 C-3.07 1109.47 -3.07 1108.81 -3.07 1108.13 C-3.8 1107.85 -4.52 1107.58 -5.27 1107.29 C-13.38 1103.91 -20.27 1098.59 -27.07 1093.13 C-27.82 1092.6 -28.56 1092.08 -29.33 1091.54 C-29.9 1091.08 -30.48 1090.61 -31.07 1090.13 C-31.07 1089.47 -31.07 1088.81 -31.07 1088.13 C-31.73 1088.13 -32.39 1088.13 -33.07 1088.13 C-44.73 1076 -55.19 1059.18 -55.2 1042.04 C-55.2 1040.83 -55.2 1039.62 -55.21 1038.38 C-55.21 1037.04 -55.2 1035.71 -55.2 1034.38 C-55.2 1032.95 -55.21 1031.52 -55.21 1030.09 C-55.21 1026.16 -55.21 1022.22 -55.21 1018.28 C-55.21 1014 -55.22 1009.72 -55.22 1005.45 C-55.23 996.95 -55.23 988.46 -55.23 979.97 C-55.23 969.8 -55.24 959.64 -55.24 949.47 C-55.26 924.89 -55.27 900.31 -55.27 875.74 C-55.27 864.12 -55.28 852.49 -55.28 840.87 C-55.29 801.09 -55.3 761.32 -55.31 721.54 C-55.31 719.04 -55.31 716.55 -55.31 714.05 C-55.31 711.55 -55.31 709.04 -55.31 706.54 C-55.31 701.52 -55.31 696.5 -55.31 691.47 C-55.31 690.23 -55.31 688.98 -55.31 687.7 C-55.31 647.31 -55.33 606.92 -55.35 566.53 C-55.38 523.84 -55.39 481.16 -55.39 438.47 C-55.39 433.78 -55.39 429.1 -55.39 424.41 C-55.39 423.26 -55.39 422.11 -55.39 420.92 C-55.4 402.34 -55.41 383.76 -55.42 365.19 C-55.44 346.52 -55.44 327.86 -55.43 309.19 C-55.43 298.1 -55.43 287.01 -55.45 275.91 C-55.46 268.51 -55.45 261.1 -55.44 253.69 C-55.44 249.47 -55.44 245.25 -55.45 241.02 C-55.46 237.18 -55.46 233.34 -55.45 229.5 C-55.44 227.47 -55.45 225.44 -55.47 223.41 C-55.41 214.27 -54.53 205.77 -49.01 198.19 C-48.5 197.48 -48 196.77 -47.47 196.04 C-47.01 195.41 -46.55 194.78 -46.07 194.13 C-44 191.02 -43.8 190.17 -43.66 186.62 C-43.62 185.7 -43.58 184.78 -43.54 183.83 C-43.51 182.83 -43.48 181.82 -43.45 180.78 C-43.39 179.19 -43.39 179.19 -43.34 177.56 C-42.95 165.58 -42.96 153.6 -43 141.62 C-43.01 137.53 -43.02 133.45 -43.02 129.36 C-43.03 120.7 -43.05 112.04 -43.07 103.38 C-43.09 93.98 -43.11 84.58 -43.12 75.18 C-43.13 71.78 -43.13 68.39 -43.15 65 C-43.16 61.22 -43.16 57.45 -43.17 53.67 C-43.17 52.58 -43.18 51.48 -43.18 50.35 C-43.18 45.11 -43.07 39.89 -42.75 34.66 C-42.7 33.71 -42.64 32.77 -42.58 31.8 C-41.99 28.69 -40.94 26.67 -39.07 24.13 C-38.41 24.13 -37.75 24.13 -37.07 24.13 C-36.89 23.47 -36.7 22.81 -36.51 22.13 C-32.4 13.56 -23.87 6.33 -16.07 1.13 C-10.7 0.07 -5.45 -0.01 0 0 Z M234.93 23.13 C235.93 25.13 235.93 25.13 235.93 25.13 Z M236.93 26.13 C237.59 27.78 238.25 29.43 238.93 31.13 C239.26 30.47 239.59 29.81 239.93 29.13 C238.94 28.14 237.95 27.15 236.93 26.13 Z M239.93 31.13 C239.93 72.71 239.93 114.29 239.93 157.13 C240.26 157.13 240.59 157.13 240.93 157.13 C240.93 115.55 240.93 73.97 240.93 31.13 C240.6 31.13 240.27 31.13 239.93 31.13 Z M239.93 159.13 C239.93 169.36 239.93 179.59 239.93 190.13 C240.26 190.13 240.59 190.13 240.93 190.13 C240.93 179.9 240.93 169.67 240.93 159.13 C240.6 159.13 240.27 159.13 239.93 159.13 Z M253.93 204.13 C254.93 206.13 254.93 206.13 254.93 206.13 Z M254.93 206.13 C254.93 208.11 254.93 210.09 254.93 212.13 C255.26 212.13 255.59 212.13 255.93 212.13 C255.93 210.15 255.93 208.17 255.93 206.13 C255.6 206.13 255.27 206.13 254.93 206.13 Z M254.93 1046.13 C254.93 1047.78 254.93 1049.43 254.93 1051.13 C255.26 1051.13 255.59 1051.13 255.93 1051.13 C255.93 1049.48 255.93 1047.83 255.93 1046.13 C255.6 1046.13 255.27 1046.13 254.93 1046.13 Z M254.93 1052.13 C254.6 1053.45 254.27 1054.77 253.93 1056.13 C254.59 1055.8 255.25 1055.47 255.93 1055.13 C255.6 1054.14 255.27 1053.15 254.93 1052.13 Z M252.93 1057.13 C253.93 1059.13 253.93 1059.13 253.93 1059.13 Z M250.93 1061.13 C251.93 1063.13 251.93 1063.13 251.93 1063.13 Z M249.93 1063.13 C248.78 1064.87 247.63 1066.62 246.49 1068.38 C245.53 1069.84 245.53 1069.84 244.56 1071.33 C243.17 1073.71 242.38 1075.44 241.93 1078.13 C245.69 1074.78 248.86 1070.73 250.93 1066.13 C250.6 1065.14 250.27 1064.15 249.93 1063.13 Z M235.2 1083.66 C234.26 1084.63 234.26 1084.63 233.3 1085.63 C232.67 1086.28 232.04 1086.93 231.39 1087.6 C230.91 1088.1 230.43 1088.61 229.93 1089.13 C232.94 1089.47 232.94 1089.47 234.53 1087.6 C235.06 1086.95 235.58 1086.3 236.12 1085.63 C236.65 1084.98 237.18 1084.33 237.72 1083.66 C238.12 1083.15 238.52 1082.65 238.93 1082.13 C236.79 1081.91 236.79 1081.91 235.2 1083.66 Z M227.93 1091.13 C225.31 1092.52 225.31 1092.52 222.93 1094.13 C223.26 1094.79 223.59 1095.45 223.93 1096.13 C225.91 1094.81 227.89 1093.49 229.93 1092.13 C229.27 1091.8 228.61 1091.47 227.93 1091.13 Z M54.8 1098.13 C54.19 1098.79 53.57 1099.45 52.93 1100.13 C53.26 1100.79 53.59 1101.45 53.93 1102.13 C55.58 1100.15 57.23 1098.17 58.93 1096.13 C56.69 1095.9 56.69 1095.9 54.8 1098.13 Z M217.93 1098.13 C217.27 1098.79 216.61 1099.45 215.93 1100.13 C217.25 1099.8 218.57 1099.47 219.93 1099.13 C219.27 1098.8 218.61 1098.47 217.93 1098.13 Z M210.3 1102.13 C209.19 1102.79 208.08 1103.45 206.93 1104.13 C207.92 1104.62 207.92 1104.62 208.93 1105.13 C213.19 1103.5 213.19 1103.5 215.93 1100.13 C213.47 1100.13 212.41 1100.88 210.3 1102.13 Z M49.93 1103.13 C49.27 1104.45 48.61 1105.77 47.93 1107.13 C49.25 1105.81 50.57 1104.49 51.93 1103.13 C51.27 1103.13 50.61 1103.13 49.93 1103.13 Z M46.93 1107.13 C46.93 1108.78 46.93 1110.43 46.93 1112.13 C47.59 1112.13 48.25 1112.13 48.93 1112.13 C48.6 1110.48 48.27 1108.83 47.93 1107.13 C47.6 1107.13 47.27 1107.13 46.93 1107.13 Z M155.93 1110.13 C155.93 1110.79 155.93 1111.45 155.93 1112.13 C156.59 1111.8 157.25 1111.47 157.93 1111.13 C157.27 1110.8 156.61 1110.47 155.93 1110.13 Z M2.93 1112.13 C2.93 1112.46 2.93 1112.79 2.93 1113.13 C4.58 1113.13 6.23 1113.13 7.93 1113.13 C7.93 1112.8 7.93 1112.47 7.93 1112.13 C6.28 1112.13 4.63 1112.13 2.93 1112.13 Z M37.93 1112.13 C37.93 1112.46 37.93 1112.79 37.93 1113.13 C40.9 1113.13 43.87 1113.13 46.93 1113.13 C46.93 1112.8 46.93 1112.47 46.93 1112.13 C43.96 1112.13 40.99 1112.13 37.93 1112.13 Z M196.93 1112.13 C200.93 1113.13 200.93 1113.13 200.93 1113.13 Z " fill="#C12927" transform="translate(279.07080078125,115.87301635742188)"/>
<path d="M0 0 C0.89 -0 1.78 -0 2.7 -0 C5.68 -0.01 8.65 -0.01 11.62 -0 C13.76 -0 15.9 -0.01 18.04 -0.01 C23.83 -0.01 29.63 -0.01 35.43 -0.01 C41.5 -0 47.57 -0.01 53.64 -0.01 C63.83 -0.01 74.02 -0.01 84.21 -0 C95.99 0 107.77 0 119.55 -0.01 C129.67 -0.01 139.79 -0.01 149.91 -0.01 C155.95 -0.01 161.99 -0.01 168.03 -0.01 C173.71 -0.01 179.39 -0.01 185.07 -0 C187.15 -0 189.24 -0 191.32 -0.01 C194.17 -0.01 197.01 -0 199.86 0 C200.68 -0 201.5 -0 202.35 -0.01 C206.98 0.01 211.36 0.36 215.93 1.13 C215.93 1.79 215.93 2.45 215.93 3.13 C216.73 3.22 216.73 3.22 217.55 3.31 C221.1 4.53 223.19 6.57 225.93 9.13 C225.93 9.79 225.93 10.45 225.93 11.13 C226.92 11.46 227.91 11.79 228.93 12.13 C229.49 14 229.49 14 229.93 16.13 C230.59 17.12 231.25 18.11 231.93 19.13 C232.59 18.8 233.25 18.47 233.93 18.13 C241.42 27.16 243.09 34.3 242.9 45.93 C242.9 47.48 242.91 49.03 242.92 50.59 C242.94 54.76 242.91 58.94 242.88 63.12 C242.85 67.5 242.86 71.88 242.88 76.27 C242.9 84.56 242.87 92.85 242.84 101.14 C242.79 113.32 242.78 125.5 242.79 137.68 C242.79 138.57 242.79 139.47 242.79 140.39 C242.79 142.17 242.8 143.95 242.8 145.73 C242.8 150.95 242.79 156.16 242.77 161.37 C242.75 164.61 242.75 167.85 242.74 171.08 C242.74 172.58 242.73 174.09 242.72 175.59 C242.71 177.63 242.71 179.68 242.7 181.73 C242.7 183.45 242.7 183.45 242.69 185.2 C242.93 188.09 243.35 189.72 244.93 192.13 C246.7 193.38 246.7 193.38 248.74 194.38 C254.04 197.55 256.93 201.47 258.57 207.46 C260.01 215.14 260.21 222.6 260.18 230.4 C260.18 231.82 260.19 233.24 260.19 234.67 C260.2 238.57 260.19 242.47 260.19 246.37 C260.18 250.62 260.19 254.86 260.19 259.11 C260.2 266.55 260.2 273.99 260.19 281.43 C260.19 292.5 260.19 303.56 260.2 314.63 C260.21 334.39 260.21 354.16 260.2 373.92 C260.2 391.21 260.19 408.51 260.2 425.8 C260.2 427.52 260.2 427.52 260.2 429.28 C260.2 433.93 260.2 438.59 260.2 443.24 C260.21 486.92 260.2 530.6 260.19 574.28 C260.18 613.09 260.18 651.9 260.19 690.71 C260.2 734.31 260.2 777.91 260.2 821.51 C260.2 826.16 260.2 830.81 260.2 835.45 C260.2 836.6 260.2 837.74 260.2 838.92 C260.19 856.2 260.2 873.49 260.2 890.77 C260.21 910.42 260.21 930.08 260.2 949.73 C260.19 960.73 260.19 971.73 260.2 982.73 C260.2 990.07 260.2 997.42 260.19 1004.77 C260.18 1008.95 260.18 1013.14 260.19 1017.33 C260.2 1021.14 260.19 1024.95 260.18 1028.76 C260.18 1030.77 260.19 1032.78 260.2 1034.79 C260.15 1045.22 259.29 1054.75 254.37 1064.06 C254.02 1064.74 253.67 1065.42 253.31 1066.11 C249.85 1072.65 245.6 1078.39 240.93 1084.13 C240.49 1084.72 240.05 1085.31 239.6 1085.92 C233.03 1094.56 223.17 1100 214 1105.45 C213.24 1105.9 212.49 1106.34 211.71 1106.81 C211.03 1107.21 210.35 1107.61 209.65 1108.02 C207.77 1109.14 207.77 1109.14 205.93 1111.13 C205.93 1111.79 205.93 1112.45 205.93 1113.13 C200.46 1115.86 196.22 1116.57 190.14 1116.53 C189.32 1116.53 188.51 1116.53 187.66 1116.53 C185.94 1116.54 184.22 1116.53 182.5 1116.52 C179.87 1116.5 177.25 1116.52 174.62 1116.54 C172.94 1116.54 171.26 1116.53 169.58 1116.53 C168.8 1116.53 168.02 1116.54 167.22 1116.54 C162.4 1116.48 159.13 1115.74 154.93 1113.13 C152.5 1110.19 151.13 1106.73 149.93 1103.13 C144.51 1099.71 138.79 1098.87 132.49 1098.85 C131.41 1098.84 131.41 1098.84 130.31 1098.84 C127.95 1098.82 125.58 1098.82 123.22 1098.83 C121.56 1098.82 119.91 1098.82 118.26 1098.81 C114.8 1098.81 111.33 1098.81 107.87 1098.81 C103.45 1098.82 99.03 1098.8 94.61 1098.78 C91.2 1098.76 87.78 1098.76 84.37 1098.76 C82.74 1098.76 81.11 1098.76 79.48 1098.75 C66.26 1098.22 66.26 1098.22 54.91 1104.03 C54.24 1105.04 54.24 1105.04 53.55 1106.06 C53.09 1106.73 52.63 1107.4 52.16 1108.09 C50.88 1110.09 50.88 1110.09 50.08 1112.26 C48.42 1114.95 46.95 1115.21 43.93 1116.13 C41.04 1116.33 38.26 1116.43 35.37 1116.43 C34.14 1116.43 34.14 1116.43 32.89 1116.44 C31.16 1116.45 29.43 1116.45 27.7 1116.44 C25.07 1116.44 22.44 1116.46 19.81 1116.49 C18.12 1116.49 16.44 1116.49 14.75 1116.49 C13.97 1116.5 13.19 1116.51 12.39 1116.52 C7.18 1116.47 3.59 1115.46 -1.07 1113.13 C-1.07 1112.47 -1.07 1111.81 -1.07 1111.13 C-1.73 1110.8 -2.39 1110.47 -3.07 1110.13 C-3.07 1109.47 -3.07 1108.81 -3.07 1108.13 C-3.8 1107.85 -4.52 1107.58 -5.27 1107.29 C-13.38 1103.91 -20.27 1098.59 -27.07 1093.13 C-27.82 1092.6 -28.56 1092.08 -29.33 1091.54 C-29.9 1091.08 -30.48 1090.61 -31.07 1090.13 C-31.07 1089.47 -31.07 1088.81 -31.07 1088.13 C-31.73 1088.13 -32.39 1088.13 -33.07 1088.13 C-44.73 1076 -55.19 1059.18 -55.2 1042.04 C-55.2 1040.83 -55.2 1039.62 -55.21 1038.38 C-55.21 1037.04 -55.2 1035.71 -55.2 1034.38 C-55.2 1032.95 -55.21 1031.52 -55.21 1030.09 C-55.21 1026.16 -55.21 1022.22 -55.21 1018.28 C-55.21 1014 -55.22 1009.72 -55.22 1005.45 C-55.23 996.95 -55.23 988.46 -55.23 979.97 C-55.23 969.8 -55.24 959.64 -55.24 949.47 C-55.26 924.89 -55.27 900.31 -55.27 875.74 C-55.27 864.12 -55.28 852.49 -55.28 840.87 C-55.29 801.09 -55.3 761.32 -55.31 721.54 C-55.31 719.04 -55.31 716.55 -55.31 714.05 C-55.31 711.55 -55.31 709.04 -55.31 706.54 C-55.31 701.52 -55.31 696.5 -55.31 691.47 C-55.31 690.23 -55.31 688.98 -55.31 687.7 C-55.31 647.31 -55.33 606.92 -55.35 566.53 C-55.38 523.84 -55.39 481.16 -55.39 438.47 C-55.39 433.78 -55.39 429.1 -55.39 424.41 C-55.39 423.26 -55.39 422.11 -55.39 420.92 C-55.4 402.34 -55.41 383.76 -55.42 365.19 C-55.44 346.52 -55.44 327.86 -55.43 309.19 C-55.43 298.1 -55.43 287.01 -55.45 275.91 C-55.46 268.51 -55.45 261.1 -55.44 253.69 C-55.44 249.47 -55.44 245.25 -55.45 241.02 C-55.46 237.18 -55.46 233.34 -55.45 229.5 C-55.44 227.47 -55.45 225.44 -55.47 223.41 C-55.41 214.27 -54.53 205.77 -49.01 198.19 C-48.5 197.48 -48 196.77 -47.47 196.04 C-47.01 195.41 -46.55 194.78 -46.07 194.13 C-44 191.02 -43.8 190.17 -43.66 186.62 C-43.62 185.7 -43.58 184.78 -43.54 183.83 C-43.51 182.83 -43.48 181.82 -43.45 180.78 C-43.39 179.19 -43.39 179.19 -43.34 177.56 C-42.95 165.58 -42.96 153.6 -43 141.62 C-43.01 137.53 -43.02 133.45 -43.02 129.36 C-43.03 120.7 -43.05 112.04 -43.07 103.38 C-43.09 93.98 -43.11 84.58 -43.12 75.18 C-43.13 71.78 -43.13 68.39 -43.15 65 C-43.16 61.22 -43.16 57.45 -43.17 53.67 C-43.17 52.58 -43.18 51.48 -43.18 50.35 C-43.18 45.11 -43.07 39.89 -42.75 34.66 C-42.7 33.71 -42.64 32.77 -42.58 31.8 C-41.99 28.69 -40.94 26.67 -39.07 24.13 C-38.41 24.13 -37.75 24.13 -37.07 24.13 C-36.89 23.47 -36.7 22.81 -36.51 22.13 C-32.4 13.56 -23.87 6.33 -16.07 1.13 C-10.7 0.07 -5.45 -0.01 0 0 Z M234.93 23.13 C235.93 25.13 235.93 25.13 235.93 25.13 Z M236.93 26.13 C237.59 27.78 238.25 29.43 238.93 31.13 C239.26 30.47 239.59 29.81 239.93 29.13 C238.94 28.14 237.95 27.15 236.93 26.13 Z M239.93 31.13 C239.93 72.71 239.93 114.29 239.93 157.13 C240.26 157.13 240.59 157.13 240.93 157.13 C240.93 115.55 240.93 73.97 240.93 31.13 C240.6 31.13 240.27 31.13 239.93 31.13 Z M239.93 159.13 C239.93 169.36 239.93 179.59 239.93 190.13 C240.26 190.13 240.59 190.13 240.93 190.13 C240.93 179.9 240.93 169.67 240.93 159.13 C240.6 159.13 240.27 159.13 239.93 159.13 Z M253.93 204.13 C254.93 206.13 254.93 206.13 254.93 206.13 Z M254.93 206.13 C254.93 208.11 254.93 210.09 254.93 212.13 C255.26 212.13 255.59 212.13 255.93 212.13 C255.93 210.15 255.93 208.17 255.93 206.13 C255.6 206.13 255.27 206.13 254.93 206.13 Z M-13.39 230.53 C-18.85 238.96 -19.65 246.85 -19.58 256.72 C-19.58 258.08 -19.59 259.45 -19.6 260.81 C-19.61 264.54 -19.6 268.28 -19.59 272.01 C-19.58 276.08 -19.6 280.14 -19.61 284.21 C-19.62 291.33 -19.62 298.46 -19.61 305.58 C-19.6 316.17 -19.61 326.77 -19.63 337.36 C-19.65 356.28 -19.65 375.2 -19.65 394.12 C-19.64 410.68 -19.64 427.24 -19.65 443.8 C-19.65 446.02 -19.65 448.24 -19.65 450.46 C-19.65 453.81 -19.65 457.16 -19.65 460.5 C-19.66 491.62 -19.67 522.73 -19.66 553.85 C-19.66 555.02 -19.66 556.2 -19.66 557.4 C-19.65 566.93 -19.65 576.46 -19.65 585.98 C-19.63 623.14 -19.64 660.3 -19.67 697.46 C-19.7 739.21 -19.71 780.95 -19.7 822.7 C-19.7 827.15 -19.7 831.6 -19.7 836.05 C-19.7 837.15 -19.7 838.24 -19.7 839.37 C-19.7 855.92 -19.71 872.47 -19.72 889.01 C-19.74 907.83 -19.74 926.65 -19.72 945.47 C-19.7 956 -19.71 966.53 -19.73 977.06 C-19.74 984.09 -19.73 991.13 -19.71 998.17 C-19.7 1002.17 -19.7 1006.18 -19.72 1010.19 C-19.73 1013.84 -19.73 1017.49 -19.7 1021.14 C-19.7 1023.06 -19.71 1024.98 -19.73 1026.9 C-19.63 1037.18 -17.02 1048.21 -10.07 1056.13 C-6.6 1058.76 -2.92 1061.02 0.81 1063.25 C4.77 1065.7 4.77 1065.7 5.74 1068.31 C5.8 1068.91 5.87 1069.51 5.93 1070.13 C7.63 1071.83 9.75 1071.25 12.02 1071.27 C12.76 1071.26 13.49 1071.26 14.25 1071.26 C15.02 1071.26 15.8 1071.27 16.6 1071.27 C19.22 1071.27 21.83 1071.27 24.45 1071.27 C26.32 1071.28 28.19 1071.28 30.06 1071.28 C35.15 1071.29 40.24 1071.29 45.33 1071.29 C49.57 1071.3 53.82 1071.3 58.06 1071.3 C68.06 1071.31 78.07 1071.31 88.07 1071.31 C98.41 1071.31 108.75 1071.32 119.08 1071.34 C127.94 1071.35 136.81 1071.36 145.67 1071.36 C150.96 1071.36 156.26 1071.36 161.56 1071.37 C166.54 1071.38 171.52 1071.38 176.51 1071.37 C178.34 1071.37 180.17 1071.37 182 1071.38 C184.5 1071.39 186.99 1071.38 189.48 1071.37 C190.58 1071.38 190.58 1071.38 191.7 1071.39 C195.77 1071.48 195.77 1071.48 198.93 1069.13 C198.93 1067.81 198.93 1066.49 198.93 1065.13 C199.92 1064.78 200.91 1064.43 201.93 1064.06 C210.55 1060.3 215.9 1053.43 219.93 1045.13 C221.49 1041.03 222.18 1037.64 222.18 1033.27 C222.19 1031.53 222.19 1031.53 222.2 1029.76 C222.19 1028.5 222.19 1027.23 222.19 1025.93 C222.19 1024.57 222.19 1023.2 222.2 1021.83 C222.21 1018.06 222.2 1014.29 222.2 1010.53 C222.2 1006.43 222.2 1002.34 222.21 998.24 C222.22 991.06 222.22 983.88 222.22 976.7 C222.22 966.02 222.23 955.34 222.24 944.66 C222.26 924.48 222.26 904.3 222.26 884.12 C222.26 868.54 222.27 852.96 222.27 837.38 C222.28 832.89 222.28 828.41 222.28 823.93 C222.28 822.82 222.28 821.7 222.28 820.55 C222.29 789.21 222.3 757.86 222.3 726.52 C222.3 725.34 222.3 724.15 222.3 722.94 C222.3 716.94 222.3 710.95 222.3 704.96 C222.3 703.77 222.3 702.58 222.3 701.35 C222.3 698.95 222.3 696.54 222.3 694.13 C222.3 656.68 222.31 619.22 222.34 581.77 C222.37 539.71 222.39 497.65 222.39 455.59 C222.39 451.11 222.39 446.63 222.39 442.15 C222.39 440.49 222.39 440.49 222.39 438.8 C222.39 421.02 222.4 403.24 222.42 385.45 C222.43 367.59 222.44 349.73 222.42 331.87 C222.41 321.25 222.42 310.63 222.44 300.01 C222.45 292.92 222.45 285.84 222.43 278.75 C222.43 274.71 222.42 270.67 222.44 266.62 C222.45 262.95 222.45 259.27 222.43 255.59 C222.43 253.65 222.44 251.7 222.46 249.76 C222.39 241.1 220.73 236.34 215.93 229.13 C212.92 228.82 210.11 228.72 207.1 228.74 C206.17 228.73 205.25 228.73 204.29 228.72 C201.17 228.71 198.05 228.72 194.93 228.72 C192.7 228.72 190.47 228.71 188.24 228.7 C182.16 228.68 176.09 228.69 170.02 228.69 C164.96 228.69 159.9 228.69 154.83 228.68 C142.21 228.67 129.59 228.67 116.96 228.68 C105.99 228.69 95.03 228.68 84.06 228.66 C72.8 228.63 61.55 228.62 50.29 228.63 C43.97 228.63 37.65 228.63 31.33 228.61 C25.39 228.6 19.44 228.6 13.5 228.62 C11.31 228.62 9.13 228.62 6.94 228.61 C3.97 228.6 0.99 228.61 -1.99 228.63 C-3.29 228.61 -3.29 228.61 -4.62 228.6 C-8.1 228.64 -10.38 228.71 -13.39 230.53 Z M254.93 1046.13 C254.93 1047.78 254.93 1049.43 254.93 1051.13 C255.26 1051.13 255.59 1051.13 255.93 1051.13 C255.93 1049.48 255.93 1047.83 255.93 1046.13 C255.6 1046.13 255.27 1046.13 254.93 1046.13 Z M254.93 1052.13 C254.6 1053.45 254.27 1054.77 253.93 1056.13 C254.59 1055.8 255.25 1055.47 255.93 1055.13 C255.6 1054.14 255.27 1053.15 254.93 1052.13 Z M252.93 1057.13 C253.93 1059.13 253.93 1059.13 253.93 1059.13 Z M250.93 1061.13 C251.93 1063.13 251.93 1063.13 251.93 1063.13 Z M249.93 1063.13 C248.78 1064.87 247.63 1066.62 246.49 1068.38 C245.53 1069.84 245.53 1069.84 244.56 1071.33 C243.17 1073.71 242.38 1075.44 241.93 1078.13 C245.69 1074.78 248.86 1070.73 250.93 1066.13 C250.6 1065.14 250.27 1064.15 249.93 1063.13 Z M235.2 1083.66 C234.26 1084.63 234.26 1084.63 233.3 1085.63 C232.67 1086.28 232.04 1086.93 231.39 1087.6 C230.91 1088.1 230.43 1088.61 229.93 1089.13 C232.94 1089.47 232.94 1089.47 234.53 1087.6 C235.06 1086.95 235.58 1086.3 236.12 1085.63 C236.65 1084.98 237.18 1084.33 237.72 1083.66 C238.12 1083.15 238.52 1082.65 238.93 1082.13 C236.79 1081.91 236.79 1081.91 235.2 1083.66 Z M227.93 1091.13 C225.31 1092.52 225.31 1092.52 222.93 1094.13 C223.26 1094.79 223.59 1095.45 223.93 1096.13 C225.91 1094.81 227.89 1093.49 229.93 1092.13 C229.27 1091.8 228.61 1091.47 227.93 1091.13 Z M54.8 1098.13 C54.19 1098.79 53.57 1099.45 52.93 1100.13 C53.26 1100.79 53.59 1101.45 53.93 1102.13 C55.58 1100.15 57.23 1098.17 58.93 1096.13 C56.69 1095.9 56.69 1095.9 54.8 1098.13 Z M217.93 1098.13 C217.27 1098.79 216.61 1099.45 215.93 1100.13 C217.25 1099.8 218.57 1099.47 219.93 1099.13 C219.27 1098.8 218.61 1098.47 217.93 1098.13 Z M210.3 1102.13 C209.19 1102.79 208.08 1103.45 206.93 1104.13 C207.92 1104.62 207.92 1104.62 208.93 1105.13 C213.19 1103.5 213.19 1103.5 215.93 1100.13 C213.47 1100.13 212.41 1100.88 210.3 1102.13 Z M49.93 1103.13 C49.27 1104.45 48.61 1105.77 47.93 1107.13 C49.25 1105.81 50.57 1104.49 51.93 1103.13 C51.27 1103.13 50.61 1103.13 49.93 1103.13 Z M46.93 1107.13 C46.93 1108.78 46.93 1110.43 46.93 1112.13 C47.59 1112.13 48.25 1112.13 48.93 1112.13 C48.6 1110.48 48.27 1108.83 47.93 1107.13 C47.6 1107.13 47.27 1107.13 46.93 1107.13 Z M155.93 1110.13 C155.93 1110.79 155.93 1111.45 155.93 1112.13 C156.59 1111.8 157.25 1111.47 157.93 1111.13 C157.27 1110.8 156.61 1110.47 155.93 1110.13 Z M2.93 1112.13 C2.93 1112.46 2.93 1112.79 2.93 1113.13 C4.58 1113.13 6.23 1113.13 7.93 1113.13 C7.93 1112.8 7.93 1112.47 7.93 1112.13 C6.28 1112.13 4.63 1112.13 2.93 1112.13 Z M37.93 1112.13 C37.93 1112.46 37.93 1112.79 37.93 1113.13 C40.9 1113.13 43.87 1113.13 46.93 1113.13 C46.93 1112.8 46.93 1112.47 46.93 1112.13 C43.96 1112.13 40.99 1112.13 37.93 1112.13 Z M196.93 1112.13 C200.93 1113.13 200.93 1113.13 200.93 1113.13 Z " fill="#BEBFB4" transform="translate(279.07080078125,115.87301635742188)"/>
<path d="M0 0 C0.89 -0 1.78 -0 2.7 -0 C5.68 -0.01 8.65 -0.01 11.62 -0 C13.76 -0 15.9 -0.01 18.04 -0.01 C23.83 -0.01 29.63 -0.01 35.43 -0.01 C41.5 -0 47.57 -0.01 53.64 -0.01 C63.83 -0.01 74.02 -0.01 84.21 -0 C95.99 0 107.77 0 119.55 -0.01 C129.67 -0.01 139.79 -0.01 149.91 -0.01 C155.95 -0.01 161.99 -0.01 168.03 -0.01 C173.71 -0.01 179.39 -0.01 185.07 -0 C187.15 -0 189.24 -0 191.32 -0.01 C194.17 -0.01 197.01 -0 199.86 0 C200.68 -0 201.5 -0 202.35 -0.01 C206.98 0.01 211.36 0.36 215.93 1.13 C215.93 1.79 215.93 2.45 215.93 3.13 C216.73 3.22 216.73 3.22 217.55 3.31 C221.1 4.53 223.19 6.57 225.93 9.13 C225.93 9.79 225.93 10.45 225.93 11.13 C226.92 11.46 227.91 11.79 228.93 12.13 C229.49 14 229.49 14 229.93 16.13 C230.59 17.12 231.25 18.11 231.93 19.13 C232.59 18.8 233.25 18.47 233.93 18.13 C241.42 27.16 243.09 34.3 242.9 45.93 C242.9 47.48 242.91 49.03 242.92 50.59 C242.94 54.76 242.91 58.94 242.88 63.12 C242.85 67.5 242.86 71.88 242.88 76.27 C242.9 84.56 242.87 92.85 242.84 101.14 C242.79 113.32 242.78 125.5 242.79 137.68 C242.79 138.57 242.79 139.47 242.79 140.39 C242.79 142.17 242.8 143.95 242.8 145.73 C242.8 150.95 242.79 156.16 242.77 161.37 C242.75 164.61 242.75 167.85 242.74 171.08 C242.74 172.58 242.73 174.09 242.72 175.59 C242.71 177.63 242.71 179.68 242.7 181.73 C242.7 183.45 242.7 183.45 242.69 185.2 C242.93 188.09 243.35 189.72 244.93 192.13 C246.7 193.38 246.7 193.38 248.74 194.38 C254.04 197.55 256.93 201.47 258.57 207.46 C260.01 215.14 260.21 222.6 260.18 230.4 C260.18 231.82 260.19 233.24 260.19 234.67 C260.2 238.57 260.19 242.47 260.19 246.37 C260.18 250.62 260.19 254.86 260.19 259.11 C260.2 266.55 260.2 273.99 260.19 281.43 C260.19 292.5 260.19 303.56 260.2 314.63 C260.21 334.39 260.21 354.16 260.2 373.92 C260.2 391.21 260.19 408.51 260.2 425.8 C260.2 427.52 260.2 427.52 260.2 429.28 C260.2 433.93 260.2 438.59 260.2 443.24 C260.21 486.92 260.2 530.6 260.19 574.28 C260.18 613.09 260.18 651.9 260.19 690.71 C260.2 734.31 260.2 777.91 260.2 821.51 C260.2 826.16 260.2 830.81 260.2 835.45 C260.2 836.6 260.2 837.74 260.2 838.92 C260.19 856.2 260.2 873.49 260.2 890.77 C260.21 910.42 260.21 930.08 260.2 949.73 C260.19 960.73 260.19 971.73 260.2 982.73 C260.2 990.07 260.2 997.42 260.19 1004.77 C260.18 1008.95 260.18 1013.14 260.19 1017.33 C260.2 1021.14 260.19 1024.95 260.18 1028.76 C260.18 1030.77 260.19 1032.78 260.2 1034.79 C260.15 1045.22 259.29 1054.75 254.37 1064.06 C254.02 1064.74 253.67 1065.42 253.31 1066.11 C249.85 1072.65 245.6 1078.39 240.93 1084.13 C240.49 1084.72 240.05 1085.31 239.6 1085.92 C233.03 1094.56 223.17 1100 214 1105.45 C213.24 1105.9 212.49 1106.34 211.71 1106.81 C211.03 1107.21 210.35 1107.61 209.65 1108.02 C207.77 1109.14 207.77 1109.14 205.93 1111.13 C203.93 1106.25 203.93 1106.25 203.93 1105.13 C204.54 1104.99 205.14 1104.86 205.77 1104.72 C212.95 1102.87 218.11 1099.66 223.93 1095.13 C224.86 1094.41 225.79 1093.68 226.74 1092.94 C227.82 1092.04 227.82 1092.04 228.93 1091.13 C229.75 1090.51 230.58 1089.89 231.43 1089.25 C234.87 1086.33 237.94 1083.17 239.93 1079.06 C240.93 1077.13 240.93 1077.13 243.24 1074.94 C247.49 1070.49 250.66 1065.2 251.93 1059.13 C252.59 1059.13 253.25 1059.13 253.93 1059.13 C253.6 1058.14 253.27 1057.15 252.93 1056.13 C253.59 1055.8 254.25 1055.47 254.93 1055.13 C255 974.24 255.06 893.36 255.1 812.47 C255.1 811.28 255.1 810.08 255.1 808.85 C255.11 782.85 255.12 756.86 255.13 730.86 C255.14 718.11 255.14 705.36 255.15 692.61 C255.15 690.71 255.15 690.71 255.15 688.77 C255.17 647.62 255.2 606.47 255.23 565.32 C255.27 523.05 255.3 480.78 255.3 438.5 C255.31 432.54 255.31 426.57 255.31 420.61 C255.31 419.43 255.31 418.26 255.31 417.05 C255.31 398.12 255.33 379.19 255.36 360.26 C255.38 341.25 255.39 322.24 255.38 303.22 C255.38 291.91 255.39 280.61 255.41 269.3 C255.43 261.76 255.43 254.21 255.42 246.67 C255.41 242.37 255.41 238.06 255.43 233.76 C255.44 229.85 255.44 225.93 255.43 222.02 C255.42 220.61 255.43 219.2 255.44 217.79 C255.45 215.88 255.44 213.98 255.43 212.07 C255.43 211.01 255.43 209.95 255.43 208.86 C254.8 205.45 253.51 204.36 250.93 202.13 C250.25 200.8 249.58 199.47 248.93 198.13 C237.41 192.37 215.79 195.99 203.21 196.01 C200.55 196.01 197.89 196.01 195.23 196.01 C189.53 196.01 183.83 196.02 178.13 196.02 C169.89 196.03 161.65 196.03 153.41 196.03 C140.04 196.04 126.66 196.04 113.29 196.05 C100.31 196.06 87.33 196.07 74.35 196.07 C73.55 196.07 72.75 196.07 71.92 196.07 C67.9 196.07 63.87 196.08 59.85 196.08 C26.54 196.09 -6.76 196.1 -40.07 196.13 C-40.07 195.14 -40.07 194.15 -40.07 193.13 C-40.4 194.12 -40.73 195.11 -41.07 196.13 C-41.7 196.28 -42.32 196.43 -42.96 196.59 C-45.78 197.31 -46.32 198.32 -47.78 200.79 C-51.03 207.12 -50.76 213.49 -50.69 220.44 C-50.7 221.9 -50.71 223.35 -50.71 224.8 C-50.73 228.79 -50.72 232.79 -50.7 236.78 C-50.69 241.12 -50.7 245.46 -50.71 249.81 C-50.73 257.42 -50.72 265.03 -50.71 272.64 C-50.68 283.96 -50.69 295.28 -50.7 306.6 C-50.72 326.81 -50.71 347.03 -50.69 367.24 C-50.67 384.93 -50.66 402.62 -50.66 420.31 C-50.66 421.48 -50.66 422.65 -50.66 423.86 C-50.66 428.62 -50.66 433.38 -50.66 438.14 C-50.67 482.8 -50.65 527.46 -50.61 572.13 C-50.58 611.82 -50.57 651.52 -50.57 691.22 C-50.57 693.77 -50.57 696.31 -50.57 698.86 C-50.57 700.75 -50.57 700.75 -50.57 702.68 C-50.57 709.03 -50.58 715.37 -50.58 721.71 C-50.58 723.59 -50.58 723.59 -50.58 725.51 C-50.58 758.66 -50.57 791.81 -50.56 824.96 C-50.56 826.14 -50.56 827.32 -50.55 828.54 C-50.55 829.71 -50.55 830.89 -50.55 832.1 C-50.55 833.28 -50.55 834.45 -50.55 835.66 C-50.55 838.03 -50.55 840.39 -50.55 842.76 C-50.54 859.27 -50.54 875.78 -50.54 892.28 C-50.54 913.55 -50.53 934.82 -50.51 956.09 C-50.5 967.35 -50.49 978.6 -50.5 989.86 C-50.5 997.37 -50.49 1004.88 -50.48 1012.39 C-50.47 1016.67 -50.46 1020.95 -50.47 1025.24 C-50.48 1029.13 -50.48 1033.03 -50.46 1036.92 C-50.46 1038.33 -50.46 1039.73 -50.46 1041.13 C-50.52 1051.04 -50.52 1051.04 -47.07 1060.13 C-46.6 1061.16 -46.12 1062.19 -45.63 1063.25 C-44.04 1066.18 -42.2 1068.57 -40.07 1071.13 C-39.74 1071.79 -39.41 1072.45 -39.07 1073.13 C-38.41 1073.93 -37.75 1074.74 -37.07 1075.56 C-35.07 1078.13 -35.07 1078.13 -34.07 1081.13 C-32.68 1082.58 -32.68 1082.58 -30.95 1083.94 C-30.32 1084.46 -29.7 1084.97 -29.06 1085.51 C-28.07 1086.31 -28.07 1086.31 -27.07 1087.13 C-25.78 1088.21 -24.48 1089.29 -23.2 1090.38 C-22.33 1091.1 -22.33 1091.1 -21.45 1091.83 C-20.07 1093.13 -20.07 1093.13 -19.07 1095.13 C-17.41 1095.81 -15.74 1096.48 -14.07 1097.13 C-12.01 1098.28 -9.97 1099.47 -7.95 1100.69 C-4.96 1102.48 -2.37 1104.03 0.93 1105.13 C0.93 1105.79 0.93 1106.45 0.93 1107.13 C1.59 1107.79 2.25 1108.45 2.93 1109.13 C1.28 1109.79 -0.37 1110.45 -2.07 1111.13 C-2.57 1109.64 -2.57 1109.64 -3.07 1108.13 C-5.39 1107.05 -5.39 1107.05 -8.07 1106.13 C-14.93 1102.46 -21.02 1097.99 -27.07 1093.13 C-27.82 1092.6 -28.56 1092.08 -29.33 1091.54 C-29.9 1091.08 -30.48 1090.61 -31.07 1090.13 C-31.07 1089.47 -31.07 1088.81 -31.07 1088.13 C-31.73 1088.13 -32.39 1088.13 -33.07 1088.13 C-44.73 1076 -55.19 1059.18 -55.2 1042.04 C-55.2 1040.83 -55.2 1039.62 -55.21 1038.38 C-55.21 1037.04 -55.2 1035.71 -55.2 1034.38 C-55.2 1032.95 -55.21 1031.52 -55.21 1030.09 C-55.21 1026.16 -55.21 1022.22 -55.21 1018.28 C-55.21 1014 -55.22 1009.72 -55.22 1005.45 C-55.23 996.95 -55.23 988.46 -55.23 979.97 C-55.23 969.8 -55.24 959.64 -55.24 949.47 C-55.26 924.89 -55.27 900.31 -55.27 875.74 C-55.27 864.12 -55.28 852.49 -55.28 840.87 C-55.29 801.09 -55.3 761.32 -55.31 721.54 C-55.31 719.04 -55.31 716.55 -55.31 714.05 C-55.31 711.55 -55.31 709.04 -55.31 706.54 C-55.31 701.52 -55.31 696.5 -55.31 691.47 C-55.31 690.23 -55.31 688.98 -55.31 687.7 C-55.31 647.31 -55.33 606.92 -55.35 566.53 C-55.38 523.84 -55.39 481.16 -55.39 438.47 C-55.39 433.78 -55.39 429.1 -55.39 424.41 C-55.39 423.26 -55.39 422.11 -55.39 420.92 C-55.4 402.34 -55.41 383.76 -55.42 365.19 C-55.44 346.52 -55.44 327.86 -55.43 309.19 C-55.43 298.1 -55.43 287.01 -55.45 275.91 C-55.46 268.51 -55.45 261.1 -55.44 253.69 C-55.44 249.47 -55.44 245.25 -55.45 241.02 C-55.46 237.18 -55.46 233.34 -55.45 229.5 C-55.44 227.47 -55.45 225.44 -55.47 223.41 C-55.41 214.27 -54.53 205.77 -49.01 198.19 C-48.5 197.48 -48 196.77 -47.47 196.04 C-47.01 195.41 -46.55 194.78 -46.07 194.13 C-44 191.02 -43.8 190.17 -43.66 186.62 C-43.62 185.7 -43.58 184.78 -43.54 183.83 C-43.51 182.83 -43.48 181.82 -43.45 180.78 C-43.39 179.19 -43.39 179.19 -43.34 177.56 C-42.95 165.58 -42.96 153.6 -43 141.62 C-43.01 137.53 -43.02 133.45 -43.02 129.36 C-43.03 120.7 -43.05 112.04 -43.07 103.38 C-43.09 93.98 -43.11 84.58 -43.12 75.18 C-43.13 71.78 -43.13 68.39 -43.15 65 C-43.16 61.22 -43.16 57.45 -43.17 53.67 C-43.17 52.58 -43.18 51.48 -43.18 50.35 C-43.18 45.11 -43.07 39.89 -42.75 34.66 C-42.7 33.71 -42.64 32.77 -42.58 31.8 C-41.99 28.69 -40.94 26.67 -39.07 24.13 C-38.41 24.13 -37.75 24.13 -37.07 24.13 C-36.89 23.47 -36.7 22.81 -36.51 22.13 C-32.4 13.56 -23.87 6.33 -16.07 1.13 C-10.7 0.07 -5.45 -0.01 0 0 Z M234.93 23.13 C235.93 25.13 235.93 25.13 235.93 25.13 Z M236.93 26.13 C237.59 27.78 238.25 29.43 238.93 31.13 C239.26 30.47 239.59 29.81 239.93 29.13 C238.94 28.14 237.95 27.15 236.93 26.13 Z M239.93 31.13 C239.93 72.71 239.93 114.29 239.93 157.13 C240.26 157.13 240.59 157.13 240.93 157.13 C240.93 115.55 240.93 73.97 240.93 31.13 C240.6 31.13 240.27 31.13 239.93 31.13 Z M239.93 159.13 C239.93 169.36 239.93 179.59 239.93 190.13 C240.26 190.13 240.59 190.13 240.93 190.13 C240.93 179.9 240.93 169.67 240.93 159.13 C240.6 159.13 240.27 159.13 239.93 159.13 Z " fill="#B5B6AC" transform="translate(279.07080078125,115.87301635742188)"/>
<path d="M0 0 C0.89 -0 1.78 -0 2.7 -0 C5.68 -0.01 8.65 -0.01 11.62 -0 C13.76 -0 15.9 -0.01 18.04 -0.01 C23.83 -0.01 29.63 -0.01 35.43 -0.01 C41.5 -0 47.57 -0.01 53.64 -0.01 C63.83 -0.01 74.02 -0.01 84.21 -0 C95.99 0 107.77 0 119.55 -0.01 C129.67 -0.01 139.79 -0.01 149.91 -0.01 C155.95 -0.01 161.99 -0.01 168.03 -0.01 C173.71 -0.01 179.39 -0.01 185.07 -0 C187.15 -0 189.24 -0 191.32 -0.01 C194.17 -0.01 197.01 -0 199.86 0 C200.68 -0 201.5 -0 202.35 -0.01 C206.98 0.01 211.36 0.36 215.93 1.13 C215.93 1.79 215.93 2.45 215.93 3.13 C216.73 3.22 216.73 3.22 217.55 3.31 C221.1 4.53 223.19 6.57 225.93 9.13 C225.93 9.79 225.93 10.45 225.93 11.13 C226.92 11.46 227.91 11.79 228.93 12.13 C229.49 14 229.49 14 229.93 16.13 C230.59 17.12 231.25 18.11 231.93 19.13 C232.59 18.8 233.25 18.47 233.93 18.13 C241.42 27.16 243.09 34.3 242.9 45.93 C242.9 47.48 242.91 49.03 242.92 50.59 C242.94 54.76 242.91 58.94 242.88 63.12 C242.85 67.5 242.86 71.88 242.88 76.27 C242.9 84.56 242.87 92.85 242.84 101.14 C242.79 113.32 242.78 125.5 242.79 137.68 C242.79 138.57 242.79 139.47 242.79 140.39 C242.79 142.17 242.8 143.95 242.8 145.73 C242.8 150.95 242.79 156.16 242.77 161.37 C242.75 164.61 242.75 167.85 242.74 171.08 C242.74 172.58 242.73 174.09 242.72 175.59 C242.71 177.63 242.71 179.68 242.7 181.73 C242.7 183.45 242.7 183.45 242.69 185.2 C242.93 188.09 243.35 189.72 244.93 192.13 C246.7 193.38 246.7 193.38 248.74 194.38 C254.04 197.55 256.93 201.47 258.57 207.46 C260.01 215.14 260.21 222.6 260.18 230.4 C260.18 231.82 260.19 233.24 260.19 234.67 C260.2 238.57 260.19 242.47 260.19 246.37 C260.18 250.62 260.19 254.86 260.19 259.11 C260.2 266.55 260.2 273.99 260.19 281.43 C260.19 292.5 260.19 303.56 260.2 314.63 C260.21 334.39 260.21 354.16 260.2 373.92 C260.2 391.21 260.19 408.51 260.2 425.8 C260.2 427.52 260.2 427.52 260.2 429.28 C260.2 433.93 260.2 438.59 260.2 443.24 C260.21 486.92 260.2 530.6 260.19 574.28 C260.18 613.09 260.18 651.9 260.19 690.71 C260.2 734.31 260.2 777.91 260.2 821.51 C260.2 826.16 260.2 830.81 260.2 835.45 C260.2 836.6 260.2 837.74 260.2 838.92 C260.19 856.2 260.2 873.49 260.2 890.77 C260.21 910.42 260.21 930.08 260.2 949.73 C260.19 960.73 260.19 971.73 260.2 982.73 C260.2 990.07 260.2 997.42 260.19 1004.77 C260.18 1008.95 260.18 1013.14 260.19 1017.33 C260.2 1021.14 260.19 1024.95 260.18 1028.76 C260.18 1030.77 260.19 1032.78 260.2 1034.79 C260.15 1045.22 259.29 1054.75 254.37 1064.06 C254.02 1064.74 253.67 1065.42 253.31 1066.11 C249.85 1072.65 245.6 1078.39 240.93 1084.13 C240.49 1084.72 240.05 1085.31 239.6 1085.92 C233.03 1094.56 223.17 1100 214 1105.45 C213.24 1105.9 212.49 1106.34 211.71 1106.81 C211.03 1107.21 210.35 1107.61 209.65 1108.02 C207.77 1109.14 207.77 1109.14 205.93 1111.13 C203.93 1106.25 203.93 1106.25 203.93 1105.13 C204.54 1104.99 205.14 1104.86 205.77 1104.72 C212.95 1102.87 218.11 1099.66 223.93 1095.13 C224.86 1094.41 225.79 1093.68 226.74 1092.94 C227.82 1092.04 227.82 1092.04 228.93 1091.13 C229.75 1090.51 230.58 1089.89 231.43 1089.25 C234.87 1086.33 237.94 1083.17 239.93 1079.06 C240.93 1077.13 240.93 1077.13 243.24 1074.94 C247.49 1070.49 250.66 1065.2 251.93 1059.13 C252.59 1059.13 253.25 1059.13 253.93 1059.13 C253.6 1058.14 253.27 1057.15 252.93 1056.13 C253.59 1055.8 254.25 1055.47 254.93 1055.13 C255 974.24 255.06 893.36 255.1 812.47 C255.1 811.28 255.1 810.08 255.1 808.85 C255.11 782.85 255.12 756.86 255.13 730.86 C255.14 718.11 255.14 705.36 255.15 692.61 C255.15 690.71 255.15 690.71 255.15 688.77 C255.17 647.62 255.2 606.47 255.23 565.32 C255.27 523.05 255.3 480.78 255.3 438.5 C255.31 432.54 255.31 426.57 255.31 420.61 C255.31 419.43 255.31 418.26 255.31 417.05 C255.31 398.12 255.33 379.19 255.36 360.26 C255.38 341.25 255.39 322.24 255.38 303.22 C255.38 291.91 255.39 280.61 255.41 269.3 C255.43 261.76 255.43 254.21 255.42 246.67 C255.41 242.37 255.41 238.06 255.43 233.76 C255.44 229.85 255.44 225.93 255.43 222.02 C255.42 220.61 255.43 219.2 255.44 217.79 C255.45 215.88 255.44 213.98 255.43 212.07 C255.43 211.01 255.43 209.95 255.43 208.86 C254.81 205.45 253.5 204.36 250.93 202.13 C250.61 201.41 250.29 200.69 249.97 199.96 C249.07 197.92 249.07 197.92 246.77 197.3 C245.95 197.16 245.14 197.02 244.3 196.88 C243.49 196.73 242.67 196.58 241.83 196.42 C240.89 196.28 240.89 196.28 239.93 196.13 C239.55 194.47 239.22 192.8 238.93 191.13 C239.26 190.8 239.59 190.47 239.93 190.13 C240.09 187.84 240.18 185.54 240.25 183.25 C240.28 181.99 240.32 180.74 240.36 179.44 C240.43 177.03 240.43 177.03 240.49 174.56 C240.64 169.47 240.78 164.38 240.93 159.13 C228.39 158.8 215.85 158.47 202.93 158.13 C202.93 157.47 202.93 156.81 202.93 156.13 C202.27 156.13 201.61 156.13 200.93 156.13 C200.86 155.48 200.79 154.84 200.72 154.17 C199.31 141.2 197.84 128.24 196.24 115.29 C194.54 101.48 192.98 87.66 191.51 73.82 C191.34 72.27 191.17 70.71 191.01 69.15 C190.92 68.36 190.84 67.57 190.75 66.76 C190.05 60.24 189.33 53.72 188.6 47.2 C188.49 46.19 188.38 45.18 188.26 44.14 C187.81 40.14 187.36 36.15 186.91 32.15 C186.6 29.38 186.29 26.61 185.98 23.84 C185.89 23.04 185.8 22.23 185.7 21.4 C184.99 14.98 184.47 8.58 183.93 2.13 C128.16 2.46 72.39 2.79 14.93 3.13 C13.94 12.37 12.95 21.61 11.93 31.13 C11.35 36.27 10.77 41.42 10.18 46.56 C10.02 47.95 9.86 49.34 9.7 50.73 C8.84 58.26 7.97 65.79 7.1 73.33 C6.4 79.36 5.71 85.39 5.01 91.43 C4.62 94.8 4.23 98.17 3.84 101.55 C1.56 121.25 1.56 121.25 -0.44 140.98 C-1.86 155.91 -1.86 155.91 -4.07 158.13 C-6.74 158.22 -9.38 158.24 -12.04 158.22 C-12.75 158.22 -13.46 158.22 -14.18 158.22 C-16.83 158.22 -19.48 158.2 -22.13 158.19 C-28.05 158.17 -33.97 158.15 -40.07 158.13 C-40.4 170.67 -40.73 183.21 -41.07 196.13 C-42.39 196.46 -43.71 196.79 -45.07 197.13 C-51.19 203.67 -50.77 212.05 -50.69 220.44 C-50.7 221.9 -50.71 223.35 -50.71 224.8 C-50.73 228.79 -50.72 232.79 -50.7 236.78 C-50.69 241.12 -50.7 245.46 -50.71 249.81 C-50.73 257.42 -50.72 265.03 -50.71 272.64 C-50.68 283.96 -50.69 295.28 -50.7 306.6 C-50.72 326.81 -50.71 347.03 -50.69 367.24 C-50.67 384.93 -50.66 402.62 -50.66 420.31 C-50.66 421.48 -50.66 422.65 -50.66 423.86 C-50.66 428.62 -50.66 433.38 -50.66 438.14 C-50.67 482.8 -50.65 527.46 -50.61 572.13 C-50.58 611.82 -50.57 651.52 -50.57 691.22 C-50.57 693.77 -50.57 696.31 -50.57 698.86 C-50.57 700.75 -50.57 700.75 -50.57 702.68 C-50.57 709.03 -50.58 715.37 -50.58 721.71 C-50.58 723.59 -50.58 723.59 -50.58 725.51 C-50.58 758.66 -50.57 791.81 -50.56 824.96 C-50.56 826.14 -50.56 827.32 -50.55 828.54 C-50.55 829.71 -50.55 830.89 -50.55 832.1 C-50.55 833.28 -50.55 834.45 -50.55 835.66 C-50.55 838.03 -50.55 840.39 -50.55 842.76 C-50.54 859.27 -50.54 875.78 -50.54 892.28 C-50.54 913.55 -50.53 934.82 -50.51 956.09 C-50.5 967.35 -50.49 978.6 -50.5 989.86 C-50.5 997.37 -50.49 1004.88 -50.48 1012.39 C-50.47 1016.67 -50.46 1020.95 -50.47 1025.24 C-50.48 1029.13 -50.48 1033.03 -50.46 1036.92 C-50.46 1038.33 -50.46 1039.73 -50.46 1041.13 C-50.52 1051.04 -50.52 1051.04 -47.07 1060.13 C-46.6 1061.16 -46.12 1062.19 -45.63 1063.25 C-44.04 1066.18 -42.2 1068.57 -40.07 1071.13 C-39.74 1071.79 -39.41 1072.45 -39.07 1073.13 C-38.41 1073.93 -37.75 1074.74 -37.07 1075.56 C-35.07 1078.13 -35.07 1078.13 -34.07 1081.13 C-32.68 1082.58 -32.68 1082.58 -30.95 1083.94 C-30.32 1084.46 -29.7 1084.97 -29.06 1085.51 C-28.07 1086.31 -28.07 1086.31 -27.07 1087.13 C-25.78 1088.21 -24.48 1089.29 -23.2 1090.38 C-22.33 1091.1 -22.33 1091.1 -21.45 1091.83 C-20.07 1093.13 -20.07 1093.13 -19.07 1095.13 C-17.41 1095.81 -15.74 1096.48 -14.07 1097.13 C-12.01 1098.28 -9.97 1099.47 -7.95 1100.69 C-4.96 1102.48 -2.37 1104.03 0.93 1105.13 C0.93 1105.79 0.93 1106.45 0.93 1107.13 C1.59 1107.79 2.25 1108.45 2.93 1109.13 C1.28 1109.79 -0.37 1110.45 -2.07 1111.13 C-2.57 1109.64 -2.57 1109.64 -3.07 1108.13 C-5.39 1107.05 -5.39 1107.05 -8.07 1106.13 C-14.93 1102.46 -21.02 1097.99 -27.07 1093.13 C-27.82 1092.6 -28.56 1092.08 -29.33 1091.54 C-29.9 1091.08 -30.48 1090.61 -31.07 1090.13 C-31.07 1089.47 -31.07 1088.81 -31.07 1088.13 C-31.73 1088.13 -32.39 1088.13 -33.07 1088.13 C-44.73 1076 -55.19 1059.18 -55.2 1042.04 C-55.2 1040.83 -55.2 1039.62 -55.21 1038.38 C-55.21 1037.04 -55.2 1035.71 -55.2 1034.38 C-55.2 1032.95 -55.21 1031.52 -55.21 1030.09 C-55.21 1026.16 -55.21 1022.22 -55.21 1018.28 C-55.21 1014 -55.22 1009.72 -55.22 1005.45 C-55.23 996.95 -55.23 988.46 -55.23 979.97 C-55.23 969.8 -55.24 959.64 -55.24 949.47 C-55.26 924.89 -55.27 900.31 -55.27 875.74 C-55.27 864.12 -55.28 852.49 -55.28 840.87 C-55.29 801.09 -55.3 761.32 -55.31 721.54 C-55.31 719.04 -55.31 716.55 -55.31 714.05 C-55.31 711.55 -55.31 709.04 -55.31 706.54 C-55.31 701.52 -55.31 696.5 -55.31 691.47 C-55.31 690.23 -55.31 688.98 -55.31 687.7 C-55.31 647.31 -55.33 606.92 -55.35 566.53 C-55.38 523.84 -55.39 481.16 -55.39 438.47 C-55.39 433.78 -55.39 429.1 -55.39 424.41 C-55.39 423.26 -55.39 422.11 -55.39 420.92 C-55.4 402.34 -55.41 383.76 -55.42 365.19 C-55.44 346.52 -55.44 327.86 -55.43 309.19 C-55.43 298.1 -55.43 287.01 -55.45 275.91 C-55.46 268.51 -55.45 261.1 -55.44 253.69 C-55.44 249.47 -55.44 245.25 -55.45 241.02 C-55.46 237.18 -55.46 233.34 -55.45 229.5 C-55.44 227.47 -55.45 225.44 -55.47 223.41 C-55.41 214.27 -54.53 205.77 -49.01 198.19 C-48.5 197.48 -48 196.77 -47.47 196.04 C-47.01 195.41 -46.55 194.78 -46.07 194.13 C-44 191.02 -43.8 190.17 -43.66 186.62 C-43.62 185.7 -43.58 184.78 -43.54 183.83 C-43.51 182.83 -43.48 181.82 -43.45 180.78 C-43.39 179.19 -43.39 179.19 -43.34 177.56 C-42.95 165.58 -42.96 153.6 -43 141.62 C-43.01 137.53 -43.02 133.45 -43.02 129.36 C-43.03 120.7 -43.05 112.04 -43.07 103.38 C-43.09 93.98 -43.11 84.58 -43.12 75.18 C-43.13 71.78 -43.13 68.39 -43.15 65 C-43.16 61.22 -43.16 57.45 -43.17 53.67 C-43.17 52.58 -43.18 51.48 -43.18 50.35 C-43.18 45.11 -43.07 39.89 -42.75 34.66 C-42.7 33.71 -42.64 32.77 -42.58 31.8 C-41.99 28.69 -40.94 26.67 -39.07 24.13 C-38.41 24.13 -37.75 24.13 -37.07 24.13 C-36.89 23.47 -36.7 22.81 -36.51 22.13 C-32.4 13.56 -23.87 6.33 -16.07 1.13 C-10.7 0.07 -5.45 -0.01 0 0 Z M234.93 23.13 C235.93 25.13 235.93 25.13 235.93 25.13 Z M236.93 26.13 C237.59 27.78 238.25 29.43 238.93 31.13 C239.26 30.47 239.59 29.81 239.93 29.13 C238.94 28.14 237.95 27.15 236.93 26.13 Z M239.93 31.13 C239.93 72.71 239.93 114.29 239.93 157.13 C240.26 157.13 240.59 157.13 240.93 157.13 C240.93 115.55 240.93 73.97 240.93 31.13 C240.6 31.13 240.27 31.13 239.93 31.13 Z " fill="#B62624" transform="translate(279.07080078125,115.87301635742188)"/>
<path d="M0 0 C1.04 -0 2.08 -0 3.16 -0.01 C6.58 -0.01 10.01 -0.01 13.43 -0 C15.82 -0 18.21 -0.01 20.6 -0.01 C25.61 -0.01 30.61 -0.01 35.61 -0 C42.01 0 48.42 0 54.82 -0 C59.75 -0.01 64.69 -0.01 69.62 -0 C71.98 -0 74.34 -0 76.7 -0.01 C80 -0.01 83.31 -0.01 86.61 0 C88.06 -0 88.06 -0 89.54 -0.01 C94.89 0.01 100.01 0.35 105.3 1.13 C105.3 1.79 105.3 2.45 105.3 3.13 C106.09 3.36 106.87 3.58 107.68 3.82 C114.48 6.28 120.75 9.81 127.05 13.32 C130.76 15.35 134.24 16.92 138.3 18.13 C139.95 18.79 141.6 19.45 143.24 20.13 C147.22 21.74 151.15 23.05 155.3 24.13 C155.3 24.79 155.3 25.45 155.3 26.13 C158.6 26.46 161.9 26.79 165.3 27.13 C165.63 25.81 165.96 24.49 166.3 23.13 C166.9 21.59 167.52 20.07 168.18 18.57 C168.51 17.8 168.83 17.04 169.17 16.25 C170.3 14.13 170.3 14.13 173.3 11.13 C172.97 25.32 172.64 39.51 172.3 54.13 C171.97 53.47 171.64 52.81 171.3 52.13 C170.97 52.79 170.64 53.45 170.3 54.13 C85.82 54.46 1.34 54.79 -85.7 55.13 C-87.99 45.96 -87.88 36.6 -87.88 27.19 C-87.9 25.37 -87.9 25.37 -87.92 23.5 C-87.92 22.34 -87.92 21.18 -87.93 19.98 C-87.93 18.93 -87.93 17.87 -87.94 16.79 C-87.7 14.13 -87.7 14.13 -85.7 11.13 C-85.5 11.79 -85.31 12.46 -85.11 13.14 C-83.41 20.67 -83.41 20.67 -79.7 27.13 C-72.63 25.8 -66.26 23 -59.7 20.13 C-59.7 19.8 -59.7 19.47 -59.7 19.13 C-58.79 18.9 -57.88 18.67 -56.95 18.43 C-49.59 16.46 -43.21 14.13 -36.7 10.13 C-36 9.79 -35.3 9.45 -34.58 9.11 C-32.53 8.16 -32.53 8.16 -30.7 6.13 C-28.67 5.52 -26.63 4.99 -24.57 4.5 C-23.47 4.24 -22.38 3.98 -21.25 3.72 C-20.41 3.52 -19.56 3.33 -18.7 3.13 C-18.7 2.47 -18.7 1.81 -18.7 1.13 C-12.42 0.2 -6.33 -0.01 0 0 Z M170.3 20.13 C170.3 24.75 170.3 29.37 170.3 34.13 C170.63 34.13 170.96 34.13 171.3 34.13 C171.3 29.51 171.3 24.89 171.3 20.13 C170.97 20.13 170.64 20.13 170.3 20.13 Z M170.3 36.13 C171.3 40.13 171.3 40.13 171.3 40.13 Z " fill="#97938C" transform="translate(335.6953125,51.87060546875)"/>
<path d="M0 0 C1.19 -0 2.38 -0 3.61 -0 C4.85 -0 6.09 0 7.37 0.01 C8.62 0 9.86 0 11.14 -0 C12.93 -0 12.93 -0 14.75 0 C15.84 0 16.93 0 18.05 0 C20.81 0.13 20.81 0.13 23.81 1.13 C22.29 15.62 20.72 30.1 19.06 44.57 C18.98 45.25 18.9 45.94 18.82 46.64 C17.88 54.87 16.93 63.1 15.98 71.33 C15.28 77.36 14.59 83.4 13.89 89.43 C13.5 92.81 13.11 96.18 12.72 99.55 C10.44 119.25 10.44 119.25 8.44 138.98 C7.02 153.92 7.02 153.92 4.81 156.13 C2.14 156.22 -0.5 156.25 -3.16 156.23 C-3.87 156.23 -4.58 156.23 -5.31 156.23 C-7.96 156.22 -10.6 156.21 -13.25 156.2 C-19.17 156.17 -25.09 156.15 -31.19 156.13 C-31.52 168.67 -31.85 181.21 -32.19 194.13 C-33.51 194.46 -34.83 194.79 -36.19 195.13 C-42.31 201.67 -41.89 210.05 -41.82 218.45 C-41.82 219.9 -41.83 221.35 -41.84 222.81 C-41.85 226.8 -41.84 230.79 -41.82 234.78 C-41.81 239.13 -41.82 243.47 -41.83 247.81 C-41.85 255.42 -41.84 263.04 -41.83 270.65 C-41.8 281.97 -41.81 293.29 -41.82 304.61 C-41.84 324.82 -41.83 345.03 -41.81 365.25 C-41.79 382.94 -41.78 400.62 -41.78 418.31 C-41.78 419.48 -41.78 420.66 -41.78 421.87 C-41.78 426.63 -41.78 431.39 -41.78 436.14 C-41.79 480.81 -41.77 525.47 -41.73 570.13 C-41.7 609.83 -41.69 649.52 -41.69 689.22 C-41.69 691.77 -41.69 694.32 -41.69 696.87 C-41.69 698.76 -41.69 698.76 -41.69 700.69 C-41.7 707.03 -41.7 713.38 -41.7 719.72 C-41.7 721.6 -41.7 721.6 -41.7 723.51 C-41.7 756.66 -41.69 789.82 -41.68 822.97 C-41.68 824.15 -41.68 825.33 -41.68 826.54 C-41.67 827.72 -41.67 828.9 -41.67 830.11 C-41.67 831.28 -41.67 832.46 -41.67 833.67 C-41.67 836.03 -41.67 838.4 -41.67 840.77 C-41.66 857.27 -41.66 873.78 -41.66 890.29 C-41.66 911.56 -41.65 932.83 -41.63 954.1 C-41.62 965.35 -41.61 976.61 -41.62 987.86 C-41.62 995.37 -41.61 1002.88 -41.6 1010.39 C-41.59 1014.68 -41.59 1018.96 -41.59 1023.24 C-41.6 1027.14 -41.6 1031.03 -41.58 1034.93 C-41.58 1036.33 -41.58 1037.73 -41.58 1039.14 C-41.64 1049.04 -41.64 1049.04 -38.19 1058.13 C-37.72 1059.16 -37.24 1060.2 -36.75 1061.26 C-35.16 1064.19 -33.32 1066.58 -31.19 1069.13 C-30.86 1069.79 -30.53 1070.45 -30.19 1071.13 C-29.53 1071.94 -28.87 1072.74 -28.19 1073.57 C-26.19 1076.13 -26.19 1076.13 -25.19 1079.13 C-23.8 1080.59 -23.8 1080.59 -22.07 1081.95 C-21.44 1082.46 -20.82 1082.98 -20.18 1083.51 C-19.19 1084.31 -19.19 1084.31 -18.19 1085.13 C-16.9 1086.21 -15.6 1087.29 -14.32 1088.38 C-13.45 1089.1 -13.45 1089.1 -12.57 1089.84 C-11.19 1091.13 -11.19 1091.13 -10.19 1093.13 C-8.53 1093.82 -6.86 1094.48 -5.19 1095.13 C-3.13 1096.29 -1.09 1097.48 0.93 1098.7 C3.92 1100.49 6.51 1102.03 9.81 1103.13 C9.81 1103.79 9.81 1104.45 9.81 1105.13 C10.47 1105.79 11.13 1106.45 11.81 1107.13 C10.16 1107.79 8.51 1108.45 6.81 1109.13 C6.31 1107.65 6.31 1107.65 5.81 1106.13 C3.49 1105.05 3.49 1105.05 0.81 1104.13 C-6.05 1100.46 -12.14 1096 -18.19 1091.13 C-18.94 1090.61 -19.68 1090.09 -20.45 1089.55 C-21.02 1089.08 -21.6 1088.61 -22.19 1088.13 C-22.19 1087.47 -22.19 1086.81 -22.19 1086.13 C-22.85 1086.13 -23.51 1086.13 -24.19 1086.13 C-35.85 1074.01 -46.31 1057.19 -46.32 1040.05 C-46.32 1038.84 -46.33 1037.63 -46.33 1036.39 C-46.33 1035.05 -46.32 1033.72 -46.32 1032.38 C-46.32 1030.95 -46.33 1029.53 -46.33 1028.1 C-46.33 1024.16 -46.33 1020.22 -46.33 1016.29 C-46.33 1012.01 -46.34 1007.73 -46.34 1003.45 C-46.35 994.96 -46.35 986.47 -46.35 977.98 C-46.35 967.81 -46.36 957.64 -46.37 947.47 C-46.38 922.9 -46.39 898.32 -46.39 873.74 C-46.39 862.12 -46.4 850.5 -46.4 838.88 C-46.41 799.1 -46.43 759.32 -46.43 719.55 C-46.43 717.05 -46.43 714.55 -46.43 712.06 C-46.43 709.55 -46.43 707.05 -46.43 704.55 C-46.43 699.52 -46.43 694.5 -46.43 689.48 C-46.43 688.23 -46.43 686.99 -46.43 685.71 C-46.44 645.32 -46.45 604.93 -46.47 564.54 C-46.5 521.85 -46.51 479.16 -46.51 436.47 C-46.51 431.79 -46.51 427.1 -46.51 422.42 C-46.52 421.27 -46.52 420.11 -46.52 418.92 C-46.52 400.35 -46.53 381.77 -46.54 363.19 C-46.56 344.53 -46.56 325.86 -46.55 307.2 C-46.55 296.11 -46.55 285.01 -46.57 273.92 C-46.58 266.51 -46.58 259.1 -46.57 251.7 C-46.56 247.47 -46.56 243.25 -46.57 239.03 C-46.58 235.19 -46.58 231.34 -46.57 227.5 C-46.56 225.47 -46.57 223.44 -46.59 221.41 C-46.53 212.27 -45.65 203.78 -40.13 196.2 C-39.62 195.49 -39.12 194.77 -38.59 194.04 C-38.13 193.41 -37.67 192.78 -37.19 192.13 C-35.12 189.03 -34.92 188.18 -34.78 184.63 C-34.74 183.71 -34.7 182.79 -34.66 181.84 C-34.63 180.83 -34.6 179.82 -34.57 178.79 C-34.51 177.19 -34.51 177.19 -34.46 175.57 C-34.07 163.59 -34.08 151.61 -34.12 139.63 C-34.13 135.54 -34.14 131.45 -34.14 127.36 C-34.15 118.7 -34.17 110.04 -34.19 101.38 C-34.21 91.98 -34.23 82.58 -34.24 73.18 C-34.25 69.79 -34.26 66.4 -34.27 63 C-34.28 59.23 -34.28 55.45 -34.29 51.68 C-34.29 50.58 -34.3 49.49 -34.3 48.36 C-34.31 43.11 -34.19 37.89 -33.87 32.66 C-33.82 31.72 -33.76 30.78 -33.7 29.8 C-33.11 26.69 -32.06 24.68 -30.19 22.13 C-29.53 22.13 -28.87 22.13 -28.19 22.13 C-28.01 21.47 -27.82 20.81 -27.63 20.13 C-24.01 12.58 -16.85 6.07 -10.19 1.13 C-6.8 -0.01 -3.56 0 0 0 Z " fill="#BF2826" transform="translate(270.19140625,117.8671875)"/>
<path d="M0 0 C1.04 -0 2.08 -0 3.16 -0.01 C6.58 -0.01 10.01 -0.01 13.43 -0 C15.82 -0 18.21 -0.01 20.6 -0.01 C25.61 -0.01 30.61 -0.01 35.61 -0 C42.01 0 48.42 0 54.82 -0 C59.75 -0.01 64.69 -0.01 69.62 -0 C71.98 -0 74.34 -0 76.7 -0.01 C80 -0.01 83.31 -0.01 86.61 0 C88.06 -0 88.06 -0 89.54 -0.01 C94.89 0.01 100.01 0.35 105.3 1.13 C105.3 1.79 105.3 2.45 105.3 3.13 C106.29 3.46 107.28 3.79 108.3 4.13 C106.98 4.46 105.66 4.79 104.3 5.13 C104.63 11.07 104.96 17.01 105.3 23.13 C108.8 23.28 108.8 23.28 112.37 23.44 C154.4 25.75 154.4 25.75 169.3 37.13 C170.61 40.08 170.28 42.11 169.3 45.13 C157.78 45.31 157.78 45.31 152.3 44.13 C153.29 41.16 153.29 41.16 154.3 38.13 C153.63 38.14 152.95 38.15 152.25 38.16 C142.18 38.25 132.15 37.79 122.09 37.33 C105.23 36.57 88.37 35.92 71.49 35.5 C70.3 35.47 70.3 35.47 69.09 35.44 C50.72 34.98 32.37 35.08 13.99 35.5 C13.07 35.53 12.14 35.55 11.19 35.57 C-4.11 35.92 -19.4 36.46 -34.7 37.13 C-35.67 37.17 -36.64 37.21 -37.64 37.26 C-47.68 37.69 -57.69 38.16 -67.7 39.13 C-67.04 40.78 -66.38 42.43 -65.7 44.13 C-68.7 45.63 -71.49 45.22 -74.82 45.19 C-76.1 45.18 -77.38 45.17 -78.7 45.16 C-80.18 45.15 -80.18 45.15 -81.7 45.13 C-82.36 41.83 -83.02 38.53 -83.7 35.13 C-83.04 35.46 -82.38 35.79 -81.7 36.13 C-79.93 35.3 -78.21 34.39 -76.51 33.44 C-59.23 24.59 -39.7 24.17 -20.7 23.13 C-20.37 17.52 -20.04 11.91 -19.7 6.13 C-22.17 5.63 -22.17 5.63 -24.7 5.13 C-20.95 3.13 -20.95 3.13 -18.7 3.13 C-18.7 2.47 -18.7 1.81 -18.7 1.13 C-12.42 0.2 -6.33 -0.01 0 0 Z " fill="#C22927" transform="translate(335.6953125,51.87060546875)"/>
<path d="M0 0 C1.48 1.1 1.48 1.1 3 3 C3.38 5.83 3.38 5.83 3.39 9.33 C3.39 10.3 3.39 10.3 3.4 11.29 C3.42 13.45 3.41 15.62 3.4 17.78 C3.41 19.33 3.41 20.88 3.42 22.43 C3.44 25.77 3.44 29.11 3.44 32.46 C3.44 37.74 3.46 43.02 3.48 48.3 C3.52 58.56 3.54 68.82 3.56 79.08 C3.58 92.13 3.61 105.18 3.66 118.24 C3.68 123.49 3.69 128.74 3.7 133.99 C3.7 137.26 3.71 140.53 3.72 143.79 C3.73 145.31 3.73 146.82 3.72 148.34 C3.72 150.41 3.73 152.47 3.74 154.54 C3.74 155.7 3.74 156.86 3.75 158.05 C4 160.94 4.42 162.59 6 165 C7.77 166.26 7.77 166.26 9.81 167.25 C15.11 170.42 18 174.35 19.64 180.33 C21.08 188.01 21.28 195.47 21.25 203.27 C21.25 204.69 21.26 206.12 21.26 207.54 C21.27 211.44 21.26 215.34 21.26 219.24 C21.25 223.49 21.26 227.74 21.26 231.98 C21.27 239.43 21.27 246.87 21.27 254.31 C21.26 265.37 21.26 276.44 21.27 287.5 C21.28 307.27 21.28 327.03 21.27 346.79 C21.27 364.09 21.27 381.38 21.27 398.67 C21.27 399.82 21.27 400.97 21.27 402.15 C21.27 406.81 21.27 411.46 21.27 416.12 C21.28 459.8 21.27 503.47 21.26 547.15 C21.25 585.97 21.25 624.78 21.26 663.59 C21.27 707.19 21.28 750.79 21.27 794.38 C21.27 799.03 21.27 803.68 21.27 808.33 C21.27 809.47 21.27 810.61 21.27 811.79 C21.26 829.08 21.27 846.36 21.27 863.65 C21.28 883.3 21.28 902.95 21.27 922.6 C21.26 933.6 21.26 944.6 21.27 955.6 C21.27 962.95 21.27 970.29 21.26 977.64 C21.26 981.83 21.25 986.01 21.26 990.2 C21.27 994.01 21.26 997.82 21.25 1001.63 C21.25 1003.64 21.26 1005.65 21.27 1007.66 C21.22 1018.09 20.36 1027.63 15.44 1036.94 C15.09 1037.61 14.74 1038.29 14.39 1038.98 C10.92 1045.52 6.67 1051.26 2 1057 C1.34 1057.89 1.34 1057.89 0.67 1058.79 C-5.89 1067.44 -15.76 1072.87 -24.93 1078.32 C-26.06 1078.99 -26.06 1078.99 -27.22 1079.68 C-27.9 1080.08 -28.58 1080.48 -29.28 1080.89 C-31.15 1082.01 -31.15 1082.01 -33 1084 C-35 1079.12 -35 1079.12 -35 1078 C-34.39 1077.86 -33.79 1077.73 -33.16 1077.59 C-25.98 1075.74 -20.82 1072.53 -15 1068 C-14.07 1067.28 -13.14 1066.56 -12.19 1065.81 C-11.1 1064.92 -11.1 1064.92 -10 1064 C-9.18 1063.38 -8.35 1062.76 -7.5 1062.12 C-4.06 1059.2 -0.99 1056.04 1 1051.94 C2 1050 2 1050 4.31 1047.81 C8.57 1043.36 11.73 1038.07 13 1032 C13.66 1032 14.32 1032 15 1032 C14.5 1030.51 14.5 1030.51 14 1029 C14.66 1028.67 15.32 1028.34 16 1028 C16.07 947.12 16.13 866.23 16.17 785.35 C16.17 784.15 16.17 782.95 16.17 781.72 C16.18 755.72 16.19 729.73 16.2 703.73 C16.21 690.98 16.21 678.24 16.22 665.49 C16.22 664.22 16.22 662.95 16.22 661.64 C16.24 620.49 16.27 579.34 16.31 538.19 C16.34 495.92 16.37 453.65 16.38 411.38 C16.38 405.41 16.38 399.45 16.38 393.48 C16.38 392.31 16.38 391.13 16.38 389.92 C16.39 370.99 16.4 352.06 16.43 333.13 C16.45 314.12 16.46 295.11 16.45 276.1 C16.45 264.79 16.46 253.48 16.48 242.17 C16.5 234.63 16.5 227.09 16.49 219.54 C16.48 215.24 16.48 210.93 16.5 206.63 C16.52 202.72 16.51 198.81 16.5 194.9 C16.49 193.49 16.5 192.07 16.51 190.66 C16.52 188.76 16.51 186.85 16.5 184.94 C16.5 183.88 16.5 182.82 16.5 181.73 C15.88 178.32 14.57 177.24 12 175 C11.68 174.28 11.37 173.57 11.04 172.83 C10.14 170.79 10.14 170.79 7.84 170.17 C7.02 170.03 6.21 169.89 5.38 169.75 C4.15 169.53 4.15 169.53 2.9 169.3 C2.27 169.2 1.65 169.1 1 169 C0.62 167.34 0.29 165.68 0 164 C0.33 163.67 0.66 163.34 1 163 C1.16 160.71 1.25 158.42 1.32 156.12 C1.34 155.43 1.36 154.75 1.38 154.04 C1.44 151.84 1.5 149.64 1.56 147.44 C1.61 145.95 1.65 144.46 1.69 142.97 C1.8 139.31 1.9 135.66 2 132 C1.01 131.67 0.02 131.34 -1 131 C-0.01 130.67 0.98 130.34 2 130 C1.89 113.64 1.78 97.28 1.66 80.92 C1.61 73.33 1.55 65.73 1.5 58.13 C1.46 51.51 1.41 44.89 1.36 38.27 C1.34 34.77 1.31 31.26 1.29 27.76 C1.27 23.85 1.24 19.93 1.21 16.02 C1.2 14.27 1.2 14.27 1.19 12.49 C1.18 11.43 1.17 10.36 1.16 9.26 C1.15 8.34 1.15 7.41 1.14 6.46 C1.01 4.17 0.64 2.2 0 0 Z " fill="#000000" transform="translate(518,143)"/>
<path d="M0 0 C1.14 3.43 1.11 6.01 1.08 9.62 C1.08 10.3 1.08 10.98 1.07 11.67 C1.06 13.95 1.04 16.22 1.02 18.49 C1.01 20.11 1 21.74 0.99 23.37 C0.97 27.78 0.93 32.2 0.9 36.62 C0.87 41.24 0.84 45.86 0.81 50.47 C0.75 59.22 0.69 67.96 0.63 76.7 C0.55 86.66 0.49 96.61 0.42 106.57 C0.29 127.04 0.15 147.52 0 168 C-0.91 168.13 -0.91 168.13 -1.83 168.27 C-5.4 169.47 -6.33 171.92 -7.99 175.15 C-9.97 180.73 -9.68 186.47 -9.62 192.32 C-9.63 193.77 -9.64 195.22 -9.64 196.67 C-9.66 200.67 -9.65 204.66 -9.63 208.65 C-9.62 212.99 -9.63 217.34 -9.64 221.68 C-9.66 229.29 -9.65 236.9 -9.64 244.52 C-9.61 255.83 -9.62 267.15 -9.63 278.47 C-9.65 298.69 -9.64 318.9 -9.62 339.11 C-9.6 356.8 -9.59 374.49 -9.59 392.18 C-9.59 393.35 -9.59 394.52 -9.59 395.73 C-9.59 400.49 -9.59 405.25 -9.59 410.01 C-9.6 454.67 -9.58 499.34 -9.54 544 C-9.51 583.7 -9.49 623.39 -9.5 663.09 C-9.5 665.64 -9.5 668.19 -9.5 670.74 C-9.5 672.63 -9.5 672.63 -9.5 674.56 C-9.5 680.9 -9.5 687.24 -9.51 693.59 C-9.51 695.46 -9.51 695.46 -9.51 697.38 C-9.51 730.53 -9.5 763.68 -9.49 796.84 C-9.49 798.02 -9.48 799.19 -9.48 800.41 C-9.48 801.59 -9.48 802.76 -9.48 803.98 C-9.48 805.15 -9.48 806.32 -9.48 807.54 C-9.48 809.9 -9.48 812.27 -9.48 814.63 C-9.47 831.14 -9.47 847.65 -9.47 864.16 C-9.47 885.43 -9.46 906.7 -9.44 927.97 C-9.42 939.22 -9.42 950.48 -9.43 961.73 C-9.43 969.24 -9.42 976.75 -9.41 984.26 C-9.4 988.54 -9.39 992.83 -9.4 997.11 C-9.41 1001.01 -9.41 1004.9 -9.39 1008.8 C-9.39 1010.2 -9.39 1011.6 -9.39 1013 C-9.45 1022.91 -9.45 1022.91 -6 1032 C-5.53 1033.03 -5.05 1034.06 -4.56 1035.12 C-2.97 1038.05 -1.13 1040.44 1 1043 C1.33 1043.66 1.66 1044.32 2 1045 C2.66 1045.8 3.32 1046.61 4 1047.44 C6 1050 6 1050 7 1053 C8.39 1054.45 8.39 1054.45 10.12 1055.81 C10.75 1056.33 11.37 1056.85 12.02 1057.38 C13 1058.18 13 1058.18 14 1059 C15.3 1060.08 16.59 1061.16 17.88 1062.25 C18.74 1062.97 18.74 1062.97 19.62 1063.7 C21 1065 21 1065 22 1067 C23.66 1067.69 25.33 1068.35 27 1069 C29.06 1070.16 31.1 1071.35 33.12 1072.56 C36.11 1074.35 38.7 1075.9 42 1077 C42 1077.66 42 1078.32 42 1079 C42.66 1079.66 43.32 1080.32 44 1081 C42.35 1081.66 40.7 1082.32 39 1083 C38.5 1081.51 38.5 1081.51 38 1080 C35.68 1078.92 35.68 1078.92 33 1078 C26.14 1074.33 20.05 1069.86 14 1065 C13.25 1064.48 12.51 1063.96 11.74 1063.42 C11.17 1062.95 10.59 1062.48 10 1062 C10 1061.34 10 1060.68 10 1060 C9.34 1060 8.68 1060 8 1060 C-3.66 1047.88 -14.12 1031.05 -14.13 1013.91 C-14.13 1012.7 -14.13 1011.5 -14.14 1010.25 C-14.14 1008.92 -14.13 1007.58 -14.13 1006.25 C-14.13 1004.82 -14.14 1003.39 -14.14 1001.97 C-14.14 998.03 -14.14 994.09 -14.14 990.15 C-14.14 985.88 -14.15 981.6 -14.15 977.32 C-14.16 968.83 -14.16 960.34 -14.16 951.85 C-14.16 941.68 -14.17 931.51 -14.17 921.34 C-14.19 896.76 -14.2 872.19 -14.2 847.61 C-14.2 835.99 -14.21 824.37 -14.21 812.74 C-14.22 772.97 -14.23 733.19 -14.24 693.41 C-14.24 690.92 -14.24 688.42 -14.24 685.92 C-14.24 683.42 -14.24 680.92 -14.24 678.41 C-14.24 673.39 -14.24 668.37 -14.24 663.35 C-14.24 662.1 -14.24 660.86 -14.24 659.57 C-14.24 619.18 -14.26 578.79 -14.28 538.41 C-14.31 495.72 -14.32 453.03 -14.32 410.34 C-14.32 405.66 -14.32 400.97 -14.32 396.29 C-14.32 395.13 -14.32 393.98 -14.32 392.79 C-14.32 374.21 -14.34 355.64 -14.35 337.06 C-14.36 318.39 -14.37 299.73 -14.36 281.07 C-14.36 269.97 -14.36 258.88 -14.38 247.79 C-14.38 240.38 -14.38 232.97 -14.37 225.56 C-14.37 221.34 -14.37 217.12 -14.38 212.9 C-14.39 209.05 -14.39 205.21 -14.38 201.37 C-14.37 199.34 -14.38 197.31 -14.39 195.28 C-14.34 186.14 -13.46 177.64 -7.94 170.06 C-7.43 169.35 -6.92 168.64 -6.4 167.91 C-5.94 167.28 -5.48 166.65 -5 166 C-2.93 162.9 -2.73 162.04 -2.59 158.49 C-2.55 157.57 -2.51 156.65 -2.47 155.7 C-2.44 154.7 -2.41 153.69 -2.38 152.66 C-2.32 151.06 -2.32 151.06 -2.26 149.44 C-1.88 137.46 -1.89 125.48 -1.92 113.49 C-1.94 109.41 -1.94 105.32 -1.95 101.23 C-1.96 92.57 -1.98 83.91 -2 75.25 C-2.02 65.85 -2.04 56.45 -2.05 47.05 C-2.06 43.66 -2.06 40.26 -2.08 36.87 C-2.09 33.1 -2.09 29.32 -2.1 25.55 C-2.1 24.45 -2.11 23.35 -2.11 22.22 C-2.11 15.13 -1.96 8.03 -1 1 C-0.67 0.67 -0.34 0.34 0 0 Z " fill="#000000" transform="translate(238,144)"/>
<path d="M0 0 C0.33 0.66 0.66 1.32 1 2 C2.58 1.99 2.58 1.99 4.2 1.98 C8.1 1.97 12 1.95 15.9 1.95 C17.59 1.94 19.28 1.93 20.97 1.92 C23.4 1.91 25.82 1.91 28.25 1.9 C29.39 1.89 29.39 1.89 30.55 1.89 C32.37 1.89 34.18 1.94 36 2 C36.5 2.5 36.5 2.5 37 3 C36.94 5.66 36.81 8.28 36.62 10.94 C36.58 11.68 36.54 12.42 36.49 13.19 C36.13 18.74 36.13 18.74 35 21 C34.9 23.02 34.87 25.04 34.88 27.06 C34.87 28.15 34.87 29.23 34.87 30.35 C34.7 32.92 34.7 32.92 36 34 C38.96 33.9 41.91 33.75 44.87 33.57 C56.17 32.99 67.46 32.89 78.78 32.89 C79.69 32.89 80.6 32.89 81.54 32.88 C87.39 32.88 93.24 32.89 99.09 32.9 C104.27 32.9 109.45 32.91 114.63 32.91 C124.4 32.91 134.17 32.92 143.94 32.93 C155.08 32.94 166.22 32.94 177.36 32.95 C200.24 32.96 223.12 32.98 246 33 C245.69 30.65 245.38 28.29 245.06 25.94 C244.98 25.28 244.89 24.62 244.8 23.95 C244.37 20.69 243.92 17.44 243.44 14.2 C243.01 11.1 242.9 8.18 242.94 5.06 C242.95 4.1 242.96 3.15 242.96 2.16 C242.98 1.09 242.98 1.09 243 0 C243.33 0.66 243.66 1.32 244 2 C245.57 1.99 245.57 1.99 247.18 1.98 C251.07 1.97 254.96 1.95 258.84 1.95 C260.53 1.94 262.21 1.93 263.9 1.92 C266.31 1.91 268.73 1.91 271.15 1.9 C271.9 1.9 272.66 1.89 273.44 1.89 C278.77 1.89 278.77 1.89 281 3 C281 15.21 281 27.42 281 40 C188.6 40 96.2 40 1 40 C-0.27 36.18 -0.12 32.59 -0.1 28.61 C-0.1 27.8 -0.09 26.98 -0.09 26.14 C-0.09 23.53 -0.08 20.92 -0.06 18.31 C-0.06 16.54 -0.05 14.77 -0.05 13.01 C-0.04 8.67 -0.02 4.34 0 0 Z " fill="#9A9790" transform="translate(238,272)"/>
<path d="M0 0 C0.99 0.33 1.98 0.66 3 1 C3.02 81.82 3.03 162.63 3.04 243.45 C3.04 244.65 3.04 245.84 3.04 247.07 C3.05 273.05 3.05 299.02 3.05 324.99 C3.05 337.72 3.05 350.46 3.05 363.19 C3.06 364.46 3.06 365.73 3.06 367.04 C3.06 408.15 3.07 449.27 3.08 490.38 C3.09 532.62 3.09 574.85 3.09 617.08 C3.09 623.04 3.09 629 3.09 634.96 C3.09 636.13 3.1 637.31 3.1 638.51 C3.1 657.43 3.1 676.35 3.11 695.26 C3.11 714.26 3.11 733.25 3.11 752.24 C3.11 763.54 3.11 774.84 3.12 786.14 C3.12 793.68 3.12 801.21 3.12 808.75 C3.12 813.05 3.12 817.35 3.12 821.65 C3.13 825.56 3.13 829.46 3.12 833.37 C3.12 834.78 3.12 836.19 3.13 837.6 C3.13 839.51 3.13 841.41 3.12 843.31 C3.12 844.37 3.12 845.43 3.12 846.52 C3 849 3 849 2 851 C1.34 851 0.68 851 0 851 C0 570.17 0 289.34 0 0 Z " fill="#BEBCB7" transform="translate(531,321)"/>
<path d="M0 0 C0.83 0.02 1.65 0.04 2.5 0.06 C17.51 0.45 32.5 1 47.5 1.62 C48.52 1.67 49.55 1.71 50.6 1.75 C61.36 2.19 72.09 2.67 82.81 3.62 C82.15 5.61 81.49 7.58 80.81 9.62 C77.65 9.68 74.48 9.72 71.31 9.75 C70.43 9.77 69.54 9.78 68.62 9.8 C67.75 9.81 66.87 9.81 65.97 9.82 C64.77 9.84 64.77 9.84 63.56 9.85 C60.81 9.62 60.81 9.62 57.45 8.68 C50.91 6.97 44.11 6.87 37.39 6.52 C36.63 6.47 35.88 6.43 35.1 6.39 C16.5 5.38 -2.1 5.31 -20.73 5.37 C-23.48 5.38 -26.23 5.38 -28.98 5.38 C-50.85 5.41 -72.71 5.56 -94.56 6.5 C-95.99 6.56 -95.99 6.56 -97.45 6.62 C-100.06 6.73 -102.67 6.86 -105.27 6.99 C-106 7.03 -106.73 7.06 -107.49 7.09 C-111.7 7.34 -115.24 8.17 -119.19 9.62 C-121.12 9.92 -123.06 10.15 -125 10.31 C-125.96 10.4 -126.91 10.49 -127.89 10.57 C-129.03 10.6 -129.03 10.6 -130.19 10.62 C-130.52 10.3 -130.85 9.97 -131.19 9.62 C-132.16 9.62 -133.13 9.62 -134.12 9.62 C-137.19 9.62 -137.19 9.62 -139.19 8.62 C-139.81 6.06 -139.81 6.06 -140.19 3.62 C-128.19 2.94 -116.19 2.27 -104.19 1.62 C-102.58 1.54 -102.58 1.54 -100.93 1.45 C-86.94 0.71 -72.94 0.39 -58.94 0.06 C-58 0.04 -57.07 0.02 -56.11 -0.01 C-37.39 -0.45 -18.71 -0.48 0 0 Z " fill="#89847F" transform="translate(407.1875,86.375)"/>
<path d="M0 0 C0.71 0 1.42 0 2.15 0.01 C2.88 0.01 3.61 0 4.35 0 C5.89 0 7.43 0 8.97 0.01 C11.33 0.01 13.69 0.01 16.05 0 C17.54 0 19.03 0 20.53 0.01 C21.59 0 21.59 0 22.67 0 C27.68 0.02 27.68 0.02 29.91 1.14 C29.93 5.62 29.95 10.11 29.96 14.59 C29.97 16.12 29.97 17.64 29.98 19.17 C29.99 21.36 30 23.55 30 25.75 C30.01 27.07 30.01 28.39 30.02 29.75 C29.93 32.45 29.73 34.59 28.91 37.14 C27.26 37.14 25.61 37.14 23.91 37.14 C25.89 36.64 25.89 36.64 27.91 36.14 C27.41 34.16 27.41 34.16 26.91 32.14 C25.92 32.63 25.92 32.63 24.91 33.14 C21.96 33.26 19.04 33.32 16.09 33.33 C15.29 33.34 14.48 33.35 13.65 33.36 C5.62 33.38 5.62 33.38 1.91 31.14 C-0.05 28.01 -0.48 25.2 -0.84 21.57 C-0.95 20.51 -1.07 19.45 -1.19 18.35 C-1.42 16.12 -1.64 13.89 -1.86 11.65 C-1.98 10.59 -2.09 9.53 -2.21 8.44 C-2.36 6.99 -2.36 6.99 -2.51 5.51 C-2.9 2.78 -2.9 2.78 -6.09 1.14 C-4.39 -0.56 -2.27 0.01 0 0 Z " fill="#9E9B94" transform="translate(489.09336853027344,273.8610534667969)"/>
<path d="M0 0 C0.33 0.66 0.66 1.32 1 2 C2.39 1.98 2.39 1.98 3.81 1.97 C7.25 1.93 10.69 1.91 14.13 1.89 C15.62 1.88 17.11 1.87 18.6 1.85 C20.74 1.82 22.88 1.81 25.02 1.8 C26.31 1.79 27.6 1.78 28.93 1.77 C32 2 32 2 34 4 C33.55 6.01 33.08 8.03 32.56 10.02 C31.73 14.41 31.68 18.87 31.69 23.33 C31.59 26.85 31.03 28.95 29.16 31.96 C24.46 35 20.28 34.62 14.81 34.44 C13.8 34.43 12.79 34.43 11.75 34.42 C4.3 34.3 4.3 34.3 2 32 C1.5 34.48 1.5 34.48 1 37 C0.67 37 0.34 37 0 37 C0 24.79 0 12.58 0 0 Z " fill="#9F9C95" transform="translate(238,272)"/>
<path d="M0 0 C1.6 3.2 0.87 6.58 0.62 10.06 C0.58 10.81 0.54 11.55 0.49 12.32 C0.13 17.87 0.13 17.87 -1 19 C-2.53 19.2 -4.06 19.35 -5.6 19.46 C-7.04 19.58 -7.04 19.58 -8.5 19.7 C-9.53 19.78 -10.56 19.86 -11.62 19.94 C-29.63 21.44 -46.94 22.97 -63 32 C-62.67 34.64 -62.34 37.28 -62 40 C-59.69 40 -57.38 40 -55 40 C-55 40.33 -55 40.66 -55 41 C-60.94 41.5 -60.94 41.5 -67 42 C-68.24 35.42 -68.18 28.99 -68.19 22.31 C-68.2 21.08 -68.21 19.84 -68.22 18.57 C-68.23 17.39 -68.23 16.21 -68.23 14.99 C-68.24 13.37 -68.24 13.37 -68.24 11.72 C-68 9 -68 9 -66 6 C-65.81 6.66 -65.61 7.33 -65.41 8.01 C-63.71 15.54 -63.71 15.54 -60 22 C-52.94 20.67 -46.57 17.87 -40 15 C-40 14.67 -40 14.34 -40 14 C-39.09 13.77 -38.19 13.54 -37.25 13.3 C-29.9 11.33 -23.51 9 -17 5 C-16.3 4.66 -15.6 4.32 -14.88 3.98 C-12.83 3.03 -12.83 3.03 -11 1 C-7.41 -0.33 -3.79 -0.07 0 0 Z " fill="#8A847F" transform="translate(316,57)"/>
<path d="M0 0 C11.13 -0.12 22.25 -0.2 33.38 -0.26 C38.55 -0.29 43.71 -0.32 48.88 -0.38 C53.87 -0.43 58.85 -0.46 63.84 -0.47 C65.74 -0.48 67.64 -0.5 69.54 -0.53 C72.21 -0.56 74.87 -0.57 77.54 -0.57 C78.32 -0.59 79.11 -0.6 79.92 -0.62 C83.95 -0.58 85.73 -0.23 88.86 2.4 C89.57 3.26 90.27 4.12 91 5 C92.66 6.35 94.32 7.68 96 9 C96.99 9.99 96.99 9.99 98 11 C97.67 13.31 97.34 15.62 97 18 C113.5 18 130 18 147 18 C143.13 21.87 139.16 22.23 133.79 22.3 C132.61 22.3 132.61 22.3 131.41 22.3 C130.59 22.31 129.77 22.31 128.92 22.31 C127.18 22.32 125.45 22.32 123.72 22.32 C121.07 22.31 118.43 22.34 115.79 22.36 C114.1 22.36 112.41 22.36 110.72 22.36 C109.94 22.37 109.15 22.38 108.35 22.39 C103.5 22.35 100.22 21.63 96 19 C93.57 16.07 92.2 12.6 91 9 C85.58 5.59 79.86 4.75 73.56 4.73 C72.84 4.72 72.12 4.72 71.38 4.71 C69.02 4.7 66.65 4.7 64.29 4.7 C62.64 4.7 60.98 4.69 59.33 4.69 C55.87 4.68 52.4 4.68 48.94 4.68 C44.52 4.69 40.1 4.67 35.68 4.65 C32.27 4.64 28.85 4.63 25.44 4.64 C23.81 4.64 22.18 4.63 20.55 4.62 C7.33 4.09 7.33 4.09 -4.02 9.9 C-4.47 10.57 -4.92 11.25 -5.38 11.94 C-5.84 12.61 -6.3 13.28 -6.77 13.96 C-8.05 15.96 -8.05 15.96 -8.85 18.13 C-10.51 20.83 -11.97 21.08 -15 22 C-17.89 22.2 -20.67 22.3 -23.55 22.3 C-24.37 22.31 -25.19 22.31 -26.04 22.31 C-27.77 22.32 -29.5 22.32 -31.23 22.32 C-33.86 22.31 -36.49 22.34 -39.12 22.36 C-40.81 22.36 -42.49 22.36 -44.18 22.36 C-44.96 22.37 -45.74 22.38 -46.54 22.39 C-51.75 22.35 -55.34 21.33 -60 19 C-57.03 18.14 -54.41 17.88 -51.32 17.89 C-50.4 17.89 -49.48 17.89 -48.53 17.89 C-47.55 17.89 -46.56 17.9 -45.55 17.9 C-44.53 17.9 -43.52 17.91 -42.47 17.91 C-39.23 17.91 -35.99 17.92 -32.75 17.94 C-30.55 17.94 -28.35 17.95 -26.16 17.95 C-20.77 17.96 -15.39 17.98 -10 18 C-10.19 17.22 -10.38 16.44 -10.58 15.64 C-11 13 -11 13 -9.69 10.81 C-7.53 8.5 -5.35 6.46 -2.88 4.5 C-1.93 3.67 -0.98 2.85 0 2 C0 1.34 0 0.68 0 0 Z " fill="#020201" transform="translate(338,1210)"/>
<path d="M0 0 C7.87 0 7.87 0 11.75 2.12 C12.6 2.58 13.44 3.03 14.31 3.5 C15.64 4.24 15.64 4.24 17 5 C25.22 9.64 25.22 9.64 34 13 C35.65 13.66 37.3 14.32 38.94 15 C42.92 16.61 46.85 17.92 51 19 C51 19.66 51 20.32 51 21 C54.3 21.33 57.6 21.66 61 22 C61.33 20.68 61.66 19.36 62 18 C62.66 16 63.32 14 64 12 C64.99 12.5 64.99 12.5 66 13 C66.22 15.94 66.43 18.87 66.62 21.81 C66.69 22.65 66.75 23.48 66.82 24.34 C66.87 25.14 66.92 25.94 66.98 26.77 C67.03 27.51 67.08 28.25 67.14 29.01 C67 31 67 31 65 34 C64.62 33.57 64.25 33.13 63.86 32.69 C55.95 25.51 44.18 23.54 34 22 C32.08 21.71 32.08 21.71 30.12 21.41 C20.09 20.04 10.11 19.47 0 19 C0 12.73 0 6.46 0 0 Z M65 10 C65.66 10 66.32 10 67 10 C66.67 10.66 66.34 11.32 66 12 C65.67 11.34 65.34 10.68 65 10 Z " fill="#89847F" transform="translate(440,57)"/>
<path d="M0 0 C0.66 0.66 1.32 1.32 2 2 C14.39 3.74 27.26 3.12 39.75 3.08 C41.89 3.08 44.03 3.08 46.17 3.07 C50.75 3.07 55.33 3.06 59.91 3.04 C67.16 3.03 74.41 3.02 81.66 3.01 C102.27 2.98 122.88 2.95 143.48 2.9 C154.89 2.88 166.29 2.86 177.7 2.85 C184.9 2.85 192.1 2.83 199.3 2.81 C203.78 2.8 208.26 2.79 212.75 2.79 C214.82 2.79 216.89 2.78 218.96 2.78 C239.05 2.69 239.05 2.69 248 5 C248 5.33 248 5.66 248 6 C156.26 5.67 64.52 5.34 -30 5 C-29.67 4.34 -29.34 3.68 -29 3 C-19.76 3 -10.52 3 -1 3 C-0.67 2.01 -0.34 1.02 0 0 Z " fill="#5C4F4A" transform="translate(271,306)"/>
<path d="M0 0 C0.33 0.66 0.66 1.32 1 2 C2.32 2.7 3.65 3.37 5 4 C6.68 5.68 6.43 7.9 6.68 10.21 C6.81 11.27 6.93 12.33 7.06 13.42 C7.31 15.67 7.56 17.92 7.81 20.17 C7.93 21.23 8.06 22.3 8.18 23.39 C8.29 24.37 8.4 25.35 8.51 26.36 C9 29 9.46 30.8 11 33 C13.87 34.17 16.69 34.12 19.77 34.1 C21.1 34.09 21.1 34.09 22.46 34.09 C23.38 34.08 24.3 34.07 25.25 34.06 C26.19 34.06 27.12 34.05 28.09 34.05 C30.39 34.04 32.7 34.02 35 34 C35.33 33.01 35.66 32.02 36 31 C36 33.31 36 35.62 36 38 C25.44 37.67 14.88 37.34 4 37 C2.04 33.07 1.81 32.05 2 27.94 C2.08 23.95 1.81 20.4 1 16.5 C-0.14 10.96 -0.2 5.64 0 0 Z " fill="#87827D" transform="translate(481,272)"/>
<path d="M0 0 C6.93 0.58 11.73 3.18 17.74 6.53 C22.46 9.14 26.86 11.33 32 13 C33.88 14.62 33.88 14.62 35 16 C30.26 17.58 25.52 16.91 20.56 16.69 C18.99 16.63 18.99 16.63 17.38 16.58 C16.37 16.54 15.36 16.49 14.32 16.45 C12.93 16.39 12.93 16.39 11.52 16.33 C8.88 15.98 7.23 15.44 5 14 C2.21 9.82 3.2 7.85 4 3 C2.68 2.01 1.36 1.02 0 0 Z " fill="#A09C95" transform="translate(442,57)"/>
<path d="M0 0 C84.48 0 168.96 0 256 0 C256 0.33 256 0.66 256 1 C171.52 1 87.04 1 0 1 C0 0.67 0 0.34 0 0 Z " fill="#FDFDFD" transform="translate(251,107)"/>
<path d="M0 0 C2.48 0.5 2.48 0.5 5 1 C4.86 3.63 4.71 6.25 4.56 8.88 C4.52 9.62 4.48 10.37 4.44 11.14 C4.11 16.77 4.11 16.77 3 19 C3.04 20.01 3.08 21.02 3.12 22.06 C3 26 3 26 0 35 C-9.24 35.33 -18.48 35.66 -28 36 C-28.33 36.66 -28.66 37.32 -29 38 C-29.66 37.67 -30.32 37.34 -31 37 C-30.67 34.69 -30.34 32.38 -30 30 C-29.34 30.33 -28.68 30.66 -28 31 C-24.38 31.29 -20.75 31.28 -17.12 31.31 C-16.12 31.34 -15.11 31.37 -14.07 31.4 C-8.45 31.5 -8.45 31.5 -3.34 29.46 C-1.52 26.12 -1.41 23.04 -1.38 19.31 C-1.22 14.62 -1.01 10.21 0.12 5.62 C1.37 2.19 1.37 2.19 0 0 Z " fill="#89847F" transform="translate(270,274)"/>
<path d="M0 0 C1.04 -0 2.08 -0 3.16 -0.01 C6.58 -0.01 10.01 -0.01 13.43 -0 C15.82 -0 18.21 -0.01 20.6 -0.01 C25.61 -0.01 30.61 -0.01 35.61 -0 C42.01 0 48.42 0 54.82 -0 C59.75 -0.01 64.69 -0.01 69.62 -0 C71.98 -0 74.34 -0 76.7 -0.01 C80 -0.01 83.31 -0.01 86.61 0 C88.06 -0 88.06 -0 89.54 -0.01 C94.89 0.01 100.01 0.35 105.3 1.13 C105.3 1.79 105.3 2.45 105.3 3.13 C106.29 3.46 107.28 3.79 108.3 4.13 C106.55 4.75 106.55 4.75 104.3 5.13 C103.7 4.81 103.1 4.49 102.48 4.17 C99.9 2.94 98.15 2.88 95.31 2.89 C94.3 2.89 93.29 2.88 92.26 2.88 C90.61 2.89 90.61 2.89 88.93 2.9 C87.18 2.9 87.18 2.9 85.41 2.9 C81.57 2.9 77.72 2.92 73.88 2.93 C71.22 2.94 68.56 2.94 65.9 2.94 C59.6 2.95 53.31 2.97 47.02 2.99 C39.85 3.01 32.68 3.02 25.52 3.03 C10.78 3.05 -3.96 3.08 -18.7 3.13 C-18.7 2.47 -18.7 1.81 -18.7 1.13 C-12.42 0.2 -6.33 -0.01 0 0 Z " fill="#000000" transform="translate(335.6953125,51.87060546875)"/>
<path d="M0 0 C-0.66 0.33 -1.32 0.66 -2 1 C-2.66 1.66 -3.32 2.32 -4 3 C-4.08 6.63 -4.08 6.63 -3.75 8.96 C-4 11 -4 11 -5.34 13.23 C-9.51 16.01 -13.61 15.5 -18.5 15.38 C-19.45 15.37 -20.4 15.37 -21.38 15.37 C-25.85 15.31 -29.06 15.27 -33 13 C-33 12.67 -33 12.34 -33 12 C-32.03 11.77 -31.06 11.55 -30.06 11.31 C-26.07 10.18 -22.69 8.3 -19.11 6.22 C-17 5 -17 5 -14.86 3.97 C-12.83 3.03 -12.83 3.03 -11 1 C-7.41 -0.33 -3.79 -0.07 0 0 Z " fill="#A09C95" transform="translate(316,57)"/>
<path d="M0 0 C1.66 0.24 1.66 0.24 3.36 0.49 C8.31 1.11 13.21 1.13 18.19 1.1 C19.6 1.1 19.6 1.1 21.05 1.09 C24.03 1.09 27.02 1.08 30 1.06 C32.04 1.06 34.07 1.05 36.11 1.05 C41.07 1.04 46.04 1.02 51 1 C47.13 4.87 43.16 5.23 37.79 5.3 C36.61 5.3 36.61 5.3 35.41 5.3 C34.59 5.31 33.77 5.31 32.92 5.31 C31.18 5.32 29.45 5.32 27.72 5.32 C25.07 5.31 22.43 5.34 19.79 5.36 C18.1 5.36 16.41 5.36 14.72 5.36 C13.55 5.38 13.55 5.38 12.35 5.39 C7.49 5.35 4.27 4.57 0 2 C0 1.34 0 0.68 0 0 Z " fill="#000000" transform="translate(434,1227)"/>
<path d="M0 0 C5.39 -0.02 10.78 -0.04 16.17 -0.05 C18 -0.06 19.83 -0.07 21.66 -0.08 C24.3 -0.09 26.95 -0.09 29.59 -0.1 C30.4 -0.1 31.2 -0.11 32.03 -0.11 C37.43 -0.11 42.65 0.32 48 1 C45.62 3.77 45.19 3.98 41.28 4.39 C39.74 4.41 38.19 4.41 36.64 4.4 C35.82 4.4 35 4.4 34.15 4.41 C32.41 4.41 30.66 4.4 28.92 4.39 C26.27 4.38 23.63 4.39 20.98 4.41 C19.28 4.41 17.59 4.4 15.89 4.4 C15.1 4.4 14.32 4.41 13.51 4.42 C8.29 4.35 4.67 3.34 0 1 C0 0.67 0 0.34 0 0 Z " fill="#000000" transform="translate(278,1228)"/>
<path d="M0 0 C1.32 0.33 2.64 0.66 4 1 C4.02 5.48 4.04 9.97 4.05 14.45 C4.06 15.98 4.07 17.5 4.08 19.03 C4.09 21.22 4.09 23.41 4.1 25.61 C4.1 26.93 4.11 28.25 4.11 29.61 C4.02 32.31 3.82 34.45 3 37 C1.35 37 -0.3 37 -2 37 C-0.02 36.5 -0.02 36.5 2 36 C1.5 34.51 1.5 34.51 1 33 C0.93 31.6 0.92 30.19 0.94 28.79 C0.95 27.96 0.95 27.13 0.96 26.28 C0.98 25.41 0.99 24.53 1 23.62 C1.06 15.69 0.81 7.9 0 0 Z " fill="#BDBEB3" transform="translate(515,274)"/>
<path d="M0 0 C4.29 0 8.58 0 13 0 C12.34 1.98 11.68 3.96 11 6 C8.03 6 5.06 6 2 6 C1.34 4.02 0.68 2.04 0 0 Z " fill="#61534E" transform="translate(477,90)"/>
<path d="M0 0 C0.33 0 0.66 0 1 0 C1.01 0.66 1.03 1.31 1.04 1.99 C1.12 4.95 1.22 7.91 1.31 10.88 C1.34 11.91 1.36 12.94 1.38 14 C1.42 14.99 1.45 15.98 1.49 16.99 C1.51 17.9 1.54 18.81 1.57 19.75 C1.71 20.49 1.85 21.24 2 22 C2.99 22.66 3.98 23.32 5 24 C5.69 27.62 5.69 27.62 6 31 C8.31 31 10.62 31 13 31 C13 31.33 13 31.66 13 32 C7.06 32.5 7.06 32.5 1 33 C0.2 28.78 -0.12 24.8 -0.1 20.51 C-0.09 19.31 -0.09 18.11 -0.09 16.88 C-0.08 15.64 -0.07 14.4 -0.06 13.12 C-0.06 11.86 -0.05 10.6 -0.05 9.3 C-0.04 6.2 -0.02 3.1 0 0 Z " fill="#5C5855" transform="translate(248,66)"/>
<path d="M0 0 C1.1 0.1 2.19 0.2 3.32 0.31 C4.58 0.43 4.58 0.43 5.88 0.56 C2.94 2.24 0.85 2.81 -2.53 2.79 C-3.82 2.79 -3.82 2.79 -5.13 2.79 C-6.05 2.78 -6.97 2.77 -7.92 2.76 C-8.87 2.75 -9.82 2.75 -10.8 2.75 C-13.82 2.74 -16.85 2.71 -19.88 2.69 C-21.93 2.68 -23.98 2.67 -26.04 2.66 C-31.07 2.64 -36.1 2.6 -41.12 2.56 C-41.12 2.23 -41.12 1.9 -41.12 1.56 C-40.14 1.54 -39.15 1.51 -38.13 1.49 C-34.46 1.39 -30.8 1.29 -27.14 1.19 C-25.55 1.15 -23.96 1.11 -22.38 1.07 C-20.1 1.01 -17.82 0.94 -15.54 0.88 C-14.83 0.86 -14.12 0.85 -13.38 0.83 C-8.54 0.68 -4.9 -0.47 0 0 Z " fill="#FDFDFD" transform="translate(478.125,1225.4375)"/>
<path d="M0 0 C1.98 3.96 3.48 7.85 5 12 C4.34 12.66 3.68 13.32 3 14 C2.61 16.6 2.61 16.6 2.5 19.5 C2.22 24.78 2.22 24.78 0 27 C0 18.09 0 9.18 0 0 Z " fill="#C8C8C1" transform="translate(249,63)"/>
<path d="M0 0 C3.96 0 7.92 0 12 0 C11.01 1.98 10.02 3.96 9 6 C3.25 6.12 3.25 6.12 1 5 C0.67 3.35 0.34 1.7 0 0 Z " fill="#61534E" transform="translate(267,90)"/>
<path d="M0 0 C0.33 0 0.66 0 1 0 C1.34 2.85 1.67 5.71 2 8.56 C2.1 9.36 2.19 10.16 2.29 10.99 C2.83 15.69 3.1 20.26 3 25 C2.34 25 1.68 25 1 25 C-1.4 8.74 -1.4 8.74 -1 1 C-0.67 0.67 -0.34 0.34 0 0 Z " fill="#7E1716" transform="translate(476,220)"/>
<path d="M0 0 C0.33 0 0.66 0 1 0 C1.34 2.69 1.67 5.37 2 8.06 C2.1 8.81 2.19 9.57 2.29 10.34 C2.85 14.93 3.1 19.37 3 24 C2.34 24 1.68 24 1 24 C-0.3 15.83 -1.45 8.24 0 0 Z " fill="#811717" transform="translate(471,176)"/>
<path d="M0 0 C0.33 0 0.66 0 1 0 C3.3 16.71 3.3 16.71 3 25 C2.34 25 1.68 25 1 25 C0.63 21.58 0.28 18.17 -0.06 14.75 C-0.17 13.78 -0.27 12.81 -0.38 11.82 C-0.47 10.88 -0.56 9.95 -0.66 8.98 C-0.79 7.7 -0.79 7.7 -0.93 6.38 C-1 4.03 -0.69 2.24 0 0 Z " fill="#761A19" transform="translate(468,150)"/>
<path d="M0 0 C1.18 3.53 1.02 6.14 0.88 9.86 C0.86 10.52 0.83 11.18 0.81 11.86 C0.73 13.97 0.65 16.08 0.56 18.19 C0.51 19.62 0.46 21.05 0.4 22.48 C0.28 25.99 0.14 29.49 0 33 C-0.33 33 -0.66 33 -1 33 C-1.17 29.06 -1.33 25.13 -1.5 21.19 C-1.55 20.07 -1.6 18.95 -1.64 17.79 C-1.69 16.72 -1.73 15.65 -1.78 14.54 C-1.82 13.55 -1.87 12.56 -1.91 11.54 C-2.04 7.83 -1.86 4.61 -1 1 C-0.67 0.67 -0.34 0.34 0 0 Z " fill="#BEBFB5" transform="translate(508,63)"/>
<path d="M0 0 C0.99 0.33 1.98 0.66 3 1 C5.06 1.07 7.13 1.08 9.19 1.06 C10.27 1.05 11.36 1.04 12.48 1.04 C13.31 1.02 14.14 1.01 15 1 C14.67 1.99 14.34 2.98 14 4 C10.04 4 6.08 4 2 4 C1.34 2.68 0.68 1.36 0 0 Z " fill="#9F9C95" transform="translate(271,305)"/>
<path d="M0 0 C0.66 0 1.32 0 2 0 C2.83 5.72 3.12 11.22 3 17 C2.34 17 1.68 17 1 17 C0.01 11.29 -0.1 5.79 0 0 Z " fill="#771717" transform="translate(478,247)"/>
<path d="M0 0 C0.66 0 1.32 0 2 0 C2.83 5.72 3.12 11.22 3 17 C2.34 17 1.68 17 1 17 C0.01 11.29 -0.1 5.79 0 0 Z " fill="#771414" transform="translate(473,202)"/>
<path d="M0 0 C0.33 0 0.66 0 1 0 C1.77 6.07 2.1 11.89 2 18 C1.34 18 0.68 18 0 18 C-0.82 12.34 -1.43 6.72 -1 1 C-0.67 0.67 -0.34 0.34 0 0 Z " fill="#781716" transform="translate(466,131)"/>
<path d="M0 0 C1.08 0.12 2.16 0.24 3.27 0.36 C4.09 0.47 4.91 0.58 5.75 0.69 C2.27 2.83 -0.46 2.9 -4.5 2.81 C-5.58 2.79 -6.66 2.78 -7.77 2.76 C-8.59 2.73 -9.41 2.71 -10.25 2.69 C-6.8 -0.57 -4.61 -0.55 0 0 Z " fill="#F6F7F5" transform="translate(478.25,1225.3125)"/>
<path d="M0 0 C0.33 0.99 0.66 1.98 1 3 C-3.16 3.08 -6.95 2.98 -11 2 C-10.67 1.34 -10.34 0.68 -10 0 C-6.47 -0.86 -3.4 -1.51 0 0 Z " fill="#6F6E69" transform="translate(483,1223)"/>
<path d="M0 0 C0.99 0 1.98 0 3 0 C3.33 2.97 3.66 5.94 4 9 C3.01 8.01 2.02 7.02 1 6 C-2.11 5.27 -2.11 5.27 -5 5 C-2 3 -2 3 0 3 C0 2.01 0 1.02 0 0 Z " fill="#8D8B84" transform="translate(501,76)"/>
<path d="M0 0 C0.66 0 1.32 0 2 0 C1.67 0.66 1.34 1.32 1 2 C0.67 1.34 0.34 0.68 0 0 Z M-1 2 C-0.34 2.33 0.32 2.66 1 3 C1 6.3 1 9.6 1 13 C0.34 12.67 -0.32 12.34 -1 12 C-1 11.01 -1 10.02 -1 9 C-1.66 8.67 -2.32 8.34 -3 8 C-2.34 6.02 -1.68 4.04 -1 2 Z " fill="#625A55" transform="translate(505,67)"/>
<path d="M0 0 C0.33 0 0.66 0 1 0 C1 7.92 1 15.84 1 24 C0.67 24 0.34 24 0 24 C0 16.08 0 8.16 0 0 Z " fill="#000000" transform="translate(509,66)"/>
<path d="M0 0 C0.66 0 1.32 0 2 0 C1.67 0.66 1.34 1.32 1 2 C0.67 1.34 0.34 0.68 0 0 Z " fill="#000000" transform="translate(508,130)"/>
<path d="" fill="#000000" transform="translate(0,0)"/>
<path d="" fill="#000000" transform="translate(0,0)"/>
<path d="" fill="#000000" transform="translate(0,0)"/>
<path d="" fill="#9F9C95" transform="translate(0,0)"/>
</svg>
