<?xml version="1.0" encoding="UTF-8"?>
<!-- Generator: visioncortex VTracer 0.6.3 -->
<svg version="1.1" xmlns="http://www.w3.org/2000/svg" width="768" height="1280">
<path d="M0 0 C0.89 -0 1.79 -0 2.71 -0.01 C5.7 -0.01 8.69 -0.01 11.69 -0.01 C13.83 -0.01 15.98 -0.02 18.13 -0.02 C23.95 -0.03 29.78 -0.03 35.61 -0.03 C40.48 -0.03 45.34 -0.04 50.21 -0.04 C61.69 -0.05 73.17 -0.05 84.65 -0.05 C96.49 -0.05 108.33 -0.06 120.17 -0.08 C130.34 -0.09 140.51 -0.1 150.68 -0.1 C156.75 -0.09 162.82 -0.1 168.9 -0.11 C174.61 -0.12 180.32 -0.12 186.03 -0.11 C188.12 -0.11 190.22 -0.11 192.31 -0.12 C195.17 -0.13 198.03 -0.12 200.9 -0.11 C201.72 -0.12 202.55 -0.12 203.4 -0.13 C211.06 -0.08 216.76 1.55 223.01 6.13 C224.19 6.94 224.19 6.94 225.39 7.76 C226.19 8.44 226.19 8.44 227.01 9.13 C227.01 9.79 227.01 10.45 227.01 11.13 C227.67 11.13 228.33 11.13 229.01 11.13 C229.19 12.01 229.19 12.01 229.37 12.9 C230.04 15.25 230.93 16.8 232.3 18.81 C232.74 19.47 233.19 20.13 233.65 20.82 C234.12 21.5 234.59 22.18 235.07 22.88 C235.55 23.58 236.02 24.28 236.51 25 C237.67 26.71 238.84 28.42 240.01 30.13 C240.67 29.8 241.33 29.47 242.01 29.13 C242.74 33.72 243.14 38.11 243.14 42.75 C243.14 44.04 243.14 45.33 243.14 46.66 C243.14 48.07 243.14 49.48 243.14 50.89 C243.14 52.39 243.14 53.89 243.14 55.39 C243.15 58.62 243.15 61.84 243.15 65.06 C243.15 70.15 243.16 75.24 243.18 80.34 C243.18 81.2 243.18 82.06 243.19 82.94 C243.19 84.7 243.2 86.46 243.2 88.22 C243.24 100.07 243.26 111.92 243.26 123.77 C243.26 131.78 243.28 139.78 243.31 147.79 C243.33 152.02 243.34 156.25 243.33 160.48 C243.32 164.46 243.33 168.44 243.36 172.42 C243.36 173.88 243.36 175.33 243.35 176.79 C243.34 178.79 243.36 180.78 243.38 182.77 C243.38 183.89 243.38 185 243.38 186.15 C244.21 190.09 245.97 191.59 249.01 194.13 C249.71 194.47 250.41 194.8 251.12 195.14 C253.8 196.55 254.7 198.42 256.2 201.01 C256.71 201.87 257.22 202.74 257.74 203.63 C259.86 207.82 260.14 211.33 260.14 216.01 C260.14 217.22 260.15 218.43 260.15 219.68 C260.15 221.03 260.15 222.38 260.15 223.73 C260.15 225.16 260.15 226.6 260.15 228.04 C260.16 232 260.16 235.97 260.16 239.94 C260.16 244.25 260.16 248.55 260.17 252.86 C260.18 261.42 260.18 269.97 260.19 278.52 C260.19 288.77 260.2 299.01 260.21 309.25 C260.23 334.01 260.24 358.77 260.25 383.53 C260.25 395.23 260.26 406.94 260.26 418.65 C260.28 458.72 260.29 498.78 260.3 538.85 C260.3 541.37 260.3 543.88 260.3 546.4 C260.3 547.65 260.3 548.89 260.3 550.18 C260.3 556.5 260.31 562.82 260.31 569.15 C260.31 570.4 260.31 571.65 260.31 572.95 C260.32 613.63 260.34 654.32 260.37 695.01 C260.41 738.01 260.43 781.01 260.43 824 C260.43 828.72 260.43 833.44 260.43 838.16 C260.43 839.32 260.43 840.48 260.43 841.68 C260.43 860.39 260.45 879.11 260.47 897.82 C260.49 916.63 260.49 935.43 260.49 954.23 C260.48 965.41 260.49 976.58 260.51 987.76 C260.52 995.22 260.52 1002.68 260.51 1010.15 C260.5 1014.4 260.5 1018.66 260.52 1022.91 C260.53 1026.78 260.53 1030.65 260.51 1034.53 C260.51 1036.57 260.52 1038.61 260.54 1040.65 C260.39 1060.37 248.72 1077.08 235.51 1091.01 C229.61 1096.59 222.76 1100.75 215.7 1104.7 C212.26 1106.65 209.53 1108.28 207.14 1111.45 C204.52 1114.76 203.08 1115.12 199.01 1116.13 C196.15 1116.33 193.4 1116.44 190.54 1116.43 C189.34 1116.44 189.34 1116.44 188.12 1116.45 C186.44 1116.45 184.76 1116.45 183.08 1116.45 C180.52 1116.45 177.96 1116.47 175.4 1116.5 C173.76 1116.5 172.12 1116.5 170.48 1116.5 C169.72 1116.51 168.96 1116.52 168.18 1116.52 C163.38 1116.48 160.09 1115.68 156.01 1113.13 C154.32 1111.01 154.32 1111.01 153.01 1108.7 C149.82 1103.54 146.84 1101.08 141.01 1099.13 C138.62 1099.02 136.22 1098.97 133.82 1098.96 C133.09 1098.95 132.36 1098.94 131.61 1098.94 C129.2 1098.92 126.79 1098.91 124.37 1098.9 C123.55 1098.89 122.72 1098.89 121.87 1098.88 C117.5 1098.86 113.13 1098.85 108.75 1098.84 C104.25 1098.83 99.75 1098.79 95.24 1098.75 C91.77 1098.73 88.29 1098.72 84.82 1098.72 C83.16 1098.71 81.5 1098.7 79.84 1098.68 C67.82 1098.39 67.82 1098.39 57.01 1103.13 C54.57 1105.71 52.92 1108.29 51.07 1111.32 C48.71 1114.55 47.79 1115.03 44.01 1116.13 C41.2 1116.33 38.49 1116.44 35.68 1116.43 C34.88 1116.44 34.08 1116.44 33.26 1116.45 C31.58 1116.45 29.89 1116.45 28.21 1116.45 C25.65 1116.45 23.09 1116.47 20.53 1116.5 C18.89 1116.5 17.25 1116.5 15.61 1116.5 C14.86 1116.51 14.1 1116.52 13.32 1116.52 C8.17 1116.48 4.58 1115.57 0.01 1113.13 C-1.68 1111.16 -3.35 1109.15 -4.99 1107.13 C-8.18 1105.02 -8.18 1105.02 -11.68 1103.26 C-30.81 1092.83 -47.04 1074.48 -53.54 1053.36 C-54.09 1050.61 -54.12 1048.06 -54.12 1045.26 C-54.12 1044.04 -54.12 1042.83 -54.13 1041.58 C-54.13 1040.23 -54.12 1038.88 -54.12 1037.54 C-54.12 1036.1 -54.13 1034.66 -54.13 1033.23 C-54.14 1029.26 -54.14 1025.29 -54.14 1021.32 C-54.14 1017.01 -54.14 1012.71 -54.15 1008.4 C-54.16 999.84 -54.16 991.28 -54.16 982.73 C-54.17 972.48 -54.17 962.24 -54.18 952 C-54.2 927.23 -54.21 902.47 -54.22 877.71 C-54.23 866 -54.23 854.29 -54.24 842.58 C-54.26 802.51 -54.27 762.44 -54.28 722.36 C-54.28 719.85 -54.28 717.33 -54.28 714.82 C-54.28 713.57 -54.28 712.32 -54.28 711.03 C-54.28 704.71 -54.28 698.39 -54.28 692.07 C-54.28 690.81 -54.28 689.56 -54.28 688.27 C-54.29 647.57 -54.32 606.88 -54.35 566.18 C-54.38 523.18 -54.4 480.17 -54.41 437.17 C-54.41 432.45 -54.41 427.73 -54.41 423.01 C-54.41 421.85 -54.41 420.69 -54.41 419.49 C-54.41 400.77 -54.43 382.06 -54.45 363.34 C-54.47 344.53 -54.47 325.73 -54.46 306.92 C-54.46 295.74 -54.46 284.57 -54.48 273.39 C-54.5 265.92 -54.5 258.46 -54.48 251 C-54.48 246.74 -54.48 242.49 -54.49 238.23 C-54.51 234.36 -54.51 230.49 -54.49 226.62 C-54.49 225.23 -54.49 223.84 -54.5 222.45 C-54.57 212.39 -53.39 203.62 -46.8 195.63 C-43.43 191.47 -42.86 189.4 -42.86 183.95 C-42.86 183.31 -42.85 182.67 -42.85 182.01 C-42.84 179.85 -42.85 177.69 -42.85 175.53 C-42.84 173.99 -42.84 172.44 -42.84 170.9 C-42.83 167.57 -42.82 164.24 -42.82 160.91 C-42.81 155.64 -42.8 150.37 -42.78 145.1 C-42.77 143.29 -42.77 141.49 -42.76 139.68 C-42.76 138.78 -42.75 137.88 -42.75 136.95 C-42.71 124.68 -42.67 112.4 -42.66 100.13 C-42.65 91.86 -42.63 83.59 -42.59 75.31 C-42.57 70.93 -42.56 66.56 -42.57 62.18 C-42.57 58.06 -42.56 53.94 -42.53 49.81 C-42.52 48.3 -42.52 46.79 -42.53 45.29 C-42.56 37.34 -42.42 30.98 -37.99 24.13 C-37.33 24.13 -36.67 24.13 -35.99 24.13 C-35.86 23.33 -35.86 23.33 -35.74 22.51 C-34.71 19.26 -33.02 16.85 -30.99 14.13 C-30.33 14.13 -29.67 14.13 -28.99 14.13 C-28.66 13.14 -28.33 12.15 -27.99 11.13 C-27.33 11.13 -26.67 11.13 -25.99 11.13 C-25.99 10.47 -25.99 9.81 -25.99 9.13 C-24.34 7.7 -24.34 7.7 -22.18 6.13 C-21.47 5.62 -20.76 5.1 -20.03 4.57 C-13.5 -0.02 -7.74 -0.01 0 0 Z M240.01 36.13 C241.01 39.13 241.01 39.13 241.01 39.13 Z M240.01 147.13 C241.01 150.13 241.01 150.13 241.01 150.13 Z M240.01 162.13 C241.01 164.13 241.01 164.13 241.01 164.13 Z M240.01 185.13 C241.01 187.13 241.01 187.13 241.01 187.13 Z M255.01 205.13 C256.01 208.13 256.01 208.13 256.01 208.13 Z M256.01 208.13 C256.01 209.78 256.01 211.43 256.01 213.13 C256.34 213.13 256.67 213.13 257.01 213.13 C257.01 211.48 257.01 209.83 257.01 208.13 C256.68 208.13 256.35 208.13 256.01 208.13 Z M256.01 1047.13 C256.01 1049.11 256.01 1051.09 256.01 1053.13 C256.34 1053.13 256.67 1053.13 257.01 1053.13 C257.01 1051.15 257.01 1049.17 257.01 1047.13 C256.68 1047.13 256.35 1047.13 256.01 1047.13 Z M255.01 1054.13 C254.68 1055.45 254.35 1056.77 254.01 1058.13 C254.67 1056.81 255.33 1055.49 256.01 1054.13 C255.68 1054.13 255.35 1054.13 255.01 1054.13 Z M253.01 1058.13 C252.35 1059.78 251.69 1061.43 251.01 1063.13 C252 1062.47 252.99 1061.81 254.01 1061.13 C253.68 1060.14 253.35 1059.15 253.01 1058.13 Z M250.01 1064.13 C248.03 1067.1 248.03 1067.1 246.01 1070.13 C246.34 1070.79 246.67 1071.45 247.01 1072.13 C248.33 1070.15 249.65 1068.17 251.01 1066.13 C250.68 1065.47 250.35 1064.81 250.01 1064.13 Z M245.01 1072.13 C244.48 1072.9 243.94 1073.66 243.39 1074.44 C236.52 1083.97 228.8 1091.54 219.01 1098.13 C219.67 1098.46 220.33 1098.79 221.01 1099.13 C230.88 1091.93 239.52 1084.68 246.01 1074.13 C245.68 1073.47 245.35 1072.81 245.01 1072.13 Z M56.01 1097.13 C53.7 1099.44 51.39 1101.75 49.01 1104.13 C49.34 1104.79 49.67 1105.45 50.01 1106.13 C52.65 1103.49 55.29 1100.85 58.01 1098.13 C57.35 1097.8 56.69 1097.47 56.01 1097.13 Z M214.01 1100.13 C214.34 1100.79 214.67 1101.45 215.01 1102.13 C215.34 1101.47 215.67 1100.81 216.01 1100.13 C215.35 1100.13 214.69 1100.13 214.01 1100.13 Z M210.01 1102.13 C209.68 1102.79 209.35 1103.45 209.01 1104.13 C210.33 1103.47 211.65 1102.81 213.01 1102.13 C212.02 1102.13 211.03 1102.13 210.01 1102.13 Z M204.01 1107.13 C204.01 1108.12 204.01 1109.11 204.01 1110.13 C203.35 1110.79 202.69 1111.45 202.01 1112.13 C203.33 1112.13 204.65 1112.13 206.01 1112.13 C205.68 1110.48 205.35 1108.83 205.01 1107.13 C204.68 1107.13 204.35 1107.13 204.01 1107.13 Z M0.01 1110.13 C0.01 1110.79 0.01 1111.45 0.01 1112.13 C1.33 1111.8 2.65 1111.47 4.01 1111.13 C2.69 1110.8 1.37 1110.47 0.01 1110.13 Z M4.01 1112.13 C4.01 1112.46 4.01 1112.79 4.01 1113.13 C5.66 1113.13 7.31 1113.13 9.01 1113.13 C9.01 1112.8 9.01 1112.47 9.01 1112.13 C7.36 1112.13 5.71 1112.13 4.01 1112.13 Z M48.01 1106.13 C48.01 1108.11 48.01 1110.09 48.01 1112.13 C44.71 1112.13 41.41 1112.13 38.01 1112.13 C38.01 1112.46 38.01 1112.79 38.01 1113.13 C41.64 1113.13 45.27 1113.13 49.01 1113.13 C49.01 1110.82 49.01 1108.51 49.01 1106.13 C48.68 1106.13 48.35 1106.13 48.01 1106.13 Z M158.01 1112.13 C158.01 1112.46 158.01 1112.79 158.01 1113.13 C159.99 1113.13 161.97 1113.13 164.01 1113.13 C164.01 1112.8 164.01 1112.47 164.01 1112.13 C162.03 1112.13 160.05 1112.13 158.01 1112.13 Z M193.01 1112.13 C193.01 1112.46 193.01 1112.79 193.01 1113.13 C195.98 1113.13 198.95 1113.13 202.01 1113.13 C202.01 1112.8 202.01 1112.47 202.01 1112.13 C199.04 1112.13 196.07 1112.13 193.01 1112.13 Z " fill="#348E3C" transform="translate(280.98851013183594,115.86628723144531)"/>
<path d="M0 0 C0.89 -0 1.79 -0 2.71 -0.01 C5.7 -0.01 8.69 -0.01 11.69 -0.01 C13.83 -0.01 15.98 -0.02 18.13 -0.02 C23.95 -0.03 29.78 -0.03 35.61 -0.03 C40.48 -0.03 45.34 -0.04 50.21 -0.04 C61.69 -0.05 73.17 -0.05 84.65 -0.05 C96.49 -0.05 108.33 -0.06 120.17 -0.08 C130.34 -0.09 140.51 -0.1 150.68 -0.1 C156.75 -0.09 162.82 -0.1 168.9 -0.11 C174.61 -0.12 180.32 -0.12 186.03 -0.11 C188.12 -0.11 190.22 -0.11 192.31 -0.12 C195.17 -0.13 198.03 -0.12 200.9 -0.11 C201.72 -0.12 202.55 -0.12 203.4 -0.13 C211.06 -0.08 216.76 1.55 223.01 6.13 C224.19 6.94 224.19 6.94 225.39 7.76 C226.19 8.44 226.19 8.44 227.01 9.13 C227.01 9.79 227.01 10.45 227.01 11.13 C227.67 11.13 228.33 11.13 229.01 11.13 C229.19 12.01 229.19 12.01 229.37 12.9 C230.04 15.25 230.93 16.8 232.3 18.81 C232.74 19.47 233.19 20.13 233.65 20.82 C234.12 21.5 234.59 22.18 235.07 22.88 C235.55 23.58 236.02 24.28 236.51 25 C237.67 26.71 238.84 28.42 240.01 30.13 C240.67 29.8 241.33 29.47 242.01 29.13 C242.74 33.72 243.14 38.11 243.14 42.75 C243.14 44.04 243.14 45.33 243.14 46.66 C243.14 48.07 243.14 49.48 243.14 50.89 C243.14 52.39 243.14 53.89 243.14 55.39 C243.15 58.62 243.15 61.84 243.15 65.06 C243.15 70.15 243.16 75.24 243.18 80.34 C243.18 81.2 243.18 82.06 243.19 82.94 C243.19 84.7 243.2 86.46 243.2 88.22 C243.24 100.07 243.26 111.92 243.26 123.77 C243.26 131.78 243.28 139.78 243.31 147.79 C243.33 152.02 243.34 156.25 243.33 160.48 C243.32 164.46 243.33 168.44 243.36 172.42 C243.36 173.88 243.36 175.33 243.35 176.79 C243.34 178.79 243.36 180.78 243.38 182.77 C243.38 183.89 243.38 185 243.38 186.15 C244.21 190.09 245.97 191.59 249.01 194.13 C249.71 194.47 250.41 194.8 251.12 195.14 C253.8 196.55 254.7 198.42 256.2 201.01 C256.71 201.87 257.22 202.74 257.74 203.63 C259.86 207.82 260.14 211.33 260.14 216.01 C260.14 217.22 260.15 218.43 260.15 219.68 C260.15 221.03 260.15 222.38 260.15 223.73 C260.15 225.16 260.15 226.6 260.15 228.04 C260.16 232 260.16 235.97 260.16 239.94 C260.16 244.25 260.16 248.55 260.17 252.86 C260.18 261.42 260.18 269.97 260.19 278.52 C260.19 288.77 260.2 299.01 260.21 309.25 C260.23 334.01 260.24 358.77 260.25 383.53 C260.25 395.23 260.26 406.94 260.26 418.65 C260.28 458.72 260.29 498.78 260.3 538.85 C260.3 541.37 260.3 543.88 260.3 546.4 C260.3 547.65 260.3 548.89 260.3 550.18 C260.3 556.5 260.31 562.82 260.31 569.15 C260.31 570.4 260.31 571.65 260.31 572.95 C260.32 613.63 260.34 654.32 260.37 695.01 C260.41 738.01 260.43 781.01 260.43 824 C260.43 828.72 260.43 833.44 260.43 838.16 C260.43 839.32 260.43 840.48 260.43 841.68 C260.43 860.39 260.45 879.11 260.47 897.82 C260.49 916.63 260.49 935.43 260.49 954.23 C260.48 965.41 260.49 976.58 260.51 987.76 C260.52 995.22 260.52 1002.68 260.51 1010.15 C260.5 1014.4 260.5 1018.66 260.52 1022.91 C260.53 1026.78 260.53 1030.65 260.51 1034.53 C260.51 1036.57 260.52 1038.61 260.54 1040.65 C260.39 1060.37 248.72 1077.08 235.51 1091.01 C229.61 1096.59 222.76 1100.75 215.7 1104.7 C212.26 1106.65 209.53 1108.28 207.14 1111.45 C204.52 1114.76 203.08 1115.12 199.01 1116.13 C196.15 1116.33 193.4 1116.44 190.54 1116.43 C189.34 1116.44 189.34 1116.44 188.12 1116.45 C186.44 1116.45 184.76 1116.45 183.08 1116.45 C180.52 1116.45 177.96 1116.47 175.4 1116.5 C173.76 1116.5 172.12 1116.5 170.48 1116.5 C169.72 1116.51 168.96 1116.52 168.18 1116.52 C163.38 1116.48 160.09 1115.68 156.01 1113.13 C154.32 1111.01 154.32 1111.01 153.01 1108.7 C149.82 1103.54 146.84 1101.08 141.01 1099.13 C138.62 1099.02 136.22 1098.97 133.82 1098.96 C133.09 1098.95 132.36 1098.94 131.61 1098.94 C129.2 1098.92 126.79 1098.91 124.37 1098.9 C123.55 1098.89 122.72 1098.89 121.87 1098.88 C117.5 1098.86 113.13 1098.85 108.75 1098.84 C104.25 1098.83 99.75 1098.79 95.24 1098.75 C91.77 1098.73 88.29 1098.72 84.82 1098.72 C83.16 1098.71 81.5 1098.7 79.84 1098.68 C67.82 1098.39 67.82 1098.39 57.01 1103.13 C54.57 1105.71 52.92 1108.29 51.07 1111.32 C48.71 1114.55 47.79 1115.03 44.01 1116.13 C41.2 1116.33 38.49 1116.44 35.68 1116.43 C34.88 1116.44 34.08 1116.44 33.26 1116.45 C31.58 1116.45 29.89 1116.45 28.21 1116.45 C25.65 1116.45 23.09 1116.47 20.53 1116.5 C18.89 1116.5 17.25 1116.5 15.61 1116.5 C14.86 1116.51 14.1 1116.52 13.32 1116.52 C8.17 1116.48 4.58 1115.57 0.01 1113.13 C-1.68 1111.16 -3.35 1109.15 -4.99 1107.13 C-8.18 1105.02 -8.18 1105.02 -11.68 1103.26 C-30.81 1092.83 -47.04 1074.48 -53.54 1053.36 C-54.09 1050.61 -54.12 1048.06 -54.12 1045.26 C-54.12 1044.04 -54.12 1042.83 -54.13 1041.58 C-54.13 1040.23 -54.12 1038.88 -54.12 1037.54 C-54.12 1036.1 -54.13 1034.66 -54.13 1033.23 C-54.14 1029.26 -54.14 1025.29 -54.14 1021.32 C-54.14 1017.01 -54.14 1012.71 -54.15 1008.4 C-54.16 999.84 -54.16 991.28 -54.16 982.73 C-54.17 972.48 -54.17 962.24 -54.18 952 C-54.2 927.23 -54.21 902.47 -54.22 877.71 C-54.23 866 -54.23 854.29 -54.24 842.58 C-54.26 802.51 -54.27 762.44 -54.28 722.36 C-54.28 719.85 -54.28 717.33 -54.28 714.82 C-54.28 713.57 -54.28 712.32 -54.28 711.03 C-54.28 704.71 -54.28 698.39 -54.28 692.07 C-54.28 690.81 -54.28 689.56 -54.28 688.27 C-54.29 647.57 -54.32 606.88 -54.35 566.18 C-54.38 523.18 -54.4 480.17 -54.41 437.17 C-54.41 432.45 -54.41 427.73 -54.41 423.01 C-54.41 421.85 -54.41 420.69 -54.41 419.49 C-54.41 400.77 -54.43 382.06 -54.45 363.34 C-54.47 344.53 -54.47 325.73 -54.46 306.92 C-54.46 295.74 -54.46 284.57 -54.48 273.39 C-54.5 265.92 -54.5 258.46 -54.48 251 C-54.48 246.74 -54.48 242.49 -54.49 238.23 C-54.51 234.36 -54.51 230.49 -54.49 226.62 C-54.49 225.23 -54.49 223.84 -54.5 222.45 C-54.57 212.39 -53.39 203.62 -46.8 195.63 C-43.43 191.47 -42.86 189.4 -42.86 183.95 C-42.86 183.31 -42.85 182.67 -42.85 182.01 C-42.84 179.85 -42.85 177.69 -42.85 175.53 C-42.84 173.99 -42.84 172.44 -42.84 170.9 C-42.83 167.57 -42.82 164.24 -42.82 160.91 C-42.81 155.64 -42.8 150.37 -42.78 145.1 C-42.77 143.29 -42.77 141.49 -42.76 139.68 C-42.76 138.78 -42.75 137.88 -42.75 136.95 C-42.71 124.68 -42.67 112.4 -42.66 100.13 C-42.65 91.86 -42.63 83.59 -42.59 75.31 C-42.57 70.93 -42.56 66.56 -42.57 62.18 C-42.57 58.06 -42.56 53.94 -42.53 49.81 C-42.52 48.3 -42.52 46.79 -42.53 45.29 C-42.56 37.34 -42.42 30.98 -37.99 24.13 C-37.33 24.13 -36.67 24.13 -35.99 24.13 C-35.86 23.33 -35.86 23.33 -35.74 22.51 C-34.71 19.26 -33.02 16.85 -30.99 14.13 C-30.33 14.13 -29.67 14.13 -28.99 14.13 C-28.66 13.14 -28.33 12.15 -27.99 11.13 C-27.33 11.13 -26.67 11.13 -25.99 11.13 C-25.99 10.47 -25.99 9.81 -25.99 9.13 C-24.34 7.7 -24.34 7.7 -22.18 6.13 C-21.47 5.62 -20.76 5.1 -20.03 4.57 C-13.5 -0.02 -7.74 -0.01 0 0 Z M240.01 36.13 C241.01 39.13 241.01 39.13 241.01 39.13 Z M240.01 147.13 C241.01 150.13 241.01 150.13 241.01 150.13 Z M240.01 162.13 C241.01 164.13 241.01 164.13 241.01 164.13 Z M240.01 185.13 C241.01 187.13 241.01 187.13 241.01 187.13 Z M255.01 205.13 C256.01 208.13 256.01 208.13 256.01 208.13 Z M256.01 208.13 C256.01 209.78 256.01 211.43 256.01 213.13 C256.34 213.13 256.67 213.13 257.01 213.13 C257.01 211.48 257.01 209.83 257.01 208.13 C256.68 208.13 256.35 208.13 256.01 208.13 Z M-11.99 229.13 C-12.61 230.19 -13.23 231.24 -13.86 232.32 C-14.21 232.91 -14.56 233.5 -14.92 234.11 C-17.22 238.46 -18.24 241.91 -18.24 246.85 C-18.25 248 -18.25 249.15 -18.26 250.34 C-18.26 251.6 -18.25 252.86 -18.25 254.16 C-18.25 255.52 -18.26 256.88 -18.26 258.24 C-18.27 262 -18.27 265.75 -18.26 269.51 C-18.26 273.59 -18.27 277.67 -18.28 281.75 C-18.29 288.91 -18.29 296.07 -18.29 303.22 C-18.29 313.87 -18.3 324.51 -18.32 335.15 C-18.34 356.37 -18.35 377.6 -18.36 398.82 C-18.36 399.92 -18.36 401.02 -18.36 402.15 C-18.36 403.25 -18.36 404.35 -18.36 405.49 C-18.36 417.69 -18.37 429.89 -18.37 442.09 C-18.39 478.93 -18.41 515.78 -18.41 552.62 C-18.41 553.8 -18.41 554.98 -18.41 556.19 C-18.41 560.97 -18.41 565.75 -18.41 570.52 C-18.41 574.12 -18.41 577.72 -18.41 581.31 C-18.41 582.5 -18.41 583.69 -18.41 584.91 C-18.42 622.25 -18.44 659.58 -18.48 696.91 C-18.52 738.84 -18.54 780.77 -18.54 822.69 C-18.54 827.17 -18.54 831.64 -18.54 836.11 C-18.54 837.21 -18.54 838.31 -18.54 839.44 C-18.54 857.16 -18.56 874.88 -18.58 892.6 C-18.61 910.41 -18.61 928.22 -18.6 946.03 C-18.59 956.62 -18.59 967.2 -18.62 977.78 C-18.63 984.85 -18.63 991.92 -18.61 998.99 C-18.61 1003.02 -18.6 1007.04 -18.62 1011.07 C-18.64 1014.74 -18.64 1018.41 -18.62 1022.08 C-18.61 1024.01 -18.63 1025.94 -18.65 1027.87 C-18.54 1038.1 -16.18 1048.89 -8.94 1056.59 C-5.44 1059.36 -1.48 1061.35 2.5 1063.36 C5.01 1065.13 5.01 1065.13 5.74 1067.78 C5.83 1068.56 5.92 1069.33 6.01 1070.13 C9.03 1071.64 12.15 1071.27 15.46 1071.26 C16.24 1071.26 17.01 1071.26 17.81 1071.27 C20.43 1071.27 23.05 1071.27 25.66 1071.26 C27.53 1071.26 29.41 1071.27 31.28 1071.27 C36.37 1071.27 41.46 1071.27 46.55 1071.27 C51.86 1071.27 57.18 1071.27 62.5 1071.27 C71.43 1071.27 80.36 1071.27 89.28 1071.26 C99.62 1071.26 109.96 1071.26 120.3 1071.27 C129.16 1071.27 138.02 1071.27 146.88 1071.27 C152.18 1071.27 157.48 1071.27 162.78 1071.27 C167.76 1071.27 172.74 1071.27 177.72 1071.27 C179.55 1071.26 181.38 1071.26 183.22 1071.27 C185.71 1071.27 188.2 1071.27 190.69 1071.26 C191.43 1071.26 192.16 1071.27 192.92 1071.27 C196.25 1071.55 196.25 1071.55 199.01 1070.13 C199.05 1068.13 199.05 1066.13 199.01 1064.13 C199.75 1064.02 200.48 1063.9 201.24 1063.78 C209.43 1061.87 214.2 1056.17 218.5 1049.31 C222.72 1040.44 223.44 1032.3 223.39 1022.56 C223.39 1021.2 223.4 1019.84 223.4 1018.48 C223.41 1014.76 223.41 1011.03 223.4 1007.3 C223.39 1003.24 223.4 999.18 223.41 995.13 C223.42 988.02 223.42 980.91 223.41 973.79 C223.4 963.22 223.4 952.65 223.41 942.07 C223.43 923.19 223.43 904.31 223.42 885.42 C223.41 868.9 223.41 852.37 223.41 835.85 C223.41 834.75 223.41 833.65 223.41 832.53 C223.41 828.08 223.42 823.63 223.42 819.18 C223.43 777.45 223.42 735.71 223.4 693.97 C223.39 656.89 223.39 619.8 223.4 582.72 C223.42 541.06 223.43 499.4 223.42 457.74 C223.41 453.3 223.41 448.86 223.41 444.42 C223.41 443.33 223.41 442.23 223.41 441.11 C223.41 424.59 223.41 408.08 223.42 391.56 C223.43 372.78 223.43 354 223.41 335.23 C223.4 324.72 223.4 314.2 223.41 303.69 C223.42 296.67 223.42 289.65 223.4 282.64 C223.39 278.64 223.39 274.63 223.4 270.63 C223.41 266.99 223.41 263.35 223.39 259.71 C223.39 257.79 223.4 255.87 223.41 253.94 C223.36 245.61 222.29 238.48 218.4 231.05 C214.74 228.12 211.43 228.46 206.87 228.53 C205.94 228.53 205.01 228.52 204.04 228.52 C200.9 228.51 197.77 228.54 194.63 228.57 C192.38 228.57 190.13 228.57 187.89 228.56 C181.78 228.56 175.67 228.59 169.57 228.63 C163.19 228.66 156.81 228.66 150.43 228.67 C139.72 228.68 129.01 228.71 118.3 228.76 C107.27 228.8 96.24 228.84 85.2 228.86 C84.52 228.86 83.84 228.86 83.14 228.86 C79.73 228.87 76.32 228.88 72.91 228.88 C44.61 228.93 16.31 229.02 -11.99 229.13 Z M256.01 1047.13 C256.01 1049.11 256.01 1051.09 256.01 1053.13 C256.34 1053.13 256.67 1053.13 257.01 1053.13 C257.01 1051.15 257.01 1049.17 257.01 1047.13 C256.68 1047.13 256.35 1047.13 256.01 1047.13 Z M255.01 1054.13 C254.68 1055.45 254.35 1056.77 254.01 1058.13 C254.67 1056.81 255.33 1055.49 256.01 1054.13 C255.68 1054.13 255.35 1054.13 255.01 1054.13 Z M253.01 1058.13 C252.35 1059.78 251.69 1061.43 251.01 1063.13 C252 1062.47 252.99 1061.81 254.01 1061.13 C253.68 1060.14 253.35 1059.15 253.01 1058.13 Z M250.01 1064.13 C248.03 1067.1 248.03 1067.1 246.01 1070.13 C246.34 1070.79 246.67 1071.45 247.01 1072.13 C248.33 1070.15 249.65 1068.17 251.01 1066.13 C250.68 1065.47 250.35 1064.81 250.01 1064.13 Z M245.01 1072.13 C244.48 1072.9 243.94 1073.66 243.39 1074.44 C236.52 1083.97 228.8 1091.54 219.01 1098.13 C219.67 1098.46 220.33 1098.79 221.01 1099.13 C230.88 1091.93 239.52 1084.68 246.01 1074.13 C245.68 1073.47 245.35 1072.81 245.01 1072.13 Z M56.01 1097.13 C53.7 1099.44 51.39 1101.75 49.01 1104.13 C49.34 1104.79 49.67 1105.45 50.01 1106.13 C52.65 1103.49 55.29 1100.85 58.01 1098.13 C57.35 1097.8 56.69 1097.47 56.01 1097.13 Z M214.01 1100.13 C214.34 1100.79 214.67 1101.45 215.01 1102.13 C215.34 1101.47 215.67 1100.81 216.01 1100.13 C215.35 1100.13 214.69 1100.13 214.01 1100.13 Z M210.01 1102.13 C209.68 1102.79 209.35 1103.45 209.01 1104.13 C210.33 1103.47 211.65 1102.81 213.01 1102.13 C212.02 1102.13 211.03 1102.13 210.01 1102.13 Z M204.01 1107.13 C204.01 1108.12 204.01 1109.11 204.01 1110.13 C203.35 1110.79 202.69 1111.45 202.01 1112.13 C203.33 1112.13 204.65 1112.13 206.01 1112.13 C205.68 1110.48 205.35 1108.83 205.01 1107.13 C204.68 1107.13 204.35 1107.13 204.01 1107.13 Z M0.01 1110.13 C0.01 1110.79 0.01 1111.45 0.01 1112.13 C1.33 1111.8 2.65 1111.47 4.01 1111.13 C2.69 1110.8 1.37 1110.47 0.01 1110.13 Z M4.01 1112.13 C4.01 1112.46 4.01 1112.79 4.01 1113.13 C5.66 1113.13 7.31 1113.13 9.01 1113.13 C9.01 1112.8 9.01 1112.47 9.01 1112.13 C7.36 1112.13 5.71 1112.13 4.01 1112.13 Z M48.01 1106.13 C48.01 1108.11 48.01 1110.09 48.01 1112.13 C44.71 1112.13 41.41 1112.13 38.01 1112.13 C38.01 1112.46 38.01 1112.79 38.01 1113.13 C41.64 1113.13 45.27 1113.13 49.01 1113.13 C49.01 1110.82 49.01 1108.51 49.01 1106.13 C48.68 1106.13 48.35 1106.13 48.01 1106.13 Z M158.01 1112.13 C158.01 1112.46 158.01 1112.79 158.01 1113.13 C159.99 1113.13 161.97 1113.13 164.01 1113.13 C164.01 1112.8 164.01 1112.47 164.01 1112.13 C162.03 1112.13 160.05 1112.13 158.01 1112.13 Z M193.01 1112.13 C193.01 1112.46 193.01 1112.79 193.01 1113.13 C195.98 1113.13 198.95 1113.13 202.01 1113.13 C202.01 1112.8 202.01 1112.47 202.01 1112.13 C199.04 1112.13 196.07 1112.13 193.01 1112.13 Z " fill="#BEBEB4" transform="translate(280.98851013183594,115.86628723144531)"/>
<path d="M0 0 C0.89 -0 1.79 -0 2.71 -0.01 C5.7 -0.01 8.69 -0.01 11.69 -0.01 C13.83 -0.01 15.98 -0.02 18.13 -0.02 C23.95 -0.03 29.78 -0.03 35.61 -0.03 C40.48 -0.03 45.34 -0.04 50.21 -0.04 C61.69 -0.05 73.17 -0.05 84.65 -0.05 C96.49 -0.05 108.33 -0.06 120.17 -0.08 C130.34 -0.09 140.51 -0.1 150.68 -0.1 C156.75 -0.09 162.82 -0.1 168.9 -0.11 C174.61 -0.12 180.32 -0.12 186.03 -0.11 C188.12 -0.11 190.22 -0.11 192.31 -0.12 C195.17 -0.13 198.03 -0.12 200.9 -0.11 C201.72 -0.12 202.55 -0.12 203.4 -0.13 C211.06 -0.08 216.76 1.55 223.01 6.13 C224.19 6.94 224.19 6.94 225.39 7.76 C226.19 8.44 226.19 8.44 227.01 9.13 C227.01 9.79 227.01 10.45 227.01 11.13 C227.67 11.13 228.33 11.13 229.01 11.13 C229.19 12.01 229.19 12.01 229.37 12.9 C230.04 15.25 230.93 16.8 232.3 18.81 C232.74 19.47 233.19 20.13 233.65 20.82 C234.12 21.5 234.59 22.18 235.07 22.88 C235.55 23.58 236.02 24.28 236.51 25 C237.67 26.71 238.84 28.42 240.01 30.13 C240.67 29.8 241.33 29.47 242.01 29.13 C242.74 33.72 243.14 38.11 243.14 42.75 C243.14 44.04 243.14 45.33 243.14 46.66 C243.14 48.07 243.14 49.48 243.14 50.89 C243.14 52.39 243.14 53.89 243.14 55.39 C243.15 58.62 243.15 61.84 243.15 65.06 C243.15 70.15 243.16 75.24 243.18 80.34 C243.18 81.2 243.18 82.06 243.19 82.94 C243.19 84.7 243.2 86.46 243.2 88.22 C243.24 100.07 243.26 111.92 243.26 123.77 C243.26 131.78 243.28 139.78 243.31 147.79 C243.33 152.02 243.34 156.25 243.33 160.48 C243.32 164.46 243.33 168.44 243.36 172.42 C243.36 173.88 243.36 175.33 243.35 176.79 C243.34 178.79 243.36 180.78 243.38 182.77 C243.38 183.89 243.38 185 243.38 186.15 C244.21 190.09 245.97 191.59 249.01 194.13 C249.71 194.47 250.41 194.8 251.12 195.14 C253.8 196.55 254.7 198.42 256.2 201.01 C256.71 201.87 257.22 202.74 257.74 203.63 C259.86 207.82 260.14 211.33 260.14 216.01 C260.14 217.22 260.15 218.43 260.15 219.68 C260.15 221.03 260.15 222.38 260.15 223.73 C260.15 225.16 260.15 226.6 260.15 228.04 C260.16 232 260.16 235.97 260.16 239.94 C260.16 244.25 260.16 248.55 260.17 252.86 C260.18 261.42 260.18 269.97 260.19 278.52 C260.19 288.77 260.2 299.01 260.21 309.25 C260.23 334.01 260.24 358.77 260.25 383.53 C260.25 395.23 260.26 406.94 260.26 418.65 C260.28 458.72 260.29 498.78 260.3 538.85 C260.3 541.37 260.3 543.88 260.3 546.4 C260.3 547.65 260.3 548.89 260.3 550.18 C260.3 556.5 260.31 562.82 260.31 569.15 C260.31 570.4 260.31 571.65 260.31 572.95 C260.32 613.63 260.34 654.32 260.37 695.01 C260.41 738.01 260.43 781.01 260.43 824 C260.43 828.72 260.43 833.44 260.43 838.16 C260.43 839.32 260.43 840.48 260.43 841.68 C260.43 860.39 260.45 879.11 260.47 897.82 C260.49 916.63 260.49 935.43 260.49 954.23 C260.48 965.41 260.49 976.58 260.51 987.76 C260.52 995.22 260.52 1002.68 260.51 1010.15 C260.5 1014.4 260.5 1018.66 260.52 1022.91 C260.53 1026.78 260.53 1030.65 260.51 1034.53 C260.51 1036.57 260.52 1038.61 260.54 1040.65 C260.39 1060.37 248.72 1077.08 235.51 1091.01 C228.77 1097.38 220.75 1102 212.68 1106.46 C210.05 1108.11 208.1 1109.86 206.01 1112.13 C205.35 1110.81 204.69 1109.49 204.01 1108.13 C203.02 1108.46 202.03 1108.79 201.01 1109.13 C201.01 1108.14 201.01 1107.15 201.01 1106.13 C202.29 1105.84 202.29 1105.84 203.6 1105.55 C204.71 1105.29 205.81 1105.03 206.95 1104.76 C208.05 1104.5 209.15 1104.25 210.29 1103.99 C211.19 1103.7 212.09 1103.42 213.01 1103.13 C213.34 1102.47 213.67 1101.81 214.01 1101.13 C215.34 1100.8 216.68 1100.47 218.01 1100.13 C218.34 1099.47 218.67 1098.81 219.01 1098.13 C219.74 1097.85 220.48 1097.56 221.23 1097.27 C229.1 1094.05 235.97 1086.89 241.01 1080.13 C241.89 1078.96 241.89 1078.96 242.78 1077.76 C246.41 1072.75 249.41 1067.73 252.01 1062.13 C252.59 1061.04 253.17 1059.95 253.76 1058.82 C255.22 1056.17 255.22 1056.17 255.01 1053.13 C255.67 1053.13 256.33 1053.13 257.01 1053.13 C256.85 1052.27 256.69 1051.41 256.52 1050.52 C256.03 1047.28 255.89 1044.28 255.89 1041.02 C255.89 1039.8 255.89 1038.59 255.89 1037.34 C255.89 1036 255.9 1034.65 255.9 1033.31 C255.9 1031.88 255.9 1030.44 255.9 1029 C255.9 1025.05 255.91 1021.09 255.92 1017.13 C255.93 1012.83 255.93 1008.53 255.93 1004.22 C255.94 996.68 255.95 989.14 255.96 981.59 C255.98 970.38 255.99 959.16 256 947.94 C256.01 930.23 256.03 912.52 256.05 894.81 C256.09 866.7 256.11 838.59 256.13 810.48 C256.13 804.5 256.14 798.52 256.14 792.54 C256.14 785.28 256.15 778.02 256.15 770.76 C256.17 743.37 256.19 715.99 256.21 688.61 C256.21 686.73 256.21 686.73 256.21 684.81 C256.24 644.21 256.29 603.61 256.34 563 C256.39 521.27 256.42 479.54 256.44 437.81 C256.44 431.92 256.44 426.03 256.45 420.14 C256.45 418.99 256.45 417.83 256.45 416.63 C256.46 397.95 256.48 379.28 256.52 360.6 C256.55 341.84 256.56 323.08 256.56 304.31 C256.56 293.16 256.57 282.01 256.6 270.85 C256.62 263.41 256.62 255.96 256.61 248.52 C256.61 244.28 256.61 240.03 256.63 235.78 C256.65 231.92 256.65 228.06 256.63 224.2 C256.63 222.81 256.63 221.42 256.65 220.03 C256.72 211.99 256.46 207.21 251.01 201.13 C250.68 200.14 250.35 199.15 250.01 198.13 C242.7 196.37 235.8 195.84 228.3 195.86 C227.16 195.86 226.02 195.85 224.85 195.85 C221.05 195.83 217.26 195.83 213.46 195.83 C210.74 195.82 208.01 195.81 205.28 195.81 C199.41 195.79 193.55 195.77 187.69 195.77 C179.21 195.76 170.73 195.74 162.25 195.71 C148.49 195.67 134.73 195.64 120.96 195.61 C120.14 195.61 119.32 195.61 118.47 195.61 C117.65 195.6 116.83 195.6 115.98 195.6 C104.28 195.58 92.58 195.55 80.88 195.53 C79.65 195.52 79.65 195.52 78.39 195.52 C64.67 195.49 50.94 195.45 37.22 195.42 C28.76 195.39 20.29 195.37 11.83 195.36 C6.04 195.35 0.25 195.34 -5.54 195.32 C-8.88 195.31 -12.23 195.31 -15.57 195.3 C-19.19 195.3 -22.8 195.29 -26.42 195.28 C-28.02 195.28 -28.02 195.28 -29.66 195.28 C-30.62 195.28 -31.58 195.27 -32.57 195.27 C-33.4 195.27 -34.24 195.26 -35.1 195.26 C-36.99 195.13 -36.99 195.13 -37.99 194.13 C-38.15 191.47 -38.25 188.83 -38.3 186.16 C-38.33 185.36 -38.35 184.57 -38.37 183.74 C-38.43 181.19 -38.49 178.63 -38.55 176.07 C-38.59 174.34 -38.64 172.61 -38.68 170.88 C-38.79 166.63 -38.89 162.38 -38.99 158.13 C-40.39 159.31 -40.39 159.31 -40.1 162.64 C-40.1 164.2 -40.1 165.76 -40.09 167.33 C-40.08 168.55 -40.08 168.55 -40.08 169.81 C-40.08 172.44 -40.06 175.07 -40.05 177.7 C-40.05 179.47 -40.04 181.25 -40.04 183.03 C-40.03 187.4 -40.01 191.77 -39.99 196.13 C-41.97 196.46 -43.95 196.79 -45.99 197.13 C-46.09 197.65 -46.19 198.16 -46.3 198.7 C-46.99 201.13 -46.99 201.13 -48.51 203.91 C-50.98 209.68 -50.4 215.96 -50.36 222.13 C-50.37 223.57 -50.37 225.01 -50.38 226.45 C-50.39 230.42 -50.38 234.39 -50.37 238.36 C-50.36 242.68 -50.37 247 -50.37 251.32 C-50.38 258.89 -50.38 266.45 -50.37 274.02 C-50.36 285.28 -50.36 296.54 -50.37 307.79 C-50.38 327.89 -50.38 347.99 -50.36 368.09 C-50.35 385.68 -50.35 403.27 -50.35 420.86 C-50.35 422.03 -50.35 423.19 -50.35 424.4 C-50.35 429.13 -50.35 433.86 -50.35 438.59 C-50.36 483 -50.34 527.41 -50.32 571.82 C-50.3 611.3 -50.3 650.77 -50.3 690.25 C-50.3 692.78 -50.3 695.32 -50.31 697.85 C-50.31 699.11 -50.31 700.36 -50.31 701.65 C-50.31 707.96 -50.31 714.26 -50.31 720.57 C-50.31 721.82 -50.31 723.06 -50.31 724.34 C-50.31 757.31 -50.31 790.27 -50.3 823.23 C-50.3 826.78 -50.3 830.33 -50.3 833.87 C-50.3 836.22 -50.29 838.58 -50.29 840.93 C-50.29 857.34 -50.29 873.76 -50.29 890.18 C-50.29 911.33 -50.29 932.48 -50.27 953.63 C-50.27 964.82 -50.26 976.01 -50.27 987.21 C-50.27 994.68 -50.27 1002.14 -50.26 1009.61 C-50.25 1013.87 -50.25 1018.13 -50.26 1022.39 C-50.26 1026.27 -50.26 1030.14 -50.25 1034.01 C-50.24 1035.41 -50.25 1036.8 -50.25 1038.2 C-50.28 1047.02 -50.14 1054.17 -45.36 1061.82 C-44.84 1062.66 -44.32 1063.5 -43.78 1064.36 C-41.11 1068.49 -38.38 1072.59 -35.63 1076.66 C-33.99 1079.13 -33.99 1079.13 -32.99 1081.13 C-33.32 1081.79 -33.65 1082.45 -33.99 1083.13 C-33.39 1083.24 -32.78 1083.34 -32.16 1083.45 C-29.62 1084.25 -28.93 1085.06 -27.24 1087.07 C-19.65 1095.02 -8.68 1100.72 1.29 1105.1 C3.01 1106.13 3.01 1106.13 4.01 1109.13 C3.05 1109.32 3.05 1109.32 2.07 1109.51 C1.05 1109.82 1.05 1109.82 0.01 1110.13 C-0.32 1110.79 -0.65 1111.45 -0.99 1112.13 C-1.77 1111.01 -1.77 1111.01 -2.57 1109.87 C-5.34 1106.74 -7.92 1105.26 -11.61 1103.32 C-30.76 1092.82 -47.02 1074.53 -53.54 1053.36 C-54.09 1050.61 -54.12 1048.06 -54.12 1045.26 C-54.12 1044.04 -54.12 1042.83 -54.13 1041.58 C-54.13 1040.23 -54.12 1038.88 -54.12 1037.54 C-54.12 1036.1 -54.13 1034.66 -54.13 1033.23 C-54.14 1029.26 -54.14 1025.29 -54.14 1021.32 C-54.14 1017.01 -54.14 1012.71 -54.15 1008.4 C-54.16 999.84 -54.16 991.28 -54.16 982.73 C-54.17 972.48 -54.17 962.24 -54.18 952 C-54.2 927.23 -54.21 902.47 -54.22 877.71 C-54.23 866 -54.23 854.29 -54.24 842.58 C-54.26 802.51 -54.27 762.44 -54.28 722.36 C-54.28 719.85 -54.28 717.33 -54.28 714.82 C-54.28 713.57 -54.28 712.32 -54.28 711.03 C-54.28 704.71 -54.28 698.39 -54.28 692.07 C-54.28 690.81 -54.28 689.56 -54.28 688.27 C-54.29 647.57 -54.32 606.88 -54.35 566.18 C-54.38 523.18 -54.4 480.17 -54.41 437.17 C-54.41 432.45 -54.41 427.73 -54.41 423.01 C-54.41 421.85 -54.41 420.69 -54.41 419.49 C-54.41 400.77 -54.43 382.06 -54.45 363.34 C-54.47 344.53 -54.47 325.73 -54.46 306.92 C-54.46 295.74 -54.46 284.57 -54.48 273.39 C-54.5 265.92 -54.5 258.46 -54.48 251 C-54.48 246.74 -54.48 242.49 -54.49 238.23 C-54.51 234.36 -54.51 230.49 -54.49 226.62 C-54.49 225.23 -54.49 223.84 -54.5 222.45 C-54.57 212.39 -53.39 203.62 -46.8 195.63 C-43.43 191.47 -42.86 189.4 -42.86 183.95 C-42.86 183.31 -42.85 182.67 -42.85 182.01 C-42.84 179.85 -42.85 177.69 -42.85 175.53 C-42.84 173.99 -42.84 172.44 -42.84 170.9 C-42.83 167.57 -42.82 164.24 -42.82 160.91 C-42.81 155.64 -42.8 150.37 -42.78 145.1 C-42.77 143.29 -42.77 141.49 -42.76 139.68 C-42.76 138.78 -42.75 137.88 -42.75 136.95 C-42.71 124.68 -42.67 112.4 -42.66 100.13 C-42.65 91.86 -42.63 83.59 -42.59 75.31 C-42.57 70.93 -42.56 66.56 -42.57 62.18 C-42.57 58.06 -42.56 53.94 -42.53 49.81 C-42.52 48.3 -42.52 46.79 -42.53 45.29 C-42.56 37.34 -42.42 30.98 -37.99 24.13 C-37.33 24.13 -36.67 24.13 -35.99 24.13 C-35.86 23.33 -35.86 23.33 -35.74 22.51 C-34.71 19.26 -33.02 16.85 -30.99 14.13 C-30.33 14.13 -29.67 14.13 -28.99 14.13 C-28.66 13.14 -28.33 12.15 -27.99 11.13 C-27.33 11.13 -26.67 11.13 -25.99 11.13 C-25.99 10.47 -25.99 9.81 -25.99 9.13 C-24.34 7.7 -24.34 7.7 -22.18 6.13 C-21.47 5.62 -20.76 5.1 -20.03 4.57 C-13.5 -0.02 -7.74 -0.01 0 0 Z M240.01 36.13 C241.01 39.13 241.01 39.13 241.01 39.13 Z M240.01 147.13 C241.01 150.13 241.01 150.13 241.01 150.13 Z M240.01 162.13 C241.01 164.13 241.01 164.13 241.01 164.13 Z M240.01 185.13 C241.01 187.13 241.01 187.13 241.01 187.13 Z " fill="#B4B6AA" transform="translate(280.98851013183594,115.86628723144531)"/>
<path d="M0 0 C0.89 -0 1.79 -0 2.71 -0.01 C5.7 -0.01 8.69 -0.01 11.69 -0.01 C13.83 -0.01 15.98 -0.02 18.13 -0.02 C23.95 -0.03 29.78 -0.03 35.61 -0.03 C40.48 -0.03 45.34 -0.04 50.21 -0.04 C61.69 -0.05 73.17 -0.05 84.65 -0.05 C96.49 -0.05 108.33 -0.06 120.17 -0.08 C130.34 -0.09 140.51 -0.1 150.68 -0.1 C156.75 -0.09 162.82 -0.1 168.9 -0.11 C174.61 -0.12 180.32 -0.12 186.03 -0.11 C188.12 -0.11 190.22 -0.11 192.31 -0.12 C195.17 -0.13 198.03 -0.12 200.9 -0.11 C201.72 -0.12 202.55 -0.12 203.4 -0.13 C211.06 -0.08 216.76 1.55 223.01 6.13 C224.19 6.94 224.19 6.94 225.39 7.76 C226.19 8.44 226.19 8.44 227.01 9.13 C227.01 9.79 227.01 10.45 227.01 11.13 C227.67 11.13 228.33 11.13 229.01 11.13 C229.19 12.01 229.19 12.01 229.37 12.9 C230.04 15.25 230.93 16.8 232.3 18.81 C232.74 19.47 233.19 20.13 233.65 20.82 C234.12 21.5 234.59 22.18 235.07 22.88 C235.55 23.58 236.02 24.28 236.51 25 C237.67 26.71 238.84 28.42 240.01 30.13 C240.67 29.8 241.33 29.47 242.01 29.13 C242.74 33.72 243.14 38.11 243.14 42.75 C243.14 44.04 243.14 45.33 243.14 46.66 C243.14 48.07 243.14 49.48 243.14 50.89 C243.14 52.39 243.14 53.89 243.14 55.39 C243.15 58.62 243.15 61.84 243.15 65.06 C243.15 70.15 243.16 75.24 243.18 80.34 C243.18 81.2 243.18 82.06 243.19 82.94 C243.19 84.7 243.2 86.46 243.2 88.22 C243.24 100.07 243.26 111.92 243.26 123.77 C243.26 131.78 243.28 139.78 243.31 147.79 C243.33 152.02 243.34 156.25 243.33 160.48 C243.32 164.46 243.33 168.44 243.36 172.42 C243.36 173.88 243.36 175.33 243.35 176.79 C243.34 178.79 243.36 180.78 243.38 182.77 C243.38 183.89 243.38 185 243.38 186.15 C244.21 190.09 245.97 191.59 249.01 194.13 C249.71 194.47 250.41 194.8 251.12 195.14 C253.8 196.55 254.7 198.42 256.2 201.01 C256.71 201.87 257.22 202.74 257.74 203.63 C259.86 207.82 260.14 211.33 260.14 216.01 C260.14 217.22 260.15 218.43 260.15 219.68 C260.15 221.03 260.15 222.38 260.15 223.73 C260.15 225.16 260.15 226.6 260.15 228.04 C260.16 232 260.16 235.97 260.16 239.94 C260.16 244.25 260.16 248.55 260.17 252.86 C260.18 261.42 260.18 269.97 260.19 278.52 C260.19 288.77 260.2 299.01 260.21 309.25 C260.23 334.01 260.24 358.77 260.25 383.53 C260.25 395.23 260.26 406.94 260.26 418.65 C260.28 458.72 260.29 498.78 260.3 538.85 C260.3 541.37 260.3 543.88 260.3 546.4 C260.3 547.65 260.3 548.89 260.3 550.18 C260.3 556.5 260.31 562.82 260.31 569.15 C260.31 570.4 260.31 571.65 260.31 572.95 C260.32 613.63 260.34 654.32 260.37 695.01 C260.41 738.01 260.43 781.01 260.43 824 C260.43 828.72 260.43 833.44 260.43 838.16 C260.43 839.32 260.43 840.48 260.43 841.68 C260.43 860.39 260.45 879.11 260.47 897.82 C260.49 916.63 260.49 935.43 260.49 954.23 C260.48 965.41 260.49 976.58 260.51 987.76 C260.52 995.22 260.52 1002.68 260.51 1010.15 C260.5 1014.4 260.5 1018.66 260.52 1022.91 C260.53 1026.78 260.53 1030.65 260.51 1034.53 C260.51 1036.57 260.52 1038.61 260.54 1040.65 C260.39 1060.37 248.72 1077.08 235.51 1091.01 C228.77 1097.38 220.75 1102 212.68 1106.46 C210.05 1108.11 208.1 1109.86 206.01 1112.13 C205.35 1110.81 204.69 1109.49 204.01 1108.13 C203.02 1108.46 202.03 1108.79 201.01 1109.13 C201.01 1108.14 201.01 1107.15 201.01 1106.13 C202.29 1105.84 202.29 1105.84 203.6 1105.55 C204.71 1105.29 205.81 1105.03 206.95 1104.76 C208.05 1104.5 209.15 1104.25 210.29 1103.99 C211.19 1103.7 212.09 1103.42 213.01 1103.13 C213.34 1102.47 213.67 1101.81 214.01 1101.13 C215.34 1100.8 216.68 1100.47 218.01 1100.13 C218.34 1099.47 218.67 1098.81 219.01 1098.13 C219.74 1097.85 220.48 1097.56 221.23 1097.27 C229.1 1094.05 235.97 1086.89 241.01 1080.13 C241.89 1078.96 241.89 1078.96 242.78 1077.76 C246.41 1072.75 249.41 1067.73 252.01 1062.13 C252.59 1061.04 253.17 1059.95 253.76 1058.82 C255.22 1056.17 255.22 1056.17 255.01 1053.13 C255.67 1053.13 256.33 1053.13 257.01 1053.13 C256.85 1052.27 256.69 1051.41 256.52 1050.52 C256.03 1047.28 255.89 1044.28 255.89 1041.02 C255.89 1039.8 255.89 1038.59 255.89 1037.34 C255.89 1036 255.9 1034.65 255.9 1033.31 C255.9 1031.88 255.9 1030.44 255.9 1029 C255.9 1025.05 255.91 1021.09 255.92 1017.13 C255.93 1012.83 255.93 1008.53 255.93 1004.22 C255.94 996.68 255.95 989.14 255.96 981.59 C255.98 970.38 255.99 959.16 256 947.94 C256.01 930.23 256.03 912.52 256.05 894.81 C256.09 866.7 256.11 838.59 256.13 810.48 C256.13 804.5 256.14 798.52 256.14 792.54 C256.14 785.28 256.15 778.02 256.15 770.76 C256.17 743.37 256.19 715.99 256.21 688.61 C256.21 686.73 256.21 686.73 256.21 684.81 C256.24 644.21 256.29 603.61 256.34 563 C256.39 521.27 256.42 479.54 256.44 437.81 C256.44 431.92 256.44 426.03 256.45 420.14 C256.45 418.99 256.45 417.83 256.45 416.63 C256.46 397.95 256.48 379.28 256.52 360.6 C256.55 341.84 256.56 323.08 256.56 304.31 C256.56 293.16 256.57 282.01 256.6 270.85 C256.62 263.41 256.62 255.96 256.61 248.52 C256.61 244.28 256.61 240.03 256.63 235.78 C256.65 231.92 256.65 228.06 256.63 224.2 C256.63 222.81 256.63 221.42 256.65 220.03 C256.72 211.99 256.46 207.21 251.01 201.13 C250.68 200.14 250.35 199.15 250.01 198.13 C247.91 197.33 247.91 197.33 245.45 196.95 C244.62 196.79 243.8 196.63 242.95 196.47 C242.31 196.36 241.67 196.25 241.01 196.13 C239.71 189.26 239.94 182.42 240.01 175.45 C240.04 173.03 240.06 170.61 240.07 168.18 C240.09 166.59 240.09 166.59 240.11 164.96 C240.02 162.49 239.73 160.48 239.01 158.13 C237.96 158.14 236.91 158.14 235.83 158.15 C231.94 158.17 228.06 158.18 224.17 158.19 C222.48 158.19 220.8 158.2 219.12 158.21 C216.7 158.22 214.28 158.23 211.86 158.23 C211.11 158.24 210.35 158.24 209.57 158.25 C204.24 158.25 204.24 158.25 202.01 157.13 C200.09 149.97 199.72 142.42 199.36 135.04 C199.06 131.7 198.61 128.47 198.07 125.16 C196.68 116.37 195.95 107.53 195.16 98.66 C194.6 92.63 193.98 86.65 193.01 80.66 C191.69 72.51 191.04 64.3 190.33 56.07 C189.64 48.02 188.77 40.04 187.47 32.05 C186.83 27.97 186.37 23.87 185.95 19.76 C185.77 10.84 185.77 10.84 183.01 3.13 C180.85 3.03 178.69 3.01 176.53 3.01 C175.5 3 175.5 3 174.45 3 C172.14 3 169.82 3 167.51 3 C165.86 3 164.2 3 162.55 3 C158.05 2.99 153.55 3 149.05 3 C144.35 3 139.65 3 134.95 3 C127.06 3 119.16 3 111.27 3 C102.13 3.01 92.99 3.01 83.85 3 C76.02 3 68.19 3 60.36 3 C55.67 3 50.99 3 46.31 3 C41.9 2.99 37.5 3 33.09 3 C31.48 3 29.86 3 28.24 3 C26.03 3 23.83 3 21.62 3.01 C19.77 3.01 19.77 3.01 17.88 3.01 C15.07 2.94 15.07 2.94 13.01 4.13 C14 4.63 14 4.63 15.01 5.13 C14.95 5.74 14.89 6.34 14.83 6.96 C14.38 11.42 13.94 15.88 13.51 20.34 C13.34 22.07 13.18 23.79 13.01 25.51 C12.93 26.38 12.85 27.26 12.76 28.16 C12.68 29.01 12.6 29.85 12.51 30.72 C12.44 31.47 12.37 32.23 12.29 33 C12.01 35.13 12.01 35.13 11.51 37.14 C10.98 39.27 10.76 41.3 10.58 43.49 C10.51 44.35 10.44 45.21 10.37 46.09 C10.25 47.47 10.25 47.47 10.14 48.88 C9.44 57.01 8.56 65.1 7.51 73.2 C6.21 83.29 5.17 93.39 4.25 103.52 C3.83 108.12 3.39 112.72 2.95 117.32 C2.87 118.18 2.79 119.03 2.71 119.92 C2.13 125.91 2.13 125.91 1.01 128.13 C0.81 129.79 0.67 131.45 0.55 133.11 C0.43 134.61 0.43 134.61 0.31 136.14 C0.15 138.24 0 140.34 -0.15 142.44 C-0.23 143.45 -0.31 144.45 -0.39 145.49 C-0.46 146.4 -0.52 147.32 -0.59 148.26 C-1.06 151.67 -1.98 154.84 -2.99 158.13 C-4.07 158.13 -5.16 158.12 -6.28 158.12 C-10.29 158.1 -14.3 158.09 -18.31 158.08 C-20.05 158.07 -21.79 158.07 -23.53 158.06 C-26.03 158.05 -28.52 158.04 -31.02 158.04 C-32.19 158.03 -32.19 158.03 -33.39 158.02 C-35.25 158.02 -37.12 158.07 -38.99 158.13 C-40.39 159.31 -40.39 159.31 -40.1 162.64 C-40.1 164.2 -40.1 165.76 -40.09 167.33 C-40.08 168.55 -40.08 168.55 -40.08 169.81 C-40.08 172.44 -40.06 175.07 -40.05 177.7 C-40.05 179.47 -40.04 181.25 -40.04 183.03 C-40.03 187.4 -40.01 191.77 -39.99 196.13 C-41.97 196.46 -43.95 196.79 -45.99 197.13 C-46.09 197.65 -46.19 198.16 -46.3 198.7 C-46.99 201.13 -46.99 201.13 -48.51 203.91 C-50.98 209.68 -50.4 215.96 -50.36 222.13 C-50.37 223.57 -50.37 225.01 -50.38 226.45 C-50.39 230.42 -50.38 234.39 -50.37 238.36 C-50.36 242.68 -50.37 247 -50.37 251.32 C-50.38 258.89 -50.38 266.45 -50.37 274.02 C-50.36 285.28 -50.36 296.54 -50.37 307.79 C-50.38 327.89 -50.38 347.99 -50.36 368.09 C-50.35 385.68 -50.35 403.27 -50.35 420.86 C-50.35 422.03 -50.35 423.19 -50.35 424.4 C-50.35 429.13 -50.35 433.86 -50.35 438.59 C-50.36 483 -50.34 527.41 -50.32 571.82 C-50.3 611.3 -50.3 650.77 -50.3 690.25 C-50.3 692.78 -50.3 695.32 -50.31 697.85 C-50.31 699.11 -50.31 700.36 -50.31 701.65 C-50.31 707.96 -50.31 714.26 -50.31 720.57 C-50.31 721.82 -50.31 723.06 -50.31 724.34 C-50.31 757.31 -50.31 790.27 -50.3 823.23 C-50.3 826.78 -50.3 830.33 -50.3 833.87 C-50.3 836.22 -50.29 838.58 -50.29 840.93 C-50.29 857.34 -50.29 873.76 -50.29 890.18 C-50.29 911.33 -50.29 932.48 -50.27 953.63 C-50.27 964.82 -50.26 976.01 -50.27 987.21 C-50.27 994.68 -50.27 1002.14 -50.26 1009.61 C-50.25 1013.87 -50.25 1018.13 -50.26 1022.39 C-50.26 1026.27 -50.26 1030.14 -50.25 1034.01 C-50.24 1035.41 -50.25 1036.8 -50.25 1038.2 C-50.28 1047.02 -50.14 1054.17 -45.36 1061.82 C-44.84 1062.66 -44.32 1063.5 -43.78 1064.36 C-41.11 1068.49 -38.38 1072.59 -35.63 1076.66 C-33.99 1079.13 -33.99 1079.13 -32.99 1081.13 C-33.32 1081.79 -33.65 1082.45 -33.99 1083.13 C-33.39 1083.24 -32.78 1083.34 -32.16 1083.45 C-29.62 1084.25 -28.93 1085.06 -27.24 1087.07 C-19.65 1095.02 -8.68 1100.72 1.29 1105.1 C3.01 1106.13 3.01 1106.13 4.01 1109.13 C3.05 1109.32 3.05 1109.32 2.07 1109.51 C1.05 1109.82 1.05 1109.82 0.01 1110.13 C-0.32 1110.79 -0.65 1111.45 -0.99 1112.13 C-1.77 1111.01 -1.77 1111.01 -2.57 1109.87 C-5.34 1106.74 -7.92 1105.26 -11.61 1103.32 C-30.76 1092.82 -47.02 1074.53 -53.54 1053.36 C-54.09 1050.61 -54.12 1048.06 -54.12 1045.26 C-54.12 1044.04 -54.12 1042.83 -54.13 1041.58 C-54.13 1040.23 -54.12 1038.88 -54.12 1037.54 C-54.12 1036.1 -54.13 1034.66 -54.13 1033.23 C-54.14 1029.26 -54.14 1025.29 -54.14 1021.32 C-54.14 1017.01 -54.14 1012.71 -54.15 1008.4 C-54.16 999.84 -54.16 991.28 -54.16 982.73 C-54.17 972.48 -54.17 962.24 -54.18 952 C-54.2 927.23 -54.21 902.47 -54.22 877.71 C-54.23 866 -54.23 854.29 -54.24 842.58 C-54.26 802.51 -54.27 762.44 -54.28 722.36 C-54.28 719.85 -54.28 717.33 -54.28 714.82 C-54.28 713.57 -54.28 712.32 -54.28 711.03 C-54.28 704.71 -54.28 698.39 -54.28 692.07 C-54.28 690.81 -54.28 689.56 -54.28 688.27 C-54.29 647.57 -54.32 606.88 -54.35 566.18 C-54.38 523.18 -54.4 480.17 -54.41 437.17 C-54.41 432.45 -54.41 427.73 -54.41 423.01 C-54.41 421.85 -54.41 420.69 -54.41 419.49 C-54.41 400.77 -54.43 382.06 -54.45 363.34 C-54.47 344.53 -54.47 325.73 -54.46 306.92 C-54.46 295.74 -54.46 284.57 -54.48 273.39 C-54.5 265.92 -54.5 258.46 -54.48 251 C-54.48 246.74 -54.48 242.49 -54.49 238.23 C-54.51 234.36 -54.51 230.49 -54.49 226.62 C-54.49 225.23 -54.49 223.84 -54.5 222.45 C-54.57 212.39 -53.39 203.62 -46.8 195.63 C-43.43 191.47 -42.86 189.4 -42.86 183.95 C-42.86 183.31 -42.85 182.67 -42.85 182.01 C-42.84 179.85 -42.85 177.69 -42.85 175.53 C-42.84 173.99 -42.84 172.44 -42.84 170.9 C-42.83 167.57 -42.82 164.24 -42.82 160.91 C-42.81 155.64 -42.8 150.37 -42.78 145.1 C-42.77 143.29 -42.77 141.49 -42.76 139.68 C-42.76 138.78 -42.75 137.88 -42.75 136.95 C-42.71 124.68 -42.67 112.4 -42.66 100.13 C-42.65 91.86 -42.63 83.59 -42.59 75.31 C-42.57 70.93 -42.56 66.56 -42.57 62.18 C-42.57 58.06 -42.56 53.94 -42.53 49.81 C-42.52 48.3 -42.52 46.79 -42.53 45.29 C-42.56 37.34 -42.42 30.98 -37.99 24.13 C-37.33 24.13 -36.67 24.13 -35.99 24.13 C-35.86 23.33 -35.86 23.33 -35.74 22.51 C-34.71 19.26 -33.02 16.85 -30.99 14.13 C-30.33 14.13 -29.67 14.13 -28.99 14.13 C-28.66 13.14 -28.33 12.15 -27.99 11.13 C-27.33 11.13 -26.67 11.13 -25.99 11.13 C-25.99 10.47 -25.99 9.81 -25.99 9.13 C-24.34 7.7 -24.34 7.7 -22.18 6.13 C-21.47 5.62 -20.76 5.1 -20.03 4.57 C-13.5 -0.02 -7.74 -0.01 0 0 Z M240.01 36.13 C241.01 39.13 241.01 39.13 241.01 39.13 Z M240.01 147.13 C241.01 150.13 241.01 150.13 241.01 150.13 Z " fill="#348E3C" transform="translate(280.98851013183594,115.86628723144531)"/>
<path d="M0 0 C1.05 -0 2.11 -0 3.19 -0.01 C6.66 -0.01 10.12 -0.01 13.59 -0 C16.01 -0 18.43 -0.01 20.84 -0.01 C25.9 -0.01 30.96 -0.01 36.02 -0 C42.5 0 48.98 0 55.46 -0 C60.45 -0.01 65.44 -0.01 70.43 -0 C72.82 -0 75.21 -0 77.6 -0.01 C80.94 -0.01 84.28 -0.01 87.62 0 C89.1 -0 89.1 -0 90.6 -0.01 C104.43 0.04 104.43 0.04 109.31 3.5 C112.21 5.45 115.01 6.95 118.27 8.25 C120.99 9.42 123.57 10.82 126.19 12.19 C131.24 14.75 135.74 16.2 141.31 17.13 C141.31 17.79 141.31 18.45 141.31 19.13 C141.97 19.13 142.63 19.13 143.31 19.13 C143.31 19.79 143.31 20.45 143.31 21.13 C144.16 21.25 145 21.38 145.87 21.5 C149.46 22.16 152.82 23.08 156.31 24.13 C156.31 24.79 156.31 25.45 156.31 26.13 C159.61 26.46 162.91 26.79 166.31 27.13 C166.45 26.41 166.6 25.69 166.75 24.94 C166.93 24.01 167.12 23.09 167.31 22.13 C167.48 21.22 167.64 20.31 167.81 19.38 C168.31 17.13 168.31 17.13 169.31 16.13 C170.8 15.63 170.8 15.63 172.31 15.13 C173.04 13.11 173.04 13.11 173.31 11.13 C173.34 15.3 173.36 19.46 173.37 23.63 C173.38 24.78 173.39 25.94 173.4 27.13 C173.42 33.64 173.24 40.09 172.8 46.6 C172.76 47.33 172.71 48.06 172.66 48.81 C172.55 50.58 172.43 52.36 172.31 54.13 C139.6 54.18 106.9 54.21 74.19 54.23 C70.33 54.23 66.48 54.24 62.62 54.24 C61.85 54.24 61.08 54.24 60.29 54.24 C47.84 54.25 35.39 54.27 22.94 54.28 C10.17 54.3 -2.59 54.31 -15.36 54.32 C-23.24 54.32 -31.13 54.33 -39.01 54.35 C-45.05 54.36 -51.08 54.36 -57.12 54.36 C-59.6 54.36 -62.08 54.36 -64.57 54.37 C-67.94 54.38 -71.32 54.38 -74.69 54.37 C-75.69 54.38 -76.68 54.38 -77.7 54.39 C-79.05 54.38 -79.05 54.38 -80.43 54.38 C-81.21 54.38 -81.99 54.38 -82.79 54.38 C-84.69 54.13 -84.69 54.13 -86.69 52.13 C-86.85 50.24 -86.85 50.24 -86.75 47.88 C-86.66 43.67 -86.84 39.57 -87.19 35.38 C-87.74 28.28 -87.79 21.25 -87.69 14.13 C-87.03 14.13 -86.37 14.13 -85.69 14.13 C-85.36 13.14 -85.03 12.15 -84.69 11.13 C-83.7 15.09 -82.71 19.05 -81.69 23.13 C-81.36 23.13 -81.03 23.13 -80.69 23.13 C-80.69 24.78 -80.69 26.43 -80.69 28.13 C-79.51 27.7 -78.33 27.26 -77.11 26.82 C-75.55 26.25 -74 25.69 -72.44 25.13 C-71.66 24.84 -70.88 24.56 -70.08 24.26 C-69.33 23.99 -68.58 23.72 -67.8 23.44 C-67.11 23.19 -66.42 22.94 -65.7 22.68 C-63.69 22.13 -63.69 22.13 -59.69 22.13 C-59.36 21.14 -59.03 20.15 -58.69 19.13 C-57.93 19.01 -57.16 18.88 -56.38 18.75 C-53.49 18.25 -53.49 18.25 -50.69 16.13 C-47.04 14.73 -44.65 14.13 -40.69 14.13 C-40.69 13.47 -40.69 12.81 -40.69 12.13 C-39.04 11.8 -37.39 11.47 -35.69 11.13 C-35.69 10.47 -35.69 9.81 -35.69 9.13 C-34.89 9.01 -34.08 8.88 -33.25 8.75 C-32.41 8.55 -31.56 8.34 -30.69 8.13 C-30.36 7.47 -30.03 6.81 -29.69 6.13 C-27.73 5.35 -27.73 5.35 -25.31 4.63 C-22.26 3.71 -20.39 2.93 -17.69 1.13 C-11.81 -0.07 -5.97 -0.01 0 0 Z M171.31 17.13 C171.31 21.75 171.31 26.37 171.31 31.13 C171.64 31.13 171.97 31.13 172.31 31.13 C172.31 26.51 172.31 21.89 172.31 17.13 C171.98 17.13 171.65 17.13 171.31 17.13 Z M170.31 44.13 C169.98 44.79 169.65 45.45 169.31 46.13 C169.97 46.13 170.63 46.13 171.31 46.13 C170.98 45.47 170.65 44.81 170.31 44.13 Z " fill="#93928B" transform="translate(337.689453125,51.87060546875)"/>
<path d="M0 0 C0.89 -0 1.79 -0 2.71 -0.01 C5.7 -0.01 8.69 -0.01 11.69 -0.01 C13.83 -0.01 15.98 -0.02 18.13 -0.02 C23.95 -0.03 29.78 -0.03 35.61 -0.03 C40.48 -0.03 45.34 -0.04 50.21 -0.04 C61.69 -0.05 73.17 -0.05 84.65 -0.05 C96.49 -0.05 108.33 -0.06 120.17 -0.08 C130.34 -0.09 140.51 -0.1 150.68 -0.1 C156.75 -0.09 162.82 -0.1 168.9 -0.11 C174.61 -0.12 180.32 -0.12 186.03 -0.11 C188.12 -0.11 190.22 -0.11 192.31 -0.12 C195.17 -0.13 198.03 -0.12 200.9 -0.11 C201.72 -0.12 202.55 -0.12 203.4 -0.13 C209 -0.1 214.85 -0.03 219.01 4.13 C216.01 4.13 216.01 4.13 213.01 3.13 C210.38 3.04 207.78 3 205.15 3.01 C204.34 3.01 203.53 3 202.69 3 C199.97 3 197.25 3 194.53 3 C192.58 3 190.63 3 188.68 3 C183.39 2.99 178.09 3 172.79 3 C167.26 3 161.72 3 156.19 3 C146.89 3 137.6 3 128.3 3 C117.54 3.01 106.78 3.01 96.02 3 C86.8 3 77.57 3 68.35 3 C62.83 3 57.32 3 51.8 3 C46.62 2.99 41.43 3 36.25 3 C34.34 3 32.44 3 30.53 3 C27.94 3 25.34 3 22.75 3.01 C21.99 3 21.22 3 20.44 3 C16.6 2.95 16.6 2.95 13.01 4.13 C14 4.63 14 4.63 15.01 5.13 C14.95 5.74 14.89 6.34 14.83 6.96 C14.38 11.42 13.94 15.88 13.51 20.34 C13.34 22.07 13.18 23.79 13.01 25.51 C12.93 26.38 12.85 27.26 12.76 28.16 C12.68 29.01 12.6 29.85 12.51 30.72 C12.44 31.47 12.37 32.23 12.29 33 C12.01 35.13 12.01 35.13 11.51 37.14 C10.98 39.27 10.76 41.3 10.58 43.49 C10.51 44.35 10.44 45.21 10.37 46.09 C10.25 47.47 10.25 47.47 10.14 48.88 C9.44 57.01 8.56 65.1 7.51 73.2 C6.21 83.29 5.17 93.39 4.25 103.52 C3.83 108.12 3.39 112.72 2.95 117.32 C2.87 118.18 2.79 119.03 2.71 119.92 C2.13 125.91 2.13 125.91 1.01 128.13 C0.81 129.79 0.67 131.45 0.55 133.11 C0.43 134.61 0.43 134.61 0.31 136.14 C0.15 138.24 0 140.34 -0.15 142.44 C-0.23 143.45 -0.31 144.45 -0.39 145.49 C-0.46 146.4 -0.52 147.32 -0.59 148.26 C-1.06 151.67 -1.98 154.84 -2.99 158.13 C-4.07 158.13 -5.16 158.12 -6.28 158.12 C-10.29 158.1 -14.3 158.09 -18.31 158.08 C-20.05 158.07 -21.79 158.07 -23.53 158.06 C-26.03 158.05 -28.52 158.04 -31.02 158.04 C-32.19 158.03 -32.19 158.03 -33.39 158.02 C-35.25 158.02 -37.12 158.07 -38.99 158.13 C-40.39 159.31 -40.39 159.31 -40.1 162.64 C-40.1 164.2 -40.1 165.76 -40.09 167.33 C-40.08 168.55 -40.08 168.55 -40.08 169.81 C-40.08 172.44 -40.06 175.07 -40.05 177.7 C-40.05 179.47 -40.04 181.25 -40.04 183.03 C-40.03 187.4 -40.01 191.77 -39.99 196.13 C-41.97 196.46 -43.95 196.79 -45.99 197.13 C-46.09 197.65 -46.19 198.16 -46.3 198.7 C-46.99 201.13 -46.99 201.13 -48.51 203.91 C-50.98 209.68 -50.4 215.96 -50.36 222.13 C-50.37 223.57 -50.37 225.01 -50.38 226.45 C-50.39 230.42 -50.38 234.39 -50.37 238.36 C-50.36 242.68 -50.37 247 -50.37 251.32 C-50.38 258.89 -50.38 266.45 -50.37 274.02 C-50.36 285.28 -50.36 296.54 -50.37 307.79 C-50.38 327.89 -50.38 347.99 -50.36 368.09 C-50.35 385.68 -50.35 403.27 -50.35 420.86 C-50.35 422.03 -50.35 423.19 -50.35 424.4 C-50.35 429.13 -50.35 433.86 -50.35 438.59 C-50.36 483 -50.34 527.41 -50.32 571.82 C-50.3 611.3 -50.3 650.77 -50.3 690.25 C-50.3 692.78 -50.3 695.32 -50.31 697.85 C-50.31 699.11 -50.31 700.36 -50.31 701.65 C-50.31 707.96 -50.31 714.26 -50.31 720.57 C-50.31 721.82 -50.31 723.06 -50.31 724.34 C-50.31 757.31 -50.31 790.27 -50.3 823.23 C-50.3 826.78 -50.3 830.33 -50.3 833.87 C-50.3 836.22 -50.29 838.58 -50.29 840.93 C-50.29 857.34 -50.29 873.76 -50.29 890.18 C-50.29 911.33 -50.29 932.48 -50.27 953.63 C-50.27 964.82 -50.26 976.01 -50.27 987.21 C-50.27 994.68 -50.27 1002.14 -50.26 1009.61 C-50.25 1013.87 -50.25 1018.13 -50.26 1022.39 C-50.26 1026.27 -50.26 1030.14 -50.25 1034.01 C-50.24 1035.41 -50.25 1036.8 -50.25 1038.2 C-50.28 1047.02 -50.14 1054.17 -45.36 1061.82 C-44.84 1062.66 -44.32 1063.5 -43.78 1064.36 C-41.11 1068.49 -38.38 1072.59 -35.63 1076.66 C-33.99 1079.13 -33.99 1079.13 -32.99 1081.13 C-33.32 1081.79 -33.65 1082.45 -33.99 1083.13 C-33.39 1083.24 -32.78 1083.34 -32.16 1083.45 C-29.62 1084.25 -28.93 1085.06 -27.24 1087.07 C-19.65 1095.02 -8.68 1100.72 1.29 1105.1 C3.01 1106.13 3.01 1106.13 4.01 1109.13 C3.05 1109.32 3.05 1109.32 2.07 1109.51 C1.05 1109.82 1.05 1109.82 0.01 1110.13 C-0.32 1110.79 -0.65 1111.45 -0.99 1112.13 C-1.77 1111.01 -1.77 1111.01 -2.57 1109.87 C-5.34 1106.74 -7.92 1105.26 -11.61 1103.32 C-30.76 1092.82 -47.02 1074.53 -53.54 1053.36 C-54.09 1050.61 -54.12 1048.06 -54.12 1045.26 C-54.12 1044.04 -54.12 1042.83 -54.13 1041.58 C-54.13 1040.23 -54.12 1038.88 -54.12 1037.54 C-54.12 1036.1 -54.13 1034.66 -54.13 1033.23 C-54.14 1029.26 -54.14 1025.29 -54.14 1021.32 C-54.14 1017.01 -54.14 1012.71 -54.15 1008.4 C-54.16 999.84 -54.16 991.28 -54.16 982.73 C-54.17 972.48 -54.17 962.24 -54.18 952 C-54.2 927.23 -54.21 902.47 -54.22 877.71 C-54.23 866 -54.23 854.29 -54.24 842.58 C-54.26 802.51 -54.27 762.44 -54.28 722.36 C-54.28 719.85 -54.28 717.33 -54.28 714.82 C-54.28 713.57 -54.28 712.32 -54.28 711.03 C-54.28 704.71 -54.28 698.39 -54.28 692.07 C-54.28 690.81 -54.28 689.56 -54.28 688.27 C-54.29 647.57 -54.32 606.88 -54.35 566.18 C-54.38 523.18 -54.4 480.17 -54.41 437.17 C-54.41 432.45 -54.41 427.73 -54.41 423.01 C-54.41 421.85 -54.41 420.69 -54.41 419.49 C-54.41 400.77 -54.43 382.06 -54.45 363.34 C-54.47 344.53 -54.47 325.73 -54.46 306.92 C-54.46 295.74 -54.46 284.57 -54.48 273.39 C-54.5 265.92 -54.5 258.46 -54.48 251 C-54.48 246.74 -54.48 242.49 -54.49 238.23 C-54.51 234.36 -54.51 230.49 -54.49 226.62 C-54.49 225.23 -54.49 223.84 -54.5 222.45 C-54.57 212.39 -53.39 203.62 -46.8 195.63 C-43.43 191.47 -42.86 189.4 -42.86 183.95 C-42.86 183.31 -42.85 182.67 -42.85 182.01 C-42.84 179.85 -42.85 177.69 -42.85 175.53 C-42.84 173.99 -42.84 172.44 -42.84 170.9 C-42.83 167.57 -42.82 164.24 -42.82 160.91 C-42.81 155.64 -42.8 150.37 -42.78 145.1 C-42.77 143.29 -42.77 141.49 -42.76 139.68 C-42.76 138.78 -42.75 137.88 -42.75 136.95 C-42.71 124.68 -42.67 112.4 -42.66 100.13 C-42.65 91.86 -42.63 83.59 -42.59 75.31 C-42.57 70.93 -42.56 66.56 -42.57 62.18 C-42.57 58.06 -42.56 53.94 -42.53 49.81 C-42.52 48.3 -42.52 46.79 -42.53 45.29 C-42.56 37.34 -42.42 30.98 -37.99 24.13 C-37.33 24.13 -36.67 24.13 -35.99 24.13 C-35.86 23.33 -35.86 23.33 -35.74 22.51 C-34.71 19.26 -33.02 16.85 -30.99 14.13 C-30.33 14.13 -29.67 14.13 -28.99 14.13 C-28.66 13.14 -28.33 12.15 -27.99 11.13 C-27.33 11.13 -26.67 11.13 -25.99 11.13 C-25.99 10.47 -25.99 9.81 -25.99 9.13 C-24.34 7.7 -24.34 7.7 -22.18 6.13 C-21.47 5.62 -20.76 5.1 -20.03 4.57 C-13.5 -0.02 -7.74 -0.01 0 0 Z " fill="#318538" transform="translate(280.98851013183594,115.86628723144531)"/>
<path d="M0 0 C1.05 -0 2.11 -0 3.19 -0.01 C6.66 -0.01 10.12 -0.01 13.59 -0 C16.01 -0 18.43 -0.01 20.84 -0.01 C25.9 -0.01 30.96 -0.01 36.02 -0 C42.5 0 48.98 0 55.46 -0 C60.45 -0.01 65.44 -0.01 70.43 -0 C72.82 -0 75.21 -0 77.6 -0.01 C80.94 -0.01 84.28 -0.01 87.62 0 C89.1 -0 89.1 -0 90.6 -0.01 C104.02 0.04 104.02 0.04 107.75 3.19 C108.52 4.15 108.52 4.15 109.31 5.13 C107.99 5.13 106.67 5.13 105.31 5.13 C105.64 11.4 105.97 17.67 106.31 24.13 C108.48 24.23 110.64 24.34 112.87 24.44 C133.63 25.64 152.9 28.19 171.31 38.13 C171.35 40.13 171.35 42.13 171.31 44.13 C169.32 46.12 165.71 45.49 163 45.57 C162.32 45.61 161.64 45.66 160.95 45.71 C158.95 45.75 158.95 45.75 155.31 45.13 C154.86 44.15 154.41 43.18 153.94 42.17 C152.38 39.67 151.56 39.19 148.66 38.48 C144.98 38.14 141.31 37.98 137.62 37.89 C136.2 37.83 134.78 37.77 133.36 37.71 C129.49 37.55 125.62 37.43 121.75 37.33 C119.3 37.25 116.85 37.17 114.41 37.09 C65.13 35.38 15.81 35.3 -33.46 37.17 C-35.67 37.25 -37.89 37.32 -40.11 37.39 C-44.18 37.52 -48.25 37.7 -52.31 37.89 C-54.12 37.94 -54.12 37.94 -55.96 37.99 C-59 38.16 -61.75 38.34 -64.69 39.13 C-67.31 41.99 -67.31 41.99 -68.69 45.13 C-72.14 45.72 -72.14 45.72 -75.94 45.5 C-77.2 45.45 -78.47 45.4 -79.77 45.34 C-80.73 45.27 -81.7 45.2 -82.69 45.13 C-82.94 37.5 -82.94 37.5 -80.69 34.13 C-80.36 34.79 -80.03 35.45 -79.69 36.13 C-79.15 35.81 -78.62 35.5 -78.06 35.18 C-60.09 25.36 -38.66 25.23 -18.69 24.13 C-18.36 17.86 -18.03 11.59 -17.69 5.13 C-19.67 5.13 -21.65 5.13 -23.69 5.13 C-15.88 -0.08 -9.16 -0.02 0 0 Z " fill="#32883A" transform="translate(337.689453125,51.87060546875)"/>
<path d="M0 0 C0.33 0 0.66 0 1 0 C1.73 4.58 2.12 8.98 2.12 13.62 C2.13 14.91 2.13 16.2 2.13 17.52 C2.13 18.94 2.13 20.35 2.13 21.76 C2.13 23.26 2.13 24.76 2.13 26.26 C2.14 29.48 2.14 32.7 2.14 35.92 C2.14 41.02 2.15 46.11 2.17 51.2 C2.17 52.06 2.17 52.92 2.18 53.81 C2.18 55.57 2.19 57.33 2.19 59.09 C2.23 70.94 2.25 82.79 2.25 94.64 C2.25 102.64 2.26 110.65 2.3 118.65 C2.32 122.89 2.33 127.12 2.32 131.35 C2.31 135.33 2.32 139.31 2.35 143.28 C2.35 144.74 2.35 146.2 2.34 147.66 C2.33 149.65 2.35 151.64 2.37 153.64 C2.37 154.75 2.37 155.87 2.37 157.01 C3.2 160.96 4.96 162.46 8 165 C8.7 165.33 9.39 165.67 10.11 166.01 C12.79 167.41 13.69 169.28 15.19 171.88 C15.7 172.74 16.21 173.6 16.73 174.49 C18.85 178.68 19.13 182.2 19.13 186.88 C19.13 188.09 19.14 189.3 19.14 190.55 C19.14 191.9 19.14 193.25 19.13 194.6 C19.14 196.03 19.14 197.47 19.14 198.9 C19.15 202.87 19.15 206.84 19.15 210.8 C19.15 215.11 19.15 219.42 19.16 223.73 C19.17 232.28 19.17 240.84 19.17 249.39 C19.18 259.63 19.19 269.88 19.19 280.12 C19.22 304.88 19.23 329.63 19.23 354.39 C19.24 366.1 19.24 377.81 19.25 389.52 C19.27 429.58 19.28 469.65 19.29 509.72 C19.29 512.23 19.29 514.75 19.29 517.26 C19.29 518.51 19.29 519.76 19.29 521.05 C19.29 527.37 19.29 533.69 19.3 540.01 C19.3 541.89 19.3 541.89 19.3 543.81 C19.3 584.5 19.33 625.19 19.36 665.87 C19.39 708.87 19.41 751.87 19.42 794.87 C19.42 799.59 19.42 804.31 19.42 809.03 C19.42 810.77 19.42 810.77 19.42 812.55 C19.42 831.26 19.44 849.97 19.46 868.69 C19.48 887.49 19.48 906.29 19.47 925.1 C19.47 936.27 19.47 947.45 19.5 958.62 C19.51 966.09 19.51 973.55 19.5 981.01 C19.49 985.27 19.49 989.52 19.51 993.77 C19.52 997.65 19.52 1001.52 19.5 1005.39 C19.5 1007.44 19.51 1009.48 19.53 1011.52 C19.38 1031.23 7.71 1047.95 -5.5 1061.88 C-12.24 1068.25 -20.26 1072.86 -28.34 1077.32 C-30.96 1078.97 -32.91 1080.73 -35 1083 C-35.66 1081.68 -36.32 1080.36 -37 1079 C-37.99 1079.33 -38.98 1079.66 -40 1080 C-40 1079.01 -40 1078.02 -40 1077 C-39.15 1076.81 -38.29 1076.61 -37.41 1076.41 C-36.31 1076.15 -35.2 1075.89 -34.06 1075.62 C-32.96 1075.37 -31.86 1075.11 -30.72 1074.85 C-29.37 1074.43 -29.37 1074.43 -28 1074 C-27.67 1073.34 -27.34 1072.68 -27 1072 C-25.67 1071.67 -24.33 1071.33 -23 1071 C-22.67 1070.34 -22.34 1069.68 -22 1069 C-21.27 1068.72 -20.53 1068.43 -19.78 1068.14 C-11.91 1064.92 -5.04 1057.76 0 1051 C0.59 1050.22 1.17 1049.43 1.77 1048.62 C5.4 1043.61 8.4 1038.6 11 1033 C11.58 1031.91 12.15 1030.81 12.75 1029.69 C14.21 1027.04 14.21 1027.04 14 1024 C14.66 1024 15.32 1024 16 1024 C15.84 1023.14 15.67 1022.27 15.51 1021.38 C15.02 1018.15 14.88 1015.15 14.88 1011.88 C14.88 1010.67 14.88 1009.45 14.88 1008.2 C14.88 1006.86 14.89 1005.52 14.89 1004.18 C14.89 1002.74 14.89 1001.31 14.89 999.87 C14.89 995.91 14.9 991.95 14.91 988 C14.92 983.69 14.92 979.39 14.92 975.09 C14.93 967.55 14.94 960 14.95 952.46 C14.97 941.24 14.98 930.03 14.99 918.81 C15 901.1 15.02 883.39 15.04 865.67 C15.08 837.56 15.1 809.45 15.12 781.34 C15.12 775.36 15.12 769.38 15.13 763.4 C15.13 756.14 15.14 748.88 15.14 741.62 C15.16 714.24 15.18 686.86 15.2 659.47 C15.2 658.22 15.2 656.97 15.2 655.68 C15.23 615.08 15.28 574.47 15.33 533.87 C15.38 492.14 15.41 450.41 15.43 408.68 C15.43 402.79 15.43 396.9 15.44 391.01 C15.44 389.85 15.44 388.69 15.44 387.5 C15.45 368.82 15.47 350.14 15.5 331.46 C15.54 312.7 15.55 293.94 15.55 275.18 C15.55 264.03 15.56 252.87 15.59 241.72 C15.61 234.27 15.61 226.83 15.6 219.39 C15.59 215.14 15.6 210.9 15.62 206.65 C15.64 202.79 15.64 198.93 15.62 195.07 C15.61 193.68 15.62 192.29 15.63 190.9 C15.71 182.85 15.45 178.08 10 172 C9.67 171.01 9.34 170.02 9 169 C6.89 168.19 6.89 168.19 4.44 167.81 C3.61 167.65 2.78 167.5 1.93 167.33 C1.3 167.22 0.66 167.11 0 167 C-1.29 160.14 -1.07 153.33 -1 146.38 C-0.97 143.97 -0.95 141.56 -0.94 139.15 C-0.93 138.09 -0.91 137.03 -0.9 135.94 C-0.99 133.16 -1.43 130.71 -2 128 C-2.04 125.67 -2.05 123.33 -2 121 C-1.34 121 -0.68 121 0 121 C-0.16 119.9 -0.32 118.8 -0.49 117.66 C-1.13 112.56 -1.14 107.5 -1.13 102.36 C-1.13 101.33 -1.13 100.29 -1.13 99.23 C-1.14 95.83 -1.14 92.42 -1.13 89.02 C-1.13 86.65 -1.13 84.28 -1.14 81.9 C-1.14 76.94 -1.14 71.98 -1.13 67.01 C-1.12 60.65 -1.13 54.29 -1.13 47.93 C-1.14 43.03 -1.14 38.14 -1.13 33.24 C-1.13 30.9 -1.13 28.55 -1.14 26.21 C-1.14 22.93 -1.13 19.65 -1.13 16.38 C-1.13 15.41 -1.13 14.44 -1.14 13.45 C-1.12 8.85 -0.95 4.52 0 0 Z " fill="#000100" transform="translate(522,145)"/>
<path d="M0 0 C0.33 0 0.66 0 1 0 C1 55.11 1 110.22 1 167 C-0.98 167.33 -2.96 167.66 -5 168 C-5.1 168.52 -5.21 169.03 -5.31 169.56 C-6 172 -6 172 -7.52 174.78 C-9.99 180.55 -9.41 186.83 -9.37 192.99 C-9.38 194.43 -9.38 195.88 -9.39 197.32 C-9.4 201.29 -9.39 205.26 -9.38 209.23 C-9.37 213.55 -9.38 217.87 -9.39 222.18 C-9.4 229.75 -9.39 237.32 -9.38 244.89 C-9.37 256.15 -9.37 267.4 -9.38 278.66 C-9.39 298.76 -9.39 318.86 -9.38 338.96 C-9.37 356.55 -9.36 374.14 -9.36 391.73 C-9.36 392.89 -9.36 394.06 -9.36 395.26 C-9.36 399.99 -9.36 404.73 -9.36 409.46 C-9.37 453.87 -9.36 498.28 -9.33 542.69 C-9.32 582.17 -9.31 621.64 -9.32 661.12 C-9.32 663.65 -9.32 666.18 -9.32 668.72 C-9.32 669.97 -9.32 671.23 -9.32 672.52 C-9.32 678.82 -9.32 685.13 -9.32 691.44 C-9.32 692.68 -9.32 693.93 -9.32 695.21 C-9.32 728.17 -9.32 761.14 -9.31 794.1 C-9.31 797.65 -9.31 801.19 -9.31 804.74 C-9.31 807.09 -9.31 809.44 -9.31 811.8 C-9.3 828.21 -9.3 844.63 -9.3 861.04 C-9.31 882.19 -9.3 903.35 -9.29 924.5 C-9.28 935.69 -9.27 946.88 -9.28 958.07 C-9.28 965.54 -9.28 973.01 -9.27 980.48 C-9.26 984.74 -9.26 989 -9.27 993.26 C-9.27 997.13 -9.27 1001.01 -9.26 1004.88 C-9.26 1006.27 -9.26 1007.67 -9.26 1009.06 C-9.29 1017.89 -9.16 1025.04 -4.38 1032.69 C-3.85 1033.53 -3.33 1034.37 -2.79 1035.23 C-0.12 1039.36 2.61 1043.46 5.36 1047.53 C7 1050 7 1050 8 1052 C7.67 1052.66 7.34 1053.32 7 1054 C7.6 1054.1 8.21 1054.21 8.83 1054.32 C11.36 1055.11 12.06 1055.92 13.75 1057.94 C21.34 1065.89 32.31 1071.59 42.28 1075.96 C44 1077 44 1077 45 1080 C44.04 1080.19 44.04 1080.19 43.06 1080.38 C42.04 1080.68 42.04 1080.68 41 1081 C40.67 1081.66 40.34 1082.32 40 1083 C39.21 1081.88 39.21 1081.88 38.41 1080.74 C35.65 1077.6 33.06 1076.13 29.38 1074.19 C10.23 1063.69 -6.03 1045.4 -12.55 1024.22 C-13.11 1021.48 -13.13 1018.92 -13.13 1016.12 C-13.13 1014.91 -13.14 1013.7 -13.14 1012.45 C-13.14 1011.1 -13.14 1009.75 -13.13 1008.4 C-13.14 1006.97 -13.14 1005.53 -13.14 1004.09 C-13.15 1000.13 -13.15 996.16 -13.15 992.19 C-13.15 987.88 -13.15 983.57 -13.16 979.26 C-13.17 970.71 -13.17 962.15 -13.17 953.59 C-13.18 943.35 -13.19 933.11 -13.19 922.86 C-13.22 898.1 -13.23 873.34 -13.23 848.57 C-13.24 836.86 -13.24 825.15 -13.25 813.44 C-13.27 773.37 -13.28 733.3 -13.29 693.23 C-13.29 690.71 -13.29 688.2 -13.29 685.68 C-13.29 684.43 -13.29 683.19 -13.29 681.9 C-13.29 675.58 -13.29 669.26 -13.3 662.93 C-13.3 661.68 -13.3 660.42 -13.3 659.13 C-13.3 618.44 -13.33 577.74 -13.36 537.05 C-13.39 494.05 -13.41 451.04 -13.42 408.03 C-13.42 403.32 -13.42 398.6 -13.42 393.88 C-13.42 392.72 -13.42 391.55 -13.42 390.36 C-13.42 371.64 -13.44 352.92 -13.46 334.21 C-13.48 315.4 -13.48 296.59 -13.47 277.79 C-13.47 266.61 -13.47 255.43 -13.5 244.25 C-13.51 236.79 -13.51 229.33 -13.5 221.86 C-13.49 217.61 -13.49 213.35 -13.51 209.1 C-13.52 205.23 -13.52 201.36 -13.5 197.48 C-13.5 196.09 -13.5 194.7 -13.51 193.31 C-13.59 183.25 -12.4 174.49 -5.81 166.5 C-2.44 162.33 -1.87 160.24 -1.85 154.78 C-1.84 154.14 -1.84 153.49 -1.84 152.83 C-1.82 150.66 -1.82 148.49 -1.81 146.32 C-1.8 144.76 -1.79 143.21 -1.79 141.66 C-1.77 138.31 -1.75 134.97 -1.74 131.62 C-1.72 126.33 -1.69 121.04 -1.66 115.75 C-1.6 104.52 -1.55 93.29 -1.5 82.06 C-1.44 69.94 -1.39 57.83 -1.32 45.71 C-1.29 40.45 -1.27 35.19 -1.25 29.92 C-1.24 26.65 -1.22 23.38 -1.2 20.11 C-1.19 18.59 -1.19 17.08 -1.18 15.56 C-1.18 13.49 -1.17 11.42 -1.15 9.35 C-1.15 8.19 -1.14 7.03 -1.14 5.83 C-1 3 -1 3 0 0 Z " fill="#000100" transform="translate(240,145)"/>
<path d="M0 0 C0.33 0 0.66 0 1 0 C1.03 80.22 1.07 160.43 1.08 240.65 C1.08 241.84 1.09 243.02 1.09 244.25 C1.09 270.03 1.1 295.81 1.1 321.59 C1.1 334.24 1.11 346.88 1.11 359.52 C1.11 360.78 1.11 362.04 1.11 363.33 C1.12 404.14 1.13 444.96 1.15 485.77 C1.17 527.69 1.18 569.61 1.19 611.54 C1.19 617.45 1.19 623.37 1.19 629.28 C1.19 630.45 1.19 631.61 1.19 632.81 C1.19 651.59 1.2 670.36 1.21 689.13 C1.23 707.99 1.23 726.85 1.23 745.7 C1.23 756.92 1.23 768.13 1.24 779.35 C1.25 786.83 1.25 794.31 1.24 801.79 C1.24 806.06 1.24 810.33 1.25 814.59 C1.26 818.47 1.26 822.35 1.25 826.23 C1.25 827.63 1.25 829.03 1.25 830.43 C1.26 832.32 1.26 834.21 1.25 836.1 C1.25 837.15 1.25 838.2 1.25 839.29 C1 842.02 0.41 843.67 -1 846 C-2.33 843.34 -2.12 841.33 -2.12 838.35 C-2.13 837.14 -2.13 835.93 -2.13 834.68 C-2.13 833.32 -2.13 831.96 -2.12 830.6 C-2.12 829.17 -2.12 827.73 -2.13 826.29 C-2.13 822.3 -2.13 818.32 -2.12 814.34 C-2.12 810.01 -2.12 805.69 -2.12 801.37 C-2.12 793.78 -2.12 786.2 -2.12 778.61 C-2.11 767.33 -2.11 756.05 -2.11 744.77 C-2.12 725.8 -2.11 706.83 -2.11 687.85 C-2.1 669.06 -2.1 650.27 -2.09 631.47 C-2.09 630.31 -2.09 629.14 -2.09 627.94 C-2.09 622.01 -2.09 616.08 -2.09 610.15 C-2.09 568.14 -2.08 526.12 -2.08 484.11 C-2.07 443.28 -2.06 402.46 -2.05 361.63 C-2.05 360.37 -2.05 359.12 -2.05 357.82 C-2.05 345.19 -2.05 332.56 -2.05 319.93 C-2.05 294.2 -2.05 268.47 -2.04 242.74 C-2.04 241.55 -2.04 240.37 -2.04 239.15 C-2.03 160.1 -2.02 81.05 -2 2 C-1.34 2 -0.68 2 0 2 C0 1.34 0 0.68 0 0 Z " fill="#E2E2E0" transform="translate(232,322)"/>
<path d="M0 0 C2.2 -0.01 4.41 -0.04 6.61 -0.07 C8.01 -0.08 9.41 -0.08 10.81 -0.09 C12.08 -0.1 13.36 -0.11 14.67 -0.12 C17.84 0.24 17.84 0.24 19.78 1.76 C20.13 2.25 20.48 2.74 20.84 3.24 C20.51 3.57 20.18 3.9 19.84 4.24 C20.34 5.73 20.34 5.73 20.84 7.24 C20.73 9.2 20.53 11.16 20.29 13.12 C20.08 14.84 20.08 14.84 19.87 16.6 C19.71 17.8 19.56 19 19.41 20.24 C19.12 22.62 18.83 24.99 18.54 27.37 C18.4 28.42 18.27 29.47 18.14 30.56 C17.79 33.29 17.79 33.29 17.84 36.24 C87.8 36.24 157.76 36.24 229.84 36.24 C230.17 33.27 230.5 30.3 230.84 27.24 C230.18 27.24 229.52 27.24 228.84 27.24 C227.85 18.99 226.86 10.74 225.84 2.24 C227.82 3.23 227.82 3.23 229.84 4.24 C230.57 6.95 230.57 6.95 230.89 10.34 C231.08 12.16 231.08 12.16 231.26 14.01 C231.37 15.28 231.48 16.56 231.59 17.87 C231.72 19.14 231.84 20.42 231.97 21.74 C232.28 24.91 232.57 28.07 232.84 31.24 C235.89 32.26 238.19 32.44 241.39 32.56 C243 32.62 243 32.62 244.64 32.68 C245.76 32.72 246.88 32.76 248.03 32.8 C249.16 32.85 250.29 32.89 251.46 32.93 C254.25 33.04 257.05 33.14 259.84 33.24 C260.17 32.25 260.5 31.26 260.84 30.24 C260.97 30.8 261.09 31.35 261.22 31.93 C261.9 34.46 262.85 36.81 263.84 39.24 C228.57 39.14 193.3 39.03 158.03 38.91 C153.87 38.9 149.71 38.88 145.55 38.87 C144.72 38.87 143.9 38.86 143.04 38.86 C129.62 38.82 116.19 38.77 102.76 38.74 C88.99 38.7 75.23 38.65 61.46 38.6 C52.96 38.57 44.46 38.55 35.96 38.53 C30.13 38.51 24.31 38.49 18.49 38.47 C15.13 38.45 11.76 38.44 8.4 38.44 C4.76 38.43 1.12 38.41 -2.52 38.4 C-3.59 38.4 -4.67 38.4 -5.78 38.4 C-7.23 38.39 -7.23 38.39 -8.71 38.38 C-9.55 38.38 -10.39 38.37 -11.25 38.37 C-13.16 38.24 -13.16 38.24 -14.16 37.24 C-14.26 34.59 -14.29 31.96 -14.29 29.3 C-14.29 28.51 -14.29 27.71 -14.29 26.89 C-14.29 25.21 -14.29 23.52 -14.29 21.84 C-14.28 19.25 -14.29 16.66 -14.29 14.08 C-14.29 12.44 -14.29 10.81 -14.29 9.18 C-14.29 8.4 -14.29 7.62 -14.29 6.82 C-14.25 -2.65 -7.82 0.02 0 0 Z " fill="#989790" transform="translate(257.1552734375,272.759765625)"/>
<path d="M0 0 C5.11 -0.02 10.22 -0.04 15.33 -0.05 C17.07 -0.06 18.8 -0.07 20.54 -0.08 C23.04 -0.09 25.53 -0.09 28.03 -0.1 C28.81 -0.1 29.59 -0.11 30.4 -0.11 C32.27 -0.11 34.13 -0.06 36 0 C37 1 37 1 37.11 4.42 C37.11 5.94 37.11 7.45 37.1 8.97 C37.1 9.77 37.09 10.57 37.09 11.39 C37.09 13.95 37.08 16.5 37.06 19.06 C37.06 20.79 37.05 22.52 37.05 24.25 C37.04 28.5 37.02 32.75 37 37 C34 33.25 34 33.25 34 31 C33.67 31.66 33.34 32.32 33 33 C29.08 33.06 25.17 33.09 21.25 33.12 C20.14 33.14 19.03 33.16 17.88 33.18 C16.28 33.19 16.28 33.19 14.64 33.2 C13.66 33.21 12.67 33.22 11.66 33.23 C8.81 32.98 7.25 32.79 5 31 C4.3 28.36 4.3 28.36 4.02 25.04 C3.85 23.25 3.85 23.25 3.68 21.42 C3.58 20.17 3.48 18.92 3.38 17.62 C3.16 15.16 2.94 12.69 2.71 10.23 C2.62 9.13 2.53 8.03 2.44 6.9 C2.03 4.17 1.4 2.36 0 0 Z " fill="#989790" transform="translate(484,273)"/>
<path d="M0 0 C0.03 3.15 0.05 6.29 0.06 9.44 C0.07 10.34 0.08 11.23 0.09 12.16 C0.09 13.01 0.09 13.87 0.1 14.75 C0.1 15.54 0.11 16.33 0.11 17.14 C0 19 0 19 -1 20 C-3.18 20.17 -5.37 20.28 -7.56 20.38 C-26.43 21.4 -46.16 22.75 -63 32 C-63.33 32 -63.66 32 -64 32 C-64.05 32.64 -64.1 33.28 -64.15 33.93 C-64.22 34.76 -64.3 35.59 -64.38 36.44 C-64.44 37.26 -64.51 38.08 -64.59 38.93 C-64.79 39.96 -64.79 39.96 -65 41 C-65.99 41.5 -65.99 41.5 -67 42 C-67 32.43 -67 22.86 -67 13 C-66.34 12.67 -65.68 12.34 -65 12 C-64.67 13.98 -64.34 15.96 -64 18 C-63.67 18 -63.34 18 -63 18 C-63 19.65 -63 21.3 -63 23 C-61.82 22.57 -60.64 22.13 -59.42 21.69 C-57.86 21.12 -56.31 20.56 -54.75 20 C-53.97 19.71 -53.2 19.43 -52.39 19.13 C-51.64 18.86 -50.89 18.59 -50.11 18.31 C-49.42 18.06 -48.73 17.81 -48.01 17.55 C-46 17 -46 17 -42 17 C-41.67 16.01 -41.34 15.02 -41 14 C-40.24 13.88 -39.47 13.75 -38.69 13.62 C-35.8 13.12 -35.8 13.12 -33 11 C-29.35 9.6 -26.96 9 -23 9 C-23 8.34 -23 7.68 -23 7 C-21.35 6.67 -19.7 6.34 -18 6 C-18 5.34 -18 4.68 -18 4 C-17.2 3.88 -16.39 3.75 -15.56 3.62 C-14.72 3.42 -13.87 3.21 -13 3 C-12.67 2.34 -12.34 1.68 -12 1 C-8.01 -0.17 -4.13 -0.03 0 0 Z " fill="#7D8278" transform="translate(320,57)"/>
<path d="M0 0 C1.98 0.99 1.98 0.99 4 2 C4.73 4.71 4.73 4.71 5.05 8.1 C5.23 9.92 5.23 9.92 5.42 11.77 C5.53 13.04 5.64 14.32 5.75 15.62 C5.88 16.9 6 18.18 6.13 19.5 C6.44 22.67 6.73 25.83 7 29 C10.05 30.02 12.35 30.2 15.54 30.32 C17.15 30.38 17.15 30.38 18.79 30.44 C19.91 30.48 21.03 30.52 22.19 30.56 C23.32 30.61 24.45 30.65 25.62 30.69 C28.41 30.8 31.2 30.9 34 31 C34.33 30.01 34.66 29.02 35 28 C35.12 28.56 35.25 29.11 35.38 29.69 C36.06 32.22 37.01 34.57 38 37 C2.73 36.9 -32.54 36.79 -67.81 36.67 C-71.97 36.66 -76.13 36.64 -80.29 36.63 C-81.12 36.62 -81.95 36.62 -82.8 36.62 C-96.23 36.58 -109.66 36.53 -123.08 36.5 C-136.85 36.45 -150.62 36.41 -164.38 36.36 C-172.89 36.33 -181.39 36.31 -189.89 36.28 C-195.71 36.27 -201.53 36.25 -207.36 36.23 C-210.72 36.21 -214.08 36.2 -217.45 36.2 C-221.09 36.19 -224.73 36.17 -228.36 36.16 C-229.44 36.16 -230.51 36.16 -231.62 36.16 C-233.07 36.15 -233.07 36.15 -234.55 36.14 C-235.39 36.14 -236.23 36.13 -237.1 36.13 C-239 36 -239 36 -240 35 C-240.04 33.33 -240.04 31.67 -240 30 C-239.67 30.66 -239.34 31.32 -239 32 C-229.43 31.67 -219.86 31.34 -210 31 C-209.67 30.34 -209.34 29.68 -209 29 C-208.67 30.65 -208.34 32.3 -208 34 C-138.04 34 -68.08 34 4 34 C4.33 31.03 4.66 28.06 5 25 C4.34 25 3.68 25 3 25 C2.01 16.75 1.02 8.5 0 0 Z " fill="#7A7F75" transform="translate(483,275)"/>
<path d="M0 0 C3.84 -0.14 6.65 -0.05 10.12 1.62 C10.89 1.99 11.66 2.35 12.45 2.72 C14.28 3.64 16.11 4.58 17.93 5.53 C23.98 8.67 29.27 10.88 36 12 C36 12.66 36 13.32 36 14 C36.66 14 37.32 14 38 14 C38 14.66 38 15.32 38 16 C38.85 16.12 39.69 16.25 40.56 16.38 C44.15 17.03 47.51 17.95 51 19 C51 19.66 51 20.32 51 21 C54.3 21.33 57.6 21.66 61 22 C61.14 21.28 61.29 20.56 61.44 19.81 C61.96 17.21 62.48 14.6 63 12 C63.99 12 64.98 12 66 12 C66 18.6 66 25.2 66 32 C65.01 32.5 65.01 32.5 64 33 C62.17 32.16 60.39 31.22 58.62 30.25 C42.17 21.86 22.02 20.99 3.79 20.21 C1 20 1 20 0 19 C-0.09 17.58 -0.11 16.16 -0.1 14.75 C-0.09 13.89 -0.09 13.04 -0.09 12.16 C-0.08 11.26 -0.07 10.36 -0.06 9.44 C-0.06 8.54 -0.05 7.63 -0.05 6.71 C-0.04 4.47 -0.02 2.24 0 0 Z " fill="#787D73" transform="translate(443,57)"/>
<path d="M0 0 C11.35 -0.16 22.71 -0.29 34.06 -0.36 C39.33 -0.4 44.6 -0.45 49.87 -0.53 C54.96 -0.6 60.05 -0.65 65.14 -0.66 C67.08 -0.68 69.02 -0.7 70.96 -0.74 C73.69 -0.79 76.4 -0.8 79.13 -0.79 C79.92 -0.82 80.72 -0.85 81.54 -0.87 C86.23 -0.81 88.51 0.02 91.87 3.36 C92.92 4.56 93.97 5.78 95 7 C95.54 7.41 96.08 7.81 96.63 8.23 C98 10 98 10 99 18 C114.84 18 130.68 18 147 18 C146 20 146 20 143.47 21.11 C139.45 22.14 135.65 22.31 131.53 22.3 C130.33 22.31 130.33 22.31 129.11 22.31 C127.43 22.32 125.75 22.32 124.07 22.32 C121.51 22.31 118.95 22.34 116.39 22.36 C114.75 22.36 113.11 22.36 111.47 22.36 C110.71 22.37 109.95 22.38 109.17 22.39 C104.37 22.35 101.08 21.55 97 19 C95.31 16.88 95.31 16.88 94 14.56 C90.81 9.41 87.83 6.94 82 5 C79.61 4.89 77.21 4.84 74.81 4.82 C74.08 4.82 73.35 4.81 72.6 4.8 C70.19 4.78 67.78 4.77 65.36 4.76 C64.54 4.76 63.71 4.75 62.86 4.75 C58.49 4.73 54.12 4.71 49.74 4.7 C45.24 4.69 40.73 4.66 36.23 4.62 C32.76 4.59 29.28 4.59 25.81 4.58 C24.15 4.58 22.49 4.57 20.83 4.55 C8.81 4.25 8.81 4.25 -2 9 C-4.29 11.36 -4.29 11.36 -6 14 C-7.33 15.67 -8.67 17.33 -10 19 C-10.46 16.22 -10.68 14.68 -10 12 C-8.15 9.72 -6.15 7.83 -3.95 5.89 C-2 4 -1.14 2.43 0 0 Z " fill="#000100" transform="translate(340,1210)"/>
<path d="M0 0 C3.25 0.11 6.5 0.2 9.75 0.29 C13.54 0.38 17.33 0.52 21.11 0.68 C22.5 0.73 23.89 0.77 25.27 0.8 C35.79 1.04 35.79 1.04 38.63 3.74 C39.76 5.68 39.76 5.68 40.9 9.1 C32.94 9.34 26 9.29 18.58 6.1 C8.81 2.45 -2.48 2.78 -12.77 2.68 C-14.14 2.66 -15.52 2.64 -16.89 2.62 C-20.49 2.57 -24.08 2.53 -27.67 2.5 C-30.54 2.46 -33.4 2.42 -36.26 2.38 C-62.37 2.02 -88.48 1.98 -114.59 2.36 C-117.07 2.39 -119.56 2.42 -122.04 2.44 C-144.53 2.42 -144.53 2.42 -166.1 8.1 C-171.71 9.43 -177.36 9.19 -183.1 9.1 C-181.99 6.01 -181.37 4.37 -179.1 2.1 C-175.03 0.86 -170.95 0.86 -166.72 0.76 C-164.81 0.67 -164.81 0.67 -162.86 0.58 C-159.35 0.43 -155.83 0.32 -152.32 0.22 C-150.08 0.16 -147.85 0.08 -145.62 0 C-97.1 -1.77 -48.52 -1.62 0 0 Z " fill="#797E74" transform="translate(452.09637451171875,87.90325927734375)"/>
<path d="M0 0 C0 0.99 0 1.98 0 3 C-69.96 3 -139.92 3 -212 3 C-212 2.01 -212 1.02 -212 0 C-184.8 -0.15 -157.6 -0.3 -130.4 -0.44 C-117.78 -0.51 -105.15 -0.58 -92.52 -0.65 C-81.52 -0.71 -70.51 -0.77 -59.51 -0.83 C-53.68 -0.85 -47.85 -0.89 -42.02 -0.92 C-36.54 -0.95 -31.06 -0.98 -25.58 -1.01 C-23.56 -1.02 -21.55 -1.03 -19.53 -1.04 C-16.78 -1.06 -14.04 -1.07 -11.3 -1.08 C-10.49 -1.09 -9.69 -1.1 -8.86 -1.1 C-5.63 -1.11 -3.08 -1.03 0 0 Z " fill="#999891" transform="translate(487,306)"/>
<path d="M0 0 C-0.66 0.99 -1.32 1.98 -2 3 C-1.98 4.11 -1.96 5.23 -1.94 6.38 C-2.02 11.25 -3.62 13.62 -7 17 C-9.67 17.48 -12.25 17.84 -14.94 18.12 C-15.7 18.21 -16.47 18.29 -17.25 18.38 C-32.23 19.94 -32.23 19.94 -39 18 C-39 17.34 -39 16.68 -39 16 C-38.34 16 -37.68 16 -37 16 C-37 15.34 -37 14.68 -37 14 C-32.28 10.67 -27.77 9 -22 9 C-22 8.34 -22 7.68 -22 7 C-20.35 6.67 -18.7 6.34 -17 6 C-17 5.34 -17 4.68 -17 4 C-16.2 3.88 -15.39 3.75 -14.56 3.62 C-13.72 3.42 -12.87 3.21 -12 3 C-11.67 2.34 -11.34 1.68 -11 1 C-7.32 -0.05 -3.81 -0.09 0 0 Z " fill="#999991" transform="translate(319,57)"/>
<path d="M0 0 C6.35 0.65 11.22 2.54 16.79 5.46 C22.88 8.63 28.22 10.87 35 12 C35 12.66 35 13.32 35 14 C35.66 14 36.32 14 37 14 C37 14.66 37 15.32 37 16 C37.91 16.1 38.81 16.21 39.75 16.31 C43.02 17 44.54 17.82 47 20 C44.11 20.07 41.44 20.09 38.6 19.5 C35.99 19 33.71 18.93 31.06 19 C9.36 19.18 9.36 19.18 3.69 13.81 C1.57 10.28 1.62 8.06 2 4 C2.33 3.01 2.66 2.02 3 1 C2.01 0.67 1.02 0.34 0 0 Z " fill="#97978F" transform="translate(444,57)"/>
<path d="M0 0 C1.98 0.99 1.98 0.99 4 2 C4.73 4.71 4.73 4.71 5.05 8.1 C5.23 9.92 5.23 9.92 5.42 11.77 C5.58 13.68 5.58 13.68 5.75 15.62 C5.88 16.9 6 18.18 6.13 19.5 C6.44 22.67 6.73 25.83 7 29 C10.05 30.02 12.35 30.2 15.54 30.32 C16.62 30.36 17.69 30.4 18.79 30.44 C19.91 30.48 21.03 30.52 22.19 30.56 C23.32 30.61 24.45 30.65 25.62 30.69 C28.41 30.8 31.2 30.9 34 31 C34.5 29.51 34.5 29.51 35 28 C35.19 28.84 35.19 28.84 35.38 29.69 C36.06 32.22 37.01 34.57 38 37 C33.05 36.91 28.1 36.8 23.16 36.68 C21.47 36.64 19.79 36.61 18.1 36.58 C15.69 36.53 13.27 36.47 10.85 36.41 C10.1 36.4 9.34 36.39 8.56 36.38 C3.23 36.23 3.23 36.23 1 34 C1.99 34 2.98 34 4 34 C4.5 29.55 4.5 29.55 5 25 C4.34 25 3.68 25 3 25 C2.01 16.75 1.02 8.5 0 0 Z " fill="#73786E" transform="translate(483,275)"/>
<path d="M0 0 C0.57 0.03 1.13 0.06 1.71 0.09 C25.05 1.21 48.38 1.22 71.74 1.3 C77.5 1.33 83.25 1.35 89.01 1.38 C99.87 1.43 110.73 1.47 121.58 1.52 C133.96 1.57 146.34 1.62 158.72 1.68 C184.15 1.79 209.57 1.9 235 2 C235 2.33 235 2.66 235 3 C157.78 3 80.56 3 1 3 C0.67 2.01 0.34 1.02 0 0 Z " fill="#41413C" transform="translate(243,308)"/>
<path d="M0 0 C84.81 0 169.62 0 257 0 C257 0.33 257 0.66 257 1 C172.19 1 87.38 1 0 1 C0 0.67 0 0.34 0 0 Z " fill="#FBFDFD" transform="translate(253,107)"/>
<path d="M0 0 C5.21 -0.02 10.42 -0.04 15.63 -0.05 C17.4 -0.06 19.17 -0.07 20.93 -0.08 C39.77 -0.17 39.77 -0.17 49 1 C45.24 4.76 40.85 4.18 35.86 4.2 C35.06 4.21 34.26 4.21 33.43 4.22 C31.74 4.23 30.04 4.24 28.35 4.24 C25.77 4.25 23.2 4.28 20.62 4.31 C18.97 4.32 17.32 4.32 15.67 4.33 C14.91 4.34 14.14 4.35 13.36 4.37 C8.19 4.34 4.63 3.32 0 1 C0 0.67 0 0.34 0 0 Z " fill="#000100" transform="translate(281,1228)"/>
<path d="M0 0 C2.15 3.22 2.34 4.56 2.63 8.32 C2.72 9.35 2.8 10.38 2.89 11.44 C2.97 12.51 3.04 13.58 3.12 14.69 C3.21 15.77 3.3 16.85 3.39 17.97 C3.6 20.65 3.8 23.32 4 26 C11.91 27.4 19.91 27.34 27.92 27.52 C29.06 27.55 30.19 27.59 31.36 27.62 C32.4 27.65 33.43 27.67 34.5 27.7 C37 28 37 28 39 30 C34.05 30.17 29.1 30.33 24.16 30.48 C22.47 30.54 20.79 30.59 19.1 30.65 C16.69 30.73 14.27 30.81 11.85 30.88 C11.1 30.91 10.34 30.93 9.56 30.96 C4.23 31.11 4.23 31.11 2 30 C0.08 23.17 -0.25 15.87 -0.69 8.81 C-0.76 7.68 -0.76 7.68 -0.83 6.53 C-0.93 4.69 -0.97 2.84 -1 1 C-0.67 0.67 -0.34 0.34 0 0 Z " fill="#255F29" transform="translate(481,243)"/>
<path d="M0 0 C0.33 0 0.66 0 1 0 C6.53 33.27 6.53 33.27 6 50 C4.42 47.14 3.64 44.7 3.18 41.47 C3.06 40.6 2.94 39.74 2.81 38.84 C2.62 37.47 2.62 37.47 2.44 36.06 C2.31 35.12 2.18 34.18 2.05 33.2 C0.56 22.11 -0.18 11.2 0 0 Z " fill="#2D6B31" transform="translate(467,120)"/>
<path d="M0 0 C1 3 1 3 0 7 C-11.55 7 -23.1 7 -35 7 C-34.67 6.01 -34.34 5.02 -34 4 C-32.92 3.97 -32.92 3.97 -31.82 3.94 C-28.52 3.84 -25.23 3.73 -21.94 3.62 C-20.8 3.59 -19.67 3.56 -18.5 3.53 C-11.88 3.3 -6.01 3 0 0 Z " fill="#246028" transform="translate(278,267)"/>
<path d="M0 0 C1.98 0.99 1.98 0.99 4 2 C4.64 4.79 5.02 7.24 5.25 10.06 C5.33 10.83 5.4 11.6 5.48 12.38 C5.97 17.6 6.19 22.76 6 28 C5.67 27.01 5.34 26.02 5 25 C4.34 25 3.68 25 3 25 C2.01 16.75 1.02 8.5 0 0 Z " fill="#797E74" transform="translate(483,275)"/>
<path d="M0 0 C0.33 0 0.66 0 1 0 C1.97 9.67 2.5 19.35 1 29 C0.34 29.33 -0.32 29.66 -1 30 C-1.02 25.89 -1.04 21.78 -1.05 17.66 C-1.06 16.27 -1.07 14.87 -1.08 13.47 C-1.09 11.46 -1.09 9.45 -1.1 7.44 C-1.1 6.23 -1.11 5.02 -1.11 3.78 C-1 1 -1 1 0 0 Z " fill="#858780" transform="translate(254,69)"/>
<path d="M0 0 C0.98 0.05 1.97 0.1 2.98 0.15 C4.51 0.23 4.51 0.23 6.08 0.32 C7.12 0.37 8.15 0.42 9.22 0.47 C11.78 0.6 14.34 0.74 16.89 0.88 C17.22 1.54 17.55 2.2 17.89 2.88 C13.94 2.94 9.98 2.97 6.02 3 C4.89 3.02 3.76 3.04 2.6 3.05 C0.99 3.06 0.99 3.06 -0.66 3.07 C-2.15 3.09 -2.15 3.09 -3.68 3.11 C-6.11 2.88 -6.11 2.88 -8.11 0.88 C-5.02 -0.15 -3.21 -0.17 0 0 Z " fill="#41413C" transform="translate(492.10546875,308.12109375)"/>
<path d="M0 0 C0.66 0.33 1.32 0.66 2 1 C2 5.95 2 10.9 2 16 C1.34 16.33 0.68 16.66 0 17 C-1.43 14.15 -1.13 11.68 -1.12 8.5 C-1.13 7.33 -1.13 6.17 -1.13 4.97 C-1 2 -1 2 0 0 Z " fill="#B7B7AD" transform="translate(241,273)"/>
<path d="M0 0 C0.33 0 0.66 0 1 0 C2.61 8.09 3.26 15.76 3 24 C2.67 24 2.34 24 2 24 C2 22.35 2 20.7 2 19 C1.34 19 0.68 19 0 19 C-0.2 16.77 -0.38 14.54 -0.56 12.31 C-0.67 11.07 -0.77 9.83 -0.88 8.55 C-0.98 5.44 -0.77 2.99 0 0 Z " fill="#27602B" transform="translate(473,171)"/>
<path d="M0 0 C0.33 0 0.66 0 1 0 C1.54 3.06 2.05 6.12 2.56 9.19 C2.71 10.05 2.87 10.92 3.02 11.81 C4.33 19.75 4.33 19.75 3 24 C2.34 24 1.68 24 1 24 C0.2 15.97 -0.13 8.06 0 0 Z " fill="#28652C" transform="translate(467,120)"/>
<path d="M0 0 C0.33 0 0.66 0 1 0 C1 11.88 1 23.76 1 36 C-2 32 -2 32 -2 28 C-1.34 28 -0.68 28 0 28 C0 18.76 0 9.52 0 0 Z " fill="#D7D5D2" transform="translate(520,274)"/>
<path d="M0 0 C2.17 3.25 2.24 4.13 2.2 7.89 C2.19 8.82 2.18 9.76 2.18 10.73 C2.16 11.7 2.14 12.68 2.12 13.69 C2.12 14.68 2.11 15.66 2.1 16.68 C2.07 19.12 2.04 21.56 2 24 C1.67 24 1.34 24 1 24 C0.63 20.75 0.28 17.5 -0.06 14.25 C-0.17 13.33 -0.27 12.41 -0.38 11.46 C-0.47 10.57 -0.56 9.68 -0.66 8.77 C-0.75 7.95 -0.84 7.13 -0.93 6.29 C-1 3.98 -0.67 2.2 0 0 Z " fill="#2A692F" transform="translate(481,243)"/>
<path d="M0 0 C0.99 0 1.98 0 3 0 C3 4.29 3 8.58 3 13 C2.34 13 1.68 13 1 13 C0.67 12.01 0.34 11.02 0 10 C-0.66 10 -1.32 10 -2 10 C-1.33 6.67 -0.67 3.33 0 0 Z " fill="#51524C" transform="translate(506,69)"/>
<path d="M0 0 C0.66 0.33 1.32 0.66 2 1 C-2.95 5.95 -7.9 10.9 -13 16 C-13 13 -13 13 -11 10 C-10.34 10 -9.68 10 -9 10 C-8.67 9.01 -8.34 8.02 -8 7 C-7.34 7 -6.68 7 -6 7 C-6 6.34 -6 5.68 -6 5 C-4.04 3.29 -2.04 1.62 0 0 Z " fill="#143717" transform="translate(261,120)"/>
<path d="M0 0 C0.33 0 0.66 0 1 0 C1.33 4.29 1.66 8.58 2 13 C1.67 12.34 1.34 11.68 1 11 C0.34 11 -0.32 11 -1 11 C-1.27 10.38 -1.54 9.76 -1.81 9.12 C-2.96 6.7 -2.96 6.7 -6 5 C-5.2 4.73 -4.39 4.46 -3.56 4.19 C-2.72 3.8 -1.87 3.4 -1 3 C-0.67 2.01 -0.34 1.02 0 0 Z " fill="#9D9D95" transform="translate(506,75)"/>
<path d="M0 0 C1.13 0.02 2.27 0.04 3.44 0.06 C3.44 0.72 3.44 1.38 3.44 2.06 C4.43 2.39 5.42 2.72 6.44 3.06 C0.5 3.06 -5.44 3.06 -11.56 3.06 C-11.56 2.73 -11.56 2.4 -11.56 2.06 C-10.43 1.92 -9.29 1.77 -8.12 1.62 C-4.14 1 -4.03 0.07 0 0 Z " fill="#B2B4A8" transform="translate(478.5625,1222.9375)"/>
<path d="M0 0 C0.33 0 0.66 0 1 0 C2.07 6.03 2.1 11.89 2 18 C-0.83 12.34 -1.76 7.82 -0.5 1.5 C-0.33 1 -0.17 0.51 0 0 Z " fill="#2A592C" transform="translate(479,222)"/>
<path d="M0 0 C0 5.61 0 11.22 0 17 C-0.33 17 -0.66 17 -1 17 C-1 14.03 -1 11.06 -1 8 C-1.66 8 -2.32 8 -3 8 C-3 5.69 -3 3.38 -3 1 C-1 0 -1 0 0 0 Z " fill="#D7D5D2" transform="translate(243,289)"/>
<path d="M0 0 C3.22 1.41 5.32 3.1 7.75 5.62 C8.67 6.57 8.67 6.57 9.61 7.54 C10.3 8.26 10.3 8.26 11 9 C10.01 9.33 9.02 9.66 8 10 C6.66 8.71 5.33 7.42 4 6.12 C2.89 5.05 2.89 5.05 1.75 3.95 C0 2 0 2 0 0 Z " fill="#C0C1B7" transform="translate(249,1197)"/>
<path d="M0 0 C2 2 2 2 2 6 C-4.15 5.41 -4.15 5.41 -6 5 C-6.33 4.34 -6.66 3.68 -7 3 C-3.54 2.5 -3.54 2.5 0 2 C0 1.34 0 0.68 0 0 Z " fill="#777B72" transform="translate(273,304)"/>
<path d="M0 0 C1.98 3.27 2.17 5.41 1.75 9.19 C1.66 10.07 1.57 10.95 1.48 11.86 C1.32 12.56 1.16 13.27 1 14 C0.01 14.5 0.01 14.5 -1 15 C-1.03 12.69 -1.05 10.38 -1.06 8.06 C-1.07 6.77 -1.09 5.49 -1.1 4.16 C-1 1 -1 1 0 0 Z " fill="#638262" transform="translate(254,84)"/>
<path d="M0 0 C0.33 0 0.66 0 1 0 C1.96 4 2.1 7.71 2.06 11.81 C2.05 12.97 2.04 14.14 2.04 15.33 C2.02 16.21 2.01 17.09 2 18 C1.67 18 1.34 18 1 18 C0.64 15.56 0.28 13.13 -0.06 10.69 C-0.22 9.65 -0.22 9.65 -0.38 8.6 C-0.84 5.3 -1.07 3.2 0 0 Z " fill="#2A5D2D" transform="translate(476,197)"/>
<path d="M0 0 C0.33 0 0.66 0 1 0 C1 2.97 1 5.94 1 9 C0.67 9 0.34 9 0 9 C0 6.03 0 3.06 0 0 Z " fill="#000100" transform="translate(512,67)"/>
<path d="M0 0 C0.33 0 0.66 0 1 0 C1 1.98 1 3.96 1 6 C0.67 6 0.34 6 0 6 C0 4.02 0 2.04 0 0 Z " fill="#000100" transform="translate(511,90)"/>
<path d="M0 0 C0.99 0.5 0.99 0.5 2 1 C1.67 1.99 1.34 2.98 1 4 C0.67 2.68 0.34 1.36 0 0 Z " fill="#000100" transform="translate(516,136)"/>
<path d="M0 0 C0.66 0 1.32 0 2 0 C1.67 0.66 1.34 1.32 1 2 C0.67 1.34 0.34 0.68 0 0 Z " fill="#000100" transform="translate(518,140)"/>
<path d="M0 0 C0.66 0 1.32 0 2 0 C1.67 0.66 1.34 1.32 1 2 C0.67 1.34 0.34 0.68 0 0 Z " fill="#000100" transform="translate(511,130)"/>
<path d="" fill="#000100" transform="translate(0,0)"/>
<path d="" fill="#000100" transform="translate(0,0)"/>
<path d="" fill="#000100" transform="translate(0,0)"/>
<path d="" fill="#000100" transform="translate(0,0)"/>
<path d="" fill="#000100" transform="translate(0,0)"/>
<path d="" fill="#000100" transform="translate(0,0)"/>
<path d="" fill="#41413C" transform="translate(0,0)"/>
<path d="" fill="#000100" transform="translate(0,0)"/>
<path d="" fill="#000100" transform="translate(0,0)"/>
<path d="" fill="#000100" transform="translate(0,0)"/>
</svg>
