<?xml version="1.0" encoding="UTF-8"?>
<!-- Generator: visioncortex VTracer 0.6.3 -->
<svg version="1.1" xmlns="http://www.w3.org/2000/svg" width="768" height="1280">
<path d="M0 0 C0.89 -0 1.79 -0 2.71 -0.01 C5.7 -0.01 8.69 -0.01 11.69 -0.01 C13.83 -0.01 15.98 -0.02 18.13 -0.02 C23.95 -0.03 29.78 -0.03 35.61 -0.03 C40.48 -0.03 45.34 -0.04 50.21 -0.04 C61.69 -0.05 73.17 -0.05 84.65 -0.05 C96.49 -0.05 108.33 -0.06 120.17 -0.08 C130.34 -0.09 140.51 -0.1 150.68 -0.1 C156.75 -0.09 162.82 -0.1 168.9 -0.11 C174.61 -0.12 180.32 -0.12 186.03 -0.11 C188.12 -0.11 190.22 -0.11 192.31 -0.12 C195.17 -0.13 198.03 -0.12 200.9 -0.11 C201.72 -0.12 202.55 -0.12 203.4 -0.13 C210.04 -0.09 215.81 0.65 221.01 5.13 C223.89 7.33 223.89 7.33 227.01 9.13 C227.01 9.79 227.01 10.45 227.01 11.13 C227.67 11.13 228.33 11.13 229.01 11.13 C229.19 12.01 229.19 12.01 229.37 12.9 C230.04 15.25 230.93 16.8 232.3 18.81 C232.74 19.47 233.19 20.13 233.65 20.82 C234.12 21.5 234.59 22.18 235.07 22.88 C235.55 23.58 236.02 24.28 236.51 25 C237.67 26.71 238.84 28.42 240.01 30.13 C240.67 29.8 241.33 29.47 242.01 29.13 C242.74 33.72 243.14 38.11 243.14 42.75 C243.14 44.04 243.14 45.33 243.14 46.66 C243.14 48.07 243.14 49.48 243.14 50.89 C243.14 52.39 243.14 53.89 243.14 55.39 C243.15 58.62 243.15 61.84 243.15 65.06 C243.15 70.15 243.16 75.24 243.18 80.34 C243.18 81.2 243.18 82.06 243.19 82.94 C243.19 84.7 243.2 86.46 243.2 88.22 C243.24 100.07 243.26 111.92 243.26 123.77 C243.26 131.78 243.28 139.78 243.31 147.79 C243.33 152.02 243.34 156.25 243.33 160.48 C243.32 164.46 243.33 168.44 243.36 172.42 C243.36 173.88 243.36 175.33 243.35 176.79 C243.34 178.79 243.36 180.78 243.38 182.77 C243.38 183.89 243.38 185 243.38 186.15 C244.21 190.09 245.97 191.59 249.01 194.13 C249.71 194.47 250.41 194.8 251.12 195.14 C253.8 196.55 254.7 198.42 256.2 201.01 C256.71 201.87 257.22 202.74 257.74 203.63 C259.86 207.82 260.14 211.33 260.14 216.01 C260.14 217.22 260.15 218.43 260.15 219.68 C260.15 221.03 260.15 222.38 260.15 223.73 C260.15 225.16 260.15 226.6 260.15 228.04 C260.16 232 260.16 235.97 260.16 239.94 C260.16 244.25 260.16 248.55 260.17 252.86 C260.18 261.42 260.18 269.97 260.19 278.52 C260.19 288.77 260.2 299.01 260.21 309.25 C260.23 334.01 260.24 358.77 260.25 383.53 C260.25 395.23 260.26 406.94 260.26 418.65 C260.28 458.72 260.29 498.78 260.3 538.85 C260.3 541.37 260.3 543.88 260.3 546.4 C260.3 547.65 260.3 548.89 260.3 550.18 C260.3 556.5 260.31 562.82 260.31 569.15 C260.31 570.4 260.31 571.65 260.31 572.95 C260.32 613.63 260.34 654.32 260.37 695.01 C260.41 738.01 260.43 781.01 260.43 824 C260.43 828.72 260.43 833.44 260.43 838.16 C260.43 839.32 260.43 840.48 260.43 841.68 C260.43 860.39 260.45 879.11 260.47 897.82 C260.49 916.63 260.49 935.43 260.49 954.23 C260.48 965.41 260.49 976.58 260.51 987.76 C260.52 995.22 260.52 1002.68 260.51 1010.15 C260.5 1014.4 260.5 1018.66 260.52 1022.91 C260.53 1026.78 260.53 1030.65 260.51 1034.53 C260.51 1036.57 260.52 1038.61 260.54 1040.65 C260.39 1060.37 248.72 1077.08 235.51 1091.01 C229.61 1096.59 222.76 1100.75 215.7 1104.7 C212.26 1106.65 209.53 1108.28 207.14 1111.45 C204.52 1114.76 203.08 1115.12 199.01 1116.13 C196.15 1116.33 193.4 1116.44 190.54 1116.43 C189.34 1116.44 189.34 1116.44 188.12 1116.45 C186.44 1116.45 184.76 1116.45 183.08 1116.45 C180.52 1116.45 177.96 1116.47 175.4 1116.5 C173.76 1116.5 172.12 1116.5 170.48 1116.5 C169.72 1116.51 168.96 1116.52 168.18 1116.52 C163.38 1116.48 160.09 1115.68 156.01 1113.13 C154.32 1111.01 154.32 1111.01 153.01 1108.7 C149.82 1103.54 146.84 1101.08 141.01 1099.13 C138.62 1099.02 136.22 1098.97 133.82 1098.96 C133.09 1098.95 132.36 1098.94 131.61 1098.94 C129.2 1098.92 126.79 1098.91 124.37 1098.9 C123.55 1098.89 122.72 1098.89 121.87 1098.88 C117.5 1098.86 113.13 1098.85 108.75 1098.84 C104.25 1098.83 99.75 1098.79 95.24 1098.75 C91.77 1098.73 88.29 1098.72 84.82 1098.72 C83.16 1098.71 81.5 1098.7 79.84 1098.68 C67.82 1098.39 67.82 1098.39 57.01 1103.13 C54.57 1105.71 52.92 1108.29 51.07 1111.32 C48.71 1114.55 47.79 1115.03 44.01 1116.13 C41.2 1116.33 38.49 1116.44 35.68 1116.43 C34.88 1116.44 34.08 1116.44 33.26 1116.45 C31.58 1116.45 29.89 1116.45 28.21 1116.45 C25.65 1116.45 23.09 1116.47 20.53 1116.5 C18.89 1116.5 17.25 1116.5 15.61 1116.5 C14.86 1116.51 14.1 1116.52 13.32 1116.52 C8.17 1116.48 4.58 1115.57 0.01 1113.13 C-1.68 1111.16 -3.35 1109.15 -4.99 1107.13 C-8.18 1105.02 -8.18 1105.02 -11.68 1103.26 C-30.81 1092.83 -47.04 1074.48 -53.54 1053.36 C-54.09 1050.61 -54.12 1048.06 -54.12 1045.26 C-54.12 1044.04 -54.12 1042.83 -54.13 1041.58 C-54.13 1040.23 -54.12 1038.88 -54.12 1037.54 C-54.12 1036.1 -54.13 1034.66 -54.13 1033.23 C-54.14 1029.26 -54.14 1025.29 -54.14 1021.32 C-54.14 1017.01 -54.14 1012.71 -54.15 1008.4 C-54.16 999.84 -54.16 991.28 -54.16 982.73 C-54.17 972.48 -54.17 962.24 -54.18 952 C-54.2 927.23 -54.21 902.47 -54.22 877.71 C-54.23 866 -54.23 854.29 -54.24 842.58 C-54.26 802.51 -54.27 762.44 -54.28 722.36 C-54.28 719.85 -54.28 717.33 -54.28 714.82 C-54.28 713.57 -54.28 712.32 -54.28 711.03 C-54.28 704.71 -54.28 698.39 -54.28 692.07 C-54.28 690.81 -54.28 689.56 -54.28 688.27 C-54.29 647.57 -54.32 606.88 -54.35 566.18 C-54.38 523.18 -54.4 480.17 -54.41 437.17 C-54.41 432.45 -54.41 427.73 -54.41 423.01 C-54.41 421.85 -54.41 420.69 -54.41 419.49 C-54.41 400.77 -54.43 382.06 -54.45 363.34 C-54.47 344.53 -54.47 325.73 -54.46 306.92 C-54.46 295.74 -54.46 284.57 -54.48 273.39 C-54.5 265.92 -54.5 258.46 -54.48 251 C-54.48 246.74 -54.48 242.49 -54.49 238.23 C-54.51 234.36 -54.51 230.49 -54.49 226.62 C-54.49 225.23 -54.49 223.84 -54.5 222.45 C-54.57 212.39 -53.39 203.62 -46.8 195.63 C-43.43 191.47 -42.86 189.4 -42.86 183.95 C-42.86 183.31 -42.85 182.67 -42.85 182.01 C-42.84 179.85 -42.85 177.69 -42.85 175.53 C-42.84 173.99 -42.84 172.44 -42.84 170.9 C-42.83 167.57 -42.82 164.24 -42.82 160.91 C-42.81 155.64 -42.8 150.37 -42.78 145.1 C-42.77 143.29 -42.77 141.49 -42.76 139.68 C-42.76 138.78 -42.75 137.88 -42.75 136.95 C-42.71 124.68 -42.67 112.4 -42.66 100.13 C-42.65 91.86 -42.63 83.59 -42.59 75.31 C-42.57 70.93 -42.56 66.56 -42.57 62.18 C-42.57 58.06 -42.56 53.94 -42.53 49.81 C-42.52 48.3 -42.52 46.79 -42.53 45.29 C-42.56 37.34 -42.42 30.98 -37.99 24.13 C-37.33 24.13 -36.67 24.13 -35.99 24.13 C-35.86 23.33 -35.86 23.33 -35.74 22.51 C-34.71 19.26 -33.02 16.85 -30.99 14.13 C-30.33 14.13 -29.67 14.13 -28.99 14.13 C-28.66 13.14 -28.33 12.15 -27.99 11.13 C-27.33 11.13 -26.67 11.13 -25.99 11.13 C-25.99 10.47 -25.99 9.81 -25.99 9.13 C-24.34 7.7 -24.34 7.7 -22.18 6.13 C-21.47 5.62 -20.76 5.1 -20.03 4.57 C-13.5 -0.02 -7.74 -0.01 0 0 Z M240.01 36.13 C241.01 39.13 241.01 39.13 241.01 39.13 Z M240.01 147.13 C241.01 150.13 241.01 150.13 241.01 150.13 Z M240.01 162.13 C241.01 164.13 241.01 164.13 241.01 164.13 Z M240.01 185.13 C241.01 187.13 241.01 187.13 241.01 187.13 Z M255.01 205.13 C256.01 208.13 256.01 208.13 256.01 208.13 Z M256.01 208.13 C256.01 209.78 256.01 211.43 256.01 213.13 C256.34 213.13 256.67 213.13 257.01 213.13 C257.01 211.48 257.01 209.83 257.01 208.13 C256.68 208.13 256.35 208.13 256.01 208.13 Z M256.01 1047.13 C256.01 1049.11 256.01 1051.09 256.01 1053.13 C256.34 1053.13 256.67 1053.13 257.01 1053.13 C257.01 1051.15 257.01 1049.17 257.01 1047.13 C256.68 1047.13 256.35 1047.13 256.01 1047.13 Z M255.01 1054.13 C254.68 1055.45 254.35 1056.77 254.01 1058.13 C254.67 1056.81 255.33 1055.49 256.01 1054.13 C255.68 1054.13 255.35 1054.13 255.01 1054.13 Z M253.01 1058.13 C252.35 1059.78 251.69 1061.43 251.01 1063.13 C252 1062.47 252.99 1061.81 254.01 1061.13 C253.68 1060.14 253.35 1059.15 253.01 1058.13 Z M250.01 1064.13 C248.03 1067.1 248.03 1067.1 246.01 1070.13 C246.34 1070.79 246.67 1071.45 247.01 1072.13 C248.33 1070.15 249.65 1068.17 251.01 1066.13 C250.68 1065.47 250.35 1064.81 250.01 1064.13 Z M245.01 1072.13 C244.39 1072.98 243.78 1073.82 243.14 1074.7 C236.17 1084.09 228.72 1091.52 219.01 1098.13 C219.67 1098.46 220.33 1098.79 221.01 1099.13 C230.88 1091.93 239.52 1084.68 246.01 1074.13 C245.68 1073.47 245.35 1072.81 245.01 1072.13 Z M56.01 1097.13 C53.7 1099.44 51.39 1101.75 49.01 1104.13 C49.34 1104.79 49.67 1105.45 50.01 1106.13 C52.65 1103.49 55.29 1100.85 58.01 1098.13 C57.35 1097.8 56.69 1097.47 56.01 1097.13 Z M214.01 1100.13 C214.34 1100.79 214.67 1101.45 215.01 1102.13 C215.34 1101.47 215.67 1100.81 216.01 1100.13 C215.35 1100.13 214.69 1100.13 214.01 1100.13 Z M210.01 1102.13 C209.68 1102.79 209.35 1103.45 209.01 1104.13 C210.33 1103.47 211.65 1102.81 213.01 1102.13 C212.02 1102.13 211.03 1102.13 210.01 1102.13 Z M204.01 1107.13 C204.01 1108.12 204.01 1109.11 204.01 1110.13 C203.35 1110.79 202.69 1111.45 202.01 1112.13 C203.33 1112.13 204.65 1112.13 206.01 1112.13 C205.68 1110.48 205.35 1108.83 205.01 1107.13 C204.68 1107.13 204.35 1107.13 204.01 1107.13 Z M0.01 1110.13 C0.01 1110.79 0.01 1111.45 0.01 1112.13 C1.33 1111.8 2.65 1111.47 4.01 1111.13 C2.69 1110.8 1.37 1110.47 0.01 1110.13 Z M4.01 1112.13 C4.01 1112.46 4.01 1112.79 4.01 1113.13 C5.66 1113.13 7.31 1113.13 9.01 1113.13 C9.01 1112.8 9.01 1112.47 9.01 1112.13 C7.36 1112.13 5.71 1112.13 4.01 1112.13 Z M48.01 1108.13 C48.01 1109.45 48.01 1110.77 48.01 1112.13 C44.71 1112.13 41.41 1112.13 38.01 1112.13 C38.01 1112.46 38.01 1112.79 38.01 1113.13 C41.64 1113.13 45.27 1113.13 49.01 1113.13 C49.01 1111.48 49.01 1109.83 49.01 1108.13 C48.68 1108.13 48.35 1108.13 48.01 1108.13 Z M158.01 1112.13 C158.01 1112.46 158.01 1112.79 158.01 1113.13 C159.99 1113.13 161.97 1113.13 164.01 1113.13 C164.01 1112.8 164.01 1112.47 164.01 1112.13 C162.03 1112.13 160.05 1112.13 158.01 1112.13 Z M193.01 1112.13 C193.01 1112.46 193.01 1112.79 193.01 1113.13 C195.98 1113.13 198.95 1113.13 202.01 1113.13 C202.01 1112.8 202.01 1112.47 202.01 1112.13 C199.04 1112.13 196.07 1112.13 193.01 1112.13 Z " fill="#1095F0" transform="translate(280.98851013183594,115.86628723144531)"/>
<path d="M0 0 C0.89 -0 1.79 -0 2.71 -0.01 C5.7 -0.01 8.69 -0.01 11.69 -0.01 C13.83 -0.01 15.98 -0.02 18.13 -0.02 C23.95 -0.03 29.78 -0.03 35.61 -0.03 C40.48 -0.03 45.34 -0.04 50.21 -0.04 C61.69 -0.05 73.17 -0.05 84.65 -0.05 C96.49 -0.05 108.33 -0.06 120.17 -0.08 C130.34 -0.09 140.51 -0.1 150.68 -0.1 C156.75 -0.09 162.82 -0.1 168.9 -0.11 C174.61 -0.12 180.32 -0.12 186.03 -0.11 C188.12 -0.11 190.22 -0.11 192.31 -0.12 C195.17 -0.13 198.03 -0.12 200.9 -0.11 C201.72 -0.12 202.55 -0.12 203.4 -0.13 C210.04 -0.09 215.81 0.65 221.01 5.13 C223.89 7.33 223.89 7.33 227.01 9.13 C227.01 9.79 227.01 10.45 227.01 11.13 C227.67 11.13 228.33 11.13 229.01 11.13 C229.19 12.01 229.19 12.01 229.37 12.9 C230.04 15.25 230.93 16.8 232.3 18.81 C232.74 19.47 233.19 20.13 233.65 20.82 C234.12 21.5 234.59 22.18 235.07 22.88 C235.55 23.58 236.02 24.28 236.51 25 C237.67 26.71 238.84 28.42 240.01 30.13 C240.67 29.8 241.33 29.47 242.01 29.13 C242.74 33.72 243.14 38.11 243.14 42.75 C243.14 44.04 243.14 45.33 243.14 46.66 C243.14 48.07 243.14 49.48 243.14 50.89 C243.14 52.39 243.14 53.89 243.14 55.39 C243.15 58.62 243.15 61.84 243.15 65.06 C243.15 70.15 243.16 75.24 243.18 80.34 C243.18 81.2 243.18 82.06 243.19 82.94 C243.19 84.7 243.2 86.46 243.2 88.22 C243.24 100.07 243.26 111.92 243.26 123.77 C243.26 131.78 243.28 139.78 243.31 147.79 C243.33 152.02 243.34 156.25 243.33 160.48 C243.32 164.46 243.33 168.44 243.36 172.42 C243.36 173.88 243.36 175.33 243.35 176.79 C243.34 178.79 243.36 180.78 243.38 182.77 C243.38 183.89 243.38 185 243.38 186.15 C244.21 190.09 245.97 191.59 249.01 194.13 C249.71 194.47 250.41 194.8 251.12 195.14 C253.8 196.55 254.7 198.42 256.2 201.01 C256.71 201.87 257.22 202.74 257.74 203.63 C259.86 207.82 260.14 211.33 260.14 216.01 C260.14 217.22 260.15 218.43 260.15 219.68 C260.15 221.03 260.15 222.38 260.15 223.73 C260.15 225.16 260.15 226.6 260.15 228.04 C260.16 232 260.16 235.97 260.16 239.94 C260.16 244.25 260.16 248.55 260.17 252.86 C260.18 261.42 260.18 269.97 260.19 278.52 C260.19 288.77 260.2 299.01 260.21 309.25 C260.23 334.01 260.24 358.77 260.25 383.53 C260.25 395.23 260.26 406.94 260.26 418.65 C260.28 458.72 260.29 498.78 260.3 538.85 C260.3 541.37 260.3 543.88 260.3 546.4 C260.3 547.65 260.3 548.89 260.3 550.18 C260.3 556.5 260.31 562.82 260.31 569.15 C260.31 570.4 260.31 571.65 260.31 572.95 C260.32 613.63 260.34 654.32 260.37 695.01 C260.41 738.01 260.43 781.01 260.43 824 C260.43 828.72 260.43 833.44 260.43 838.16 C260.43 839.32 260.43 840.48 260.43 841.68 C260.43 860.39 260.45 879.11 260.47 897.82 C260.49 916.63 260.49 935.43 260.49 954.23 C260.48 965.41 260.49 976.58 260.51 987.76 C260.52 995.22 260.52 1002.68 260.51 1010.15 C260.5 1014.4 260.5 1018.66 260.52 1022.91 C260.53 1026.78 260.53 1030.65 260.51 1034.53 C260.51 1036.57 260.52 1038.61 260.54 1040.65 C260.39 1060.37 248.72 1077.08 235.51 1091.01 C229.61 1096.59 222.76 1100.75 215.7 1104.7 C212.26 1106.65 209.53 1108.28 207.14 1111.45 C204.52 1114.76 203.08 1115.12 199.01 1116.13 C196.15 1116.33 193.4 1116.44 190.54 1116.43 C189.34 1116.44 189.34 1116.44 188.12 1116.45 C186.44 1116.45 184.76 1116.45 183.08 1116.45 C180.52 1116.45 177.96 1116.47 175.4 1116.5 C173.76 1116.5 172.12 1116.5 170.48 1116.5 C169.72 1116.51 168.96 1116.52 168.18 1116.52 C163.38 1116.48 160.09 1115.68 156.01 1113.13 C154.32 1111.01 154.32 1111.01 153.01 1108.7 C149.82 1103.54 146.84 1101.08 141.01 1099.13 C138.62 1099.02 136.22 1098.97 133.82 1098.96 C133.09 1098.95 132.36 1098.94 131.61 1098.94 C129.2 1098.92 126.79 1098.91 124.37 1098.9 C123.55 1098.89 122.72 1098.89 121.87 1098.88 C117.5 1098.86 113.13 1098.85 108.75 1098.84 C104.25 1098.83 99.75 1098.79 95.24 1098.75 C91.77 1098.73 88.29 1098.72 84.82 1098.72 C83.16 1098.71 81.5 1098.7 79.84 1098.68 C67.82 1098.39 67.82 1098.39 57.01 1103.13 C54.57 1105.71 52.92 1108.29 51.07 1111.32 C48.71 1114.55 47.79 1115.03 44.01 1116.13 C41.2 1116.33 38.49 1116.44 35.68 1116.43 C34.88 1116.44 34.08 1116.44 33.26 1116.45 C31.58 1116.45 29.89 1116.45 28.21 1116.45 C25.65 1116.45 23.09 1116.47 20.53 1116.5 C18.89 1116.5 17.25 1116.5 15.61 1116.5 C14.86 1116.51 14.1 1116.52 13.32 1116.52 C8.17 1116.48 4.58 1115.57 0.01 1113.13 C-1.68 1111.16 -3.35 1109.15 -4.99 1107.13 C-8.18 1105.02 -8.18 1105.02 -11.68 1103.26 C-30.81 1092.83 -47.04 1074.48 -53.54 1053.36 C-54.09 1050.61 -54.12 1048.06 -54.12 1045.26 C-54.12 1044.04 -54.12 1042.83 -54.13 1041.58 C-54.13 1040.23 -54.12 1038.88 -54.12 1037.54 C-54.12 1036.1 -54.13 1034.66 -54.13 1033.23 C-54.14 1029.26 -54.14 1025.29 -54.14 1021.32 C-54.14 1017.01 -54.14 1012.71 -54.15 1008.4 C-54.16 999.84 -54.16 991.28 -54.16 982.73 C-54.17 972.48 -54.17 962.24 -54.18 952 C-54.2 927.23 -54.21 902.47 -54.22 877.71 C-54.23 866 -54.23 854.29 -54.24 842.58 C-54.26 802.51 -54.27 762.44 -54.28 722.36 C-54.28 719.85 -54.28 717.33 -54.28 714.82 C-54.28 713.57 -54.28 712.32 -54.28 711.03 C-54.28 704.71 -54.28 698.39 -54.28 692.07 C-54.28 690.81 -54.28 689.56 -54.28 688.27 C-54.29 647.57 -54.32 606.88 -54.35 566.18 C-54.38 523.18 -54.4 480.17 -54.41 437.17 C-54.41 432.45 -54.41 427.73 -54.41 423.01 C-54.41 421.85 -54.41 420.69 -54.41 419.49 C-54.41 400.77 -54.43 382.06 -54.45 363.34 C-54.47 344.53 -54.47 325.73 -54.46 306.92 C-54.46 295.74 -54.46 284.57 -54.48 273.39 C-54.5 265.92 -54.5 258.46 -54.48 251 C-54.48 246.74 -54.48 242.49 -54.49 238.23 C-54.51 234.36 -54.51 230.49 -54.49 226.62 C-54.49 225.23 -54.49 223.84 -54.5 222.45 C-54.57 212.39 -53.39 203.62 -46.8 195.63 C-43.43 191.47 -42.86 189.4 -42.86 183.95 C-42.86 183.31 -42.85 182.67 -42.85 182.01 C-42.84 179.85 -42.85 177.69 -42.85 175.53 C-42.84 173.99 -42.84 172.44 -42.84 170.9 C-42.83 167.57 -42.82 164.24 -42.82 160.91 C-42.81 155.64 -42.8 150.37 -42.78 145.1 C-42.77 143.29 -42.77 141.49 -42.76 139.68 C-42.76 138.78 -42.75 137.88 -42.75 136.95 C-42.71 124.68 -42.67 112.4 -42.66 100.13 C-42.65 91.86 -42.63 83.59 -42.59 75.31 C-42.57 70.93 -42.56 66.56 -42.57 62.18 C-42.57 58.06 -42.56 53.94 -42.53 49.81 C-42.52 48.3 -42.52 46.79 -42.53 45.29 C-42.56 37.34 -42.42 30.98 -37.99 24.13 C-37.33 24.13 -36.67 24.13 -35.99 24.13 C-35.86 23.33 -35.86 23.33 -35.74 22.51 C-34.71 19.26 -33.02 16.85 -30.99 14.13 C-30.33 14.13 -29.67 14.13 -28.99 14.13 C-28.66 13.14 -28.33 12.15 -27.99 11.13 C-27.33 11.13 -26.67 11.13 -25.99 11.13 C-25.99 10.47 -25.99 9.81 -25.99 9.13 C-24.34 7.7 -24.34 7.7 -22.18 6.13 C-21.47 5.62 -20.76 5.1 -20.03 4.57 C-13.5 -0.02 -7.74 -0.01 0 0 Z M240.01 36.13 C241.01 39.13 241.01 39.13 241.01 39.13 Z M240.01 147.13 C241.01 150.13 241.01 150.13 241.01 150.13 Z M240.01 162.13 C241.01 164.13 241.01 164.13 241.01 164.13 Z M240.01 185.13 C241.01 187.13 241.01 187.13 241.01 187.13 Z M255.01 205.13 C256.01 208.13 256.01 208.13 256.01 208.13 Z M256.01 208.13 C256.01 209.78 256.01 211.43 256.01 213.13 C256.34 213.13 256.67 213.13 257.01 213.13 C257.01 211.48 257.01 209.83 257.01 208.13 C256.68 208.13 256.35 208.13 256.01 208.13 Z M-15.27 233.45 C-16.38 235.76 -16.38 235.76 -16.99 238.13 C-17.16 238.73 -17.34 239.32 -17.52 239.93 C-18.08 242.58 -18.12 245.01 -18.12 247.72 C-18.12 248.87 -18.13 250.01 -18.13 251.19 C-18.13 252.46 -18.13 253.72 -18.13 255.02 C-18.13 256.38 -18.13 257.74 -18.13 259.1 C-18.14 262.85 -18.14 266.6 -18.14 270.35 C-18.14 274.43 -18.15 278.5 -18.16 282.58 C-18.17 290.67 -18.17 298.76 -18.18 306.85 C-18.18 316.54 -18.19 326.23 -18.2 335.92 C-18.23 359.34 -18.24 382.76 -18.26 406.18 C-18.26 413.94 -18.27 421.7 -18.27 429.45 C-18.3 470.68 -18.32 511.91 -18.33 553.15 C-18.33 562.7 -18.34 572.25 -18.34 581.81 C-18.34 583 -18.34 584.18 -18.34 585.41 C-18.35 623.9 -18.38 662.39 -18.42 700.88 C-18.47 740.44 -18.49 780 -18.5 819.56 C-18.5 825.15 -18.5 830.73 -18.5 836.32 C-18.5 837.42 -18.5 838.52 -18.5 839.65 C-18.51 857.35 -18.53 875.05 -18.55 892.75 C-18.58 910.55 -18.59 928.34 -18.58 946.13 C-18.57 956.7 -18.58 967.27 -18.61 977.84 C-18.62 984.9 -18.62 991.96 -18.61 999.03 C-18.6 1003.05 -18.6 1007.07 -18.62 1011.1 C-18.64 1014.76 -18.63 1018.43 -18.61 1022.09 C-18.61 1024.02 -18.63 1025.95 -18.65 1027.88 C-18.54 1038.12 -16.41 1047.89 -9.24 1055.57 C-2.39 1062.09 -2.39 1062.09 6.01 1065.13 C6.16 1065.94 6.3 1066.74 6.45 1067.57 C6.75 1070.05 6.75 1070.05 8.01 1071.13 C18.15 1072.36 28.38 1072.28 38.57 1072.26 C40.18 1072.26 41.79 1072.27 43.4 1072.27 C47.73 1072.27 52.06 1072.27 56.39 1072.27 C60.94 1072.27 65.49 1072.27 70.04 1072.27 C77.68 1072.27 85.32 1072.27 92.96 1072.26 C101.77 1072.26 110.57 1072.26 119.38 1072.27 C126.97 1072.27 134.56 1072.27 142.16 1072.27 C146.68 1072.27 151.2 1072.27 155.72 1072.27 C159.97 1072.27 164.22 1072.27 168.47 1072.27 C170.02 1072.26 171.57 1072.26 173.12 1072.27 C181.47 1072.28 189.71 1072.1 198.01 1071.13 C198.34 1070.14 198.67 1069.15 199.01 1068.13 C198.35 1068.13 197.69 1068.13 197.01 1068.13 C199.01 1065.13 199.01 1065.13 202.14 1063.88 C211.54 1060.09 217.4 1051.7 221.57 1042.81 C223.73 1036.92 223.43 1030.95 223.4 1024.75 C223.4 1023.39 223.41 1022.02 223.41 1020.66 C223.43 1016.91 223.42 1013.17 223.42 1009.42 C223.41 1005.34 223.42 1001.26 223.43 997.19 C223.45 990.04 223.45 982.9 223.45 975.75 C223.45 965.12 223.46 954.5 223.47 943.87 C223.5 923.79 223.51 903.71 223.51 883.63 C223.51 868.12 223.52 852.61 223.53 837.11 C223.53 832.64 223.54 828.18 223.54 823.72 C223.54 822.61 223.54 821.5 223.54 820.36 C223.56 789.15 223.57 757.95 223.57 726.74 C223.57 725.57 223.57 724.39 223.57 723.18 C223.57 717.21 223.57 711.25 223.57 705.28 C223.57 703.51 223.57 703.51 223.57 701.69 C223.57 699.3 223.57 696.9 223.57 694.51 C223.57 657.23 223.59 619.96 223.63 582.69 C223.67 540.82 223.7 498.95 223.7 457.09 C223.7 452.62 223.7 448.16 223.7 443.7 C223.7 442.6 223.7 441.5 223.7 440.37 C223.7 422.67 223.72 404.98 223.74 387.29 C223.77 369.51 223.77 351.73 223.75 333.95 C223.74 323.38 223.75 312.82 223.77 302.26 C223.79 295.2 223.79 288.14 223.77 281.08 C223.76 277.06 223.75 273.04 223.78 269.02 C223.8 265.36 223.79 261.7 223.77 258.04 C223.76 256.11 223.78 254.18 223.8 252.25 C223.7 244.09 222.07 235.19 216.01 229.13 C213.1 229.02 210.22 228.96 207.31 228.95 C206.39 228.95 205.47 228.94 204.52 228.93 C201.4 228.91 198.28 228.89 195.16 228.88 C192.93 228.86 190.7 228.85 188.47 228.83 C168.13 228.7 147.79 228.64 127.45 228.59 C124.73 228.58 122 228.57 119.28 228.56 C118.27 228.56 118.27 228.56 117.23 228.56 C106.27 228.53 95.31 228.46 84.35 228.39 C73.1 228.31 61.85 228.26 50.61 228.25 C44.29 228.24 37.97 228.21 31.65 228.15 C25.71 228.09 19.77 228.08 13.82 228.1 C11.64 228.1 9.46 228.08 7.28 228.05 C-5.42 227.08 -5.42 227.08 -15.27 233.45 Z M256.01 1047.13 C256.01 1049.11 256.01 1051.09 256.01 1053.13 C256.34 1053.13 256.67 1053.13 257.01 1053.13 C257.01 1051.15 257.01 1049.17 257.01 1047.13 C256.68 1047.13 256.35 1047.13 256.01 1047.13 Z M255.01 1054.13 C254.68 1055.45 254.35 1056.77 254.01 1058.13 C254.67 1056.81 255.33 1055.49 256.01 1054.13 C255.68 1054.13 255.35 1054.13 255.01 1054.13 Z M253.01 1058.13 C252.35 1059.78 251.69 1061.43 251.01 1063.13 C252 1062.47 252.99 1061.81 254.01 1061.13 C253.68 1060.14 253.35 1059.15 253.01 1058.13 Z M250.01 1064.13 C248.03 1067.1 248.03 1067.1 246.01 1070.13 C246.34 1070.79 246.67 1071.45 247.01 1072.13 C248.33 1070.15 249.65 1068.17 251.01 1066.13 C250.68 1065.47 250.35 1064.81 250.01 1064.13 Z M245.01 1072.13 C244.39 1072.98 243.78 1073.82 243.14 1074.7 C236.17 1084.09 228.72 1091.52 219.01 1098.13 C219.67 1098.46 220.33 1098.79 221.01 1099.13 C230.88 1091.93 239.52 1084.68 246.01 1074.13 C245.68 1073.47 245.35 1072.81 245.01 1072.13 Z M56.01 1097.13 C53.7 1099.44 51.39 1101.75 49.01 1104.13 C49.34 1104.79 49.67 1105.45 50.01 1106.13 C52.65 1103.49 55.29 1100.85 58.01 1098.13 C57.35 1097.8 56.69 1097.47 56.01 1097.13 Z M214.01 1100.13 C214.34 1100.79 214.67 1101.45 215.01 1102.13 C215.34 1101.47 215.67 1100.81 216.01 1100.13 C215.35 1100.13 214.69 1100.13 214.01 1100.13 Z M210.01 1102.13 C209.68 1102.79 209.35 1103.45 209.01 1104.13 C210.33 1103.47 211.65 1102.81 213.01 1102.13 C212.02 1102.13 211.03 1102.13 210.01 1102.13 Z M204.01 1107.13 C204.01 1108.12 204.01 1109.11 204.01 1110.13 C203.35 1110.79 202.69 1111.45 202.01 1112.13 C203.33 1112.13 204.65 1112.13 206.01 1112.13 C205.68 1110.48 205.35 1108.83 205.01 1107.13 C204.68 1107.13 204.35 1107.13 204.01 1107.13 Z M0.01 1110.13 C0.01 1110.79 0.01 1111.45 0.01 1112.13 C1.33 1111.8 2.65 1111.47 4.01 1111.13 C2.69 1110.8 1.37 1110.47 0.01 1110.13 Z M4.01 1112.13 C4.01 1112.46 4.01 1112.79 4.01 1113.13 C5.66 1113.13 7.31 1113.13 9.01 1113.13 C9.01 1112.8 9.01 1112.47 9.01 1112.13 C7.36 1112.13 5.71 1112.13 4.01 1112.13 Z M48.01 1108.13 C48.01 1109.45 48.01 1110.77 48.01 1112.13 C44.71 1112.13 41.41 1112.13 38.01 1112.13 C38.01 1112.46 38.01 1112.79 38.01 1113.13 C41.64 1113.13 45.27 1113.13 49.01 1113.13 C49.01 1111.48 49.01 1109.83 49.01 1108.13 C48.68 1108.13 48.35 1108.13 48.01 1108.13 Z M158.01 1112.13 C158.01 1112.46 158.01 1112.79 158.01 1113.13 C159.99 1113.13 161.97 1113.13 164.01 1113.13 C164.01 1112.8 164.01 1112.47 164.01 1112.13 C162.03 1112.13 160.05 1112.13 158.01 1112.13 Z M193.01 1112.13 C193.01 1112.46 193.01 1112.79 193.01 1113.13 C195.98 1113.13 198.95 1113.13 202.01 1113.13 C202.01 1112.8 202.01 1112.47 202.01 1112.13 C199.04 1112.13 196.07 1112.13 193.01 1112.13 Z " fill="#BEBFB6" transform="translate(280.98851013183594,115.86628723144531)"/>
<path d="M0 0 C0.89 -0 1.79 -0 2.71 -0.01 C5.7 -0.01 8.69 -0.01 11.69 -0.01 C13.83 -0.01 15.98 -0.02 18.13 -0.02 C23.95 -0.03 29.78 -0.03 35.61 -0.03 C40.48 -0.03 45.34 -0.04 50.21 -0.04 C61.69 -0.05 73.17 -0.05 84.65 -0.05 C96.49 -0.05 108.33 -0.06 120.17 -0.08 C130.34 -0.09 140.51 -0.1 150.68 -0.1 C156.75 -0.09 162.82 -0.1 168.9 -0.11 C174.61 -0.12 180.32 -0.12 186.03 -0.11 C188.12 -0.11 190.22 -0.11 192.31 -0.12 C195.17 -0.13 198.03 -0.12 200.9 -0.11 C201.72 -0.12 202.55 -0.12 203.4 -0.13 C210.04 -0.09 215.81 0.65 221.01 5.13 C223.89 7.33 223.89 7.33 227.01 9.13 C227.01 9.79 227.01 10.45 227.01 11.13 C227.67 11.13 228.33 11.13 229.01 11.13 C229.19 12.01 229.19 12.01 229.37 12.9 C230.04 15.25 230.93 16.8 232.3 18.81 C232.74 19.47 233.19 20.13 233.65 20.82 C234.12 21.5 234.59 22.18 235.07 22.88 C235.55 23.58 236.02 24.28 236.51 25 C237.67 26.71 238.84 28.42 240.01 30.13 C240.67 29.8 241.33 29.47 242.01 29.13 C242.74 33.72 243.14 38.11 243.14 42.75 C243.14 44.04 243.14 45.33 243.14 46.66 C243.14 48.07 243.14 49.48 243.14 50.89 C243.14 52.39 243.14 53.89 243.14 55.39 C243.15 58.62 243.15 61.84 243.15 65.06 C243.15 70.15 243.16 75.24 243.18 80.34 C243.18 81.2 243.18 82.06 243.19 82.94 C243.19 84.7 243.2 86.46 243.2 88.22 C243.24 100.07 243.26 111.92 243.26 123.77 C243.26 131.78 243.28 139.78 243.31 147.79 C243.33 152.02 243.34 156.25 243.33 160.48 C243.32 164.46 243.33 168.44 243.36 172.42 C243.36 173.88 243.36 175.33 243.35 176.79 C243.34 178.79 243.36 180.78 243.38 182.77 C243.38 183.89 243.38 185 243.38 186.15 C244.21 190.09 245.97 191.59 249.01 194.13 C249.71 194.47 250.41 194.8 251.12 195.14 C253.8 196.55 254.7 198.42 256.2 201.01 C256.71 201.87 257.22 202.74 257.74 203.63 C259.86 207.82 260.14 211.33 260.14 216.01 C260.14 217.22 260.15 218.43 260.15 219.68 C260.15 221.03 260.15 222.38 260.15 223.73 C260.15 225.16 260.15 226.6 260.15 228.04 C260.16 232 260.16 235.97 260.16 239.94 C260.16 244.25 260.16 248.55 260.17 252.86 C260.18 261.42 260.18 269.97 260.19 278.52 C260.19 288.77 260.2 299.01 260.21 309.25 C260.23 334.01 260.24 358.77 260.25 383.53 C260.25 395.23 260.26 406.94 260.26 418.65 C260.28 458.72 260.29 498.78 260.3 538.85 C260.3 541.37 260.3 543.88 260.3 546.4 C260.3 547.65 260.3 548.89 260.3 550.18 C260.3 556.5 260.31 562.82 260.31 569.15 C260.31 570.4 260.31 571.65 260.31 572.95 C260.32 613.63 260.34 654.32 260.37 695.01 C260.41 738.01 260.43 781.01 260.43 824 C260.43 828.72 260.43 833.44 260.43 838.16 C260.43 839.32 260.43 840.48 260.43 841.68 C260.43 860.39 260.45 879.11 260.47 897.82 C260.49 916.63 260.49 935.43 260.49 954.23 C260.48 965.41 260.49 976.58 260.51 987.76 C260.52 995.22 260.52 1002.68 260.51 1010.15 C260.5 1014.4 260.5 1018.66 260.52 1022.91 C260.53 1026.78 260.53 1030.65 260.51 1034.53 C260.51 1036.57 260.52 1038.61 260.54 1040.65 C260.39 1060.37 248.72 1077.08 235.51 1091.01 C228.77 1097.38 220.75 1102 212.68 1106.46 C210.05 1108.11 208.1 1109.86 206.01 1112.13 C205.35 1110.81 204.69 1109.49 204.01 1108.13 C203.02 1108.46 202.03 1108.79 201.01 1109.13 C201.01 1108.14 201.01 1107.15 201.01 1106.13 C202.29 1105.84 202.29 1105.84 203.6 1105.55 C204.71 1105.29 205.81 1105.03 206.95 1104.76 C208.05 1104.5 209.15 1104.25 210.29 1103.99 C211.19 1103.7 212.09 1103.42 213.01 1103.13 C213.34 1102.47 213.67 1101.81 214.01 1101.13 C215.34 1100.8 216.68 1100.47 218.01 1100.13 C218.34 1099.47 218.67 1098.81 219.01 1098.13 C219.75 1097.84 220.48 1097.56 221.24 1097.26 C230.48 1093.51 237.28 1084.98 243.01 1077.13 C243.49 1076.5 243.98 1075.88 244.47 1075.23 C247.56 1071.11 249.81 1066.77 252.01 1062.13 C252.59 1061.04 253.17 1059.95 253.76 1058.82 C255.22 1056.17 255.22 1056.17 255.01 1053.13 C255.67 1053.13 256.33 1053.13 257.01 1053.13 C256.85 1052.27 256.69 1051.41 256.52 1050.52 C256.03 1047.28 255.89 1044.28 255.89 1041.02 C255.89 1039.8 255.89 1038.59 255.89 1037.34 C255.89 1036 255.9 1034.65 255.9 1033.31 C255.9 1031.88 255.9 1030.44 255.9 1029 C255.9 1025.05 255.91 1021.09 255.92 1017.13 C255.93 1012.83 255.93 1008.53 255.93 1004.22 C255.94 996.68 255.95 989.14 255.96 981.59 C255.98 970.38 255.99 959.16 256 947.94 C256.01 930.23 256.03 912.52 256.05 894.81 C256.09 866.7 256.11 838.59 256.13 810.48 C256.13 804.5 256.14 798.52 256.14 792.54 C256.14 785.28 256.15 778.02 256.15 770.76 C256.17 743.37 256.19 715.99 256.21 688.61 C256.21 686.73 256.21 686.73 256.21 684.81 C256.24 644.21 256.29 603.61 256.34 563 C256.39 521.27 256.42 479.54 256.44 437.81 C256.44 431.92 256.44 426.03 256.45 420.14 C256.45 418.99 256.45 417.83 256.45 416.63 C256.46 397.95 256.48 379.28 256.52 360.6 C256.55 341.84 256.56 323.08 256.56 304.31 C256.56 293.16 256.57 282.01 256.6 270.85 C256.62 263.41 256.62 255.96 256.61 248.52 C256.61 244.28 256.61 240.03 256.63 235.78 C256.65 231.92 256.65 228.06 256.63 224.2 C256.63 222.81 256.63 221.42 256.65 220.03 C256.72 211.99 256.46 207.21 251.01 201.13 C250.68 200.14 250.35 199.15 250.01 198.13 C242.7 196.37 235.8 195.84 228.3 195.86 C227.16 195.86 226.02 195.85 224.85 195.85 C221.05 195.83 217.26 195.83 213.46 195.83 C210.74 195.82 208.01 195.81 205.28 195.81 C199.41 195.79 193.55 195.77 187.69 195.77 C179.21 195.76 170.73 195.74 162.25 195.71 C148.49 195.67 134.73 195.64 120.96 195.61 C120.14 195.61 119.32 195.61 118.47 195.61 C117.65 195.6 116.83 195.6 115.98 195.6 C104.28 195.58 92.58 195.55 80.88 195.53 C79.65 195.52 79.65 195.52 78.39 195.52 C64.67 195.49 50.94 195.45 37.22 195.42 C28.76 195.39 20.29 195.37 11.83 195.36 C6.04 195.35 0.25 195.34 -5.54 195.32 C-8.88 195.31 -12.23 195.31 -15.57 195.3 C-19.19 195.3 -22.8 195.29 -26.42 195.28 C-28.02 195.28 -28.02 195.28 -29.66 195.28 C-30.62 195.28 -31.58 195.27 -32.57 195.27 C-33.4 195.27 -34.24 195.26 -35.1 195.26 C-36.99 195.13 -36.99 195.13 -37.99 194.13 C-38.15 191.61 -38.25 189.12 -38.3 186.6 C-38.33 185.85 -38.35 185.09 -38.37 184.32 C-38.43 181.9 -38.49 179.49 -38.55 177.07 C-38.59 175.44 -38.64 173.8 -38.68 172.17 C-38.79 168.16 -38.89 164.15 -38.99 160.13 C-40.21 163.93 -40.1 167.56 -40.09 171.52 C-40.08 172.58 -40.08 172.58 -40.08 173.66 C-40.08 175.9 -40.06 178.14 -40.05 180.38 C-40.05 181.91 -40.04 183.43 -40.04 184.95 C-40.03 188.68 -40.01 192.41 -39.99 196.13 C-41.97 196.46 -43.95 196.79 -45.99 197.13 C-46.09 197.65 -46.19 198.16 -46.3 198.7 C-46.99 201.13 -46.99 201.13 -48.51 203.91 C-50.98 209.68 -50.4 215.96 -50.36 222.13 C-50.37 223.57 -50.37 225.01 -50.38 226.45 C-50.39 230.42 -50.38 234.39 -50.37 238.36 C-50.36 242.68 -50.37 247 -50.37 251.32 C-50.38 258.89 -50.38 266.45 -50.37 274.02 C-50.36 285.28 -50.36 296.54 -50.37 307.79 C-50.38 327.89 -50.38 347.99 -50.36 368.09 C-50.35 385.68 -50.35 403.27 -50.35 420.86 C-50.35 422.03 -50.35 423.19 -50.35 424.4 C-50.35 429.13 -50.35 433.86 -50.35 438.59 C-50.36 483 -50.34 527.41 -50.32 571.82 C-50.3 611.3 -50.3 650.77 -50.3 690.25 C-50.3 692.78 -50.3 695.32 -50.31 697.85 C-50.31 699.11 -50.31 700.36 -50.31 701.65 C-50.31 707.96 -50.31 714.26 -50.31 720.57 C-50.31 721.82 -50.31 723.06 -50.31 724.34 C-50.31 757.31 -50.31 790.27 -50.3 823.23 C-50.3 826.78 -50.3 830.33 -50.3 833.87 C-50.3 836.22 -50.29 838.58 -50.29 840.93 C-50.29 857.34 -50.29 873.76 -50.29 890.18 C-50.29 911.33 -50.29 932.48 -50.27 953.63 C-50.27 964.82 -50.26 976.01 -50.27 987.21 C-50.27 994.68 -50.27 1002.14 -50.26 1009.61 C-50.25 1013.87 -50.25 1018.13 -50.26 1022.39 C-50.26 1026.27 -50.26 1030.14 -50.25 1034.01 C-50.24 1035.41 -50.25 1036.8 -50.25 1038.2 C-50.28 1047.02 -50.14 1054.17 -45.36 1061.82 C-44.84 1062.66 -44.32 1063.5 -43.78 1064.36 C-41.11 1068.49 -38.38 1072.59 -35.63 1076.66 C-33.99 1079.13 -33.99 1079.13 -32.99 1081.13 C-33.32 1081.79 -33.65 1082.45 -33.99 1083.13 C-33.4 1083.23 -32.81 1083.33 -32.2 1083.43 C-29.53 1084.28 -28.49 1085.39 -26.61 1087.45 C-23.62 1090.56 -20.7 1092.88 -16.99 1095.13 C-15.88 1095.83 -15.88 1095.83 -14.74 1096.53 C-9.6 1099.69 -4.42 1102.46 1.08 1104.96 C3.01 1106.13 3.01 1106.13 4.01 1109.13 C3.05 1109.32 3.05 1109.32 2.07 1109.51 C1.05 1109.82 1.05 1109.82 0.01 1110.13 C-0.32 1110.79 -0.65 1111.45 -0.99 1112.13 C-1.77 1111.01 -1.77 1111.01 -2.57 1109.87 C-5.34 1106.74 -7.92 1105.26 -11.61 1103.32 C-30.76 1092.82 -47.02 1074.53 -53.54 1053.36 C-54.09 1050.61 -54.12 1048.06 -54.12 1045.26 C-54.12 1044.04 -54.12 1042.83 -54.13 1041.58 C-54.13 1040.23 -54.12 1038.88 -54.12 1037.54 C-54.12 1036.1 -54.13 1034.66 -54.13 1033.23 C-54.14 1029.26 -54.14 1025.29 -54.14 1021.32 C-54.14 1017.01 -54.14 1012.71 -54.15 1008.4 C-54.16 999.84 -54.16 991.28 -54.16 982.73 C-54.17 972.48 -54.17 962.24 -54.18 952 C-54.2 927.23 -54.21 902.47 -54.22 877.71 C-54.23 866 -54.23 854.29 -54.24 842.58 C-54.26 802.51 -54.27 762.44 -54.28 722.36 C-54.28 719.85 -54.28 717.33 -54.28 714.82 C-54.28 713.57 -54.28 712.32 -54.28 711.03 C-54.28 704.71 -54.28 698.39 -54.28 692.07 C-54.28 690.81 -54.28 689.56 -54.28 688.27 C-54.29 647.57 -54.32 606.88 -54.35 566.18 C-54.38 523.18 -54.4 480.17 -54.41 437.17 C-54.41 432.45 -54.41 427.73 -54.41 423.01 C-54.41 421.85 -54.41 420.69 -54.41 419.49 C-54.41 400.77 -54.43 382.06 -54.45 363.34 C-54.47 344.53 -54.47 325.73 -54.46 306.92 C-54.46 295.74 -54.46 284.57 -54.48 273.39 C-54.5 265.92 -54.5 258.46 -54.48 251 C-54.48 246.74 -54.48 242.49 -54.49 238.23 C-54.51 234.36 -54.51 230.49 -54.49 226.62 C-54.49 225.23 -54.49 223.84 -54.5 222.45 C-54.57 212.39 -53.39 203.62 -46.8 195.63 C-43.43 191.47 -42.86 189.4 -42.86 183.95 C-42.86 183.31 -42.85 182.67 -42.85 182.01 C-42.84 179.85 -42.85 177.69 -42.85 175.53 C-42.84 173.99 -42.84 172.44 -42.84 170.9 C-42.83 167.57 -42.82 164.24 -42.82 160.91 C-42.81 155.64 -42.8 150.37 -42.78 145.1 C-42.77 143.29 -42.77 141.49 -42.76 139.68 C-42.76 138.78 -42.75 137.88 -42.75 136.95 C-42.71 124.68 -42.67 112.4 -42.66 100.13 C-42.65 91.86 -42.63 83.59 -42.59 75.31 C-42.57 70.93 -42.56 66.56 -42.57 62.18 C-42.57 58.06 -42.56 53.94 -42.53 49.81 C-42.52 48.3 -42.52 46.79 -42.53 45.29 C-42.56 37.34 -42.42 30.98 -37.99 24.13 C-37.33 24.13 -36.67 24.13 -35.99 24.13 C-35.86 23.33 -35.86 23.33 -35.74 22.51 C-34.71 19.26 -33.02 16.85 -30.99 14.13 C-30.33 14.13 -29.67 14.13 -28.99 14.13 C-28.66 13.14 -28.33 12.15 -27.99 11.13 C-27.33 11.13 -26.67 11.13 -25.99 11.13 C-25.99 10.47 -25.99 9.81 -25.99 9.13 C-24.34 7.7 -24.34 7.7 -22.18 6.13 C-21.47 5.62 -20.76 5.1 -20.03 4.57 C-13.5 -0.02 -7.74 -0.01 0 0 Z M240.01 36.13 C241.01 39.13 241.01 39.13 241.01 39.13 Z M240.01 147.13 C241.01 150.13 241.01 150.13 241.01 150.13 Z M240.01 162.13 C241.01 164.13 241.01 164.13 241.01 164.13 Z M240.01 185.13 C241.01 187.13 241.01 187.13 241.01 187.13 Z " fill="#B5B6AC" transform="translate(280.98851013183594,115.86628723144531)"/>
<path d="M0 0 C0.89 -0 1.79 -0 2.71 -0.01 C5.7 -0.01 8.69 -0.01 11.69 -0.01 C13.83 -0.01 15.98 -0.02 18.13 -0.02 C23.95 -0.03 29.78 -0.03 35.61 -0.03 C40.48 -0.03 45.34 -0.04 50.21 -0.04 C61.69 -0.05 73.17 -0.05 84.65 -0.05 C96.49 -0.05 108.33 -0.06 120.17 -0.08 C130.34 -0.09 140.51 -0.1 150.68 -0.1 C156.75 -0.09 162.82 -0.1 168.9 -0.11 C174.61 -0.12 180.32 -0.12 186.03 -0.11 C188.12 -0.11 190.22 -0.11 192.31 -0.12 C195.17 -0.13 198.03 -0.12 200.9 -0.11 C201.72 -0.12 202.55 -0.12 203.4 -0.13 C210.04 -0.09 215.81 0.65 221.01 5.13 C223.89 7.33 223.89 7.33 227.01 9.13 C227.01 9.79 227.01 10.45 227.01 11.13 C227.67 11.13 228.33 11.13 229.01 11.13 C229.19 12.01 229.19 12.01 229.37 12.9 C230.04 15.25 230.93 16.8 232.3 18.81 C232.74 19.47 233.19 20.13 233.65 20.82 C234.12 21.5 234.59 22.18 235.07 22.88 C235.55 23.58 236.02 24.28 236.51 25 C237.67 26.71 238.84 28.42 240.01 30.13 C240.67 29.8 241.33 29.47 242.01 29.13 C242.74 33.72 243.14 38.11 243.14 42.75 C243.14 44.04 243.14 45.33 243.14 46.66 C243.14 48.07 243.14 49.48 243.14 50.89 C243.14 52.39 243.14 53.89 243.14 55.39 C243.15 58.62 243.15 61.84 243.15 65.06 C243.15 70.15 243.16 75.24 243.18 80.34 C243.18 81.2 243.18 82.06 243.19 82.94 C243.19 84.7 243.2 86.46 243.2 88.22 C243.24 100.07 243.26 111.92 243.26 123.77 C243.26 131.78 243.28 139.78 243.31 147.79 C243.33 152.02 243.34 156.25 243.33 160.48 C243.32 164.46 243.33 168.44 243.36 172.42 C243.36 173.88 243.36 175.33 243.35 176.79 C243.34 178.79 243.36 180.78 243.38 182.77 C243.38 183.89 243.38 185 243.38 186.15 C244.21 190.09 245.97 191.59 249.01 194.13 C249.71 194.47 250.41 194.8 251.12 195.14 C253.8 196.55 254.7 198.42 256.2 201.01 C256.71 201.87 257.22 202.74 257.74 203.63 C259.86 207.82 260.14 211.33 260.14 216.01 C260.14 217.22 260.15 218.43 260.15 219.68 C260.15 221.03 260.15 222.38 260.15 223.73 C260.15 225.16 260.15 226.6 260.15 228.04 C260.16 232 260.16 235.97 260.16 239.94 C260.16 244.25 260.16 248.55 260.17 252.86 C260.18 261.42 260.18 269.97 260.19 278.52 C260.19 288.77 260.2 299.01 260.21 309.25 C260.23 334.01 260.24 358.77 260.25 383.53 C260.25 395.23 260.26 406.94 260.26 418.65 C260.28 458.72 260.29 498.78 260.3 538.85 C260.3 541.37 260.3 543.88 260.3 546.4 C260.3 547.65 260.3 548.89 260.3 550.18 C260.3 556.5 260.31 562.82 260.31 569.15 C260.31 570.4 260.31 571.65 260.31 572.95 C260.32 613.63 260.34 654.32 260.37 695.01 C260.41 738.01 260.43 781.01 260.43 824 C260.43 828.72 260.43 833.44 260.43 838.16 C260.43 839.32 260.43 840.48 260.43 841.68 C260.43 860.39 260.45 879.11 260.47 897.82 C260.49 916.63 260.49 935.43 260.49 954.23 C260.48 965.41 260.49 976.58 260.51 987.76 C260.52 995.22 260.52 1002.68 260.51 1010.15 C260.5 1014.4 260.5 1018.66 260.52 1022.91 C260.53 1026.78 260.53 1030.65 260.51 1034.53 C260.51 1036.57 260.52 1038.61 260.54 1040.65 C260.39 1060.37 248.72 1077.08 235.51 1091.01 C228.77 1097.38 220.75 1102 212.68 1106.46 C210.05 1108.11 208.1 1109.86 206.01 1112.13 C205.35 1110.81 204.69 1109.49 204.01 1108.13 C203.02 1108.46 202.03 1108.79 201.01 1109.13 C201.01 1108.14 201.01 1107.15 201.01 1106.13 C202.29 1105.84 202.29 1105.84 203.6 1105.55 C204.71 1105.29 205.81 1105.03 206.95 1104.76 C208.05 1104.5 209.15 1104.25 210.29 1103.99 C211.19 1103.7 212.09 1103.42 213.01 1103.13 C213.34 1102.47 213.67 1101.81 214.01 1101.13 C215.34 1100.8 216.68 1100.47 218.01 1100.13 C218.34 1099.47 218.67 1098.81 219.01 1098.13 C219.75 1097.84 220.48 1097.56 221.24 1097.26 C230.48 1093.51 237.28 1084.98 243.01 1077.13 C243.49 1076.5 243.98 1075.88 244.47 1075.23 C247.56 1071.11 249.81 1066.77 252.01 1062.13 C252.59 1061.04 253.17 1059.95 253.76 1058.82 C255.22 1056.17 255.22 1056.17 255.01 1053.13 C255.67 1053.13 256.33 1053.13 257.01 1053.13 C256.85 1052.27 256.69 1051.41 256.52 1050.52 C256.03 1047.28 255.89 1044.28 255.89 1041.02 C255.89 1039.8 255.89 1038.59 255.89 1037.34 C255.89 1036 255.9 1034.65 255.9 1033.31 C255.9 1031.88 255.9 1030.44 255.9 1029 C255.9 1025.05 255.91 1021.09 255.92 1017.13 C255.93 1012.83 255.93 1008.53 255.93 1004.22 C255.94 996.68 255.95 989.14 255.96 981.59 C255.98 970.38 255.99 959.16 256 947.94 C256.01 930.23 256.03 912.52 256.05 894.81 C256.09 866.7 256.11 838.59 256.13 810.48 C256.13 804.5 256.14 798.52 256.14 792.54 C256.14 785.28 256.15 778.02 256.15 770.76 C256.17 743.37 256.19 715.99 256.21 688.61 C256.21 686.73 256.21 686.73 256.21 684.81 C256.24 644.21 256.29 603.61 256.34 563 C256.39 521.27 256.42 479.54 256.44 437.81 C256.44 431.92 256.44 426.03 256.45 420.14 C256.45 418.99 256.45 417.83 256.45 416.63 C256.46 397.95 256.48 379.28 256.52 360.6 C256.55 341.84 256.56 323.08 256.56 304.31 C256.56 293.16 256.57 282.01 256.6 270.85 C256.62 263.41 256.62 255.96 256.61 248.52 C256.61 244.28 256.61 240.03 256.63 235.78 C256.65 231.92 256.65 228.06 256.63 224.2 C256.63 222.81 256.63 221.42 256.65 220.03 C256.72 211.99 256.46 207.21 251.01 201.13 C250.68 200.14 250.35 199.15 250.01 198.13 C247.91 197.33 247.91 197.33 245.45 196.95 C244.62 196.79 243.8 196.63 242.95 196.47 C242.31 196.36 241.67 196.25 241.01 196.13 C239.48 188.07 240 179.91 240.14 171.74 C240.15 170.57 240.16 169.39 240.17 168.18 C240.19 167.12 240.21 166.05 240.22 164.96 C240.01 162.14 239.47 160.52 238.01 158.13 C237 158.13 235.98 158.13 234.94 158.12 C231.17 158.1 227.41 158.05 223.65 157.98 C222.02 157.96 220.39 157.94 218.76 157.94 C216.42 157.93 214.08 157.89 211.74 157.84 C210.65 157.85 210.65 157.85 209.54 157.85 C207.47 157.79 207.47 157.79 204.01 157.13 C201.33 153.85 200.62 151.19 200.39 147.01 C200.32 146.04 200.25 145.07 200.18 144.07 C200.13 143.1 200.07 142.13 200.01 141.13 C199.62 135.3 198.95 129.64 197.82 123.91 C196.28 116.05 195.73 109.13 197.01 101.13 C196.35 101.13 195.69 101.13 195.01 101.13 C195.03 100.18 195.03 100.18 195.05 99.2 C195.06 98.37 195.06 97.55 195.07 96.7 C195.09 95.46 195.09 95.46 195.11 94.2 C195.24 92.14 195.24 92.14 194.01 91.13 C193.09 85.68 192.73 80.56 194.01 75.13 C193.35 75.13 192.69 75.13 192.01 75.13 C191.82 72.72 191.63 70.3 191.45 67.88 C191.39 67.2 191.34 66.52 191.28 65.82 C191.03 62.39 190.87 59.41 192.01 56.13 C191.35 55.8 190.69 55.47 190.01 55.13 C189.89 49.38 189.89 49.38 191.01 47.13 C190.35 47.13 189.69 47.13 189.01 47.13 C189.01 41.52 189.01 35.91 189.01 30.13 C188.35 30.13 187.69 30.13 187.01 30.13 C186.96 29.26 186.91 28.39 186.86 27.49 C186.21 15.7 186.21 15.7 184.01 4.13 C181.13 2.69 178.66 3.01 175.44 3.01 C174.76 3.01 174.08 3 173.38 3 C171.08 3 168.78 3 166.49 3 C164.84 3 163.2 3 161.56 3 C157.09 2.99 152.62 3 148.15 3 C143.48 3 138.81 3 134.15 3 C126.3 3 118.46 3 110.62 3 C101.54 3.01 92.47 3.01 83.39 3 C75.61 3 67.83 3 60.05 3 C55.39 3 50.74 3 46.09 3 C41.72 2.99 37.34 3 32.97 3 C31.36 3 29.75 3 28.14 3 C25.96 3 23.77 3 21.58 3.01 C20.35 3.01 19.12 3.01 17.86 3.01 C15.06 2.94 15.06 2.94 13.01 4.13 C13.51 5.12 13.51 5.12 14.01 6.13 C14.08 19.19 12.64 32.09 10.94 45.01 C9.38 56.82 8.1 68.65 6.95 80.51 C6.62 83.89 6.29 87.28 5.95 90.66 C5.87 91.47 5.79 92.29 5.71 93.12 C4.99 100.44 4.21 107.76 3.39 115.07 C3.22 116.59 3.22 116.59 3.05 118.13 C2.46 123.23 1.66 128.16 0.39 133.14 C-0.02 135.29 -0.01 137.19 0.07 139.38 C0.01 144.13 0.01 144.13 -2.99 157.13 C-15.2 157.46 -27.41 157.79 -39.99 158.13 C-39.99 170.67 -39.99 183.21 -39.99 196.13 C-41.97 196.46 -43.95 196.79 -45.99 197.13 C-46.09 197.65 -46.19 198.16 -46.3 198.7 C-46.99 201.13 -46.99 201.13 -48.51 203.91 C-50.98 209.68 -50.4 215.96 -50.36 222.13 C-50.37 223.57 -50.37 225.01 -50.38 226.45 C-50.39 230.42 -50.38 234.39 -50.37 238.36 C-50.36 242.68 -50.37 247 -50.37 251.32 C-50.38 258.89 -50.38 266.45 -50.37 274.02 C-50.36 285.28 -50.36 296.54 -50.37 307.79 C-50.38 327.89 -50.38 347.99 -50.36 368.09 C-50.35 385.68 -50.35 403.27 -50.35 420.86 C-50.35 422.03 -50.35 423.19 -50.35 424.4 C-50.35 429.13 -50.35 433.86 -50.35 438.59 C-50.36 483 -50.34 527.41 -50.32 571.82 C-50.3 611.3 -50.3 650.77 -50.3 690.25 C-50.3 692.78 -50.3 695.32 -50.31 697.85 C-50.31 699.11 -50.31 700.36 -50.31 701.65 C-50.31 707.96 -50.31 714.26 -50.31 720.57 C-50.31 721.82 -50.31 723.06 -50.31 724.34 C-50.31 757.31 -50.31 790.27 -50.3 823.23 C-50.3 826.78 -50.3 830.33 -50.3 833.87 C-50.3 836.22 -50.29 838.58 -50.29 840.93 C-50.29 857.34 -50.29 873.76 -50.29 890.18 C-50.29 911.33 -50.29 932.48 -50.27 953.63 C-50.27 964.82 -50.26 976.01 -50.27 987.21 C-50.27 994.68 -50.27 1002.14 -50.26 1009.61 C-50.25 1013.87 -50.25 1018.13 -50.26 1022.39 C-50.26 1026.27 -50.26 1030.14 -50.25 1034.01 C-50.24 1035.41 -50.25 1036.8 -50.25 1038.2 C-50.28 1047.02 -50.14 1054.17 -45.36 1061.82 C-44.84 1062.66 -44.32 1063.5 -43.78 1064.36 C-41.11 1068.49 -38.38 1072.59 -35.63 1076.66 C-33.99 1079.13 -33.99 1079.13 -32.99 1081.13 C-33.32 1081.79 -33.65 1082.45 -33.99 1083.13 C-33.4 1083.23 -32.81 1083.33 -32.2 1083.43 C-29.53 1084.28 -28.49 1085.39 -26.61 1087.45 C-23.62 1090.56 -20.7 1092.88 -16.99 1095.13 C-15.88 1095.83 -15.88 1095.83 -14.74 1096.53 C-9.6 1099.69 -4.42 1102.46 1.08 1104.96 C3.01 1106.13 3.01 1106.13 4.01 1109.13 C3.05 1109.32 3.05 1109.32 2.07 1109.51 C1.05 1109.82 1.05 1109.82 0.01 1110.13 C-0.32 1110.79 -0.65 1111.45 -0.99 1112.13 C-1.77 1111.01 -1.77 1111.01 -2.57 1109.87 C-5.34 1106.74 -7.92 1105.26 -11.61 1103.32 C-30.76 1092.82 -47.02 1074.53 -53.54 1053.36 C-54.09 1050.61 -54.12 1048.06 -54.12 1045.26 C-54.12 1044.04 -54.12 1042.83 -54.13 1041.58 C-54.13 1040.23 -54.12 1038.88 -54.12 1037.54 C-54.12 1036.1 -54.13 1034.66 -54.13 1033.23 C-54.14 1029.26 -54.14 1025.29 -54.14 1021.32 C-54.14 1017.01 -54.14 1012.71 -54.15 1008.4 C-54.16 999.84 -54.16 991.28 -54.16 982.73 C-54.17 972.48 -54.17 962.24 -54.18 952 C-54.2 927.23 -54.21 902.47 -54.22 877.71 C-54.23 866 -54.23 854.29 -54.24 842.58 C-54.26 802.51 -54.27 762.44 -54.28 722.36 C-54.28 719.85 -54.28 717.33 -54.28 714.82 C-54.28 713.57 -54.28 712.32 -54.28 711.03 C-54.28 704.71 -54.28 698.39 -54.28 692.07 C-54.28 690.81 -54.28 689.56 -54.28 688.27 C-54.29 647.57 -54.32 606.88 -54.35 566.18 C-54.38 523.18 -54.4 480.17 -54.41 437.17 C-54.41 432.45 -54.41 427.73 -54.41 423.01 C-54.41 421.85 -54.41 420.69 -54.41 419.49 C-54.41 400.77 -54.43 382.06 -54.45 363.34 C-54.47 344.53 -54.47 325.73 -54.46 306.92 C-54.46 295.74 -54.46 284.57 -54.48 273.39 C-54.5 265.92 -54.5 258.46 -54.48 251 C-54.48 246.74 -54.48 242.49 -54.49 238.23 C-54.51 234.36 -54.51 230.49 -54.49 226.62 C-54.49 225.23 -54.49 223.84 -54.5 222.45 C-54.57 212.39 -53.39 203.62 -46.8 195.63 C-43.43 191.47 -42.86 189.4 -42.86 183.95 C-42.86 183.31 -42.85 182.67 -42.85 182.01 C-42.84 179.85 -42.85 177.69 -42.85 175.53 C-42.84 173.99 -42.84 172.44 -42.84 170.9 C-42.83 167.57 -42.82 164.24 -42.82 160.91 C-42.81 155.64 -42.8 150.37 -42.78 145.1 C-42.77 143.29 -42.77 141.49 -42.76 139.68 C-42.76 138.78 -42.75 137.88 -42.75 136.95 C-42.71 124.68 -42.67 112.4 -42.66 100.13 C-42.65 91.86 -42.63 83.59 -42.59 75.31 C-42.57 70.93 -42.56 66.56 -42.57 62.18 C-42.57 58.06 -42.56 53.94 -42.53 49.81 C-42.52 48.3 -42.52 46.79 -42.53 45.29 C-42.56 37.34 -42.42 30.98 -37.99 24.13 C-37.33 24.13 -36.67 24.13 -35.99 24.13 C-35.86 23.33 -35.86 23.33 -35.74 22.51 C-34.71 19.26 -33.02 16.85 -30.99 14.13 C-30.33 14.13 -29.67 14.13 -28.99 14.13 C-28.66 13.14 -28.33 12.15 -27.99 11.13 C-27.33 11.13 -26.67 11.13 -25.99 11.13 C-25.99 10.47 -25.99 9.81 -25.99 9.13 C-24.34 7.7 -24.34 7.7 -22.18 6.13 C-21.47 5.62 -20.76 5.1 -20.03 4.57 C-13.5 -0.02 -7.74 -0.01 0 0 Z M240.01 36.13 C241.01 39.13 241.01 39.13 241.01 39.13 Z M240.01 147.13 C241.01 150.13 241.01 150.13 241.01 150.13 Z " fill="#0F8CE2" transform="translate(280.98851013183594,115.86628723144531)"/>
<path d="M0 0 C1.05 -0 2.11 -0 3.19 -0.01 C6.66 -0.01 10.12 -0.01 13.59 -0 C16.01 -0 18.43 -0.01 20.84 -0.01 C25.9 -0.01 30.96 -0.01 36.02 -0 C42.5 0 48.98 0 55.46 -0 C60.45 -0.01 65.44 -0.01 70.43 -0 C72.82 -0 75.21 -0 77.6 -0.01 C80.94 -0.01 84.28 -0.01 87.62 0 C89.1 -0 89.1 -0 90.6 -0.01 C97.82 0.02 104.04 0.05 110.36 3.95 C115.27 6.92 120.43 9.5 125.87 11.32 C128.31 12.13 128.31 12.13 129.31 14.13 C131.58 15.3 131.58 15.3 134.25 16.32 C135.14 16.68 136.04 17.05 136.96 17.42 C139.3 18.42 139.3 18.42 141.31 17.13 C141.31 17.79 141.31 18.45 141.31 19.13 C142.11 19.4 142.92 19.67 143.75 19.94 C147.94 21.34 152.12 22.73 156.31 24.13 C156.31 24.79 156.31 25.45 156.31 26.13 C159.61 26.46 162.91 26.79 166.31 27.13 C166.97 23.5 167.63 19.87 168.31 16.13 C168.97 16.46 169.63 16.79 170.31 17.13 C171.8 15.15 171.8 15.15 173.31 13.13 C173.34 17.52 173.35 21.91 173.37 26.31 C173.37 27.8 173.38 29.29 173.39 30.78 C173.4 32.94 173.4 35.09 173.41 37.25 C173.42 39.19 173.42 39.19 173.42 41.17 C173.3 45.5 172.79 49.82 172.31 54.13 C87.5 54.13 2.69 54.13 -84.69 54.13 C-86.02 48.16 -87.04 42.94 -87.31 36.94 C-87.35 36.22 -87.39 35.5 -87.43 34.75 C-87.76 27.88 -87.79 21.01 -87.69 14.13 C-87.03 14.13 -86.37 14.13 -85.69 14.13 C-85.36 13.14 -85.03 12.15 -84.69 11.13 C-82.93 15.63 -82.5 19.31 -82.69 24.13 C-81.7 24.46 -80.71 24.79 -79.69 25.13 C-79.03 25.79 -78.37 26.45 -77.69 27.13 C-76.73 26.77 -75.76 26.41 -74.77 26.04 C-73.49 25.57 -72.22 25.1 -70.94 24.63 C-70.31 24.39 -69.67 24.15 -69.02 23.91 C-65.66 22.68 -63.32 22.13 -59.69 22.13 C-59.69 21.47 -59.69 20.81 -59.69 20.13 C-54.55 17.85 -49.36 15.92 -44.04 14.09 C-41.55 13.25 -41.55 13.25 -39.69 11.13 C-38.37 11.13 -37.05 11.13 -35.69 11.13 C-35.69 10.47 -35.69 9.81 -35.69 9.13 C-34.04 8.8 -32.39 8.47 -30.69 8.13 C-30.69 7.47 -30.69 6.81 -30.69 6.13 C-29.04 5.8 -27.39 5.47 -25.69 5.13 C-25.69 4.8 -25.69 4.47 -25.69 4.13 C-24.56 3.82 -23.42 3.51 -22.25 3.19 C-18.9 2.5 -18.9 2.5 -17.69 1.13 C-11.79 -0 -5.99 -0.01 0 0 Z M171.31 17.13 C170.4 22.1 170.4 26.16 171.31 31.13 C171.64 31.13 171.97 31.13 172.31 31.13 C172.31 26.51 172.31 21.89 172.31 17.13 C171.98 17.13 171.65 17.13 171.31 17.13 Z M169.31 42.13 C170.31 44.13 170.31 44.13 170.31 44.13 Z M169.31 45.13 C169.64 46.12 169.97 47.11 170.31 48.13 C170.64 47.14 170.97 46.15 171.31 45.13 C170.65 45.13 169.99 45.13 169.31 45.13 Z " fill="#8F8E89" transform="translate(337.689453125,51.87060546875)"/>
<path d="M0 0 C0.95 -0.02 1.9 -0.04 2.88 -0.06 C3.79 -0.07 4.7 -0.07 5.64 -0.08 C6.46 -0.09 7.29 -0.1 8.14 -0.11 C10.78 0.33 11.65 1.21 13.31 3.25 C12.65 3.58 11.99 3.91 11.31 4.25 C11.81 5.24 11.81 5.24 12.31 6.25 C12.38 19.3 10.94 32.2 9.24 45.13 C7.68 56.94 6.4 68.76 5.25 80.62 C4.92 84.01 4.59 87.39 4.25 90.78 C4.17 91.59 4.09 92.4 4.01 93.24 C3.29 100.56 2.51 107.88 1.69 115.19 C1.52 116.7 1.52 116.7 1.35 118.25 C0.76 123.35 -0.04 128.28 -1.3 133.26 C-1.72 135.41 -1.71 137.31 -1.62 139.5 C-1.69 144.25 -1.69 144.25 -4.69 157.25 C-16.9 157.58 -29.11 157.91 -41.69 158.25 C-41.69 170.79 -41.69 183.33 -41.69 196.25 C-43.67 196.58 -45.65 196.91 -47.69 197.25 C-47.79 197.77 -47.89 198.28 -48 198.81 C-48.69 201.25 -48.69 201.25 -50.21 204.03 C-52.68 209.8 -52.1 216.08 -52.06 222.24 C-52.07 223.68 -52.07 225.13 -52.07 226.57 C-52.09 230.54 -52.08 234.51 -52.07 238.48 C-52.06 242.8 -52.07 247.12 -52.07 251.43 C-52.08 259 -52.08 266.57 -52.07 274.14 C-52.06 285.4 -52.06 296.65 -52.07 307.91 C-52.08 328.01 -52.08 348.11 -52.06 368.21 C-52.05 385.8 -52.05 403.39 -52.05 420.98 C-52.05 422.14 -52.05 423.31 -52.05 424.51 C-52.05 429.24 -52.05 433.98 -52.05 438.71 C-52.06 483.12 -52.04 527.53 -52.02 571.94 C-52 611.42 -52 650.89 -52 690.37 C-52 692.9 -52 695.43 -52 697.97 C-52 699.22 -52 700.48 -52 701.77 C-52.01 708.07 -52.01 714.38 -52.01 720.69 C-52.01 721.93 -52.01 723.18 -52.01 724.46 C-52.01 757.42 -52.01 790.39 -52 823.35 C-52 826.9 -52 830.44 -51.99 833.99 C-51.99 836.34 -51.99 838.69 -51.99 841.05 C-51.99 857.46 -51.99 873.88 -51.99 890.29 C-51.99 911.44 -51.99 932.6 -51.97 953.75 C-51.96 964.94 -51.96 976.13 -51.97 987.32 C-51.97 994.79 -51.97 1002.26 -51.96 1009.73 C-51.95 1013.99 -51.95 1018.25 -51.95 1022.51 C-51.96 1026.38 -51.96 1030.26 -51.95 1034.13 C-51.94 1035.52 -51.94 1036.92 -51.95 1038.31 C-51.98 1047.14 -51.84 1054.29 -47.06 1061.94 C-46.54 1062.78 -46.02 1063.62 -45.48 1064.48 C-42.81 1068.61 -40.08 1072.71 -37.32 1076.78 C-35.69 1079.25 -35.69 1079.25 -34.69 1081.25 C-35.02 1081.91 -35.35 1082.57 -35.69 1083.25 C-35.1 1083.35 -34.51 1083.44 -33.9 1083.54 C-31.23 1084.4 -30.19 1085.51 -28.31 1087.56 C-25.32 1090.67 -22.4 1093 -18.69 1095.25 C-17.58 1095.94 -17.58 1095.94 -16.44 1096.65 C-11.3 1099.81 -6.11 1102.58 -0.62 1105.07 C1.31 1106.25 1.31 1106.25 2.31 1109.25 C1.35 1109.44 1.35 1109.44 0.38 1109.62 C-0.65 1109.93 -0.65 1109.93 -1.69 1110.25 C-2.02 1110.91 -2.35 1111.57 -2.69 1112.25 C-3.47 1111.13 -3.47 1111.13 -4.27 1109.99 C-7.04 1106.85 -9.62 1105.38 -13.31 1103.44 C-32.46 1092.94 -48.72 1074.65 -55.23 1053.47 C-55.79 1050.73 -55.81 1048.17 -55.82 1045.37 C-55.82 1044.16 -55.82 1042.95 -55.83 1041.7 C-55.82 1040.35 -55.82 1039 -55.82 1037.65 C-55.82 1036.22 -55.83 1034.78 -55.83 1033.34 C-55.84 1029.38 -55.84 1025.41 -55.83 1021.44 C-55.83 1017.13 -55.84 1012.82 -55.85 1008.51 C-55.86 999.96 -55.86 991.4 -55.86 982.84 C-55.86 972.6 -55.87 962.36 -55.88 952.11 C-55.9 927.35 -55.91 902.59 -55.92 877.82 C-55.93 866.11 -55.93 854.4 -55.94 842.69 C-55.95 802.62 -55.97 762.55 -55.98 722.48 C-55.98 719.96 -55.98 717.45 -55.98 714.93 C-55.98 713.68 -55.98 712.44 -55.98 711.15 C-55.98 704.83 -55.98 698.51 -55.98 692.18 C-55.98 690.93 -55.98 689.67 -55.98 688.38 C-55.99 647.69 -56.01 606.99 -56.05 566.3 C-56.08 523.3 -56.1 480.29 -56.1 437.28 C-56.1 432.57 -56.11 427.85 -56.11 423.13 C-56.11 421.97 -56.11 420.8 -56.11 419.61 C-56.11 400.89 -56.12 382.17 -56.14 363.46 C-56.17 344.65 -56.17 325.84 -56.16 307.04 C-56.16 295.86 -56.16 284.68 -56.18 273.5 C-56.2 266.04 -56.2 258.58 -56.18 251.11 C-56.18 246.86 -56.18 242.6 -56.19 238.35 C-56.21 234.48 -56.21 230.61 -56.19 226.73 C-56.18 225.34 -56.19 223.95 -56.2 222.56 C-56.27 212.5 -55.08 203.74 -48.5 195.75 C-45.13 191.59 -44.56 189.51 -44.56 184.07 C-44.55 183.42 -44.55 182.78 -44.55 182.12 C-44.54 179.96 -44.54 177.8 -44.55 175.65 C-44.54 174.1 -44.54 172.56 -44.54 171.01 C-44.53 167.68 -44.52 164.35 -44.52 161.02 C-44.51 155.75 -44.5 150.48 -44.48 145.21 C-44.47 143.41 -44.46 141.6 -44.46 139.8 C-44.46 138.9 -44.45 137.99 -44.45 137.06 C-44.41 124.79 -44.37 112.52 -44.36 100.25 C-44.35 91.98 -44.33 83.7 -44.29 75.43 C-44.27 71.05 -44.26 66.67 -44.27 62.3 C-44.27 58.17 -44.26 54.05 -44.23 49.93 C-44.22 48.42 -44.22 46.91 -44.23 45.4 C-44.26 37.45 -44.12 31.1 -39.69 24.25 C-39.03 24.25 -38.37 24.25 -37.69 24.25 C-37.56 23.45 -37.56 23.45 -37.44 22.62 C-36.41 19.38 -34.72 16.96 -32.69 14.25 C-32.03 14.25 -31.37 14.25 -30.69 14.25 C-30.36 13.26 -30.03 12.27 -29.69 11.25 C-29.03 11.25 -28.37 11.25 -27.69 11.25 C-27.69 10.59 -27.69 9.93 -27.69 9.25 C-26.04 7.81 -26.04 7.81 -23.88 6.25 C-23.17 5.73 -22.46 5.22 -21.73 4.69 C-14.78 -0.2 -8.26 0.05 0 0 Z " fill="#1392EA" transform="translate(282.6875,115.75)"/>
<path d="M0 0 C1.05 -0 2.11 -0 3.19 -0.01 C6.66 -0.01 10.12 -0.01 13.59 -0 C16.01 -0 18.43 -0.01 20.84 -0.01 C25.9 -0.01 30.96 -0.01 36.02 -0 C42.5 0 48.98 0 55.46 -0 C60.45 -0.01 65.44 -0.01 70.43 -0 C72.82 -0 75.21 -0 77.6 -0.01 C80.94 -0.01 84.28 -0.01 87.62 0 C89.1 -0 89.1 -0 90.6 -0.01 C104.02 0.04 104.02 0.04 107.75 3.19 C108.52 4.15 108.52 4.15 109.31 5.13 C107.99 5.13 106.67 5.13 105.31 5.13 C105.31 11.73 105.31 18.33 105.31 25.13 C107.1 25.07 108.9 25.01 110.75 24.94 C128.49 24.94 153.83 25.6 168.31 37.13 C169.87 39.77 170.31 42.01 170.31 45.13 C168.06 45.16 165.81 45.18 163.56 45.19 C162.31 45.2 161.05 45.22 159.76 45.23 C157.03 45.15 154.89 44.96 152.31 44.13 C152.97 42.48 153.63 40.83 154.31 39.13 C145.4 38.8 136.49 38.47 127.31 38.13 C127.31 37.47 127.31 36.81 127.31 36.13 C126.32 36.62 126.32 36.62 125.31 37.13 C122.76 37.23 120.24 37.27 117.69 37.25 C116.89 37.25 116.1 37.25 115.28 37.24 C107.45 37.18 99.64 36.93 91.81 36.66 C75.65 36.13 59.49 35.81 43.33 35.57 C39.53 35.52 35.74 35.45 31.94 35.39 C28.98 35.34 26.02 35.29 23.06 35.25 C21.65 35.23 20.25 35.2 18.85 35.18 C16.92 35.14 14.99 35.12 13.07 35.09 C11.98 35.07 10.88 35.06 9.76 35.04 C7.36 34.85 7.36 34.85 6.31 36.13 C4.44 36.29 2.56 36.38 0.69 36.45 C-1.08 36.51 -1.08 36.51 -2.87 36.57 C-4.13 36.61 -5.39 36.65 -6.69 36.69 C-7.96 36.73 -9.23 36.78 -10.53 36.82 C-37.14 37.65 -37.14 37.65 -41.69 36.13 C-41.69 36.79 -41.69 37.45 -41.69 38.13 C-42.44 38.15 -43.19 38.18 -43.97 38.21 C-47.35 38.32 -50.74 38.44 -54.13 38.57 C-55.31 38.61 -56.49 38.65 -57.71 38.69 C-58.84 38.73 -59.96 38.77 -61.12 38.81 C-62.69 38.87 -62.69 38.87 -64.28 38.92 C-66.64 38.86 -66.64 38.86 -67.69 40.13 C-67.03 40.46 -66.37 40.79 -65.69 41.13 C-66.02 42.45 -66.35 43.77 -66.69 45.13 C-71.97 45.13 -77.25 45.13 -82.69 45.13 C-82.69 41.5 -82.69 37.87 -82.69 34.13 C-82.36 35.12 -82.03 36.11 -81.69 37.13 C-80.78 36.66 -79.87 36.19 -78.94 35.7 C-77.67 35.07 -76.4 34.44 -75.13 33.82 C-74.24 33.35 -74.24 33.35 -73.34 32.88 C-61.38 27.05 -47.32 26.5 -34.25 25.44 C-32.73 25.31 -31.21 25.18 -29.69 25.05 C-26.02 24.73 -22.36 24.43 -18.69 24.13 C-18.36 18.19 -18.03 12.25 -17.69 6.13 C-20.33 5.8 -22.97 5.47 -25.69 5.13 C-25.69 4.8 -25.69 4.47 -25.69 4.13 C-24.56 3.82 -23.42 3.51 -22.25 3.19 C-18.9 2.5 -18.9 2.5 -17.69 1.13 C-11.79 -0 -5.99 -0.01 0 0 Z " fill="#0F91EB" transform="translate(337.689453125,51.87060546875)"/>
<path d="M0 0 C0.33 0 0.66 0 1 0 C1.73 4.58 2.12 8.98 2.12 13.62 C2.13 14.91 2.13 16.2 2.13 17.52 C2.13 18.94 2.13 20.35 2.13 21.76 C2.13 23.26 2.13 24.76 2.13 26.26 C2.14 29.48 2.14 32.7 2.14 35.92 C2.14 41.02 2.15 46.11 2.17 51.2 C2.17 52.06 2.17 52.92 2.18 53.81 C2.18 55.57 2.19 57.33 2.19 59.09 C2.23 70.94 2.25 82.79 2.25 94.64 C2.25 102.64 2.26 110.65 2.3 118.65 C2.32 122.89 2.33 127.12 2.32 131.35 C2.31 135.33 2.32 139.31 2.35 143.28 C2.35 144.74 2.35 146.2 2.34 147.66 C2.33 149.65 2.35 151.64 2.37 153.64 C2.37 154.75 2.37 155.87 2.37 157.01 C3.2 160.96 4.96 162.46 8 165 C8.7 165.33 9.39 165.67 10.11 166.01 C12.79 167.41 13.69 169.28 15.19 171.88 C15.7 172.74 16.21 173.6 16.73 174.49 C18.85 178.68 19.13 182.2 19.13 186.88 C19.13 188.09 19.14 189.3 19.14 190.55 C19.14 191.9 19.14 193.25 19.13 194.6 C19.14 196.03 19.14 197.47 19.14 198.9 C19.15 202.87 19.15 206.84 19.15 210.8 C19.15 215.11 19.15 219.42 19.16 223.73 C19.17 232.28 19.17 240.84 19.17 249.39 C19.18 259.63 19.19 269.88 19.19 280.12 C19.22 304.88 19.23 329.63 19.23 354.39 C19.24 366.1 19.24 377.81 19.25 389.52 C19.27 429.58 19.28 469.65 19.29 509.72 C19.29 512.23 19.29 514.75 19.29 517.26 C19.29 518.51 19.29 519.76 19.29 521.05 C19.29 527.37 19.29 533.69 19.3 540.01 C19.3 541.89 19.3 541.89 19.3 543.81 C19.3 584.5 19.33 625.19 19.36 665.87 C19.39 708.87 19.41 751.87 19.42 794.87 C19.42 799.59 19.42 804.31 19.42 809.03 C19.42 810.77 19.42 810.77 19.42 812.55 C19.42 831.26 19.44 849.97 19.46 868.69 C19.48 887.49 19.48 906.29 19.47 925.1 C19.47 936.27 19.47 947.45 19.5 958.62 C19.51 966.09 19.51 973.55 19.5 981.01 C19.49 985.27 19.49 989.52 19.51 993.77 C19.52 997.65 19.52 1001.52 19.5 1005.39 C19.5 1007.44 19.51 1009.48 19.53 1011.52 C19.38 1031.23 7.71 1047.95 -5.5 1061.88 C-12.24 1068.25 -20.26 1072.86 -28.34 1077.32 C-30.96 1078.97 -32.91 1080.73 -35 1083 C-35.66 1081.68 -36.32 1080.36 -37 1079 C-37.99 1079.33 -38.98 1079.66 -40 1080 C-40 1079.01 -40 1078.02 -40 1077 C-39.15 1076.81 -38.29 1076.61 -37.41 1076.41 C-36.31 1076.15 -35.2 1075.89 -34.06 1075.62 C-32.96 1075.37 -31.86 1075.11 -30.72 1074.85 C-29.37 1074.43 -29.37 1074.43 -28 1074 C-27.67 1073.34 -27.34 1072.68 -27 1072 C-25.67 1071.67 -24.33 1071.33 -23 1071 C-22.67 1070.34 -22.34 1069.68 -22 1069 C-21.26 1068.71 -20.53 1068.42 -19.77 1068.12 C-10.53 1064.37 -3.73 1055.85 2 1048 C2.48 1047.37 2.96 1046.74 3.46 1046.09 C6.55 1041.98 8.8 1037.64 11 1033 C11.58 1031.91 12.15 1030.81 12.75 1029.69 C14.21 1027.04 14.21 1027.04 14 1024 C14.66 1024 15.32 1024 16 1024 C15.84 1023.14 15.67 1022.27 15.51 1021.38 C15.02 1018.15 14.88 1015.15 14.88 1011.88 C14.88 1010.67 14.88 1009.45 14.88 1008.2 C14.88 1006.86 14.89 1005.52 14.89 1004.18 C14.89 1002.74 14.89 1001.31 14.89 999.87 C14.89 995.91 14.9 991.95 14.91 988 C14.92 983.69 14.92 979.39 14.92 975.09 C14.93 967.55 14.94 960 14.95 952.46 C14.97 941.24 14.98 930.03 14.99 918.81 C15 901.1 15.02 883.39 15.04 865.67 C15.08 837.56 15.1 809.45 15.12 781.34 C15.12 775.36 15.12 769.38 15.13 763.4 C15.13 756.14 15.14 748.88 15.14 741.62 C15.16 714.24 15.18 686.86 15.2 659.47 C15.2 658.22 15.2 656.97 15.2 655.68 C15.23 615.08 15.28 574.47 15.33 533.87 C15.38 492.14 15.41 450.41 15.43 408.68 C15.43 402.79 15.43 396.9 15.44 391.01 C15.44 389.85 15.44 388.69 15.44 387.5 C15.45 368.82 15.47 350.14 15.5 331.46 C15.54 312.7 15.55 293.94 15.55 275.18 C15.55 264.03 15.56 252.87 15.59 241.72 C15.61 234.27 15.61 226.83 15.6 219.39 C15.59 215.14 15.6 210.9 15.62 206.65 C15.64 202.79 15.64 198.93 15.62 195.07 C15.61 193.68 15.62 192.29 15.63 190.9 C15.71 182.85 15.45 178.08 10 172 C9.67 171.01 9.34 170.02 9 169 C6.89 168.19 6.89 168.19 4.44 167.81 C3.61 167.65 2.78 167.5 1.93 167.33 C1.3 167.22 0.66 167.11 0 167 C-1.3 160.12 -1.07 153.29 -1 146.31 C-0.97 143.89 -0.95 141.47 -0.94 139.05 C-0.93 137.99 -0.91 136.92 -0.9 135.82 C-0.87 133.14 -0.87 133.14 -1.53 131.24 C-2.17 128.16 -1.83 125.43 -1.57 122.3 C-0.81 112.09 -0.89 101.9 -0.92 91.68 C-0.94 88.17 -0.94 84.66 -0.95 81.16 C-0.96 73.73 -0.98 66.3 -1 58.88 C-1.02 50.23 -1.04 41.58 -1.06 32.93 C-1.06 29.48 -1.07 26.03 -1.09 22.58 C-1.09 20.47 -1.09 18.36 -1.1 16.25 C-1.1 15.3 -1.11 14.34 -1.11 13.36 C-1.11 8.79 -0.94 4.5 0 0 Z " fill="#000000" transform="translate(522,145)"/>
<path d="M0 0 C0.33 0.99 0.66 1.98 1 3 C2.02 2.99 3.04 2.98 4.09 2.97 C7.87 2.93 11.64 2.91 15.42 2.89 C17.05 2.88 18.69 2.87 20.32 2.85 C22.67 2.82 25.02 2.81 27.37 2.8 C28.1 2.79 28.83 2.78 29.59 2.77 C31.39 2.77 33.2 2.88 35 3 C37 5 37 5 37.23 8.62 C37.23 10.18 37.22 11.73 37.2 13.29 C37.19 14.52 37.19 14.52 37.19 15.77 C37.18 18.39 37.15 21.01 37.12 23.62 C37.11 25.4 37.11 27.17 37.1 28.95 C37.08 33.3 37.04 37.65 37 42 C1.73 41.9 -33.54 41.79 -68.81 41.67 C-72.97 41.66 -77.13 41.64 -81.29 41.63 C-82.12 41.62 -82.95 41.62 -83.8 41.62 C-97.23 41.58 -110.66 41.53 -124.08 41.5 C-137.85 41.45 -151.62 41.41 -165.38 41.36 C-173.89 41.33 -182.39 41.31 -190.89 41.28 C-196.71 41.27 -202.53 41.25 -208.36 41.23 C-211.72 41.21 -215.08 41.2 -218.45 41.2 C-222.09 41.19 -225.73 41.17 -229.36 41.16 C-230.44 41.16 -231.51 41.16 -232.62 41.16 C-234.07 41.15 -234.07 41.15 -235.55 41.14 C-236.39 41.14 -237.23 41.13 -238.1 41.13 C-240 41 -240 41 -241 40 C-241.16 37.48 -241.26 34.99 -241.32 32.46 C-241.34 31.71 -241.36 30.96 -241.38 30.18 C-241.44 27.77 -241.5 25.35 -241.56 22.94 C-241.61 21.3 -241.65 19.67 -241.69 18.04 C-241.8 14.02 -241.9 10.01 -242 6 C-242.66 7.32 -243.32 8.64 -244 10 C-244 7.36 -244 4.72 -244 2 C-243.67 2.66 -243.34 3.32 -243 4 C-242.34 3.67 -241.68 3.34 -241 3 C-238.3 2.91 -235.63 2.88 -232.93 2.9 C-232.13 2.9 -231.34 2.91 -230.52 2.91 C-227.97 2.91 -225.42 2.92 -222.88 2.94 C-221.15 2.94 -219.42 2.95 -217.7 2.95 C-213.47 2.96 -209.23 2.98 -205 3 C-205.33 3.66 -205.66 4.32 -206 5 C-206.21 7.46 -206.37 9.91 -206.5 12.38 C-206.71 16.38 -207.02 20.08 -208 24 C-208 27.63 -208 31.26 -208 35 C-138.7 35 -69.4 35 2 35 C2.99 32.52 2.99 32.52 4 30 C3.34 30 2.68 30 2 30 C2.33 27.03 2.66 24.06 3 21 C2.34 21 1.68 21 1 21 C1.33 19.02 1.66 17.04 2 15 C1.34 15 0.68 15 0 15 C-0.19 12.69 -0.38 10.38 -0.56 8.06 C-0.67 6.77 -0.77 5.49 -0.88 4.16 C-0.92 3.12 -0.96 2.07 -1 1 C-0.67 0.67 -0.34 0.34 0 0 Z " fill="#999791" transform="translate(484,270)"/>
<path d="M0 0 C0.33 0 0.66 0 1 0 C1.33 54.12 1.66 108.24 2 164 C0.02 164.33 -1.96 164.66 -4 165 C-4.1 165.52 -4.21 166.03 -4.31 166.56 C-5 169 -5 169 -6.52 171.78 C-8.99 177.55 -8.41 183.83 -8.37 189.99 C-8.38 191.43 -8.38 192.88 -8.39 194.32 C-8.4 198.29 -8.39 202.26 -8.38 206.23 C-8.37 210.55 -8.38 214.87 -8.39 219.18 C-8.4 226.75 -8.39 234.32 -8.38 241.89 C-8.37 253.15 -8.37 264.4 -8.38 275.66 C-8.39 295.76 -8.39 315.86 -8.38 335.96 C-8.37 353.55 -8.36 371.14 -8.36 388.73 C-8.36 389.89 -8.36 391.06 -8.36 392.26 C-8.36 396.99 -8.36 401.73 -8.36 406.46 C-8.37 450.87 -8.36 495.28 -8.33 539.69 C-8.32 579.17 -8.31 618.64 -8.32 658.12 C-8.32 660.65 -8.32 663.18 -8.32 665.72 C-8.32 666.97 -8.32 668.23 -8.32 669.52 C-8.32 675.82 -8.32 682.13 -8.32 688.44 C-8.32 689.68 -8.32 690.93 -8.32 692.21 C-8.32 725.17 -8.32 758.14 -8.31 791.1 C-8.31 794.65 -8.31 798.19 -8.31 801.74 C-8.31 804.09 -8.31 806.44 -8.31 808.8 C-8.3 825.21 -8.3 841.63 -8.3 858.04 C-8.31 879.19 -8.3 900.35 -8.29 921.5 C-8.28 932.69 -8.27 943.88 -8.28 955.07 C-8.28 962.54 -8.28 970.01 -8.27 977.48 C-8.26 981.74 -8.26 986 -8.27 990.26 C-8.27 994.13 -8.27 998.01 -8.26 1001.88 C-8.26 1003.27 -8.26 1004.67 -8.26 1006.06 C-8.29 1014.89 -8.16 1022.04 -3.38 1029.69 C-2.85 1030.53 -2.33 1031.37 -1.79 1032.23 C0.88 1036.36 3.61 1040.46 6.36 1044.53 C8 1047 8 1047 9 1049 C8.67 1049.66 8.34 1050.32 8 1051 C8.59 1051.1 9.18 1051.19 9.79 1051.29 C12.46 1052.15 13.5 1053.26 15.38 1055.31 C18.37 1058.42 21.29 1060.75 25 1063 C26.11 1063.69 26.11 1063.69 27.25 1064.4 C32.38 1067.56 37.57 1070.33 43.07 1072.82 C45 1074 45 1074 46 1077 C45.04 1077.19 45.04 1077.19 44.06 1077.38 C43.04 1077.68 43.04 1077.68 42 1078 C41.67 1078.66 41.34 1079.32 41 1080 C40.21 1078.88 40.21 1078.88 39.41 1077.74 C36.65 1074.6 34.06 1073.13 30.38 1071.19 C11.23 1060.69 -5.03 1042.4 -11.55 1021.22 C-12.11 1018.48 -12.13 1015.92 -12.13 1013.12 C-12.13 1011.91 -12.14 1010.7 -12.14 1009.45 C-12.14 1008.1 -12.14 1006.75 -12.13 1005.4 C-12.14 1003.97 -12.14 1002.53 -12.14 1001.09 C-12.15 997.13 -12.15 993.16 -12.15 989.19 C-12.15 984.88 -12.15 980.57 -12.16 976.26 C-12.17 967.71 -12.17 959.15 -12.17 950.59 C-12.18 940.35 -12.19 930.11 -12.19 919.86 C-12.22 895.1 -12.23 870.34 -12.23 845.57 C-12.24 833.86 -12.24 822.15 -12.25 810.44 C-12.27 770.37 -12.28 730.3 -12.29 690.23 C-12.29 687.71 -12.29 685.2 -12.29 682.68 C-12.29 681.43 -12.29 680.19 -12.29 678.9 C-12.29 672.58 -12.29 666.26 -12.3 659.93 C-12.3 658.68 -12.3 657.42 -12.3 656.13 C-12.3 615.44 -12.33 574.74 -12.36 534.05 C-12.39 491.05 -12.41 448.04 -12.42 405.03 C-12.42 400.32 -12.42 395.6 -12.42 390.88 C-12.42 389.72 -12.42 388.55 -12.42 387.36 C-12.42 368.64 -12.44 349.92 -12.46 331.21 C-12.48 312.4 -12.48 293.59 -12.47 274.79 C-12.47 263.61 -12.47 252.43 -12.5 241.25 C-12.51 233.79 -12.51 226.33 -12.5 218.86 C-12.49 214.61 -12.49 210.35 -12.51 206.1 C-12.52 202.23 -12.52 198.36 -12.5 194.48 C-12.5 193.09 -12.5 191.7 -12.51 190.31 C-12.59 180.25 -11.4 171.49 -4.81 163.5 C-1.43 159.33 -0.87 157.23 -0.84 151.76 C-0.84 151.11 -0.83 150.47 -0.83 149.8 C-0.81 147.62 -0.8 145.45 -0.79 143.27 C-0.79 141.71 -0.78 140.16 -0.76 138.6 C-0.74 134.36 -0.72 130.13 -0.7 125.89 C-0.67 121.47 -0.65 117.05 -0.62 112.62 C-0.57 104.24 -0.53 95.86 -0.48 87.49 C-0.43 77.95 -0.38 68.41 -0.32 58.87 C-0.21 39.25 -0.1 19.62 0 0 Z " fill="#000000" transform="translate(239,148)"/>
<path d="M0 0 C0.33 0 0.66 0 1 0 C1.02 79.34 1.03 158.68 1.04 238.02 C1.04 239.2 1.04 240.37 1.04 241.58 C1.05 267.1 1.05 292.61 1.05 318.13 C1.05 330.64 1.05 343.15 1.05 355.66 C1.06 357.53 1.06 357.53 1.06 359.44 C1.06 399.8 1.07 440.17 1.08 480.54 C1.09 522.02 1.09 563.49 1.09 604.97 C1.09 610.83 1.09 616.68 1.09 622.54 C1.09 623.69 1.1 624.85 1.1 626.03 C1.1 644.6 1.1 663.16 1.11 681.73 C1.11 700.39 1.11 719.05 1.11 737.7 C1.11 748.79 1.11 759.88 1.12 770.97 C1.12 778.38 1.12 785.78 1.12 793.19 C1.12 797.41 1.12 801.63 1.12 805.85 C1.13 809.69 1.13 813.54 1.12 817.38 C1.12 819.41 1.13 821.43 1.13 823.46 C1.12 831.02 0.76 838.47 0 846 C-2 844 -2 844 -2.25 841.54 C-2.25 840.49 -2.25 839.43 -2.25 838.35 C-2.25 837.14 -2.26 835.93 -2.26 834.68 C-2.26 833.32 -2.25 831.96 -2.25 830.6 C-2.25 829.17 -2.25 827.73 -2.25 826.29 C-2.26 822.3 -2.25 818.32 -2.24 814.34 C-2.24 810.01 -2.24 805.69 -2.25 801.37 C-2.25 793.78 -2.25 786.2 -2.24 778.61 C-2.23 767.33 -2.23 756.05 -2.23 744.77 C-2.23 725.8 -2.22 706.83 -2.21 687.85 C-2.2 669.06 -2.19 650.27 -2.19 631.47 C-2.19 630.31 -2.19 629.14 -2.19 627.94 C-2.19 622.01 -2.19 616.08 -2.19 610.15 C-2.18 568.14 -2.17 526.12 -2.15 484.11 C-2.13 443.28 -2.12 402.46 -2.11 361.63 C-2.11 360.37 -2.11 359.12 -2.11 357.82 C-2.11 345.19 -2.1 332.56 -2.1 319.93 C-2.1 294.2 -2.09 268.47 -2.08 242.74 C-2.08 240.96 -2.08 240.96 -2.08 239.15 C-2.07 160.1 -2.03 81.05 -2 2 C-1.34 2 -0.68 2 0 2 C0 1.34 0 0.68 0 0 Z " fill="#E8E1D8" transform="translate(232,322)"/>
<path d="M0 0 C0.33 0.99 0.66 1.98 1 3 C2.02 2.99 3.04 2.98 4.09 2.97 C7.87 2.93 11.64 2.91 15.42 2.89 C17.05 2.88 18.69 2.87 20.32 2.85 C22.67 2.82 25.02 2.81 27.37 2.8 C28.1 2.79 28.83 2.78 29.59 2.77 C31.39 2.77 33.2 2.88 35 3 C37 5 37 5 37.23 8.44 C37.23 9.91 37.22 11.38 37.2 12.85 C37.19 13.63 37.19 14.4 37.19 15.2 C37.18 17.67 37.15 20.15 37.12 22.62 C37.11 24.3 37.11 25.98 37.1 27.66 C37.08 31.77 37.04 35.89 37 40 C36.34 39.34 35.68 38.68 35 38 C35 37.01 35 36.02 35 35 C34.34 35.99 33.68 36.98 33 38 C30.85 38.37 30.85 38.37 28.2 38.36 C27.24 38.36 26.29 38.36 25.3 38.36 C24.29 38.35 23.29 38.33 22.25 38.31 C20.76 38.32 20.76 38.32 19.25 38.32 C14.12 38.28 9.8 38.05 5 36 C4.92 35.31 4.84 34.63 4.76 33.92 C4.39 30.82 4.01 27.72 3.62 24.62 C3.5 23.54 3.37 22.46 3.24 21.35 C3.11 20.32 2.98 19.29 2.85 18.23 C2.74 17.27 2.62 16.32 2.5 15.34 C2.18 12.82 2.18 12.82 0 11 C-0.45 8.65 -0.45 8.65 -0.69 5.94 C-0.77 5.04 -0.86 4.14 -0.95 3.21 C-0.97 2.48 -0.98 1.75 -1 1 C-0.67 0.67 -0.34 0.34 0 0 Z " fill="#979590" transform="translate(484,270)"/>
<path d="M0 0 C0.33 0.66 0.66 1.32 1 2 C1.66 1.67 2.32 1.34 3 1 C5.7 0.91 8.37 0.88 11.07 0.9 C11.87 0.9 12.66 0.91 13.48 0.91 C16.03 0.91 18.58 0.92 21.12 0.94 C22.85 0.94 24.58 0.95 26.3 0.95 C30.53 0.96 34.77 0.98 39 1 C38.67 1.66 38.34 2.32 38 3 C37.79 5.46 37.63 7.91 37.5 10.38 C37.08 18.49 37.08 18.49 36 22 C35.34 22 34.68 22 34 22 C34 25.96 34 29.92 34 34 C31.18 35.41 28.83 35.11 25.68 35.1 C24.42 35.09 23.17 35.09 21.87 35.09 C20.55 35.08 19.23 35.07 17.88 35.06 C16.54 35.06 15.2 35.05 13.86 35.05 C10.57 35.04 7.29 35.02 4 35 C2.58 32.15 2.78 29.64 2.68 26.46 C2.64 25.16 2.6 23.86 2.56 22.52 C2.52 21.14 2.48 19.76 2.44 18.38 C2.39 16.99 2.35 15.6 2.31 14.21 C2.2 10.81 2.1 7.4 2 4 C1.34 5.32 0.68 6.64 0 8 C0 5.36 0 2.72 0 0 Z " fill="#979590" transform="translate(240,272)"/>
<path d="M0 0 C0.03 2.98 0.05 5.96 0.06 8.94 C0.07 9.79 0.08 10.64 0.09 11.51 C0.09 12.32 0.09 13.13 0.1 13.96 C0.1 14.71 0.11 15.46 0.11 16.23 C0 18 0 18 -1 19 C-3.26 19.27 -5.52 19.47 -7.79 19.65 C-9.22 19.77 -10.65 19.89 -12.09 20.01 C-14.33 20.19 -16.58 20.37 -18.82 20.55 C-38.16 21.92 -38.16 21.92 -56.31 28.19 C-61.88 31 -61.88 31 -64 31 C-64.2 29.58 -64.38 28.17 -64.56 26.75 C-64.67 25.96 -64.77 25.17 -64.88 24.36 C-65 21.99 -64.7 20.25 -64 18 C-62 19 -62 19 -60 21 C-59.04 20.64 -58.07 20.28 -57.08 19.91 C-55.8 19.44 -54.53 18.97 -53.25 18.5 C-52.62 18.26 -51.98 18.02 -51.33 17.78 C-47.97 16.55 -45.63 16 -42 16 C-42 15.34 -42 14.68 -42 14 C-36.87 11.72 -31.67 9.79 -26.36 7.96 C-23.86 7.12 -23.86 7.12 -22 5 C-20.68 5 -19.36 5 -18 5 C-18 4.34 -18 3.68 -18 3 C-16.35 2.67 -14.7 2.34 -13 2 C-13 1.34 -13 0.68 -13 0 C-8.35 -1.02 -4.68 -0.75 0 0 Z " fill="#959795" transform="translate(320,58)"/>
<path d="M0 0 C0.33 0 0.66 0 1 0 C1 4.95 1 9.9 1 15 C2.08 14.99 3.16 14.99 4.28 14.98 C30.64 14.83 57.01 14.69 83.38 14.56 C96.13 14.49 108.89 14.42 121.64 14.35 C132.76 14.29 143.88 14.23 155 14.17 C160.88 14.15 166.77 14.12 172.65 14.08 C178.2 14.05 183.75 14.02 189.3 13.99 C191.32 13.98 193.35 13.97 195.37 13.96 C207.62 13.88 219.78 14.16 232 15 C232 14.34 232 13.68 232 13 C235.63 13 239.26 13 243 13 C243 12.34 243 11.68 243 11 C243.66 11 244.32 11 245 11 C245.66 13.31 246.32 15.62 247 18 C211.73 17.9 176.46 17.79 141.19 17.67 C137.03 17.66 132.87 17.64 128.71 17.63 C127.88 17.62 127.05 17.62 126.2 17.62 C112.77 17.58 99.34 17.53 85.92 17.5 C72.15 17.45 58.38 17.41 44.62 17.36 C36.11 17.33 27.61 17.31 19.11 17.28 C13.29 17.27 7.47 17.25 1.64 17.23 C-1.72 17.21 -5.08 17.2 -8.45 17.2 C-12.09 17.19 -15.73 17.17 -19.36 17.16 C-20.44 17.16 -21.51 17.16 -22.62 17.16 C-24.07 17.15 -24.07 17.15 -25.55 17.14 C-26.39 17.14 -27.23 17.13 -28.1 17.13 C-30 17 -30 17 -31 16 C-31.04 14.33 -31.04 12.67 -31 11 C-30.67 11.66 -30.34 12.32 -30 13 C-15.15 12.5 -15.15 12.5 0 12 C0 8.04 0 4.08 0 0 Z " fill="#747A7F" transform="translate(274,294)"/>
<path d="M0 0 C1.55 -0.04 3.1 -0.04 4.65 -0.02 C5.49 -0.04 6.34 -0.05 7.22 -0.06 C10.02 -0.09 12.82 -0.08 15.62 -0.06 C17.57 -0.07 19.52 -0.08 21.47 -0.09 C25.56 -0.1 29.65 -0.09 33.74 -0.07 C38.97 -0.04 44.2 -0.07 49.44 -0.12 C53.47 -0.15 57.5 -0.14 61.52 -0.13 C63.45 -0.13 65.38 -0.14 67.31 -0.15 C70.01 -0.18 72.71 -0.16 75.42 -0.12 C76.21 -0.14 77 -0.15 77.81 -0.17 C82.47 -0.05 84.75 0.82 88.09 4.14 C89.15 5.34 90.19 6.55 91.23 7.77 C92.03 8.38 92.03 8.38 92.86 9 C94.23 10.77 94.23 10.77 95.23 18.77 C111.07 18.77 126.91 18.77 143.23 18.77 C142.23 20.77 142.23 20.77 139.69 21.87 C135.67 22.91 131.88 23.07 127.76 23.07 C126.56 23.08 126.56 23.08 125.34 23.08 C123.66 23.09 121.97 23.09 120.29 23.08 C117.73 23.08 115.17 23.1 112.61 23.13 C110.97 23.13 109.33 23.13 107.69 23.13 C106.93 23.14 106.17 23.15 105.39 23.16 C100.59 23.12 97.3 22.32 93.23 19.77 C91.54 17.65 91.54 17.65 90.23 15.33 C87.03 10.18 84.06 7.71 78.23 5.77 C75.83 5.66 73.43 5.61 71.04 5.59 C70.31 5.59 69.58 5.58 68.83 5.57 C66.41 5.55 64 5.54 61.59 5.53 C60.76 5.53 59.94 5.52 59.09 5.52 C54.71 5.5 50.34 5.48 45.97 5.47 C41.46 5.46 36.96 5.43 32.45 5.39 C28.98 5.36 25.51 5.35 22.03 5.35 C20.37 5.35 18.71 5.33 17.05 5.32 C5.03 5.02 5.03 5.02 -5.77 9.77 C-8.06 12.13 -8.06 12.13 -9.77 14.77 C-11.11 16.44 -12.44 18.1 -13.77 19.77 C-13.77 18.12 -13.77 16.47 -13.77 14.77 C-14.43 14.77 -15.09 14.77 -15.77 14.77 C-14.37 11.95 -12.11 10.53 -9.66 8.6 C-7.56 6.76 -7.56 6.76 -6.18 3.7 C-3.77 0.77 -3.77 0.77 0 0 Z " fill="#000000" transform="translate(343.7747344970703,1209.2313690185547)"/>
<path d="M0 0 C5.93 -0.64 9.43 0.95 14.62 3.76 C17.13 5.15 17.13 5.15 20.56 6.19 C23 7 23 7 24 9 C26.27 10.17 26.27 10.17 28.94 11.19 C29.83 11.55 30.73 11.92 31.65 12.29 C33.99 13.29 33.99 13.29 36 12 C36 12.66 36 13.32 36 14 C36.87 14.27 37.73 14.54 38.62 14.81 C41.92 15.97 44.91 17.38 48 19 C48 19.33 48 19.66 48 20 C37.98 20.41 28.21 19.78 18.25 18.69 C16.54 18.51 16.54 18.51 14.79 18.33 C13.71 18.2 12.63 18.08 11.52 17.95 C10.55 17.84 9.58 17.73 8.59 17.62 C5.71 16.93 4.16 15.99 2 14 C0.7 10.16 0.57 5.82 2 2 C1.34 2 0.68 2 0 2 C0 1.34 0 0.68 0 0 Z " fill="#989690" transform="translate(443,57)"/>
<path d="M0 0 C0.66 0 1.32 0 2 0 C2.04 0.84 2.07 1.69 2.11 2.55 C2.18 3.65 2.24 4.75 2.31 5.88 C2.37 6.97 2.43 8.06 2.49 9.18 C2.74 10.58 2.74 10.58 3 12 C6.16 14.11 7.63 14.41 11.31 14.85 C12.38 14.98 13.45 15.11 14.55 15.24 C15.69 15.37 16.83 15.5 18 15.62 C19.16 15.76 20.32 15.89 21.51 16.02 C31.38 17.08 41.09 17.32 51 17 C51 17.66 51 18.32 51 19 C54.3 19.33 57.6 19.66 61 20 C61.66 16.37 62.32 12.74 63 9 C63.99 9.33 64.98 9.66 66 10 C66 19.24 66 28.48 66 38 C64 35 64 35 63.12 32.47 C61.39 28.65 58.94 27.86 55.22 26.19 C37.69 19.7 18.46 19.4 0 18 C0 12.06 0 6.12 0 0 Z " fill="#72787E" transform="translate(443,59)"/>
<path d="M0 0 C0.54 0.03 1.07 0.06 1.62 0.09 C24.62 1.26 47.62 1.22 70.64 1.3 C76.4 1.33 82.16 1.35 87.92 1.38 C98.78 1.43 109.65 1.47 120.51 1.52 C132.9 1.57 145.29 1.62 157.67 1.68 C183.12 1.79 208.56 1.9 234 2 C234 2.33 234 2.66 234 3 C157.11 3 80.22 3 1 3 C0.67 2.01 0.34 1.02 0 0 Z " fill="#3E4142" transform="translate(243,308)"/>
<path d="M0 0 C84.81 0 169.62 0 257 0 C257 0.33 257 0.66 257 1 C172.19 1 87.38 1 0 1 C0 0.67 0 0.34 0 0 Z " fill="#FBFDFD" transform="translate(253,107)"/>
<path d="M0 0 C0.5 0.99 0.5 0.99 1 2 C-0.22 2.05 -1.45 2.1 -2.71 2.15 C-7.32 2.34 -11.94 2.54 -16.55 2.74 C-18.53 2.83 -20.51 2.91 -22.5 2.99 C-43.4 3.1 -43.4 3.1 -63 9 C-65.55 9.29 -65.55 9.29 -67.88 9.19 C-68.66 9.16 -69.44 9.13 -70.24 9.11 C-70.82 9.07 -71.4 9.04 -72 9 C-72 8.01 -72 7.02 -72 6 C-72.99 5.67 -73.98 5.34 -75 5 C-73 3 -73 3 -70.48 2.77 C-69.44 2.78 -68.4 2.79 -67.34 2.8 C-66.21 2.81 -65.09 2.82 -63.94 2.82 C-62.76 2.84 -61.59 2.86 -60.38 2.88 C-58.6 2.89 -58.6 2.89 -56.79 2.9 C-53.86 2.93 -50.93 2.96 -48 3 C-48 2.34 -48 1.68 -48 1 C-46.88 1.01 -45.76 1.02 -44.61 1.04 C-29.72 1.14 -14.87 0.61 0 0 Z " fill="#72787E" transform="translate(344,87)"/>
<path d="M0 0 C5.21 -0.02 10.42 -0.04 15.63 -0.05 C17.4 -0.06 19.17 -0.07 20.93 -0.08 C39.77 -0.17 39.77 -0.17 49 1 C45.24 4.76 40.85 4.18 35.86 4.2 C35.06 4.21 34.26 4.21 33.43 4.22 C31.74 4.23 30.04 4.24 28.35 4.24 C25.77 4.25 23.2 4.28 20.62 4.31 C18.97 4.32 17.32 4.32 15.67 4.33 C14.91 4.34 14.14 4.35 13.36 4.37 C8.19 4.34 4.63 3.32 0 1 C0 0.67 0 0.34 0 0 Z " fill="#000000" transform="translate(281,1228)"/>
<path d="M0 0 C0.03 2.81 0.05 5.62 0.06 8.44 C0.07 9.24 0.08 10.04 0.09 10.87 C0.1 12.91 0.05 14.96 0 17 C-1.94 18.94 -5.49 18.5 -8.14 18.72 C-8.86 18.78 -9.58 18.84 -10.32 18.91 C-12.63 19.11 -14.94 19.31 -17.25 19.5 C-19.55 19.69 -21.84 19.89 -24.14 20.09 C-25.57 20.22 -27 20.34 -28.43 20.45 C-32.02 20.77 -35.47 21.28 -39 22 C-41.33 22.04 -43.67 22.05 -46 22 C-44 20 -44 20 -40.88 19.88 C-39.45 19.94 -39.45 19.94 -38 20 C-38 19.34 -38 18.68 -38 18 C-36.02 18.33 -34.04 18.66 -32 19 C-32 18.34 -32 17.68 -32 17 C-25.38 16.88 -25.38 16.88 -22 18 C-22 17.34 -22 16.68 -22 16 C-18.7 16.33 -15.4 16.66 -12 17 C-12 16.34 -12 15.68 -12 15 C-10.3 14.54 -10.3 14.54 -8.56 14.06 C-5.21 13.37 -5.21 13.37 -4 12 C-3.72 9.16 -3.55 6.32 -3.38 3.47 C-3.19 2.25 -3.19 2.25 -3 1 C-1 0 -1 0 0 0 Z " fill="#72787E" transform="translate(320,59)"/>
<path d="M0 0 C0.33 0 0.66 0 1 0 C1.02 4.39 1.04 8.78 1.05 13.18 C1.06 14.67 1.07 16.16 1.08 17.65 C1.12 25.49 1.11 33.21 0 41 C-0.85 40.83 -1.7 40.67 -2.58 40.5 C-7.12 39.84 -11.51 40.03 -16.07 40.16 C-19 40 -19 40 -22 38 C-20.68 38 -19.36 38 -18 38 C-18 37.34 -18 36.68 -18 36 C-19.65 35.67 -21.3 35.34 -23 35 C-21.25 33.94 -21.25 33.94 -19 33 C-17.67 33.33 -16.33 33.66 -15 34 C-13.13 34.04 -11.25 34.04 -9.38 34 C-4.22 33.89 -4.22 33.89 -2 35 C-1.31 25.01 -0.9 15.11 -1.06 5.1 C-1 2 -1 2 0 0 Z " fill="#A4A5A4" transform="translate(510,65)"/>
<path d="M0 0 C-3.75 3 -3.75 3 -6 3 C-6 3.66 -6 4.32 -6 5 C-7.87 5.79 -9.75 6.59 -11.62 7.38 C-13.19 8.04 -13.19 8.04 -14.79 8.71 C-17.83 9.93 -20.88 11 -24 12 C-24.2 10.58 -24.38 9.17 -24.56 7.75 C-24.67 6.96 -24.77 6.17 -24.88 5.36 C-25 2.99 -24.7 1.25 -24 -1 C-22 0 -22 0 -20 2 C-18.93 1.55 -18.93 1.55 -17.84 1.09 C-11.33 -1.49 -6.57 -3.29 0 0 Z " fill="#8699A4" transform="translate(280,77)"/>
<path d="M0 0 C0.99 0.33 1.98 0.66 3 1 C3 10.24 3 19.48 3 29 C0.86 25.79 -0.48 22.54 -2 19 C-2.66 18.01 -3.32 17.02 -4 16 C-4 15.01 -4 14.02 -4 13 C-6.97 12.5 -6.97 12.5 -10 12 C-7.11 11.17 -5.11 11 -2 11 C-1.34 7.37 -0.68 3.74 0 0 Z " fill="#757674" transform="translate(506,68)"/>
<path d="M0 0 C0.66 0 1.32 0 2 0 C2.66 2.31 3.32 4.62 4 7 C-3.88 7.15 -11.75 6.93 -19.62 6.62 C-20.61 6.59 -21.59 6.56 -22.61 6.53 C-24 6.47 -24 6.47 -25.41 6.41 C-26.25 6.38 -27.08 6.35 -27.94 6.32 C-30 6 -30 6 -32 4 C-29.12 3.04 -27.71 2.93 -24.77 3.12 C-23.97 3.17 -23.16 3.22 -22.34 3.27 C-21.09 3.35 -21.09 3.35 -19.81 3.44 C-18.55 3.52 -18.55 3.52 -17.25 3.6 C-15.17 3.73 -13.08 3.86 -11 4 C-11 3.34 -11 2.68 -11 2 C-7.37 2 -3.74 2 0 2 C0 1.34 0 0.68 0 0 Z " fill="#666B70" transform="translate(517,305)"/>
<path d="M0 0 C8.91 0 17.82 0 27 0 C27.33 0.66 27.66 1.32 28 2 C26 5 26 5 25 6 C17.32 6.74 12.4 6.22 6 2 C2.73 1.22 2.73 1.22 0 1 C0 0.67 0 0.34 0 0 Z " fill="#72787E" transform="translate(465,90)"/>
<path d="M0 0 C0.33 0 0.66 0 1 0 C1.51 3.12 2.01 6.25 2.5 9.38 C2.64 10.25 2.79 11.12 2.93 12.01 C3.87 18.06 4.18 23.89 4 30 C9.72 30.83 15.22 31.12 21 31 C21 31.66 21 32.32 21 33 C15.06 33 9.12 33 3 33 C1.88 27.38 1.88 27.38 3 24 C2.34 24 1.68 24 1 24 C1.5 19.55 1.5 19.55 2 15 C1.34 15 0.68 15 0 15 C0.33 13.02 0.66 11.04 1 9 C0.34 9 -0.32 9 -1 9 C-0.67 6.03 -0.34 3.06 0 0 Z " fill="#72787E" transform="translate(485,276)"/>
<path d="M0 0 C2.96 0.11 5.92 0.24 8.88 0.38 C10.14 0.42 10.14 0.42 11.43 0.47 C12.63 0.53 12.63 0.53 13.87 0.59 C14.61 0.62 15.35 0.65 16.12 0.68 C18 1 18 1 20 3 C19.67 3.99 19.34 4.98 19 6 C18.31 5.83 17.62 5.67 16.91 5.5 C12.59 4.76 8.34 5.03 3.96 5.16 C1 5 1 5 -2 3 C-0.68 3 0.64 3 2 3 C2 2.34 2 1.68 2 1 C1.34 0.67 0.68 0.34 0 0 Z " fill="#B3B4AA" transform="translate(490,100)"/>
<path d="M0 0 C0.33 0 0.66 0 1 0 C1 10.23 1 20.46 1 31 C0.67 31 0.34 31 0 31 C0 28.36 0 25.72 0 23 C-0.66 23 -1.32 23 -2 23 C-2.05 20.1 -2.09 17.21 -2.12 14.31 C-2.14 13.5 -2.16 12.68 -2.18 11.84 C-2.21 7.43 -2.08 4.01 0 0 Z " fill="#C1C0B6" transform="translate(242,275)"/>
<path d="M0 0 C-4.5 1.76 -8.18 2.19 -13 2 C-13 2.99 -13 3.98 -13 5 C-15.31 5.66 -17.62 6.32 -20 7 C-20 6.01 -20 5.02 -20 4 C-20.99 3.67 -21.98 3.34 -23 3 C-22.34 2.34 -21.68 1.68 -21 1 C-20.67 1.33 -20.34 1.66 -20 2 C-18.93 1.55 -18.93 1.55 -17.84 1.09 C-11.33 -1.49 -6.57 -3.29 0 0 Z " fill="#7B7D7F" transform="translate(280,77)"/>
<path d="M0 0 C2.13 3.55 2.63 6.91 3 11 C2.85 11.57 2.71 12.14 2.55 12.73 C1.75 16.03 1.63 19.37 1.44 22.75 C1.39 23.45 1.35 24.14 1.31 24.86 C1.2 26.58 1.1 28.29 1 30 C0.67 30 0.34 30 0 30 C-0.2 26.13 -0.38 22.25 -0.56 18.38 C-0.62 17.28 -0.67 16.19 -0.73 15.06 C-0.78 14 -0.83 12.93 -0.88 11.84 C-0.93 10.86 -0.97 9.89 -1.02 8.88 C-1 5.83 -0.58 3 0 0 Z " fill="#EAEBE9" transform="translate(252,63)"/>
<path d="M0 0 C1.41 0.07 1.41 0.07 2.85 0.15 C3.84 0.2 4.82 0.26 5.84 0.32 C6.83 0.37 7.82 0.42 8.84 0.47 C11.3 0.6 13.76 0.74 16.21 0.88 C16.54 1.54 16.87 2.2 17.21 2.88 C13.59 2.94 9.96 2.97 6.34 3 C5.3 3.02 4.27 3.04 3.21 3.05 C2.22 3.06 1.23 3.07 0.22 3.07 C-1.15 3.09 -1.15 3.09 -2.54 3.11 C-4.79 2.88 -4.79 2.88 -6.79 0.88 C-4.29 -0.37 -2.79 -0.15 0 0 Z " fill="#3E4142" transform="translate(491.7890625,308.12109375)"/>
<path d="M0 0 C0.66 0 1.32 0 2 0 C2.34 2.69 2.67 5.37 3 8.06 C3.1 8.81 3.19 9.57 3.29 10.34 C3.85 14.93 4.1 19.37 4 24 C3.34 24 2.68 24 2 24 C1.76 21.39 1.53 18.78 1.29 16.17 C1.1 14.08 0.91 11.98 0.71 9.89 C0.62 8.92 0.53 7.94 0.44 6.94 C0.35 6.04 0.27 5.14 0.18 4.21 C0 2 0 2 0 0 Z " fill="#415664" transform="translate(480,244)"/>
<path d="M0 0 C0.33 0.66 0.66 1.32 1 2 C6.68 3.01 12.24 3.12 18 3 C18 3.66 18 4.32 18 5 C12.06 5 6.12 5 0 5 C-0.33 3.68 -0.66 2.36 -1 1 C-0.67 0.67 -0.34 0.34 0 0 Z " fill="#797D81" transform="translate(488,304)"/>
<path d="M0 0 C0.33 0 0.66 0 1 0 C1 11.55 1 23.1 1 35 C-1.15 32.85 -1.54 31.92 -2 29 C-1.67 28.34 -1.34 27.68 -1 27 C-0.85 24.97 -0.75 22.93 -0.68 20.9 C-0.64 19.69 -0.6 18.48 -0.56 17.23 C-0.52 15.96 -0.48 14.68 -0.44 13.38 C-0.39 12.1 -0.35 10.82 -0.31 9.5 C-0.2 6.33 -0.1 3.17 0 0 Z " fill="#E0D4C7" transform="translate(520,275)"/>
<path d="M0 0 C0.33 0 0.66 0 1 0 C1 7.92 1 15.84 1 24 C-1.41 21.59 -1.6 20.33 -2 17 C-1.85 16.43 -1.71 15.85 -1.55 15.26 C-0.82 12.26 -0.65 9.32 -0.44 6.25 C-0.35 5.08 -0.27 3.91 -0.18 2.7 C-0.12 1.81 -0.06 0.92 0 0 Z " fill="#A4ABA9" transform="translate(253,80)"/>
<path d="M0 0 C1.5 0.01 1.5 0.01 3.04 0.03 C3.81 0.04 4.58 0.05 5.38 0.06 C3.39 1.05 3.39 1.05 1.38 2.06 C1.38 2.72 1.38 3.38 1.38 4.06 C-0.61 4.39 -2.58 4.72 -4.62 5.06 C-4.95 4.07 -5.29 3.08 -5.62 2.06 C-6.29 1.73 -6.94 1.4 -7.62 1.06 C-4.98 -0.26 -2.95 -0.03 0 0 Z " fill="#86969F" transform="translate(272.625,77.9375)"/>
<path d="M0 0 C1.13 0.02 2.27 0.04 3.44 0.06 C3.44 0.72 3.44 1.38 3.44 2.06 C4.43 2.39 5.42 2.72 6.44 3.06 C0.5 3.06 -5.44 3.06 -11.56 3.06 C-11.56 2.73 -11.56 2.4 -11.56 2.06 C-10.43 1.92 -9.29 1.77 -8.12 1.62 C-4.14 1 -4.03 0.07 0 0 Z " fill="#B3B4AA" transform="translate(478.5625,1222.9375)"/>
<path d="M0 0 C0.33 0 0.66 0 1 0 C1 5.28 1 10.56 1 16 C-0.98 16 -2.96 16 -5 16 C-5 15.01 -5 14.02 -5 13 C-3.35 12.67 -1.7 12.34 0 12 C0 8.04 0 4.08 0 0 Z " fill="#70767C" transform="translate(274,294)"/>
<path d="M0 0 C2.96 2.96 2.96 5.8 3.1 9.89 C3.09 10.86 3.07 11.82 3.06 12.81 C3.05 13.79 3.04 14.76 3.04 15.77 C3.02 16.51 3.01 17.24 3 18 C2.34 17.67 1.68 17.34 1 17 C1.33 15.02 1.66 13.04 2 11 C1.34 11 0.68 11 0 11 C0 7.37 0 3.74 0 0 Z " fill="#3F4243" transform="translate(473,180)"/>
<path d="M0 0 C3.84 5.75 3.12 12.32 3 19 C2.67 19 2.34 19 2 19 C2 16.69 2 14.38 2 12 C1.34 12 0.68 12 0 12 C0 8.04 0 4.08 0 0 Z " fill="#414445" transform="translate(468,134)"/>
<path d="M0 0 C0.33 0 0.66 0 1 0 C1.85 3.67 2.11 7.04 2.06 10.81 C2.05 11.79 2.04 12.76 2.04 13.77 C2.02 14.51 2.01 15.24 2 16 C1.67 16 1.34 16 1 16 C0.44 13.9 -0.1 11.79 -0.62 9.69 C-1.08 7.93 -1.08 7.93 -1.54 6.14 C-2 3 -2 3 0 0 Z " fill="#3F4244" transform="translate(479,226)"/>
<path d="M0 0 C6.6 0.33 13.2 0.66 20 1 C20 1.33 20 1.66 20 2 C13.4 2.33 6.8 2.66 0 3 C0 2.01 0 1.02 0 0 Z " fill="#737A81" transform="translate(296,88)"/>
<path d="M0 0 C3.22 1.41 5.32 3.1 7.75 5.62 C8.67 6.57 8.67 6.57 9.61 7.54 C10.3 8.26 10.3 8.26 11 9 C10.01 9.33 9.02 9.66 8 10 C6.66 8.71 5.33 7.42 4 6.12 C2.89 5.05 2.89 5.05 1.75 3.95 C0 2 0 2 0 0 Z " fill="#C2BFB5" transform="translate(249,1197)"/>
<path d="M0 0 C0.99 0.33 1.98 0.66 3 1 C3.21 5.47 2.59 8.82 1 13 C0.34 12.34 -0.32 11.68 -1 11 C-0.98 8.4 -0.98 8.4 -0.62 5.38 C-0.51 4.37 -0.4 3.37 -0.29 2.34 C-0.19 1.57 -0.1 0.79 0 0 Z " fill="#929491" transform="translate(506,68)"/>
<path d="M0 0 C1.72 2.97 2.22 4.91 1.98 8.33 C1.93 9.13 1.87 9.93 1.82 10.75 C1.76 11.58 1.69 12.4 1.62 13.25 C1.57 14.09 1.51 14.93 1.45 15.8 C1.31 17.87 1.16 19.93 1 22 C0.67 22 0.34 22 0 22 C-0.2 18.71 -0.38 15.42 -0.56 12.12 C-0.62 11.19 -0.67 10.25 -0.73 9.29 C-0.78 8.39 -0.83 7.49 -0.88 6.57 C-0.93 5.74 -0.97 4.92 -1.02 4.06 C-1 2 -1 2 0 0 Z " fill="#3D4041" transform="translate(254,76)"/>
<path d="M0 0 C0.33 0 0.66 0 1 0 C1 2.97 1 5.94 1 9 C0.67 9 0.34 9 0 9 C0 6.03 0 3.06 0 0 Z " fill="#000000" transform="translate(512,67)"/>
<path d="M0 0 C0 3 0 3 0 3 Z " fill="#2E3031" transform="translate(256,73)"/>
<path d="M0 0 C0.66 0 1.32 0 2 0 C1.67 0.66 1.34 1.32 1 2 C0.67 1.34 0.34 0.68 0 0 Z " fill="#000000" transform="translate(518,140)"/>
<path d="" fill="#000000" transform="translate(0,0)"/>
<path d="M0 0 C0.66 0 1.32 0 2 0 C1.67 0.66 1.34 1.32 1 2 C0.67 1.34 0.34 0.68 0 0 Z " fill="#000000" transform="translate(511,130)"/>
<path d="M0 0 C0.99 0.5 0.99 0.5 2 1 C1.01 1.5 1.01 1.5 0 2 C0 1.34 0 0.68 0 0 Z " fill="#474846" transform="translate(507,66)"/>
<path d="" fill="#000000" transform="translate(0,0)"/>
<path d="" fill="#B5B6AC" transform="translate(0,0)"/>
<path d="M0 0 C2 1 2 1 2 1 Z " fill="#B6BABD" transform="translate(509,63)"/>
<path d="" fill="#000000" transform="translate(0,0)"/>
<path d="" fill="#000000" transform="translate(0,0)"/>
<path d="" fill="#000000" transform="translate(0,0)"/>
<path d="" fill="#000000" transform="translate(0,0)"/>
<path d="" fill="#000000" transform="translate(0,0)"/>
<path d="" fill="#000000" transform="translate(0,0)"/>
<path d="" fill="#000000" transform="translate(0,0)"/>
<path d="" fill="#3E4142" transform="translate(0,0)"/>
</svg>
