<?xml version="1.0" encoding="UTF-8"?>
<!-- Generator: visioncortex VTracer 0.6.3 -->
<svg version="1.1" xmlns="http://www.w3.org/2000/svg" width="768" height="1280">
<path d="M0 0 C1.34 -0 1.34 -0 2.71 -0.01 C5.7 -0.01 8.69 -0.01 11.68 -0.01 C13.83 -0.01 15.97 -0.02 18.12 -0.02 C23.94 -0.03 29.77 -0.03 35.59 -0.03 C39.23 -0.03 42.87 -0.04 46.51 -0.04 C59.21 -0.05 71.9 -0.05 84.6 -0.05 C96.44 -0.05 108.27 -0.06 120.11 -0.08 C130.27 -0.09 140.44 -0.1 150.6 -0.1 C156.67 -0.09 162.74 -0.1 168.81 -0.11 C174.51 -0.12 180.22 -0.12 185.93 -0.11 C188.02 -0.11 190.11 -0.11 192.21 -0.12 C195.06 -0.13 197.92 -0.12 200.78 -0.11 C201.61 -0.12 202.44 -0.12 203.29 -0.13 C209.51 -0.09 215.51 0.74 220.89 4.13 C221.55 5.12 222.21 6.11 222.89 7.13 C224.2 8.49 225.54 9.82 226.89 11.13 C228.22 12.47 229.56 13.8 230.89 15.13 C231.78 15.96 232.66 16.78 233.58 17.63 C235.75 19.98 236.55 21.03 236.89 24.13 C237.55 24.13 238.21 24.13 238.89 24.13 C239.22 26.11 239.55 28.09 239.89 30.13 C240.55 29.8 241.21 29.47 241.89 29.13 C242.81 36.12 243.02 42.94 242.99 49.99 C242.99 51.14 242.99 52.3 242.98 53.48 C242.98 55.98 242.97 58.48 242.97 60.98 C242.95 64.96 242.95 68.94 242.94 72.93 C242.93 82.12 242.91 91.32 242.89 100.52 C242.87 108.91 242.85 117.29 242.84 125.68 C242.83 130.23 242.82 134.78 242.8 139.33 C242.79 146.6 242.83 153.86 242.89 161.13 C242.9 162.48 242.91 163.82 242.91 165.16 C242.94 169.18 243.01 173.2 243.08 177.22 C243.09 178.46 243.09 179.7 243.1 180.97 C243.14 182.68 243.14 182.68 243.19 184.43 C243.2 185.44 243.22 186.45 243.23 187.48 C244.13 191.11 245.81 192.15 248.89 194.13 C249.88 194.46 250.87 194.79 251.89 195.13 C253.43 196.95 253.43 196.95 254.95 199.26 C255.46 200 255.97 200.75 256.49 201.52 C260.55 209.1 260.18 216.67 260.15 225.08 C260.15 226.51 260.16 227.95 260.16 229.39 C260.17 233.34 260.17 237.3 260.17 241.26 C260.16 245.56 260.17 249.86 260.18 254.16 C260.19 261.7 260.2 269.25 260.2 276.79 C260.2 288 260.21 299.22 260.22 310.43 C260.24 332.8 260.25 355.16 260.26 377.53 C260.26 378.68 260.26 379.84 260.26 381.04 C260.26 382.2 260.26 383.36 260.26 384.55 C260.26 397.41 260.27 410.27 260.28 423.12 C260.3 461.95 260.31 500.78 260.31 539.6 C260.31 540.84 260.31 542.09 260.31 543.37 C260.32 548.4 260.32 553.43 260.32 558.47 C260.32 562.26 260.32 566.05 260.32 569.83 C260.32 571.09 260.32 572.34 260.32 573.63 C260.32 612.97 260.34 652.31 260.38 691.65 C260.42 735.84 260.44 780.02 260.44 824.21 C260.44 828.92 260.44 833.63 260.44 838.34 C260.44 839.5 260.44 840.66 260.44 841.85 C260.44 860.53 260.46 879.2 260.49 897.88 C260.51 916.65 260.51 935.41 260.5 954.18 C260.49 965.33 260.5 976.48 260.52 987.63 C260.54 995.08 260.53 1002.53 260.52 1009.98 C260.51 1014.22 260.51 1018.46 260.53 1022.71 C260.55 1026.57 260.54 1030.44 260.52 1034.31 C260.51 1036.34 260.53 1038.37 260.55 1040.41 C260.44 1052.22 256.69 1062.26 250.33 1072.13 C249.9 1072.8 249.48 1073.47 249.04 1074.15 C239.57 1088.51 227.07 1099.27 211.76 1107.1 C209.65 1108.27 207.81 1109.68 205.89 1111.13 C205.56 1111.13 205.23 1111.13 204.89 1111.13 C204.89 1112.12 204.89 1113.11 204.89 1114.13 C200.03 1116.06 195.59 1116.44 190.42 1116.43 C189.22 1116.44 189.22 1116.44 188 1116.45 C186.32 1116.45 184.64 1116.45 182.96 1116.45 C180.4 1116.45 177.84 1116.47 175.28 1116.5 C173.64 1116.5 172 1116.5 170.36 1116.5 C169.6 1116.51 168.84 1116.52 168.06 1116.52 C163.26 1116.48 159.96 1115.69 155.89 1113.13 C153.95 1110.76 153.95 1110.76 152.33 1108.13 C149.63 1103.78 147.13 1101.21 142.18 1099.57 C139 1098.97 135.92 1098.98 132.68 1098.96 C131.96 1098.95 131.24 1098.94 130.5 1098.94 C128.13 1098.92 125.75 1098.91 123.38 1098.9 C122.15 1098.89 122.15 1098.89 120.91 1098.88 C116.6 1098.86 112.29 1098.85 107.99 1098.84 C103.55 1098.83 99.11 1098.79 94.68 1098.75 C91.25 1098.73 87.83 1098.72 84.41 1098.72 C82.77 1098.71 81.14 1098.7 79.5 1098.68 C67.6 1098.42 67.6 1098.42 56.89 1103.13 C54.85 1105.06 54.85 1105.06 53.52 1107.2 C52.82 1108.2 52.82 1108.2 52.12 1109.23 C51.71 1109.86 51.31 1110.49 50.89 1111.13 C48.58 1114.6 47.81 1115.02 43.89 1116.13 C40.99 1116.33 38.2 1116.44 35.3 1116.43 C34.07 1116.44 34.07 1116.44 32.81 1116.45 C31.08 1116.45 29.34 1116.45 27.61 1116.45 C24.97 1116.45 22.32 1116.47 19.68 1116.5 C17.99 1116.5 16.3 1116.5 14.61 1116.5 C13.83 1116.51 13.04 1116.52 12.24 1116.52 C7.38 1116.48 4.16 1115.7 -0.11 1113.13 C-0.11 1112.47 -0.11 1111.81 -0.11 1111.13 C-2.21 1109.55 -2.21 1109.55 -4.92 1107.95 C-5.93 1107.32 -6.93 1106.7 -7.97 1106.05 C-9.95 1104.84 -11.94 1103.63 -13.94 1102.43 C-32.72 1090.92 -47.12 1073.11 -54.11 1052.13 C-54.2 1050.21 -54.24 1048.29 -54.24 1046.37 C-54.24 1045.16 -54.25 1043.95 -54.25 1042.7 C-54.25 1041.34 -54.25 1039.99 -54.25 1038.63 C-54.25 1037.2 -54.25 1035.76 -54.26 1034.32 C-54.27 1030.34 -54.27 1026.37 -54.27 1022.39 C-54.27 1018.07 -54.28 1013.75 -54.28 1009.44 C-54.3 1000.86 -54.31 992.29 -54.31 983.71 C-54.32 973.45 -54.33 963.18 -54.34 952.91 C-54.38 926.92 -54.39 900.92 -54.41 874.93 C-54.42 867.89 -54.42 860.85 -54.43 853.81 C-54.46 810.13 -54.49 766.45 -54.5 722.77 C-54.51 712.64 -54.51 702.52 -54.51 692.4 C-54.51 691.14 -54.51 689.88 -54.52 688.59 C-54.53 647.8 -54.57 607.02 -54.62 566.24 C-54.67 524.32 -54.71 482.41 -54.71 440.5 C-54.71 434.58 -54.72 428.66 -54.72 422.74 C-54.72 421.58 -54.72 420.42 -54.72 419.22 C-54.72 400.46 -54.75 381.7 -54.78 362.94 C-54.81 344.1 -54.82 325.25 -54.81 306.4 C-54.8 295.19 -54.81 283.99 -54.85 272.79 C-54.87 265.31 -54.87 257.83 -54.85 250.34 C-54.84 246.08 -54.84 241.82 -54.86 237.55 C-54.89 233.67 -54.88 229.79 -54.86 225.91 C-54.85 224.51 -54.86 223.12 -54.87 221.73 C-55.01 209.65 -51.69 201.45 -44.11 192.13 C-42.71 189.34 -42.99 187.05 -42.99 183.92 C-42.99 182.96 -42.99 182.96 -42.99 181.97 C-42.99 179.81 -42.99 177.64 -43 175.47 C-43 173.92 -43 172.37 -43 170.82 C-43 167.47 -43 164.13 -43 160.78 C-43 155.49 -43 150.19 -42.98 144.89 C-42.98 144 -42.98 143.11 -42.98 142.19 C-42.97 140.36 -42.97 138.53 -42.96 136.7 C-42.94 124.37 -42.92 112.04 -42.93 99.71 C-42.95 91.4 -42.94 83.08 -42.9 74.77 C-42.88 70.37 -42.88 65.97 -42.9 61.58 C-42.92 57.43 -42.91 53.29 -42.88 49.15 C-42.87 47.63 -42.87 46.12 -42.89 44.6 C-42.97 35.25 -41.89 28.72 -36.11 21.13 C-35.64 20.42 -35.17 19.71 -34.68 18.98 C-33.56 17.31 -32.35 15.71 -31.11 14.13 C-30.45 14.13 -29.79 14.13 -29.11 14.13 C-28.78 13.14 -28.45 12.15 -28.11 11.13 C-27.45 11.13 -26.79 11.13 -26.11 11.13 C-25.78 10.14 -25.45 9.15 -25.11 8.13 C-24.45 8.13 -23.79 8.13 -23.11 8.13 C-23.11 7.47 -23.11 6.81 -23.11 6.13 C-18.72 3.13 -18.72 3.13 -16.11 3.13 C-16.11 2.47 -16.11 1.81 -16.11 1.13 C-10.69 0.23 -5.48 -0.01 0 0 Z M232.89 19.13 C233.24 21.11 233.24 21.11 233.89 23.13 C234.55 23.46 235.21 23.79 235.89 24.13 C235.23 22.48 234.57 20.83 233.89 19.13 C233.56 19.13 233.23 19.13 232.89 19.13 Z M236.89 25.13 C237.89 27.13 237.89 27.13 237.89 27.13 Z M239.89 37.13 C240.89 40.13 240.89 40.13 240.89 40.13 Z M239.89 146.13 C240.89 149.13 240.89 149.13 240.89 149.13 Z M239.89 152.13 C239.89 154.77 239.89 157.41 239.89 160.13 C240.22 160.13 240.55 160.13 240.89 160.13 C240.89 157.49 240.89 154.85 240.89 152.13 C240.56 152.13 240.23 152.13 239.89 152.13 Z M239.89 163.13 C240.89 166.13 240.89 166.13 240.89 166.13 Z M239.89 187.13 C240.89 189.13 240.89 189.13 240.89 189.13 Z M253.89 203.13 C254.89 205.13 254.89 205.13 254.89 205.13 Z M254.89 205.13 C255.89 208.13 255.89 208.13 255.89 208.13 Z M255.89 208.13 C255.89 209.78 255.89 211.43 255.89 213.13 C256.22 213.13 256.55 213.13 256.89 213.13 C256.89 211.48 256.89 209.83 256.89 208.13 C256.56 208.13 256.23 208.13 255.89 208.13 Z M255.89 1047.13 C255.89 1049.11 255.89 1051.09 255.89 1053.13 C256.22 1053.13 256.55 1053.13 256.89 1053.13 C256.89 1051.15 256.89 1049.17 256.89 1047.13 C256.56 1047.13 256.23 1047.13 255.89 1047.13 Z M254.89 1053.13 C254.56 1054.45 254.23 1055.77 253.89 1057.13 C254.55 1056.8 255.21 1056.47 255.89 1056.13 C255.56 1055.14 255.23 1054.15 254.89 1053.13 Z M251.89 1060.13 C251.56 1061.45 251.23 1062.77 250.89 1064.13 C251.55 1062.81 252.21 1061.49 252.89 1060.13 C252.56 1060.13 252.23 1060.13 251.89 1060.13 Z M249.89 1064.13 C249.23 1064.79 248.57 1065.45 247.89 1066.13 C248.22 1067.12 248.55 1068.11 248.89 1069.13 C249.55 1067.48 250.21 1065.83 250.89 1064.13 C250.56 1064.13 250.23 1064.13 249.89 1064.13 Z M246.89 1069.13 C246.89 1072.13 246.89 1072.13 246.89 1072.13 Z M244.89 1072.13 C240.44 1078.07 240.44 1078.07 235.89 1084.13 C236.22 1084.79 236.55 1085.45 236.89 1086.13 C239.86 1082.17 242.83 1078.21 245.89 1074.13 C245.56 1073.47 245.23 1072.81 244.89 1072.13 Z M233.89 1086.13 C230.92 1088.61 230.92 1088.61 227.89 1091.13 C228.22 1091.79 228.55 1092.45 228.89 1093.13 C230.87 1091.48 232.85 1089.83 234.89 1088.13 C234.56 1087.47 234.23 1086.81 233.89 1086.13 Z M223.89 1094.13 C221.27 1095.52 221.27 1095.52 218.89 1097.13 C219.22 1097.79 219.55 1098.45 219.89 1099.13 C221.87 1097.81 223.85 1096.49 225.89 1095.13 C225.23 1094.8 224.57 1094.47 223.89 1094.13 Z M52.89 1100.13 C52.23 1101.45 51.57 1102.77 50.89 1104.13 C51.88 1103.47 52.87 1102.81 53.89 1102.13 C53.56 1101.47 53.23 1100.81 52.89 1100.13 Z M213.89 1100.13 C213.56 1100.79 213.23 1101.45 212.89 1102.13 C213.88 1101.8 214.87 1101.47 215.89 1101.13 C215.23 1100.8 214.57 1100.47 213.89 1100.13 Z M208.27 1103.63 C207.81 1104.13 207.36 1104.62 206.89 1105.13 C208.87 1104.79 208.87 1104.79 210.89 1104.13 C211.22 1103.47 211.55 1102.81 211.89 1102.13 C209.77 1101.91 209.77 1101.91 208.27 1103.63 Z M3.89 1112.13 C3.89 1112.46 3.89 1112.79 3.89 1113.13 C5.54 1113.13 7.19 1113.13 8.89 1113.13 C8.89 1112.8 8.89 1112.47 8.89 1112.13 C7.24 1112.13 5.59 1112.13 3.89 1112.13 Z M46.89 1107.13 C46.89 1108.45 46.89 1109.77 46.89 1111.13 C42.44 1111.63 42.44 1111.63 37.89 1112.13 C37.89 1112.46 37.89 1112.79 37.89 1113.13 C41.19 1113.13 44.49 1113.13 47.89 1113.13 C48.22 1111.48 48.55 1109.83 48.89 1108.13 C48.23 1107.8 47.57 1107.47 46.89 1107.13 Z M157.89 1112.13 C157.89 1112.46 157.89 1112.79 157.89 1113.13 C159.54 1113.13 161.19 1113.13 162.89 1113.13 C162.89 1112.8 162.89 1112.47 162.89 1112.13 C161.24 1112.13 159.59 1112.13 157.89 1112.13 Z M192.89 1112.13 C192.89 1112.46 192.89 1112.79 192.89 1113.13 C195.86 1113.13 198.83 1113.13 201.89 1113.13 C201.89 1112.8 201.89 1112.47 201.89 1112.13 C198.92 1112.13 195.95 1112.13 192.89 1112.13 Z " fill="#F37F1A" transform="translate(276.1087646484375,115.86628723144531)"/>
<path d="M0 0 C1.34 -0 1.34 -0 2.71 -0.01 C5.7 -0.01 8.69 -0.01 11.68 -0.01 C13.83 -0.01 15.97 -0.02 18.12 -0.02 C23.94 -0.03 29.77 -0.03 35.59 -0.03 C39.23 -0.03 42.87 -0.04 46.51 -0.04 C59.21 -0.05 71.9 -0.05 84.6 -0.05 C96.44 -0.05 108.27 -0.06 120.11 -0.08 C130.27 -0.09 140.44 -0.1 150.6 -0.1 C156.67 -0.09 162.74 -0.1 168.81 -0.11 C174.51 -0.12 180.22 -0.12 185.93 -0.11 C188.02 -0.11 190.11 -0.11 192.21 -0.12 C195.06 -0.13 197.92 -0.12 200.78 -0.11 C201.61 -0.12 202.44 -0.12 203.29 -0.13 C209.51 -0.09 215.51 0.74 220.89 4.13 C221.55 5.12 222.21 6.11 222.89 7.13 C224.2 8.49 225.54 9.82 226.89 11.13 C228.22 12.47 229.56 13.8 230.89 15.13 C231.78 15.96 232.66 16.78 233.58 17.63 C235.75 19.98 236.55 21.03 236.89 24.13 C237.55 24.13 238.21 24.13 238.89 24.13 C239.22 26.11 239.55 28.09 239.89 30.13 C240.55 29.8 241.21 29.47 241.89 29.13 C242.81 36.12 243.02 42.94 242.99 49.99 C242.99 51.14 242.99 52.3 242.98 53.48 C242.98 55.98 242.97 58.48 242.97 60.98 C242.95 64.96 242.95 68.94 242.94 72.93 C242.93 82.12 242.91 91.32 242.89 100.52 C242.87 108.91 242.85 117.29 242.84 125.68 C242.83 130.23 242.82 134.78 242.8 139.33 C242.79 146.6 242.83 153.86 242.89 161.13 C242.9 162.48 242.91 163.82 242.91 165.16 C242.94 169.18 243.01 173.2 243.08 177.22 C243.09 178.46 243.09 179.7 243.1 180.97 C243.14 182.68 243.14 182.68 243.19 184.43 C243.2 185.44 243.22 186.45 243.23 187.48 C244.13 191.11 245.81 192.15 248.89 194.13 C249.88 194.46 250.87 194.79 251.89 195.13 C253.43 196.95 253.43 196.95 254.95 199.26 C255.46 200 255.97 200.75 256.49 201.52 C260.55 209.1 260.18 216.67 260.15 225.08 C260.15 226.51 260.16 227.95 260.16 229.39 C260.17 233.34 260.17 237.3 260.17 241.26 C260.16 245.56 260.17 249.86 260.18 254.16 C260.19 261.7 260.2 269.25 260.2 276.79 C260.2 288 260.21 299.22 260.22 310.43 C260.24 332.8 260.25 355.16 260.26 377.53 C260.26 378.68 260.26 379.84 260.26 381.04 C260.26 382.2 260.26 383.36 260.26 384.55 C260.26 397.41 260.27 410.27 260.28 423.12 C260.3 461.95 260.31 500.78 260.31 539.6 C260.31 540.84 260.31 542.09 260.31 543.37 C260.32 548.4 260.32 553.43 260.32 558.47 C260.32 562.26 260.32 566.05 260.32 569.83 C260.32 571.09 260.32 572.34 260.32 573.63 C260.32 612.97 260.34 652.31 260.38 691.65 C260.42 735.84 260.44 780.02 260.44 824.21 C260.44 828.92 260.44 833.63 260.44 838.34 C260.44 839.5 260.44 840.66 260.44 841.85 C260.44 860.53 260.46 879.2 260.49 897.88 C260.51 916.65 260.51 935.41 260.5 954.18 C260.49 965.33 260.5 976.48 260.52 987.63 C260.54 995.08 260.53 1002.53 260.52 1009.98 C260.51 1014.22 260.51 1018.46 260.53 1022.71 C260.55 1026.57 260.54 1030.44 260.52 1034.31 C260.51 1036.34 260.53 1038.37 260.55 1040.41 C260.44 1052.22 256.69 1062.26 250.33 1072.13 C249.9 1072.8 249.48 1073.47 249.04 1074.15 C239.57 1088.51 227.07 1099.27 211.76 1107.1 C209.65 1108.27 207.81 1109.68 205.89 1111.13 C205.56 1111.13 205.23 1111.13 204.89 1111.13 C204.89 1112.12 204.89 1113.11 204.89 1114.13 C200.03 1116.06 195.59 1116.44 190.42 1116.43 C189.22 1116.44 189.22 1116.44 188 1116.45 C186.32 1116.45 184.64 1116.45 182.96 1116.45 C180.4 1116.45 177.84 1116.47 175.28 1116.5 C173.64 1116.5 172 1116.5 170.36 1116.5 C169.6 1116.51 168.84 1116.52 168.06 1116.52 C163.26 1116.48 159.96 1115.69 155.89 1113.13 C153.95 1110.76 153.95 1110.76 152.33 1108.13 C149.63 1103.78 147.13 1101.21 142.18 1099.57 C139 1098.97 135.92 1098.98 132.68 1098.96 C131.96 1098.95 131.24 1098.94 130.5 1098.94 C128.13 1098.92 125.75 1098.91 123.38 1098.9 C122.15 1098.89 122.15 1098.89 120.91 1098.88 C116.6 1098.86 112.29 1098.85 107.99 1098.84 C103.55 1098.83 99.11 1098.79 94.68 1098.75 C91.25 1098.73 87.83 1098.72 84.41 1098.72 C82.77 1098.71 81.14 1098.7 79.5 1098.68 C67.6 1098.42 67.6 1098.42 56.89 1103.13 C54.85 1105.06 54.85 1105.06 53.52 1107.2 C52.82 1108.2 52.82 1108.2 52.12 1109.23 C51.71 1109.86 51.31 1110.49 50.89 1111.13 C48.58 1114.6 47.81 1115.02 43.89 1116.13 C40.99 1116.33 38.2 1116.44 35.3 1116.43 C34.07 1116.44 34.07 1116.44 32.81 1116.45 C31.08 1116.45 29.34 1116.45 27.61 1116.45 C24.97 1116.45 22.32 1116.47 19.68 1116.5 C17.99 1116.5 16.3 1116.5 14.61 1116.5 C13.83 1116.51 13.04 1116.52 12.24 1116.52 C7.38 1116.48 4.16 1115.7 -0.11 1113.13 C-0.11 1112.47 -0.11 1111.81 -0.11 1111.13 C-2.21 1109.55 -2.21 1109.55 -4.92 1107.95 C-5.93 1107.32 -6.93 1106.7 -7.97 1106.05 C-9.95 1104.84 -11.94 1103.63 -13.94 1102.43 C-32.72 1090.92 -47.12 1073.11 -54.11 1052.13 C-54.2 1050.21 -54.24 1048.29 -54.24 1046.37 C-54.24 1045.16 -54.25 1043.95 -54.25 1042.7 C-54.25 1041.34 -54.25 1039.99 -54.25 1038.63 C-54.25 1037.2 -54.25 1035.76 -54.26 1034.32 C-54.27 1030.34 -54.27 1026.37 -54.27 1022.39 C-54.27 1018.07 -54.28 1013.75 -54.28 1009.44 C-54.3 1000.86 -54.31 992.29 -54.31 983.71 C-54.32 973.45 -54.33 963.18 -54.34 952.91 C-54.38 926.92 -54.39 900.92 -54.41 874.93 C-54.42 867.89 -54.42 860.85 -54.43 853.81 C-54.46 810.13 -54.49 766.45 -54.5 722.77 C-54.51 712.64 -54.51 702.52 -54.51 692.4 C-54.51 691.14 -54.51 689.88 -54.52 688.59 C-54.53 647.8 -54.57 607.02 -54.62 566.24 C-54.67 524.32 -54.71 482.41 -54.71 440.5 C-54.71 434.58 -54.72 428.66 -54.72 422.74 C-54.72 421.58 -54.72 420.42 -54.72 419.22 C-54.72 400.46 -54.75 381.7 -54.78 362.94 C-54.81 344.1 -54.82 325.25 -54.81 306.4 C-54.8 295.19 -54.81 283.99 -54.85 272.79 C-54.87 265.31 -54.87 257.83 -54.85 250.34 C-54.84 246.08 -54.84 241.82 -54.86 237.55 C-54.89 233.67 -54.88 229.79 -54.86 225.91 C-54.85 224.51 -54.86 223.12 -54.87 221.73 C-55.01 209.65 -51.69 201.45 -44.11 192.13 C-42.71 189.34 -42.99 187.05 -42.99 183.92 C-42.99 182.96 -42.99 182.96 -42.99 181.97 C-42.99 179.81 -42.99 177.64 -43 175.47 C-43 173.92 -43 172.37 -43 170.82 C-43 167.47 -43 164.13 -43 160.78 C-43 155.49 -43 150.19 -42.98 144.89 C-42.98 144 -42.98 143.11 -42.98 142.19 C-42.97 140.36 -42.97 138.53 -42.96 136.7 C-42.94 124.37 -42.92 112.04 -42.93 99.71 C-42.95 91.4 -42.94 83.08 -42.9 74.77 C-42.88 70.37 -42.88 65.97 -42.9 61.58 C-42.92 57.43 -42.91 53.29 -42.88 49.15 C-42.87 47.63 -42.87 46.12 -42.89 44.6 C-42.97 35.25 -41.89 28.72 -36.11 21.13 C-35.64 20.42 -35.17 19.71 -34.68 18.98 C-33.56 17.31 -32.35 15.71 -31.11 14.13 C-30.45 14.13 -29.79 14.13 -29.11 14.13 C-28.78 13.14 -28.45 12.15 -28.11 11.13 C-27.45 11.13 -26.79 11.13 -26.11 11.13 C-25.78 10.14 -25.45 9.15 -25.11 8.13 C-24.45 8.13 -23.79 8.13 -23.11 8.13 C-23.11 7.47 -23.11 6.81 -23.11 6.13 C-18.72 3.13 -18.72 3.13 -16.11 3.13 C-16.11 2.47 -16.11 1.81 -16.11 1.13 C-10.69 0.23 -5.48 -0.01 0 0 Z M232.89 19.13 C233.24 21.11 233.24 21.11 233.89 23.13 C234.55 23.46 235.21 23.79 235.89 24.13 C235.23 22.48 234.57 20.83 233.89 19.13 C233.56 19.13 233.23 19.13 232.89 19.13 Z M236.89 25.13 C237.89 27.13 237.89 27.13 237.89 27.13 Z M239.89 37.13 C240.89 40.13 240.89 40.13 240.89 40.13 Z M239.89 146.13 C240.89 149.13 240.89 149.13 240.89 149.13 Z M239.89 152.13 C239.89 154.77 239.89 157.41 239.89 160.13 C240.22 160.13 240.55 160.13 240.89 160.13 C240.89 157.49 240.89 154.85 240.89 152.13 C240.56 152.13 240.23 152.13 239.89 152.13 Z M239.89 163.13 C240.89 166.13 240.89 166.13 240.89 166.13 Z M239.89 187.13 C240.89 189.13 240.89 189.13 240.89 189.13 Z M253.89 203.13 C254.89 205.13 254.89 205.13 254.89 205.13 Z M254.89 205.13 C255.89 208.13 255.89 208.13 255.89 208.13 Z M255.89 208.13 C255.89 209.78 255.89 211.43 255.89 213.13 C256.22 213.13 256.55 213.13 256.89 213.13 C256.89 211.48 256.89 209.83 256.89 208.13 C256.56 208.13 256.23 208.13 255.89 208.13 Z M-14.48 231.57 C-18.63 240.65 -19.54 248.73 -19.49 258.67 C-19.49 260.02 -19.5 261.38 -19.5 262.73 C-19.52 266.45 -19.51 270.17 -19.5 273.88 C-19.49 277.93 -19.5 281.98 -19.51 286.02 C-19.53 293.11 -19.53 300.2 -19.52 307.29 C-19.51 317.83 -19.52 328.38 -19.53 338.92 C-19.55 357.75 -19.55 376.57 -19.55 395.4 C-19.54 411.88 -19.54 428.36 -19.55 444.84 C-19.55 447.05 -19.55 449.26 -19.55 451.47 C-19.55 454.8 -19.55 458.13 -19.55 461.46 C-19.57 492.42 -19.57 523.38 -19.56 554.34 C-19.56 555.51 -19.56 556.68 -19.56 557.88 C-19.56 567.36 -19.56 576.84 -19.55 586.32 C-19.54 623.3 -19.55 660.28 -19.58 697.25 C-19.6 738.79 -19.61 780.33 -19.61 821.88 C-19.61 826.3 -19.61 830.73 -19.61 835.16 C-19.6 836.25 -19.6 837.34 -19.6 838.47 C-19.6 854.93 -19.61 871.4 -19.62 887.87 C-19.64 906.59 -19.64 925.32 -19.62 944.04 C-19.61 954.52 -19.61 965 -19.63 975.48 C-19.64 982.48 -19.64 989.48 -19.62 996.48 C-19.61 1000.47 -19.61 1004.46 -19.63 1008.45 C-19.64 1012.08 -19.63 1015.71 -19.62 1019.35 C-19.61 1021.26 -19.62 1023.17 -19.64 1025.08 C-19.54 1036.39 -16.87 1047.53 -9.11 1056.13 C-6.25 1058.39 -3.23 1060.27 -0.11 1062.13 C2.95 1064.26 2.95 1064.26 4.89 1066.13 C4.89 1067.45 4.89 1068.77 4.89 1070.13 C7.92 1071.65 11.06 1071.27 14.38 1071.25 C15.16 1071.25 15.95 1071.26 16.75 1071.26 C19.38 1071.26 22.02 1071.25 24.65 1071.25 C26.53 1071.25 28.42 1071.25 30.3 1071.25 C35.42 1071.25 40.54 1071.24 45.66 1071.24 C51.01 1071.23 56.36 1071.23 61.71 1071.23 C71.84 1071.22 81.97 1071.22 92.1 1071.21 C103.64 1071.19 115.17 1071.19 126.7 1071.18 C150.43 1071.17 174.16 1071.16 197.89 1071.13 C199.22 1068.13 199.22 1068.13 197.89 1065.13 C198.7 1064.93 199.5 1064.72 200.33 1064.51 C210.2 1060.7 215.76 1054.92 220.14 1045.51 C222.34 1040.51 223.02 1035.9 223.02 1030.45 C223.02 1028.74 223.02 1028.74 223.03 1026.99 C223.02 1025.73 223.02 1024.48 223.02 1023.19 C223.02 1021.84 223.02 1020.49 223.03 1019.13 C223.03 1015.4 223.03 1011.67 223.03 1007.94 C223.02 1003.89 223.03 999.83 223.03 995.78 C223.04 988.67 223.04 981.56 223.04 974.45 C223.04 963.88 223.04 953.31 223.05 942.74 C223.05 922.76 223.06 902.79 223.06 882.81 C223.06 867.38 223.06 851.96 223.06 836.53 C223.06 832.1 223.07 827.66 223.07 823.22 C223.07 822.12 223.07 821.02 223.07 819.88 C223.07 788.85 223.08 757.82 223.08 726.79 C223.08 725.62 223.08 724.45 223.08 723.24 C223.08 717.31 223.08 711.38 223.08 705.44 C223.08 704.26 223.08 703.09 223.08 701.87 C223.08 699.49 223.08 697.11 223.08 694.72 C223.08 657.65 223.08 620.57 223.1 583.49 C223.11 541.85 223.12 500.22 223.12 458.58 C223.12 454.14 223.12 449.71 223.12 445.27 C223.12 444.18 223.12 443.08 223.12 441.96 C223.12 424.36 223.13 406.75 223.13 389.15 C223.14 371.47 223.14 353.78 223.14 336.1 C223.13 325.59 223.14 315.07 223.15 304.56 C223.15 297.54 223.15 290.53 223.14 283.51 C223.14 279.51 223.14 275.51 223.15 271.51 C223.15 267.86 223.15 264.22 223.14 260.58 C223.14 258.66 223.15 256.73 223.16 254.81 C223.12 245.38 222.95 236.19 215.89 229.13 C209.58 228.13 203.2 227.99 196.81 228.01 C195.96 228.01 195.1 228 194.22 228 C191.39 228 188.55 228 185.71 228 C183.67 228 181.62 228 179.58 228 C174.04 227.99 168.51 228 162.97 228 C157.17 228 151.37 228 145.56 228 C135.82 228 126.08 228 116.34 228 C105.09 228.01 93.83 228.01 82.58 228 C72.91 228 63.23 228 53.56 228 C47.79 228 42.02 228 36.24 228 C30.82 227.99 25.39 228 19.96 228 C17.98 228 15.99 228 14 228 C11.28 228 8.56 228 5.84 228.01 C5.06 228 4.28 228 3.48 228 C-6.33 227.52 -6.33 227.52 -14.48 231.57 Z M255.89 1047.13 C255.89 1049.11 255.89 1051.09 255.89 1053.13 C256.22 1053.13 256.55 1053.13 256.89 1053.13 C256.89 1051.15 256.89 1049.17 256.89 1047.13 C256.56 1047.13 256.23 1047.13 255.89 1047.13 Z M254.89 1053.13 C254.56 1054.45 254.23 1055.77 253.89 1057.13 C254.55 1056.8 255.21 1056.47 255.89 1056.13 C255.56 1055.14 255.23 1054.15 254.89 1053.13 Z M251.89 1060.13 C251.56 1061.45 251.23 1062.77 250.89 1064.13 C251.55 1062.81 252.21 1061.49 252.89 1060.13 C252.56 1060.13 252.23 1060.13 251.89 1060.13 Z M249.89 1064.13 C249.23 1064.79 248.57 1065.45 247.89 1066.13 C248.22 1067.12 248.55 1068.11 248.89 1069.13 C249.55 1067.48 250.21 1065.83 250.89 1064.13 C250.56 1064.13 250.23 1064.13 249.89 1064.13 Z M246.89 1069.13 C246.89 1072.13 246.89 1072.13 246.89 1072.13 Z M244.89 1072.13 C240.44 1078.07 240.44 1078.07 235.89 1084.13 C236.22 1084.79 236.55 1085.45 236.89 1086.13 C239.86 1082.17 242.83 1078.21 245.89 1074.13 C245.56 1073.47 245.23 1072.81 244.89 1072.13 Z M233.89 1086.13 C230.92 1088.61 230.92 1088.61 227.89 1091.13 C228.22 1091.79 228.55 1092.45 228.89 1093.13 C230.87 1091.48 232.85 1089.83 234.89 1088.13 C234.56 1087.47 234.23 1086.81 233.89 1086.13 Z M223.89 1094.13 C221.27 1095.52 221.27 1095.52 218.89 1097.13 C219.22 1097.79 219.55 1098.45 219.89 1099.13 C221.87 1097.81 223.85 1096.49 225.89 1095.13 C225.23 1094.8 224.57 1094.47 223.89 1094.13 Z M52.89 1100.13 C52.23 1101.45 51.57 1102.77 50.89 1104.13 C51.88 1103.47 52.87 1102.81 53.89 1102.13 C53.56 1101.47 53.23 1100.81 52.89 1100.13 Z M213.89 1100.13 C213.56 1100.79 213.23 1101.45 212.89 1102.13 C213.88 1101.8 214.87 1101.47 215.89 1101.13 C215.23 1100.8 214.57 1100.47 213.89 1100.13 Z M208.27 1103.63 C207.81 1104.13 207.36 1104.62 206.89 1105.13 C208.87 1104.79 208.87 1104.79 210.89 1104.13 C211.22 1103.47 211.55 1102.81 211.89 1102.13 C209.77 1101.91 209.77 1101.91 208.27 1103.63 Z M3.89 1112.13 C3.89 1112.46 3.89 1112.79 3.89 1113.13 C5.54 1113.13 7.19 1113.13 8.89 1113.13 C8.89 1112.8 8.89 1112.47 8.89 1112.13 C7.24 1112.13 5.59 1112.13 3.89 1112.13 Z M46.89 1107.13 C46.89 1108.45 46.89 1109.77 46.89 1111.13 C42.44 1111.63 42.44 1111.63 37.89 1112.13 C37.89 1112.46 37.89 1112.79 37.89 1113.13 C41.19 1113.13 44.49 1113.13 47.89 1113.13 C48.22 1111.48 48.55 1109.83 48.89 1108.13 C48.23 1107.8 47.57 1107.47 46.89 1107.13 Z M157.89 1112.13 C157.89 1112.46 157.89 1112.79 157.89 1113.13 C159.54 1113.13 161.19 1113.13 162.89 1113.13 C162.89 1112.8 162.89 1112.47 162.89 1112.13 C161.24 1112.13 159.59 1112.13 157.89 1112.13 Z M192.89 1112.13 C192.89 1112.46 192.89 1112.79 192.89 1113.13 C195.86 1113.13 198.83 1113.13 201.89 1113.13 C201.89 1112.8 201.89 1112.47 201.89 1112.13 C198.92 1112.13 195.95 1112.13 192.89 1112.13 Z " fill="#BFBFB5" transform="translate(276.1087646484375,115.86628723144531)"/>
<path d="M0 0 C1.34 -0 1.34 -0 2.71 -0.01 C5.7 -0.01 8.69 -0.01 11.68 -0.01 C13.83 -0.01 15.97 -0.02 18.12 -0.02 C23.94 -0.03 29.77 -0.03 35.59 -0.03 C39.23 -0.03 42.87 -0.04 46.51 -0.04 C59.21 -0.05 71.9 -0.05 84.6 -0.05 C96.44 -0.05 108.27 -0.06 120.11 -0.08 C130.27 -0.09 140.44 -0.1 150.6 -0.1 C156.67 -0.09 162.74 -0.1 168.81 -0.11 C174.51 -0.12 180.22 -0.12 185.93 -0.11 C188.02 -0.11 190.11 -0.11 192.21 -0.12 C195.06 -0.13 197.92 -0.12 200.78 -0.11 C201.61 -0.12 202.44 -0.12 203.29 -0.13 C209.51 -0.09 215.51 0.74 220.89 4.13 C221.55 5.12 222.21 6.11 222.89 7.13 C224.2 8.49 225.54 9.82 226.89 11.13 C228.22 12.47 229.56 13.8 230.89 15.13 C231.78 15.96 232.66 16.78 233.58 17.63 C235.75 19.98 236.55 21.03 236.89 24.13 C237.55 24.13 238.21 24.13 238.89 24.13 C239.22 26.11 239.55 28.09 239.89 30.13 C240.55 29.8 241.21 29.47 241.89 29.13 C242.81 36.12 243.02 42.94 242.99 49.99 C242.99 51.14 242.99 52.3 242.98 53.48 C242.98 55.98 242.97 58.48 242.97 60.98 C242.95 64.96 242.95 68.94 242.94 72.93 C242.93 82.12 242.91 91.32 242.89 100.52 C242.87 108.91 242.85 117.29 242.84 125.68 C242.83 130.23 242.82 134.78 242.8 139.33 C242.79 146.6 242.83 153.86 242.89 161.13 C242.9 162.48 242.91 163.82 242.91 165.16 C242.94 169.18 243.01 173.2 243.08 177.22 C243.09 178.46 243.09 179.7 243.1 180.97 C243.14 182.68 243.14 182.68 243.19 184.43 C243.2 185.44 243.22 186.45 243.23 187.48 C244.13 191.11 245.81 192.15 248.89 194.13 C249.88 194.46 250.87 194.79 251.89 195.13 C253.43 196.95 253.43 196.95 254.95 199.26 C255.46 200 255.97 200.75 256.49 201.52 C260.55 209.1 260.18 216.67 260.15 225.08 C260.15 226.51 260.16 227.95 260.16 229.39 C260.17 233.34 260.17 237.3 260.17 241.26 C260.16 245.56 260.17 249.86 260.18 254.16 C260.19 261.7 260.2 269.25 260.2 276.79 C260.2 288 260.21 299.22 260.22 310.43 C260.24 332.8 260.25 355.16 260.26 377.53 C260.26 378.68 260.26 379.84 260.26 381.04 C260.26 382.2 260.26 383.36 260.26 384.55 C260.26 397.41 260.27 410.27 260.28 423.12 C260.3 461.95 260.31 500.78 260.31 539.6 C260.31 540.84 260.31 542.09 260.31 543.37 C260.32 548.4 260.32 553.43 260.32 558.47 C260.32 562.26 260.32 566.05 260.32 569.83 C260.32 571.09 260.32 572.34 260.32 573.63 C260.32 612.97 260.34 652.31 260.38 691.65 C260.42 735.84 260.44 780.02 260.44 824.21 C260.44 828.92 260.44 833.63 260.44 838.34 C260.44 839.5 260.44 840.66 260.44 841.85 C260.44 860.53 260.46 879.2 260.49 897.88 C260.51 916.65 260.51 935.41 260.5 954.18 C260.49 965.33 260.5 976.48 260.52 987.63 C260.54 995.08 260.53 1002.53 260.52 1009.98 C260.51 1014.22 260.51 1018.46 260.53 1022.71 C260.55 1026.57 260.54 1030.44 260.52 1034.31 C260.51 1036.34 260.53 1038.37 260.55 1040.41 C260.44 1052.22 256.69 1062.26 250.33 1072.13 C249.9 1072.8 249.48 1073.47 249.04 1074.15 C239.57 1088.51 227.07 1099.27 211.76 1107.1 C209.65 1108.27 207.79 1109.65 205.89 1111.13 C204.57 1109.48 203.25 1107.83 201.89 1106.13 C202.48 1105.95 203.07 1105.77 203.68 1105.58 C208.13 1104.17 211.93 1102.65 215.89 1100.13 C216.55 1100.13 217.21 1100.13 217.89 1100.13 C218.22 1099.47 218.55 1098.81 218.89 1098.13 C220.87 1097.09 222.87 1096.08 224.89 1095.13 C224.89 1094.47 224.89 1093.81 224.89 1093.13 C225.96 1092.74 227.04 1092.35 228.14 1091.95 C231.84 1090.37 233.54 1088.43 235.89 1085.13 C236.64 1084.44 237.38 1083.75 238.15 1083.03 C241.6 1079.38 244.02 1075.43 246.58 1071.13 C247.06 1070.34 247.55 1069.55 248.05 1068.73 C250.34 1064.94 252.38 1061.3 253.89 1057.13 C254.23 1056.55 254.57 1055.97 254.93 1055.37 C256.15 1052.52 256.14 1050.32 256.14 1047.22 C256.15 1046 256.15 1044.78 256.16 1043.53 C256.15 1042.17 256.15 1040.81 256.14 1039.46 C256.15 1038.01 256.15 1036.57 256.15 1035.12 C256.16 1031.13 256.15 1027.14 256.15 1023.15 C256.14 1018.81 256.15 1014.48 256.15 1010.14 C256.16 1002.54 256.16 994.93 256.16 987.33 C256.15 976.02 256.15 964.71 256.16 953.4 C256.17 933.21 256.17 913.02 256.16 892.83 C256.16 875.16 256.16 857.49 256.16 839.82 C256.16 838.65 256.16 837.47 256.16 836.27 C256.16 831.52 256.16 826.77 256.16 822.01 C256.17 777.41 256.16 732.81 256.15 688.21 C256.14 648.55 256.14 608.89 256.15 569.24 C256.16 524.72 256.17 480.2 256.16 435.68 C256.16 430.94 256.16 426.19 256.16 421.45 C256.16 420.28 256.16 419.12 256.16 417.91 C256.16 400.25 256.16 382.59 256.16 364.92 C256.17 344.85 256.17 324.77 256.16 304.7 C256.15 293.45 256.15 282.2 256.16 270.96 C256.16 263.46 256.16 255.96 256.15 248.46 C256.15 244.17 256.15 239.89 256.15 235.61 C256.16 231.72 256.16 227.83 256.15 223.95 C256.14 222.54 256.15 221.14 256.15 219.74 C256.16 217.84 256.15 215.94 256.14 214.04 C256.14 212.99 256.14 211.94 256.14 210.85 C255.82 207.34 254.94 205.13 252.39 202.7 C250.49 200.72 249.79 198.7 248.89 196.13 C246.25 196.13 243.61 196.13 240.89 196.13 C239.62 189.34 239.78 182.59 239.83 175.7 C239.83 174.49 239.84 173.28 239.84 172.03 C239.85 169.07 239.87 166.1 239.89 163.13 C239.87 164.06 239.84 164.99 239.82 165.95 C239.72 169.39 239.62 172.83 239.52 176.27 C239.48 177.76 239.43 179.25 239.39 180.74 C239.34 182.88 239.27 185.02 239.21 187.16 C239.17 188.45 239.13 189.73 239.1 191.06 C238.89 194.13 238.89 194.13 237.89 196.13 C202.87 196.03 167.86 195.92 132.84 195.8 C128.71 195.79 124.58 195.78 120.45 195.76 C119.22 195.76 119.22 195.76 117.96 195.75 C104.63 195.71 91.3 195.67 77.97 195.63 C64.3 195.59 50.64 195.54 36.97 195.5 C28.53 195.47 20.09 195.44 11.65 195.42 C5.87 195.4 0.09 195.38 -5.69 195.36 C-9.03 195.35 -12.37 195.34 -15.71 195.33 C-19.32 195.32 -22.94 195.31 -26.55 195.29 C-27.62 195.29 -28.68 195.29 -29.78 195.29 C-30.74 195.28 -31.7 195.28 -32.69 195.27 C-33.53 195.27 -34.36 195.27 -35.22 195.26 C-37.11 195.13 -37.11 195.13 -38.11 194.13 C-38.27 191.47 -38.37 188.83 -38.43 186.16 C-38.45 185.36 -38.47 184.57 -38.49 183.74 C-38.55 181.19 -38.61 178.63 -38.67 176.07 C-38.71 174.34 -38.76 172.61 -38.8 170.88 C-38.91 166.63 -39.01 162.38 -39.11 158.13 C-39.77 157.8 -40.43 157.47 -41.11 157.13 C-41.06 158.65 -41.06 158.65 -41.02 160.19 C-40.9 163.94 -40.79 167.69 -40.68 171.44 C-40.63 173.06 -40.58 174.68 -40.54 176.31 C-40.47 178.64 -40.4 180.97 -40.33 183.31 C-40.31 184.03 -40.28 184.75 -40.26 185.5 C-40.17 188.71 -40.11 191.92 -40.11 195.13 C-40.88 195.37 -41.64 195.6 -42.44 195.84 C-46.59 197.85 -47.42 200.73 -49.13 204.87 C-50.89 210.73 -50.79 216.55 -50.73 222.62 C-50.73 224.06 -50.74 225.51 -50.75 226.96 C-50.77 230.92 -50.75 234.89 -50.73 238.85 C-50.72 243.17 -50.73 247.49 -50.74 251.81 C-50.75 259.37 -50.75 266.94 -50.73 274.5 C-50.71 285.75 -50.71 297 -50.72 308.25 C-50.73 327.17 -50.72 346.09 -50.7 365.02 C-50.68 383.76 -50.66 402.5 -50.66 421.24 C-50.66 422.41 -50.66 423.57 -50.66 424.77 C-50.66 429.51 -50.66 434.24 -50.66 438.97 C-50.66 483.35 -50.63 527.74 -50.59 572.12 C-50.56 611.57 -50.54 651.02 -50.53 690.47 C-50.53 691.72 -50.53 692.98 -50.53 694.27 C-50.53 698.07 -50.53 701.86 -50.53 705.66 C-50.53 710.7 -50.53 715.74 -50.53 720.78 C-50.53 722.02 -50.53 723.27 -50.53 724.55 C-50.53 763.39 -50.51 802.24 -50.49 841.08 C-50.48 853.98 -50.48 866.87 -50.48 879.76 C-50.48 881.5 -50.48 881.5 -50.48 883.28 C-50.48 884.44 -50.47 885.6 -50.47 886.79 C-50.47 909.1 -50.46 931.4 -50.43 953.71 C-50.42 964.89 -50.41 976.07 -50.41 987.26 C-50.41 994.72 -50.41 1002.18 -50.39 1009.65 C-50.39 1013.9 -50.38 1018.16 -50.39 1022.42 C-50.39 1026.29 -50.39 1030.16 -50.37 1034.03 C-50.37 1035.42 -50.37 1036.81 -50.37 1038.21 C-50.41 1049.16 -49.29 1056.92 -43.05 1066.2 C-40.96 1069.35 -39.11 1072.28 -39.11 1076.13 C-38.12 1076.13 -37.13 1076.13 -36.11 1076.13 C-35.51 1077.23 -34.91 1078.32 -34.3 1079.45 C-27.99 1090.08 -15.19 1096.59 -4.6 1102.26 C1.61 1105.59 1.61 1105.59 3.89 1107.13 C3.89 1107.79 3.89 1108.45 3.89 1109.13 C2.24 1109.79 0.59 1110.45 -1.11 1111.13 C-1.78 1110.57 -2.44 1110.01 -3.13 1109.43 C-5.91 1107.28 -8.72 1105.49 -11.73 1103.68 C-19.25 1099.18 -25.93 1094.42 -32.11 1088.13 C-32.72 1087.52 -33.33 1086.91 -33.95 1086.29 C-43.4 1076.18 -54.22 1060.55 -54.24 1046.37 C-54.24 1045.16 -54.25 1043.95 -54.25 1042.7 C-54.25 1041.34 -54.25 1039.99 -54.25 1038.63 C-54.25 1037.2 -54.25 1035.76 -54.26 1034.32 C-54.27 1030.34 -54.27 1026.37 -54.27 1022.39 C-54.27 1018.07 -54.28 1013.75 -54.28 1009.44 C-54.3 1000.86 -54.31 992.29 -54.31 983.71 C-54.32 973.45 -54.33 963.18 -54.34 952.91 C-54.38 926.92 -54.39 900.92 -54.41 874.93 C-54.42 867.89 -54.42 860.85 -54.43 853.81 C-54.46 810.13 -54.49 766.45 -54.5 722.77 C-54.51 712.64 -54.51 702.52 -54.51 692.4 C-54.51 691.14 -54.51 689.88 -54.52 688.59 C-54.53 647.8 -54.57 607.02 -54.62 566.24 C-54.67 524.32 -54.71 482.41 -54.71 440.5 C-54.71 434.58 -54.72 428.66 -54.72 422.74 C-54.72 421.58 -54.72 420.42 -54.72 419.22 C-54.72 400.46 -54.75 381.7 -54.78 362.94 C-54.81 344.1 -54.82 325.25 -54.81 306.4 C-54.8 295.19 -54.81 283.99 -54.85 272.79 C-54.87 265.31 -54.87 257.83 -54.85 250.34 C-54.84 246.08 -54.84 241.82 -54.86 237.55 C-54.89 233.67 -54.88 229.79 -54.86 225.91 C-54.85 224.51 -54.86 223.12 -54.87 221.73 C-55.01 209.65 -51.69 201.45 -44.11 192.13 C-42.71 189.34 -42.99 187.05 -42.99 183.92 C-42.99 182.96 -42.99 182.96 -42.99 181.97 C-42.99 179.81 -42.99 177.64 -43 175.47 C-43 173.92 -43 172.37 -43 170.82 C-43 167.47 -43 164.13 -43 160.78 C-43 155.49 -43 150.19 -42.98 144.89 C-42.98 144 -42.98 143.11 -42.98 142.19 C-42.97 140.36 -42.97 138.53 -42.96 136.7 C-42.94 124.37 -42.92 112.04 -42.93 99.71 C-42.95 91.4 -42.94 83.08 -42.9 74.77 C-42.88 70.37 -42.88 65.97 -42.9 61.58 C-42.92 57.43 -42.91 53.29 -42.88 49.15 C-42.87 47.63 -42.87 46.12 -42.89 44.6 C-42.97 35.25 -41.89 28.72 -36.11 21.13 C-35.64 20.42 -35.17 19.71 -34.68 18.98 C-33.56 17.31 -32.35 15.71 -31.11 14.13 C-30.45 14.13 -29.79 14.13 -29.11 14.13 C-28.78 13.14 -28.45 12.15 -28.11 11.13 C-27.45 11.13 -26.79 11.13 -26.11 11.13 C-25.78 10.14 -25.45 9.15 -25.11 8.13 C-24.45 8.13 -23.79 8.13 -23.11 8.13 C-23.11 7.47 -23.11 6.81 -23.11 6.13 C-18.72 3.13 -18.72 3.13 -16.11 3.13 C-16.11 2.47 -16.11 1.81 -16.11 1.13 C-10.69 0.23 -5.48 -0.01 0 0 Z M232.89 19.13 C233.24 21.11 233.24 21.11 233.89 23.13 C234.55 23.46 235.21 23.79 235.89 24.13 C235.23 22.48 234.57 20.83 233.89 19.13 C233.56 19.13 233.23 19.13 232.89 19.13 Z M236.89 25.13 C237.89 27.13 237.89 27.13 237.89 27.13 Z M239.89 37.13 C240.89 40.13 240.89 40.13 240.89 40.13 Z M239.89 146.13 C240.89 149.13 240.89 149.13 240.89 149.13 Z M239.89 152.13 C239.89 154.77 239.89 157.41 239.89 160.13 C240.22 160.13 240.55 160.13 240.89 160.13 C240.89 157.49 240.89 154.85 240.89 152.13 C240.56 152.13 240.23 152.13 239.89 152.13 Z " fill="#B6B6AA" transform="translate(276.1087646484375,115.86628723144531)"/>
<path d="M0 0 C1.34 -0 1.34 -0 2.71 -0.01 C5.7 -0.01 8.69 -0.01 11.68 -0.01 C13.83 -0.01 15.97 -0.02 18.12 -0.02 C23.94 -0.03 29.77 -0.03 35.59 -0.03 C39.23 -0.03 42.87 -0.04 46.51 -0.04 C59.21 -0.05 71.9 -0.05 84.6 -0.05 C96.44 -0.05 108.27 -0.06 120.11 -0.08 C130.27 -0.09 140.44 -0.1 150.6 -0.1 C156.67 -0.09 162.74 -0.1 168.81 -0.11 C174.51 -0.12 180.22 -0.12 185.93 -0.11 C188.02 -0.11 190.11 -0.11 192.21 -0.12 C195.06 -0.13 197.92 -0.12 200.78 -0.11 C201.61 -0.12 202.44 -0.12 203.29 -0.13 C209.51 -0.09 215.51 0.74 220.89 4.13 C221.55 5.12 222.21 6.11 222.89 7.13 C224.2 8.49 225.54 9.82 226.89 11.13 C228.22 12.47 229.56 13.8 230.89 15.13 C231.78 15.96 232.66 16.78 233.58 17.63 C235.75 19.98 236.55 21.03 236.89 24.13 C237.55 24.13 238.21 24.13 238.89 24.13 C239.22 26.11 239.55 28.09 239.89 30.13 C240.55 29.8 241.21 29.47 241.89 29.13 C242.81 36.12 243.02 42.94 242.99 49.99 C242.99 51.14 242.99 52.3 242.98 53.48 C242.98 55.98 242.97 58.48 242.97 60.98 C242.95 64.96 242.95 68.94 242.94 72.93 C242.93 82.12 242.91 91.32 242.89 100.52 C242.87 108.91 242.85 117.29 242.84 125.68 C242.83 130.23 242.82 134.78 242.8 139.33 C242.79 146.6 242.83 153.86 242.89 161.13 C242.9 162.48 242.91 163.82 242.91 165.16 C242.94 169.18 243.01 173.2 243.08 177.22 C243.09 178.46 243.09 179.7 243.1 180.97 C243.14 182.68 243.14 182.68 243.19 184.43 C243.2 185.44 243.22 186.45 243.23 187.48 C244.13 191.11 245.81 192.15 248.89 194.13 C249.88 194.46 250.87 194.79 251.89 195.13 C253.43 196.95 253.43 196.95 254.95 199.26 C255.46 200 255.97 200.75 256.49 201.52 C260.55 209.1 260.18 216.67 260.15 225.08 C260.15 226.51 260.16 227.95 260.16 229.39 C260.17 233.34 260.17 237.3 260.17 241.26 C260.16 245.56 260.17 249.86 260.18 254.16 C260.19 261.7 260.2 269.25 260.2 276.79 C260.2 288 260.21 299.22 260.22 310.43 C260.24 332.8 260.25 355.16 260.26 377.53 C260.26 378.68 260.26 379.84 260.26 381.04 C260.26 382.2 260.26 383.36 260.26 384.55 C260.26 397.41 260.27 410.27 260.28 423.12 C260.3 461.95 260.31 500.78 260.31 539.6 C260.31 540.84 260.31 542.09 260.31 543.37 C260.32 548.4 260.32 553.43 260.32 558.47 C260.32 562.26 260.32 566.05 260.32 569.83 C260.32 571.09 260.32 572.34 260.32 573.63 C260.32 612.97 260.34 652.31 260.38 691.65 C260.42 735.84 260.44 780.02 260.44 824.21 C260.44 828.92 260.44 833.63 260.44 838.34 C260.44 839.5 260.44 840.66 260.44 841.85 C260.44 860.53 260.46 879.2 260.49 897.88 C260.51 916.65 260.51 935.41 260.5 954.18 C260.49 965.33 260.5 976.48 260.52 987.63 C260.54 995.08 260.53 1002.53 260.52 1009.98 C260.51 1014.22 260.51 1018.46 260.53 1022.71 C260.55 1026.57 260.54 1030.44 260.52 1034.31 C260.51 1036.34 260.53 1038.37 260.55 1040.41 C260.44 1052.22 256.69 1062.26 250.33 1072.13 C249.9 1072.8 249.48 1073.47 249.04 1074.15 C239.57 1088.51 227.07 1099.27 211.76 1107.1 C209.65 1108.27 207.79 1109.65 205.89 1111.13 C204.57 1109.48 203.25 1107.83 201.89 1106.13 C202.48 1105.95 203.07 1105.77 203.68 1105.58 C208.13 1104.17 211.93 1102.65 215.89 1100.13 C216.55 1100.13 217.21 1100.13 217.89 1100.13 C218.22 1099.47 218.55 1098.81 218.89 1098.13 C220.87 1097.09 222.87 1096.08 224.89 1095.13 C224.89 1094.47 224.89 1093.81 224.89 1093.13 C225.96 1092.74 227.04 1092.35 228.14 1091.95 C231.84 1090.37 233.54 1088.43 235.89 1085.13 C236.64 1084.44 237.38 1083.75 238.15 1083.03 C241.6 1079.38 244.02 1075.43 246.58 1071.13 C247.06 1070.34 247.55 1069.55 248.05 1068.73 C250.34 1064.94 252.38 1061.3 253.89 1057.13 C254.23 1056.55 254.57 1055.97 254.93 1055.37 C256.15 1052.52 256.14 1050.32 256.14 1047.22 C256.15 1046 256.15 1044.78 256.16 1043.53 C256.15 1042.17 256.15 1040.81 256.14 1039.46 C256.15 1038.01 256.15 1036.57 256.15 1035.12 C256.16 1031.13 256.15 1027.14 256.15 1023.15 C256.14 1018.81 256.15 1014.48 256.15 1010.14 C256.16 1002.54 256.16 994.93 256.16 987.33 C256.15 976.02 256.15 964.71 256.16 953.4 C256.17 933.21 256.17 913.02 256.16 892.83 C256.16 875.16 256.16 857.49 256.16 839.82 C256.16 838.65 256.16 837.47 256.16 836.27 C256.16 831.52 256.16 826.77 256.16 822.01 C256.17 777.41 256.16 732.81 256.15 688.21 C256.14 648.55 256.14 608.89 256.15 569.24 C256.16 524.72 256.17 480.2 256.16 435.68 C256.16 430.94 256.16 426.19 256.16 421.45 C256.16 420.28 256.16 419.12 256.16 417.91 C256.16 400.25 256.16 382.59 256.16 364.92 C256.17 344.85 256.17 324.77 256.16 304.7 C256.15 293.45 256.15 282.2 256.16 270.96 C256.16 263.46 256.16 255.96 256.15 248.46 C256.15 244.17 256.15 239.89 256.15 235.61 C256.16 231.72 256.16 227.83 256.15 223.95 C256.14 222.54 256.15 221.14 256.15 219.74 C256.16 217.84 256.15 215.94 256.14 214.04 C256.14 212.99 256.14 211.94 256.14 210.85 C255.82 207.34 254.94 205.13 252.39 202.7 C250.49 200.72 249.79 198.7 248.89 196.13 C246.25 196.13 243.61 196.13 240.89 196.13 C240.1 191.26 239.77 186.6 239.79 181.67 C239.8 180.65 239.8 180.65 239.8 179.61 C239.8 177.47 239.82 175.34 239.83 173.2 C239.83 171.73 239.84 170.27 239.84 168.81 C239.85 165.25 239.87 161.69 239.89 158.13 C236.26 158.13 232.63 158.13 228.89 158.13 C228.89 157.47 228.89 156.81 228.89 156.13 C219.98 156.13 211.07 156.13 201.89 156.13 C198.64 141.49 197.43 126.56 195.92 111.65 C193.97 92.39 191.77 73.16 189.57 53.93 C189.16 50.32 188.75 46.71 188.34 43.11 C187.94 39.6 187.54 36.1 187.14 32.59 C186.95 30.93 186.76 29.28 186.57 27.62 C186.31 25.32 186.05 23.02 185.78 20.72 C185.63 19.42 185.49 18.12 185.33 16.78 C184.57 9.86 184.57 9.86 182.89 3.13 C127.45 3.13 72.01 3.13 14.89 3.13 C14.56 7.09 14.23 11.05 13.89 15.13 C13.56 16.45 13.23 17.77 12.89 19.13 C12.91 20.35 12.93 21.56 12.95 22.82 C13.04 30.32 11.84 37.77 10.89 45.2 C10.7 46.74 10.51 48.29 10.31 49.84 C9.84 53.61 9.37 57.37 8.89 61.13 C7.9 61.46 6.91 61.79 5.89 62.13 C6.88 62.63 6.88 62.63 7.89 63.13 C8.04 70.29 7.47 77.21 6.65 84.33 C6.52 85.47 6.39 86.61 6.26 87.79 C5.99 90.2 5.71 92.61 5.44 95.02 C5.02 98.69 4.61 102.36 4.2 106.03 C3.93 108.38 3.67 110.73 3.4 113.08 C3.22 114.71 3.22 114.71 3.03 116.38 C1.24 131.78 1.24 131.78 -1.11 134.13 C-1.18 137 -1.2 139.83 -1.17 142.7 C-1.17 143.5 -1.16 144.31 -1.16 145.14 C-1.15 147.14 -1.13 149.14 -1.11 151.13 C-2.1 151.46 -3.09 151.79 -4.11 152.13 C-4.11 153.45 -4.11 154.77 -4.11 156.13 C-4.92 156.16 -5.73 156.18 -6.57 156.21 C-10.23 156.33 -13.89 156.45 -17.55 156.57 C-18.83 156.61 -20.11 156.65 -21.42 156.69 C-23.25 156.75 -23.25 156.75 -25.1 156.82 C-26.23 156.85 -27.36 156.89 -28.52 156.93 C-31.04 156.85 -31.04 156.85 -32.11 158.13 C-38.63 158.37 -38.63 158.37 -41.11 157.13 C-41.06 158.65 -41.06 158.65 -41.02 160.19 C-40.9 163.94 -40.79 167.69 -40.68 171.44 C-40.63 173.06 -40.58 174.68 -40.54 176.31 C-40.47 178.64 -40.4 180.97 -40.33 183.31 C-40.31 184.03 -40.28 184.75 -40.26 185.5 C-40.17 188.71 -40.11 191.92 -40.11 195.13 C-40.88 195.37 -41.64 195.6 -42.44 195.84 C-46.59 197.85 -47.42 200.73 -49.13 204.87 C-50.89 210.73 -50.79 216.55 -50.73 222.62 C-50.73 224.06 -50.74 225.51 -50.75 226.96 C-50.77 230.92 -50.75 234.89 -50.73 238.85 C-50.72 243.17 -50.73 247.49 -50.74 251.81 C-50.75 259.37 -50.75 266.94 -50.73 274.5 C-50.71 285.75 -50.71 297 -50.72 308.25 C-50.73 327.17 -50.72 346.09 -50.7 365.02 C-50.68 383.76 -50.66 402.5 -50.66 421.24 C-50.66 422.41 -50.66 423.57 -50.66 424.77 C-50.66 429.51 -50.66 434.24 -50.66 438.97 C-50.66 483.35 -50.63 527.74 -50.59 572.12 C-50.56 611.57 -50.54 651.02 -50.53 690.47 C-50.53 691.72 -50.53 692.98 -50.53 694.27 C-50.53 698.07 -50.53 701.86 -50.53 705.66 C-50.53 710.7 -50.53 715.74 -50.53 720.78 C-50.53 722.02 -50.53 723.27 -50.53 724.55 C-50.53 763.39 -50.51 802.24 -50.49 841.08 C-50.48 853.98 -50.48 866.87 -50.48 879.76 C-50.48 881.5 -50.48 881.5 -50.48 883.28 C-50.48 884.44 -50.47 885.6 -50.47 886.79 C-50.47 909.1 -50.46 931.4 -50.43 953.71 C-50.42 964.89 -50.41 976.07 -50.41 987.26 C-50.41 994.72 -50.41 1002.18 -50.39 1009.65 C-50.39 1013.9 -50.38 1018.16 -50.39 1022.42 C-50.39 1026.29 -50.39 1030.16 -50.37 1034.03 C-50.37 1035.42 -50.37 1036.81 -50.37 1038.21 C-50.41 1049.16 -49.29 1056.92 -43.05 1066.2 C-40.96 1069.35 -39.11 1072.28 -39.11 1076.13 C-38.12 1076.13 -37.13 1076.13 -36.11 1076.13 C-35.51 1077.23 -34.91 1078.32 -34.3 1079.45 C-27.99 1090.08 -15.19 1096.59 -4.6 1102.26 C1.61 1105.59 1.61 1105.59 3.89 1107.13 C3.89 1107.79 3.89 1108.45 3.89 1109.13 C2.24 1109.79 0.59 1110.45 -1.11 1111.13 C-1.78 1110.57 -2.44 1110.01 -3.13 1109.43 C-5.91 1107.28 -8.72 1105.49 -11.73 1103.68 C-19.25 1099.18 -25.93 1094.42 -32.11 1088.13 C-32.72 1087.52 -33.33 1086.91 -33.95 1086.29 C-43.4 1076.18 -54.22 1060.55 -54.24 1046.37 C-54.24 1045.16 -54.25 1043.95 -54.25 1042.7 C-54.25 1041.34 -54.25 1039.99 -54.25 1038.63 C-54.25 1037.2 -54.25 1035.76 -54.26 1034.32 C-54.27 1030.34 -54.27 1026.37 -54.27 1022.39 C-54.27 1018.07 -54.28 1013.75 -54.28 1009.44 C-54.3 1000.86 -54.31 992.29 -54.31 983.71 C-54.32 973.45 -54.33 963.18 -54.34 952.91 C-54.38 926.92 -54.39 900.92 -54.41 874.93 C-54.42 867.89 -54.42 860.85 -54.43 853.81 C-54.46 810.13 -54.49 766.45 -54.5 722.77 C-54.51 712.64 -54.51 702.52 -54.51 692.4 C-54.51 691.14 -54.51 689.88 -54.52 688.59 C-54.53 647.8 -54.57 607.02 -54.62 566.24 C-54.67 524.32 -54.71 482.41 -54.71 440.5 C-54.71 434.58 -54.72 428.66 -54.72 422.74 C-54.72 421.58 -54.72 420.42 -54.72 419.22 C-54.72 400.46 -54.75 381.7 -54.78 362.94 C-54.81 344.1 -54.82 325.25 -54.81 306.4 C-54.8 295.19 -54.81 283.99 -54.85 272.79 C-54.87 265.31 -54.87 257.83 -54.85 250.34 C-54.84 246.08 -54.84 241.82 -54.86 237.55 C-54.89 233.67 -54.88 229.79 -54.86 225.91 C-54.85 224.51 -54.86 223.12 -54.87 221.73 C-55.01 209.65 -51.69 201.45 -44.11 192.13 C-42.71 189.34 -42.99 187.05 -42.99 183.92 C-42.99 182.96 -42.99 182.96 -42.99 181.97 C-42.99 179.81 -42.99 177.64 -43 175.47 C-43 173.92 -43 172.37 -43 170.82 C-43 167.47 -43 164.13 -43 160.78 C-43 155.49 -43 150.19 -42.98 144.89 C-42.98 144 -42.98 143.11 -42.98 142.19 C-42.97 140.36 -42.97 138.53 -42.96 136.7 C-42.94 124.37 -42.92 112.04 -42.93 99.71 C-42.95 91.4 -42.94 83.08 -42.9 74.77 C-42.88 70.37 -42.88 65.97 -42.9 61.58 C-42.92 57.43 -42.91 53.29 -42.88 49.15 C-42.87 47.63 -42.87 46.12 -42.89 44.6 C-42.97 35.25 -41.89 28.72 -36.11 21.13 C-35.64 20.42 -35.17 19.71 -34.68 18.98 C-33.56 17.31 -32.35 15.71 -31.11 14.13 C-30.45 14.13 -29.79 14.13 -29.11 14.13 C-28.78 13.14 -28.45 12.15 -28.11 11.13 C-27.45 11.13 -26.79 11.13 -26.11 11.13 C-25.78 10.14 -25.45 9.15 -25.11 8.13 C-24.45 8.13 -23.79 8.13 -23.11 8.13 C-23.11 7.47 -23.11 6.81 -23.11 6.13 C-18.72 3.13 -18.72 3.13 -16.11 3.13 C-16.11 2.47 -16.11 1.81 -16.11 1.13 C-10.69 0.23 -5.48 -0.01 0 0 Z M232.89 19.13 C233.24 21.11 233.24 21.11 233.89 23.13 C234.55 23.46 235.21 23.79 235.89 24.13 C235.23 22.48 234.57 20.83 233.89 19.13 C233.56 19.13 233.23 19.13 232.89 19.13 Z M236.89 25.13 C237.89 27.13 237.89 27.13 237.89 27.13 Z M239.89 37.13 C240.89 40.13 240.89 40.13 240.89 40.13 Z M239.89 146.13 C240.89 149.13 240.89 149.13 240.89 149.13 Z " fill="#E27619" transform="translate(276.1087646484375,115.86628723144531)"/>
<path d="M0 0 C1.05 -0 2.11 -0 3.19 -0.01 C6.66 -0.01 10.12 -0.01 13.59 -0 C16.01 -0 18.43 -0.01 20.84 -0.01 C25.9 -0.01 30.96 -0.01 36.02 -0 C42.5 0 48.98 0 55.46 -0 C60.45 -0.01 65.44 -0.01 70.43 -0 C72.82 -0 75.21 -0 77.6 -0.01 C80.94 -0.01 84.28 -0.01 87.62 0 C89.1 -0 89.1 -0 90.6 -0.01 C103.67 0.03 103.67 0.03 108.31 3.13 C108.31 3.79 108.31 4.45 108.31 5.13 C110.07 5.38 110.07 5.38 111.87 5.63 C117.27 6.81 121.79 9.37 126.58 12.02 C132.32 15.19 138.2 17.74 144.31 20.13 C145.74 20.72 145.74 20.72 147.21 21.32 C151.62 23.34 151.62 23.34 156.31 24.13 C156.31 24.79 156.31 25.45 156.31 26.13 C159.62 26.98 159.62 26.98 163.31 27.13 C166.97 24.3 168.4 21.12 170.06 16.88 C170.49 15.8 170.92 14.72 171.36 13.61 C171.67 12.79 171.99 11.97 172.31 11.13 C172.64 11.13 172.97 11.13 173.31 11.13 C173.52 34.71 173.52 34.71 172.31 46.13 C171.32 46.13 170.33 46.13 169.31 46.13 C170.3 46.46 171.29 46.79 172.31 47.13 C172.31 50.1 172.31 53.07 172.31 56.13 C139.6 56.17 106.9 56.21 74.19 56.23 C70.33 56.23 66.48 56.24 62.62 56.24 C61.85 56.24 61.08 56.24 60.29 56.24 C47.84 56.25 35.39 56.27 22.94 56.28 C10.17 56.3 -2.59 56.31 -15.36 56.32 C-23.24 56.32 -31.13 56.33 -39.01 56.35 C-45.05 56.36 -51.08 56.36 -57.12 56.36 C-59.6 56.36 -62.08 56.36 -64.57 56.37 C-67.94 56.38 -71.32 56.38 -74.69 56.37 C-75.69 56.38 -76.68 56.38 -77.7 56.39 C-79.05 56.38 -79.05 56.38 -80.43 56.38 C-81.21 56.38 -81.99 56.38 -82.79 56.38 C-84.69 56.13 -84.69 56.13 -86.69 54.13 C-86.85 52.2 -86.85 52.2 -86.75 49.82 C-86.67 45.87 -86.83 42.06 -87.19 38.13 C-87.64 32.56 -87.86 27.02 -87.94 21.44 C-87.96 20.65 -87.98 19.86 -88 19.05 C-88.02 16.81 -88.02 16.81 -87.69 13.13 C-86.7 12.47 -85.71 11.81 -84.69 11.13 C-82.77 16.11 -82.13 20.86 -81.69 26.13 C-75.86 26.13 -70.91 25.02 -65.58 22.75 C-63.69 22.13 -63.69 22.13 -59.69 22.13 C-59.69 21.47 -59.69 20.81 -59.69 20.13 C-59.16 19.96 -58.62 19.79 -58.07 19.61 C-46.59 15.88 -36.24 10.93 -25.69 5.13 C-25.69 4.8 -25.69 4.47 -25.69 4.13 C-24.56 3.82 -23.42 3.51 -22.25 3.19 C-18.9 2.5 -18.9 2.5 -17.69 1.13 C-11.79 -0 -5.99 -0.01 0 0 Z M169.31 41.13 C170.31 44.13 170.31 44.13 170.31 44.13 Z " fill="#98938E" transform="translate(332.689453125,51.87060546875)"/>
<path d="M0 0 C0.94 -0.02 1.89 -0.04 2.86 -0.06 C4.22 -0.07 4.22 -0.07 5.61 -0.08 C6.43 -0.09 7.25 -0.1 8.09 -0.11 C10.77 0.34 11.66 1.08 13.25 3.25 C13.36 6.03 13.36 6.03 13 9.19 C12.89 10.23 12.78 11.27 12.67 12.34 C12.25 15.25 12.25 15.25 11.72 17.2 C11.11 19.5 11.11 19.5 11.31 22.93 C11.4 30.44 10.2 37.88 9.25 45.31 C9.06 46.86 8.86 48.41 8.67 49.96 C8.2 53.72 7.73 57.49 7.25 61.25 C6.26 61.58 5.27 61.91 4.25 62.25 C5.24 62.75 5.24 62.75 6.25 63.25 C6.4 70.41 5.82 77.33 5.01 84.44 C4.88 85.59 4.75 86.73 4.62 87.91 C4.35 90.32 4.07 92.73 3.8 95.13 C3.38 98.8 2.97 102.47 2.56 106.15 C2.29 108.49 2.03 110.84 1.76 113.19 C1.58 114.83 1.58 114.83 1.39 116.49 C-0.4 131.9 -0.4 131.9 -2.75 134.25 C-2.82 137.11 -2.84 139.95 -2.81 142.81 C-2.81 143.62 -2.8 144.43 -2.8 145.26 C-2.79 147.25 -2.77 149.25 -2.75 151.25 C-3.74 151.58 -4.73 151.91 -5.75 152.25 C-5.75 153.57 -5.75 154.89 -5.75 156.25 C-6.56 156.28 -7.38 156.3 -8.21 156.33 C-11.87 156.44 -15.53 156.56 -19.19 156.69 C-20.47 156.73 -21.75 156.77 -23.06 156.81 C-24.89 156.87 -24.89 156.87 -26.75 156.93 C-27.87 156.97 -29 157.01 -30.16 157.04 C-32.68 156.96 -32.68 156.96 -33.75 158.25 C-40.28 158.49 -40.28 158.49 -42.75 157.25 C-42.7 158.76 -42.7 158.76 -42.66 160.31 C-42.55 164.06 -42.43 167.81 -42.32 171.56 C-42.27 173.18 -42.23 174.8 -42.18 176.42 C-42.11 178.76 -42.04 181.09 -41.97 183.42 C-41.95 184.14 -41.93 184.87 -41.9 185.61 C-41.81 188.83 -41.75 192.03 -41.75 195.25 C-42.52 195.48 -43.29 195.72 -44.08 195.96 C-48.23 197.97 -49.06 200.85 -50.77 204.98 C-52.53 210.85 -52.43 216.67 -52.37 222.73 C-52.38 224.18 -52.38 225.63 -52.39 227.07 C-52.41 231.04 -52.39 235 -52.37 238.97 C-52.36 243.29 -52.37 247.61 -52.38 251.92 C-52.4 259.49 -52.39 267.05 -52.37 274.62 C-52.35 285.87 -52.35 297.11 -52.36 308.36 C-52.37 327.29 -52.36 346.21 -52.34 365.13 C-52.32 383.88 -52.3 402.62 -52.3 421.36 C-52.3 422.52 -52.3 423.69 -52.3 424.89 C-52.3 429.62 -52.3 434.35 -52.3 439.08 C-52.3 483.47 -52.27 527.85 -52.23 572.24 C-52.2 611.69 -52.18 651.14 -52.18 690.58 C-52.18 691.84 -52.18 693.09 -52.18 694.39 C-52.17 698.18 -52.17 701.98 -52.17 705.77 C-52.17 710.81 -52.17 715.85 -52.17 720.9 C-52.17 722.14 -52.17 723.38 -52.17 724.66 C-52.17 763.51 -52.15 802.35 -52.13 841.2 C-52.13 854.09 -52.12 866.99 -52.12 879.88 C-52.12 881.62 -52.12 881.62 -52.12 883.4 C-52.12 884.56 -52.12 885.72 -52.12 886.91 C-52.11 909.22 -52.1 931.52 -52.07 953.83 C-52.06 965.01 -52.06 976.19 -52.06 987.37 C-52.06 994.84 -52.05 1002.3 -52.04 1009.76 C-52.03 1014.02 -52.02 1018.28 -52.03 1022.53 C-52.03 1026.4 -52.03 1030.27 -52.01 1034.14 C-52.01 1035.54 -52.01 1036.93 -52.02 1038.32 C-52.05 1049.28 -50.93 1057.04 -44.69 1066.31 C-42.6 1069.47 -40.75 1072.39 -40.75 1076.25 C-39.76 1076.25 -38.77 1076.25 -37.75 1076.25 C-37.15 1077.34 -36.55 1078.44 -35.94 1079.56 C-29.63 1090.19 -16.83 1096.71 -6.25 1102.38 C-0.04 1105.71 -0.04 1105.71 2.25 1107.25 C2.25 1107.91 2.25 1108.57 2.25 1109.25 C0.6 1109.91 -1.05 1110.57 -2.75 1111.25 C-3.42 1110.69 -4.08 1110.12 -4.77 1109.54 C-7.56 1107.4 -10.36 1105.6 -13.37 1103.8 C-20.89 1099.29 -27.57 1094.53 -33.75 1088.25 C-34.36 1087.64 -34.97 1087.03 -35.59 1086.4 C-45.04 1076.29 -55.87 1060.67 -55.88 1046.49 C-55.88 1045.27 -55.89 1044.06 -55.89 1042.81 C-55.89 1041.46 -55.89 1040.1 -55.89 1038.75 C-55.89 1037.31 -55.9 1035.87 -55.9 1034.44 C-55.91 1030.46 -55.91 1026.48 -55.91 1022.5 C-55.91 1018.19 -55.92 1013.87 -55.93 1009.55 C-55.94 1000.98 -55.95 992.4 -55.95 983.83 C-55.96 973.56 -55.97 963.3 -55.98 953.03 C-56.02 927.03 -56.04 901.04 -56.05 875.04 C-56.06 868 -56.06 860.96 -56.07 853.92 C-56.1 810.24 -56.13 766.56 -56.14 722.88 C-56.15 712.76 -56.15 702.64 -56.16 692.51 C-56.16 691.26 -56.16 690 -56.16 688.7 C-56.17 647.92 -56.21 607.14 -56.26 566.35 C-56.31 524.44 -56.35 482.53 -56.35 440.62 C-56.36 434.7 -56.36 428.78 -56.36 422.86 C-56.36 421.7 -56.36 420.53 -56.36 419.33 C-56.36 400.57 -56.39 381.82 -56.42 363.06 C-56.45 344.21 -56.46 325.36 -56.45 306.51 C-56.44 295.31 -56.45 284.11 -56.49 272.91 C-56.51 265.42 -56.51 257.94 -56.49 250.46 C-56.48 246.2 -56.48 241.93 -56.5 237.67 C-56.53 233.79 -56.52 229.9 -56.5 226.02 C-56.49 224.63 -56.5 223.24 -56.52 221.85 C-56.65 209.77 -53.33 201.57 -45.75 192.25 C-44.35 189.45 -44.63 187.17 -44.63 184.04 C-44.63 183.07 -44.63 183.07 -44.63 182.09 C-44.63 179.92 -44.63 177.75 -44.64 175.59 C-44.64 174.04 -44.64 172.48 -44.64 170.93 C-44.64 167.59 -44.64 164.24 -44.64 160.9 C-44.65 155.6 -44.64 150.31 -44.62 145.01 C-44.62 144.12 -44.62 143.22 -44.62 142.3 C-44.61 140.48 -44.61 138.65 -44.61 136.82 C-44.58 124.49 -44.56 112.16 -44.57 99.83 C-44.59 91.51 -44.58 83.2 -44.54 74.89 C-44.53 70.49 -44.52 66.09 -44.54 61.69 C-44.56 57.55 -44.55 53.41 -44.52 49.26 C-44.51 47.75 -44.51 46.23 -44.53 44.72 C-44.61 35.37 -43.53 28.83 -37.75 21.25 C-37.28 20.54 -36.81 19.83 -36.32 19.1 C-35.2 17.43 -33.99 15.83 -32.75 14.25 C-32.09 14.25 -31.43 14.25 -30.75 14.25 C-30.42 13.26 -30.09 12.27 -29.75 11.25 C-29.09 11.25 -28.43 11.25 -27.75 11.25 C-27.42 10.26 -27.09 9.27 -26.75 8.25 C-26.09 8.25 -25.43 8.25 -24.75 8.25 C-24.75 7.59 -24.75 6.93 -24.75 6.25 C-20.37 3.25 -20.37 3.25 -17.75 3.25 C-17.75 2.59 -17.75 1.93 -17.75 1.25 C-11.82 0.23 -6.01 0.03 0 0 Z " fill="#ED7D1B" transform="translate(277.75,115.75)"/>
<path d="M0 0 C1.05 -0 2.11 -0 3.19 -0.01 C6.66 -0.01 10.12 -0.01 13.59 -0 C16.01 -0 18.43 -0.01 20.84 -0.01 C25.9 -0.01 30.96 -0.01 36.02 -0 C42.5 0 48.98 0 55.46 -0 C60.45 -0.01 65.44 -0.01 70.43 -0 C72.82 -0 75.21 -0 77.6 -0.01 C80.94 -0.01 84.28 -0.01 87.62 0 C89.1 -0 89.1 -0 90.6 -0.01 C103.67 0.03 103.67 0.03 108.31 3.13 C108.31 3.79 108.31 4.45 108.31 5.13 C107.32 5.13 106.33 5.13 105.31 5.13 C105.64 11.07 105.97 17.01 106.31 23.13 C109.68 24.81 113.51 24.7 117.22 25.03 C119.03 25.2 120.84 25.37 122.66 25.54 C125.52 25.81 128.39 26.07 131.26 26.32 C134.02 26.57 136.77 26.83 139.53 27.09 C140.83 27.21 140.83 27.21 142.15 27.32 C144.21 27.52 146.26 27.81 148.31 28.13 C148.64 28.79 148.97 29.45 149.31 30.13 C151.63 30.53 153.97 30.86 156.31 31.13 C157.98 31.45 159.65 31.78 161.31 32.13 C161.31 32.79 161.31 33.45 161.31 34.13 C162.26 34.42 163.21 34.71 164.19 35 C167.31 36.13 167.31 36.13 169.31 38.13 C169.64 40.44 169.97 42.75 170.31 45.13 C164.37 45.13 158.43 45.13 152.31 45.13 C151.98 44.47 151.65 43.81 151.31 43.13 C152.63 41.48 153.95 39.83 155.31 38.13 C154.68 38.14 154.05 38.15 153.39 38.16 C139.3 38.36 125.3 38.13 111.23 37.41 C88.8 36.27 66.39 35.84 43.94 35.82 C43.16 35.82 42.39 35.82 41.59 35.81 C5.12 35.79 -31.27 37.31 -67.69 39.13 C-67.03 40.78 -66.37 42.43 -65.69 44.13 C-69.3 45.26 -72.67 45.23 -76.44 45.19 C-77.61 45.18 -78.78 45.17 -79.99 45.16 C-80.88 45.15 -81.77 45.14 -82.69 45.13 C-83.95 41.35 -83.11 39.77 -81.69 36.13 C-78.67 33.11 -75.64 31.57 -71.56 30.38 C-70.7 30.12 -69.83 29.85 -68.93 29.58 C-66.69 29.13 -66.69 29.13 -64.69 30.13 C-64.69 29.47 -64.69 28.81 -64.69 28.13 C-65.35 27.8 -66.01 27.47 -66.69 27.13 C-65.7 27.13 -64.71 27.13 -63.69 27.13 C-63.36 27.79 -63.03 28.45 -62.69 29.13 C-62.13 29.01 -61.57 28.89 -60.99 28.76 C-54.57 27.48 -48.13 26.67 -41.63 26 C-40.8 25.92 -39.98 25.83 -39.12 25.74 C-33.3 25.17 -27.54 25.03 -21.69 25.13 C-21.36 24.47 -21.03 23.81 -20.69 23.13 C-20.03 23.46 -19.37 23.79 -18.69 24.13 C-18.7 22.93 -18.71 21.72 -18.72 20.48 C-18.73 18.91 -18.74 17.33 -18.75 15.75 C-18.76 14.96 -18.77 14.17 -18.78 13.35 C-18.8 7.36 -18.8 7.36 -17.69 5.13 C-20.33 5.13 -22.97 5.13 -25.69 5.13 C-25.69 4.8 -25.69 4.47 -25.69 4.13 C-24.56 3.82 -23.42 3.51 -22.25 3.19 C-18.9 2.5 -18.9 2.5 -17.69 1.13 C-11.79 -0 -5.99 -0.01 0 0 Z " fill="#ED7C19" transform="translate(332.689453125,51.87060546875)"/>
<path d="M0 0 C0.33 0 0.66 0 1 0 C1.92 6.99 2.13 13.81 2.1 20.85 C2.1 22.01 2.09 23.16 2.09 24.35 C2.09 26.85 2.08 29.35 2.08 31.84 C2.06 35.83 2.06 39.81 2.05 43.79 C2.04 52.99 2.02 62.19 1.99 71.39 C1.97 79.77 1.96 88.16 1.95 96.55 C1.94 101.09 1.93 105.64 1.91 110.19 C1.9 117.46 1.94 124.73 2 132 C2.01 133.34 2.01 134.69 2.02 136.03 C2.04 140.05 2.12 144.07 2.19 148.09 C2.2 149.94 2.2 149.94 2.21 151.83 C2.24 152.98 2.27 154.12 2.3 155.3 C2.31 156.31 2.33 157.31 2.34 158.35 C3.24 161.97 4.92 163.01 8 165 C8.99 165.33 9.98 165.66 11 166 C12.54 167.82 12.54 167.82 14.06 170.12 C14.57 170.87 15.08 171.62 15.6 172.38 C19.66 179.97 19.29 187.53 19.26 195.94 C19.26 197.38 19.27 198.82 19.27 200.25 C19.28 204.21 19.28 208.17 19.28 212.12 C19.27 216.43 19.28 220.73 19.29 225.03 C19.3 232.57 19.31 240.11 19.31 247.65 C19.3 258.87 19.32 270.09 19.33 281.3 C19.35 303.66 19.36 326.03 19.37 348.39 C19.37 349.55 19.37 350.71 19.37 351.9 C19.37 353.64 19.37 353.64 19.37 355.42 C19.37 368.28 19.38 381.13 19.38 393.99 C19.4 432.82 19.42 471.64 19.42 510.47 C19.42 511.71 19.42 512.95 19.42 514.23 C19.42 519.27 19.42 524.3 19.42 529.33 C19.42 533.12 19.43 536.91 19.43 540.7 C19.43 541.95 19.43 543.2 19.43 544.49 C19.43 583.84 19.45 623.18 19.49 662.52 C19.53 706.7 19.55 750.89 19.55 795.07 C19.55 799.78 19.55 804.5 19.55 809.21 C19.55 810.37 19.55 811.53 19.55 812.72 C19.55 831.4 19.57 850.07 19.59 868.75 C19.62 887.51 19.62 906.28 19.61 925.04 C19.6 936.19 19.6 947.34 19.63 958.5 C19.65 965.94 19.64 973.39 19.63 980.84 C19.62 985.09 19.62 989.33 19.64 993.57 C19.65 997.44 19.65 1001.31 19.63 1005.17 C19.62 1007.21 19.64 1009.24 19.66 1011.28 C19.55 1023.08 15.8 1033.13 9.44 1043 C8.8 1044 8.8 1044 8.15 1045.02 C-1.32 1059.37 -13.83 1070.13 -29.13 1077.96 C-31.24 1079.14 -33.1 1080.52 -35 1082 C-36.32 1080.35 -37.64 1078.7 -39 1077 C-38.41 1076.82 -37.82 1076.64 -37.21 1076.45 C-32.76 1075.03 -28.96 1073.52 -25 1071 C-24.34 1071 -23.68 1071 -23 1071 C-22.67 1070.34 -22.34 1069.68 -22 1069 C-20.02 1067.95 -18.03 1066.95 -16 1066 C-16 1065.34 -16 1064.68 -16 1064 C-14.39 1063.41 -14.39 1063.41 -12.75 1062.81 C-9.06 1061.23 -7.35 1059.29 -5 1056 C-4.25 1055.31 -3.51 1054.61 -2.74 1053.9 C0.71 1050.25 3.12 1046.3 5.69 1042 C6.17 1041.21 6.66 1040.41 7.16 1039.59 C9.44 1035.81 11.49 1032.17 13 1028 C13.34 1027.42 13.68 1026.83 14.03 1026.23 C15.26 1023.39 15.25 1021.19 15.25 1018.09 C15.26 1016.87 15.26 1015.65 15.27 1014.4 C15.26 1013.04 15.26 1011.68 15.25 1010.32 C15.25 1008.88 15.26 1007.43 15.26 1005.99 C15.27 1002 15.26 998 15.26 994.01 C15.25 989.68 15.26 985.34 15.26 981.01 C15.27 973.4 15.27 965.8 15.27 958.19 C15.26 946.89 15.26 935.58 15.27 924.27 C15.28 904.08 15.28 883.89 15.27 863.69 C15.27 846.02 15.27 828.35 15.27 810.68 C15.27 809.51 15.27 808.34 15.27 807.14 C15.27 802.38 15.27 797.63 15.27 792.88 C15.28 748.28 15.27 703.68 15.26 659.07 C15.25 619.42 15.25 579.76 15.26 540.1 C15.27 495.59 15.28 451.07 15.27 406.55 C15.27 401.8 15.27 397.06 15.27 392.32 C15.27 391.15 15.27 389.98 15.27 388.78 C15.26 371.12 15.27 353.45 15.27 335.79 C15.28 315.71 15.28 295.64 15.27 275.56 C15.26 264.32 15.26 253.07 15.27 241.82 C15.27 234.32 15.27 226.82 15.26 219.32 C15.26 215.04 15.25 210.76 15.26 206.48 C15.27 202.59 15.26 198.7 15.25 194.81 C15.25 193.41 15.25 192 15.26 190.6 C15.27 188.7 15.26 186.81 15.25 184.91 C15.25 183.86 15.25 182.8 15.25 181.72 C14.93 178.21 14.04 176 11.5 173.56 C9.6 171.58 8.9 169.56 8 167 C5.36 167 2.72 167 0 167 C-0.73 162.42 -1.13 158.03 -1.13 153.4 C-1.13 152.11 -1.13 150.82 -1.14 149.5 C-1.13 148.09 -1.13 146.68 -1.13 145.27 C-1.13 143.77 -1.13 142.28 -1.13 140.78 C-1.14 136.73 -1.14 132.68 -1.13 128.63 C-1.13 124.38 -1.13 120.13 -1.14 115.88 C-1.14 108.75 -1.14 101.62 -1.13 94.49 C-1.12 86.25 -1.13 78.02 -1.13 69.78 C-1.14 62.7 -1.14 55.62 -1.13 48.54 C-1.13 44.31 -1.13 40.09 -1.14 35.86 C-1.14 31.89 -1.14 27.92 -1.13 23.94 C-1.13 22.49 -1.13 21.03 -1.13 19.58 C-1.14 17.59 -1.13 15.59 -1.13 13.6 C-1.13 12.49 -1.13 11.38 -1.13 10.23 C-0.99 6.77 -0.55 3.42 0 0 Z " fill="#000000" transform="translate(517,145)"/>
<path d="M0 0 C0.66 0 1.32 0 2 0 C2.09 3.86 1.8 7.24 1 11 C-0.82 19.9 -1 27.71 -1 37 C102.95 37.5 102.95 37.5 209 38 C208.41 26.44 208.41 26.44 206.4 15.54 C205.8 11.74 206 7.85 206 4 C214.91 4 223.82 4 233 4 C233 4.66 233 5.32 233 6 C236.63 6 240.26 6 244 6 C243.88 11.09 243.76 16.18 243.63 21.27 C243.58 23 243.54 24.74 243.5 26.47 C243.45 28.96 243.38 31.44 243.32 33.93 C243.3 34.71 243.28 35.48 243.27 36.28 C243.11 41.77 243.11 41.77 242 44 C206.98 43.9 171.97 43.79 136.95 43.67 C132.82 43.66 128.69 43.64 124.56 43.63 C123.74 43.62 122.92 43.62 122.07 43.62 C108.74 43.58 95.41 43.53 82.08 43.5 C68.41 43.45 54.75 43.41 41.08 43.36 C32.64 43.33 24.2 43.31 15.76 43.28 C9.98 43.27 4.2 43.25 -1.58 43.23 C-4.92 43.21 -8.26 43.2 -11.6 43.2 C-15.21 43.19 -18.83 43.17 -22.44 43.16 C-23.51 43.16 -24.57 43.16 -25.67 43.16 C-26.63 43.15 -27.59 43.14 -28.58 43.14 C-29.42 43.14 -30.25 43.13 -31.11 43.13 C-33 43 -33 43 -34 42 C-34.09 39.33 -34.12 36.69 -34.1 34.03 C-34.1 33.23 -34.09 32.43 -34.09 31.61 C-34.09 29.05 -34.08 26.5 -34.06 23.94 C-34.06 22.21 -34.05 20.48 -34.05 18.75 C-34.04 14.5 -34.02 10.25 -34 6 C-29.3 4.5 -25.39 3.76 -20.41 3.8 C-18.62 3.81 -18.62 3.81 -16.79 3.82 C-15.56 3.84 -14.33 3.86 -13.06 3.88 C-11.18 3.89 -11.18 3.89 -9.26 3.9 C-6.17 3.93 -3.09 3.96 0 4 C0 2.68 0 1.36 0 0 Z " fill="#95918B" transform="translate(272,268)"/>
<path d="M0 0 C0.33 0 0.66 0 1 0 C1.13 20.79 1.26 41.58 1.39 62.38 C1.45 72.03 1.51 81.68 1.57 91.34 C1.63 99.75 1.68 108.17 1.73 116.58 C1.76 121.03 1.79 125.49 1.81 129.95 C1.84 134.14 1.87 138.33 1.89 142.52 C1.9 144.06 1.91 145.6 1.92 147.14 C1.94 149.24 1.95 151.34 1.96 153.44 C1.97 154.62 1.98 155.8 1.98 157.01 C2 159.34 2 161.67 2 164 C1.23 164.23 0.46 164.47 -0.33 164.71 C-4.48 166.72 -5.31 169.6 -7.02 173.73 C-8.78 179.6 -8.68 185.42 -8.62 191.48 C-8.63 192.93 -8.63 194.38 -8.64 195.82 C-8.66 199.79 -8.64 203.75 -8.62 207.72 C-8.61 212.04 -8.62 216.36 -8.63 220.67 C-8.65 228.24 -8.64 235.8 -8.62 243.37 C-8.6 254.62 -8.6 265.86 -8.61 277.11 C-8.62 296.04 -8.61 314.96 -8.59 333.88 C-8.57 352.63 -8.55 371.37 -8.55 390.11 C-8.55 391.27 -8.55 392.44 -8.55 393.64 C-8.55 398.37 -8.55 403.1 -8.55 407.83 C-8.55 452.22 -8.52 496.6 -8.48 540.99 C-8.45 580.44 -8.43 619.89 -8.43 659.33 C-8.43 660.59 -8.43 661.84 -8.43 663.14 C-8.42 666.93 -8.42 670.73 -8.42 674.52 C-8.42 679.56 -8.42 684.6 -8.42 689.65 C-8.42 690.89 -8.42 692.13 -8.42 693.41 C-8.42 732.26 -8.4 771.1 -8.38 809.95 C-8.38 822.84 -8.37 835.74 -8.37 848.63 C-8.37 850.37 -8.37 850.37 -8.37 852.15 C-8.37 853.31 -8.37 854.47 -8.37 855.66 C-8.36 877.97 -8.35 900.27 -8.32 922.58 C-8.31 933.76 -8.31 944.94 -8.31 956.12 C-8.31 963.59 -8.3 971.05 -8.29 978.51 C-8.28 982.77 -8.27 987.03 -8.28 991.28 C-8.28 995.15 -8.28 999.02 -8.26 1002.89 C-8.26 1004.29 -8.26 1005.68 -8.27 1007.07 C-8.3 1018.03 -7.18 1025.79 -0.94 1035.06 C1.15 1038.22 3 1041.14 3 1045 C3.99 1045 4.98 1045 6 1045 C6.6 1046.09 7.2 1047.19 7.81 1048.31 C14.12 1058.94 26.92 1065.46 37.5 1071.12 C43.71 1074.46 43.71 1074.46 46 1076 C46 1076.66 46 1077.32 46 1078 C44.35 1078.66 42.7 1079.32 41 1080 C40.33 1079.44 39.67 1078.87 38.98 1078.29 C36.19 1076.15 33.39 1074.35 30.38 1072.55 C22.86 1068.04 16.18 1063.28 10 1057 C9.39 1056.39 8.78 1055.78 8.16 1055.15 C-1.29 1045.04 -12.12 1029.42 -12.13 1015.24 C-12.13 1014.02 -12.14 1012.81 -12.14 1011.56 C-12.14 1010.21 -12.14 1008.85 -12.14 1007.5 C-12.14 1006.06 -12.15 1004.62 -12.15 1003.19 C-12.16 999.21 -12.16 995.23 -12.16 991.25 C-12.16 986.94 -12.17 982.62 -12.18 978.3 C-12.19 969.73 -12.2 961.15 -12.2 952.58 C-12.21 942.31 -12.22 932.05 -12.23 921.78 C-12.27 895.78 -12.29 869.79 -12.3 843.79 C-12.31 836.75 -12.31 829.71 -12.32 822.67 C-12.35 778.99 -12.38 735.31 -12.39 691.63 C-12.4 681.51 -12.4 671.39 -12.41 661.26 C-12.41 660.01 -12.41 658.75 -12.41 657.45 C-12.42 616.67 -12.46 575.89 -12.51 535.1 C-12.56 493.19 -12.6 451.28 -12.6 409.37 C-12.61 403.45 -12.61 397.53 -12.61 391.61 C-12.61 390.45 -12.61 389.28 -12.61 388.08 C-12.61 369.32 -12.64 350.57 -12.67 331.81 C-12.7 312.96 -12.71 294.11 -12.7 275.26 C-12.69 264.06 -12.7 252.86 -12.74 241.66 C-12.76 234.17 -12.76 226.69 -12.74 219.21 C-12.73 214.95 -12.73 210.68 -12.75 206.42 C-12.78 202.54 -12.77 198.65 -12.75 194.77 C-12.74 193.38 -12.75 191.99 -12.77 190.6 C-12.9 178.52 -9.58 170.32 -2 161 C-0.6 158.19 -0.86 155.86 -0.84 152.72 C-0.84 152.07 -0.83 151.42 -0.83 150.75 C-0.81 148.56 -0.8 146.37 -0.79 144.18 C-0.79 142.61 -0.78 141.04 -0.76 139.48 C-0.74 135.21 -0.72 130.95 -0.7 126.69 C-0.67 122.24 -0.65 117.79 -0.62 113.34 C-0.57 104.91 -0.53 96.47 -0.48 88.04 C-0.43 78.44 -0.38 68.84 -0.32 59.24 C-0.21 39.5 -0.1 19.75 0 0 Z " fill="#000000" transform="translate(234,147)"/>
<path d="M0 0 C8.91 0 17.82 0 27 0 C27 0.66 27 1.32 27 2 C30.63 2 34.26 2 38 2 C37.89 6.48 37.76 10.96 37.62 15.44 C37.59 16.7 37.56 17.96 37.53 19.26 C37.32 26.11 36.77 32.37 35 39 C31.03 38.74 27.06 38.47 23.09 38.2 C21.74 38.11 20.39 38.02 19.04 37.93 C17.1 37.8 15.16 37.67 13.22 37.54 C12.05 37.46 10.89 37.38 9.68 37.3 C7 37 7 37 6 36 C5.96 34 5.96 32 6 30 C5.01 29.67 4.02 29.34 3 29 C0 9.57 0 9.57 0 0 Z " fill="#94908A" transform="translate(478,272)"/>
<path d="M0 0 C-0.33 6.27 -0.66 12.54 -1 19 C-8.68 20.28 -16.31 21.27 -24.06 22 C-31.44 22.7 -38.72 23.61 -46 25 C-46 24.01 -46 23.02 -46 22 C-46.33 22.99 -46.66 23.98 -47 25 C-48.32 24.67 -49.64 24.34 -51 24 C-51.33 24.66 -51.66 25.32 -52 26 C-52.66 25.67 -53.32 25.34 -54 25 C-54.33 25.66 -54.66 26.32 -55 27 C-56.49 27.46 -56.49 27.46 -58 27.94 C-58.99 28.29 -59.98 28.64 -61 29 C-61.33 29.99 -61.66 30.98 -62 32 C-62.99 32.5 -62.99 32.5 -64 33 C-64.66 36.03 -64.66 36.03 -65 39 C-64.11 39.05 -63.22 39.1 -62.3 39.15 C-61.13 39.22 -59.96 39.3 -58.75 39.38 C-57.59 39.44 -56.43 39.51 -55.23 39.59 C-52.29 39.96 -50.5 40.48 -48 42 C-48 42.33 -48 42.66 -48 43 C-54.27 43 -60.54 43 -67 43 C-71.01 34.98 -70.11 25.17 -70.25 16.31 C-70.28 15.13 -70.28 15.13 -70.31 13.92 C-70.33 11.68 -70.33 11.68 -70 8 C-69.01 7.34 -68.02 6.68 -67 6 C-65.08 10.98 -64.45 15.73 -64 21 C-58.17 21 -53.22 19.89 -47.89 17.62 C-46 17 -46 17 -42 17 C-42 16.34 -42 15.68 -42 15 C-41.47 14.83 -40.93 14.66 -40.38 14.48 C-33.05 12.1 -25.9 9.54 -19.05 5.96 C-18.01 5.42 -18.01 5.42 -16.94 4.86 C-15.55 4.14 -14.17 3.4 -12.8 2.64 C-12.15 2.3 -11.5 1.96 -10.83 1.61 C-10.26 1.3 -9.69 0.99 -9.1 0.67 C-7 0 -7 0 0 0 Z " fill="#979088" transform="translate(315,57)"/>
<path d="M0 0 C0.84 -0.01 1.69 -0.01 2.55 -0.02 C5.34 -0.04 8.13 -0.04 10.92 -0.03 C12.86 -0.03 14.79 -0.04 16.73 -0.05 C20.79 -0.05 24.85 -0.05 28.91 -0.04 C34.12 -0.03 39.33 -0.05 44.53 -0.08 C48.53 -0.1 52.53 -0.1 56.53 -0.09 C58.45 -0.09 60.37 -0.1 62.29 -0.11 C64.98 -0.13 67.66 -0.11 70.34 -0.1 C71.14 -0.11 71.93 -0.12 72.75 -0.13 C76.33 -0.08 78.33 0.09 81.2 2.31 C82.65 4.29 83.64 6.22 84.74 8.4 C85.73 8.4 86.72 8.4 87.74 8.4 C87.74 9.06 87.74 9.72 87.74 10.4 C88.4 10.4 89.06 10.4 89.74 10.4 C90.07 13.04 90.4 15.68 90.74 18.4 C106.58 18.4 122.42 18.4 138.74 18.4 C137.74 20.4 137.74 20.4 135.2 21.51 C131.18 22.55 127.39 22.71 123.27 22.7 C122.07 22.71 122.07 22.71 120.85 22.72 C119.17 22.72 117.49 22.72 115.81 22.72 C113.24 22.72 110.68 22.74 108.12 22.77 C106.48 22.77 104.84 22.77 103.21 22.77 C102.45 22.78 101.69 22.79 100.9 22.8 C96.1 22.75 92.81 21.96 88.74 19.4 C86.8 17.03 86.8 17.03 85.17 14.4 C82.47 10.05 79.98 7.48 75.03 5.84 C71.84 5.24 68.77 5.25 65.52 5.23 C64.45 5.22 64.45 5.22 63.35 5.21 C60.97 5.19 58.6 5.18 56.22 5.17 C55 5.16 55 5.16 53.75 5.15 C49.45 5.13 45.14 5.12 40.83 5.11 C36.39 5.1 31.96 5.06 27.52 5.02 C24.1 5 20.68 4.99 17.25 4.99 C15.62 4.98 13.98 4.97 12.35 4.95 C0.45 4.69 0.45 4.69 -10.26 9.4 C-12.31 11.33 -12.31 11.33 -13.64 13.47 C-14.1 14.14 -14.56 14.81 -15.04 15.5 C-15.44 16.13 -15.85 16.76 -16.26 17.4 C-18.57 20.87 -19.35 21.29 -23.26 22.4 C-26.16 22.6 -28.96 22.71 -31.85 22.7 C-32.68 22.71 -33.5 22.71 -34.34 22.72 C-36.08 22.72 -37.81 22.72 -39.55 22.72 C-42.19 22.72 -44.83 22.74 -47.47 22.77 C-49.16 22.77 -50.85 22.77 -52.54 22.77 C-53.72 22.78 -53.72 22.78 -54.92 22.8 C-59.78 22.75 -63 21.97 -67.26 19.4 C-64.36 18.57 -61.79 18.28 -58.77 18.29 C-57.45 18.29 -57.45 18.29 -56.1 18.29 C-55.16 18.3 -54.22 18.3 -53.25 18.31 C-51.79 18.31 -51.79 18.31 -50.31 18.31 C-47.21 18.32 -44.11 18.33 -41.01 18.34 C-38.91 18.35 -36.81 18.35 -34.71 18.36 C-29.56 18.37 -24.41 18.38 -19.26 18.4 C-19.28 17.63 -19.3 16.85 -19.31 16.04 C-19.26 13.19 -18.86 11.76 -17.26 9.4 C-16.27 9.07 -15.28 8.74 -14.26 8.4 C-13.23 6.76 -12.23 5.09 -11.26 3.4 C-8.56 -0.71 -4.44 -0.03 0 0 Z " fill="#000000" transform="translate(343.263427734375,1209.595947265625)"/>
<path d="M0 0 C9.07 -0.14 15.11 3.43 22.81 7.71 C28.03 10.61 33.45 12.84 39 15 C39.95 15.39 40.91 15.78 41.89 16.19 C46.31 18.21 46.31 18.21 51 19 C51 19.66 51 20.32 51 21 C54.31 21.85 54.31 21.85 58 22 C62.03 19.31 63.32 15.38 65 11 C65.33 11 65.66 11 66 11 C66 20.24 66 29.48 66 39 C64 36 64 36 63.09 33.94 C60.1 28.63 51.78 27.18 46.3 25.61 C45.54 25.41 44.78 25.21 44 25 C43.37 24.83 42.74 24.66 42.09 24.49 C38.65 23.68 35.13 23.44 31.62 23.1 C29.96 22.93 28.3 22.76 26.64 22.59 C24.03 22.32 21.42 22.06 18.81 21.8 C16.29 21.56 13.77 21.3 11.25 21.04 C10.46 20.96 9.68 20.89 8.88 20.81 C5.21 20.42 3.13 20.08 0 18 C-0.34 16.12 -0.34 16.12 -0.29 13.87 C-0.28 13.06 -0.27 12.26 -0.26 11.43 C-0.24 10.58 -0.21 9.74 -0.19 8.88 C-0.17 8.03 -0.16 7.18 -0.15 6.3 C-0.11 4.2 -0.06 2.1 0 0 Z " fill="#979087" transform="translate(438,57)"/>
<path d="M0 0 C0.33 0 0.66 0 1 0 C1.33 1.98 1.66 3.96 2 6 C2.78 6.06 3.55 6.11 4.35 6.17 C7.86 6.42 11.37 6.68 14.88 6.94 C16.1 7.02 17.32 7.11 18.58 7.2 C19.75 7.29 20.92 7.38 22.12 7.46 C23.74 7.58 23.74 7.58 25.39 7.7 C28 8 28 8 30 9 C30 8.01 30 7.02 30 6 C30.66 6 31.32 6 32 6 C31.67 7.32 31.34 8.64 31 10 C-59.75 9.67 -150.5 9.34 -244 9 C-244 8.01 -244 7.02 -244 6 C-242.81 6.03 -241.62 6.06 -240.39 6.09 C-198.09 7.11 -155.79 7.16 -113.48 7.13 C-105.94 7.12 -98.39 7.13 -90.85 7.13 C-83.44 7.14 -76.04 7.14 -68.63 7.13 C-64.26 7.13 -59.89 7.13 -55.52 7.14 C-37.33 7.15 -19.18 7.04 -1 6 C-0.67 4.02 -0.34 2.04 0 0 Z " fill="#5B4E43" transform="translate(483,302)"/>
<path d="M0 0 C0.33 0 0.66 0 1 0 C1 9.24 1 18.48 1 28 C-1 25 -1 25 -1.88 22.95 C-3.26 20.54 -4.43 19.99 -6.94 18.88 C-9.52 17.71 -11.62 16.59 -14 15 C-13.34 15 -12.68 15 -12 15 C-11.77 14.36 -11.55 13.72 -11.31 13.06 C-10.88 12.38 -10.45 11.7 -10 11 C-8.33 10.67 -6.67 10.33 -5 10 C-3.77 8.29 -3.77 8.29 -3 6 C-2 4 -1 2 0 0 Z " fill="#7A756E" transform="translate(503,68)"/>
<path d="M0 0 C2.23 4.47 3.12 7.04 3.06 12.12 C3.05 13.22 3.04 14.32 3.04 15.45 C3.02 16.29 3.01 17.13 3 18 C2.34 17.34 1.68 16.68 1 16 C1 18.97 1 21.94 1 25 C1.33 25 1.66 25 2 25 C2.33 27.64 2.66 30.28 3 33 C3.89 33.05 4.78 33.1 5.7 33.15 C6.87 33.22 8.04 33.3 9.25 33.38 C10.41 33.44 11.57 33.51 12.77 33.59 C15.71 33.96 17.5 34.48 20 36 C20 36.33 20 36.66 20 37 C13.73 37 7.46 37 1 37 C-3.02 28.96 -2.1 19.18 -2.19 10.31 C-2.2 9.52 -2.21 8.73 -2.23 7.92 C-2.23 5.94 -2.12 3.97 -2 2 C-1.34 1.34 -0.68 0.68 0 0 Z " fill="#47423C" transform="translate(247,63)"/>
<path d="M0 0 C-0.33 1.32 -0.66 2.64 -1 4 C-2.32 3.67 -3.64 3.34 -5 3 C-5.33 3.66 -5.66 4.32 -6 5 C-6.66 4.67 -7.32 4.34 -8 4 C-8.33 4.66 -8.66 5.32 -9 6 C-9.99 6.31 -10.98 6.62 -12 6.94 C-12.99 7.29 -13.98 7.64 -15 8 C-15.33 8.99 -15.66 9.98 -16 11 C-16.99 11.5 -16.99 11.5 -18 12 C-19.13 14.02 -19.13 14.02 -20 16 C-20.66 15.67 -21.32 15.34 -22 15 C-22 9.72 -22 4.44 -22 -1 C-21.34 -0.34 -20.68 0.32 -20 1 C-17.69 0.71 -17.69 0.71 -15 0 C-13.8 -0.17 -12.61 -0.33 -11.38 -0.5 C-3.6 -1.65 -3.6 -1.65 0 0 Z " fill="#9E9A94" transform="translate(269,78)"/>
<path d="M0 0 C0.99 0.33 1.98 0.66 3 1 C3 12.22 3 23.44 3 35 C2.01 34.67 1.02 34.34 0 34 C0 22.78 0 11.56 0 0 Z " fill="#C3C2B9" transform="translate(235,273)"/>
<path d="M0 0 C0.33 0 0.66 0 1 0 C1.33 1.98 1.66 3.96 2 6 C3.17 6.08 3.17 6.08 4.35 6.17 C7.86 6.42 11.37 6.68 14.88 6.94 C16.1 7.02 17.32 7.11 18.58 7.2 C19.75 7.29 20.92 7.38 22.12 7.46 C23.74 7.58 23.74 7.58 25.39 7.7 C28 8 28 8 30 9 C30 8.01 30 7.02 30 6 C30.66 6 31.32 6 32 6 C31.67 7.32 31.34 8.64 31 10 C20.31 10.2 9.67 9.59 -1 9 C-0.67 6.03 -0.34 3.06 0 0 Z " fill="#50443A" transform="translate(483,302)"/>
<path d="M0 0 C0.66 0 1.32 0 2 0 C2 1.98 2 3.96 2 6 C-7.57 6 -17.14 6 -27 6 C-27 5.34 -27 4.68 -27 4 C-18.09 4 -9.18 4 0 4 C0 2.68 0 1.36 0 0 Z " fill="#7B7269" transform="translate(272,268)"/>
<path d="M0 0 C0.66 0 1.32 0 2 0 C2.51 4.02 3 8.04 3.5 12.06 C3.64 13.2 3.79 14.33 3.93 15.5 C4.61 21.04 5.19 26.42 5 32 C4.67 32 4.34 32 4 32 C4 30.02 4 28.04 4 26 C3.34 26 2.68 26 2 26 C1.66 23.17 1.33 20.33 1 17.5 C0.9 16.71 0.81 15.92 0.71 15.1 C0.13 10.03 -0.09 5.11 0 0 Z " fill="#955F31" transform="translate(461,121)"/>
<path d="M0 0 C0.33 0 0.66 0 1 0 C1.33 2.64 1.66 5.28 2 8 C2.89 8.05 3.78 8.1 4.7 8.15 C5.87 8.22 7.04 8.3 8.25 8.38 C9.41 8.44 10.57 8.51 11.77 8.59 C14.71 8.96 16.5 9.48 19 11 C19 11.33 19 11.66 19 12 C12.73 12 6.46 12 0 12 C-1.12 4.12 -1.12 4.12 0 0 Z " fill="#8A7562" transform="translate(248,88)"/>
<path d="M0 0 C0.06 0.62 0.12 1.25 0.18 1.89 C0.81 4.23 0.81 4.23 3.29 5.05 C4.66 5.39 4.66 5.39 6.06 5.75 C6.98 5.99 7.9 6.23 8.85 6.48 C9.56 6.65 10.27 6.82 11 7 C10.01 7.5 10.01 7.5 9 8 C9 8.66 9 9.32 9 10 C7.36 10.22 7.36 10.22 5.69 10.44 C2.07 10.88 2.07 10.88 -1 12 C-1.14 3.43 -1.14 3.43 0 0 Z " fill="#B3B2A7" transform="translate(247,94)"/>
<path d="M0 0 C0.33 0 0.66 0 1 0 C1 3.63 1 7.26 1 11 C0.01 11.33 -0.98 11.66 -2 12 C-2.99 11.01 -3.98 10.02 -5 9 C-4.34 8.34 -3.68 7.68 -3 7 C-1.96 4.68 -0.96 2.35 0 0 Z " fill="#9F9589" transform="translate(503,68)"/>
<path d="M0 0 C2.38 4.76 3.1 7.55 3 13 C2.01 13 1.02 13 0 13 C-1.3 8.39 -0.71 4.66 0 0 Z " fill="#CAC8C3" transform="translate(247,63)"/>
<path d="M0 0 C1.95 -0.29 1.95 -0.29 4.12 -0.19 C5.4 -0.13 6.68 -0.06 8 0 C8.33 0.99 8.66 1.98 9 3 C5.37 3 1.74 3 -2 3 C-1.34 2.01 -0.68 1.02 0 0 Z " fill="#A8A89D" transform="translate(471,1223)"/>
<path d="M0 0 C0.99 0 1.98 0 3 0 C2.34 2.97 1.68 5.94 1 9 C0.34 9 -0.32 9 -1 9 C-1.81 6.09 -2.22 4.54 -1.06 1.69 C-0.71 1.13 -0.36 0.57 0 0 Z " fill="#B9B9AF" transform="translate(228,317)"/>
<path d="M0 0 C0.99 0.66 1.98 1.32 3 2 C2.38 3.94 2.38 3.94 1 6 C-2.12 6.75 -2.12 6.75 -5 7 C-3.35 4.69 -1.7 2.38 0 0 Z " fill="#060505" transform="translate(234,306)"/>
<path d="M0 0 C4.25 0.47 6.27 2.89 9 6 C9 6.66 9 7.32 9 8 C7.35 7.67 5.7 7.34 4 7 C3.57 5.55 3.57 5.55 3.12 4.06 C2.36 0.89 2.36 0.89 0 0 Z " fill="#C5C4BB" transform="translate(422,1210)"/>
<path d="M0 0 C-1.56 3.82 -4.04 6.19 -7 9 C-7.99 8.67 -8.98 8.34 -10 8 C-8.71 6.66 -7.42 5.33 -6.12 4 C-5.05 2.89 -5.05 2.89 -3.95 1.75 C-2 0 -2 0 0 0 Z " fill="#C5C4BB" transform="translate(514,1197)"/>
<path d="M0 0 C0.33 0 0.66 0 1 0 C1 3.3 1 6.6 1 10 C0.67 10 0.34 10 0 10 C0 6.7 0 3.4 0 0 Z " fill="#000000" transform="translate(506,85)"/>
<path d="M0 0 C1 4 1 4 1 4 Z " fill="#000000" transform="translate(507,68)"/>
<path d="M0 0 C0.66 0 1.32 0 2 0 C1.67 0.66 1.34 1.32 1 2 C0.67 1.34 0.34 0.68 0 0 Z " fill="#000000" transform="translate(503,127)"/>
<path d="" fill="#FDFDFD" transform="translate(0,0)"/>
<path d="" fill="#000000" transform="translate(0,0)"/>
<path d="" fill="#000000" transform="translate(0,0)"/>
<path d="" fill="#000000" transform="translate(0,0)"/>
<path d="" fill="#000000" transform="translate(0,0)"/>
<path d="" fill="#000000" transform="translate(0,0)"/>
</svg>
